<svg viewBox="0 0 38 54" fill="none" xmlns="http://www.w3.org/2000/svg">
<path d="M19.1216 0.320312C18.8452 0.320312 18.5642 0.415468 18.3422 0.614843L15.0117 3.58734L10.6481 2.62219C10.0681 2.49531 9.4836 2.82156 9.29782 3.38797L7.89766 7.62922L3.64281 8.975C3.07188 9.15172 2.73203 9.73172 2.84985 10.3163L3.76063 14.6889L0.742814 17.9786C0.339533 18.4227 0.335002 19.0933 0.733752 19.5373L3.70625 22.8678L2.7411 27.2314C2.60969 27.8114 2.94047 28.3959 3.50688 28.5817L7.74813 29.9819L9.08938 34.2412C9.27063 34.8077 9.85063 35.1475 10.4306 35.0297L14.8078 34.1189L18.0975 37.1367C18.3195 37.3361 18.605 37.4403 18.8859 37.4403C19.1578 37.4403 19.4342 37.3406 19.6563 37.1458L22.9867 34.1733L27.3503 35.1384C27.9303 35.2653 28.5148 34.9345 28.7006 34.3727L30.0963 30.1314L34.3556 28.7902C34.9266 28.6089 35.2664 28.0289 35.1486 27.4489L34.2378 23.0717L37.2556 19.782C37.6589 19.338 37.6634 18.6673 37.2647 18.2233L34.2922 14.8928L35.2573 10.5292C35.3888 9.94922 35.0534 9.36469 34.4916 9.17891L30.2503 7.77875L28.9045 3.51938C28.7233 2.95297 28.1478 2.61766 27.5633 2.73094L23.1906 3.64172L19.9009 0.623907C19.6789 0.424532 19.398 0.320312 19.1216 0.320312ZM18.9992 6.12031C26.0363 6.12031 31.7592 11.8433 31.7592 18.8803C31.7592 25.9173 26.0363 31.6403 18.9992 31.6403C11.9622 31.6403 6.23922 25.9173 6.23922 18.8803C6.23922 11.8433 11.9622 6.12031 18.9992 6.12031ZM18.9992 8.44031C13.24 8.44031 8.55922 13.1211 8.55922 18.8803C8.55922 24.6395 13.24 29.3203 18.9992 29.3203C24.7584 29.3203 29.4392 24.6395 29.4392 18.8803C29.4392 13.1211 24.7584 8.44031 18.9992 8.44031ZM14.1191 36.6292L10.8928 37.2998C10.6663 37.3452 10.4352 37.3678 10.2041 37.3678C9.615 37.3678 9.05313 37.2228 8.55922 36.9555V52.5203C8.55922 52.9236 8.76766 53.2952 9.1075 53.5081C9.45188 53.7211 9.87781 53.7347 10.2403 53.558L18.9992 49.1763L27.7581 53.558C27.9258 53.6395 28.1025 53.6803 28.2792 53.6803C28.4922 53.6803 28.7052 53.6214 28.8909 53.5081C29.2308 53.2952 29.4392 52.9236 29.4392 52.5203V36.9509C28.9 37.2863 28.2656 37.4856 27.595 37.4856C27.3503 37.4856 27.1011 37.4584 26.8473 37.4041L23.6438 36.6972L21.1969 38.8812C20.558 39.4477 19.7378 39.7603 18.8859 39.7603C18.0114 39.7603 17.1777 39.4386 16.5342 38.8495L14.1191 36.6292Z" fill="url(#paint0_linear_5792_13965)"/>
<defs>
<linearGradient id="paint0_linear_5792_13965" x1="0.4375" y1="27.0003" x2="37.5609" y2="27.0003" gradientUnits="userSpaceOnUse">
<stop stop-color="#C6348B"/>
<stop offset="1" stop-color="#B72E8F"/>
</linearGradient>
</defs>
</svg>
