<svg viewBox="0 0 50 50" fill="none" xmlns="http://www.w3.org/2000/svg">
<path d="M14 0C12.4087 0 10.8826 0.632141 9.75736 1.75736C8.63214 2.88258 8 4.4087 8 6C8 7.5913 8.63214 9.11742 9.75736 10.2426C10.8826 11.3679 12.4087 12 14 12C15.5913 12 17.1174 11.3679 18.2426 10.2426C19.3679 9.11742 20 7.5913 20 6C20 4.4087 19.3679 2.88258 18.2426 1.75736C17.1174 0.632141 15.5913 0 14 0V0ZM36.0996 0C34.5083 0 32.9822 0.632141 31.857 1.75736C30.7318 2.88258 30.0996 4.4087 30.0996 6C30.0996 7.5913 30.7318 9.11742 31.857 10.2426C32.9822 11.3679 34.5083 12 36.0996 12C37.6909 12 39.217 11.3679 40.3423 10.2426C41.4675 9.11742 42.0996 7.5913 42.0996 6C42.0996 4.4087 41.4675 2.88258 40.3423 1.75736C39.217 0.632141 37.6909 0 36.0996 0V0ZM10.0996 13C7.07611 13 4.56824 15.2117 4.08984 18.1016C3.11726 18.3138 2.23855 18.8474 1.54297 19.543C0.635834 20.4501 0 21.6667 0 23C0 24.9708 1.34899 26.9038 4 28.0137V32.8008C4 33.9728 5.07097 35 6.29297 35H7.97852V47.6992C7.97852 48.9462 9.02848 50 10.2715 50H17.7305C18.9735 50 20.0234 48.9462 20.0234 47.6992V35H21.707C22.949 35 24 33.9462 24 32.6992V26.3594C24.4422 26.2196 24.8594 26.1016 25.3164 25.9492C25.5536 25.87 25.767 25.812 26 25.7363V32.6992C26 33.9462 27.0538 35 28.3008 35H30V47.6992C30 48.9462 31.0538 50 32.3008 50H39.8008C41.0478 50 42.0996 48.9462 42.0996 47.6992V35H43.8008C45.0268 35 46.0996 33.9728 46.0996 32.8008V31.4961C47.1784 31.2834 48.0911 30.7323 48.7363 29.9961C49.5752 29.039 50 27.8046 50 26.5703C50 25.3313 49.4369 24.0901 48.3672 23.1465C47.2975 22.2029 45.7536 21.5265 43.7129 21.1816C39.6316 20.4918 33.5067 21.1023 24.6836 24.0508C15.7814 27.0182 9.91883 27.4145 6.45117 26.6992C2.98351 25.984 2 24.3813 2 23C2 22.3333 2.36417 21.5499 2.95703 20.957C3.2671 20.647 3.62964 20.4039 4 20.2383V23.8242C6.236 25.0412 12 26.0004 24 22.2734V19.0996C24 15.7356 21.2644 13 17.9004 13H10.0996ZM32.1289 13C28.7499 13 26 15.7356 26 19.0996V21.6348C37.077 18.1208 43.0076 18.6222 46.0996 19.8262V19.0996C46.0996 15.7356 43.3517 13 39.9727 13H32.1289ZM46.0996 24.0273C46.4685 24.2231 46.7969 24.4294 47.043 24.6465C47.7455 25.2662 48 25.9033 48 26.5703C48 27.336 47.7216 28.1196 47.2324 28.6777C46.9344 29.0177 46.5594 29.2717 46.0996 29.4277V24.0273Z" fill="url(#paint0_linear_5792_13957)"/>
<defs>
<linearGradient id="paint0_linear_5792_13957" x1="0" y1="25" x2="50" y2="25" gradientUnits="userSpaceOnUse">
<stop stop-color="#C3378A"/>
<stop offset="1" stop-color="#CC4283"/>
</linearGradient>
</defs>
</svg>
