<svg width="50" height="40" viewBox="0 0 50 40" fill="none" xmlns="http://www.w3.org/2000/svg">
<path opacity="0.05" d="M32.964 40C27.4238 40 24.6537 37.8973 24.6537 33.6918C24.6537 28.626 25.8079 23.417 28.1163 18.0645C30.5171 12.6165 33.1948 8.26762 36.1496 5.01791C39.1967 1.67264 41.5974 0 43.3518 0C45.1062 0 46.6297 0.286738 47.9224 0.860213C49.3075 1.33811 50 2.10274 50 3.15412C50 4.10991 49.4922 5.78256 48.4765 8.17204C45.4294 15.5317 43.9058 24.0382 43.9058 33.6918C43.9058 37.8973 41.1357 40 35.5956 40H32.964ZM8.31025 40C2.77008 40 0 37.8973 0 33.6918C0 28.626 1.1542 23.417 3.4626 18.0645C5.86334 12.6165 8.54109 8.26762 11.4958 5.01791C14.5429 1.67264 16.9437 0 18.6981 0C20.4524 0 21.976 0.286738 23.2687 0.860213C24.6537 1.33811 25.3463 2.10274 25.3463 3.15412C25.3463 4.10991 24.8384 5.78256 23.8227 8.17204C20.7756 15.5317 19.2521 24.0382 19.2521 33.6918C19.2521 37.8973 16.482 40 10.9418 40H8.31025Z" fill="black"/>
</svg>
