<svg width="34" height="34" viewBox="0 0 34 34" fill="none" xmlns="http://www.w3.org/2000/svg">
<rect width="34" height="34" rx="8" fill="url(#paint0_linear_4005_10339)"/>
<path d="M17 7C11.486 7 7 11.486 7 17C7 22.514 11.486 27 17 27C22.514 27 27 22.514 27 17C27 11.486 22.514 7 17 7ZM21.2805 15.2805L16.2805 20.2805C16.134 20.427 15.942 20.5 15.75 20.5C15.558 20.5 15.366 20.427 15.2195 20.2805L12.7195 17.7805C12.4265 17.4875 12.4265 17.013 12.7195 16.72C13.0125 16.427 13.487 16.427 13.78 16.72L15.7495 18.6895L20.219 14.22C20.512 13.927 20.9865 13.927 21.2795 14.22C21.5725 14.513 21.573 14.9875 21.2805 15.2805Z" fill="#FDFDFD"/>
<defs>
<linearGradient id="paint0_linear_4005_10339" x1="0" y1="0" x2="39.5" y2="39.5" gradientUnits="userSpaceOnUse">
<stop offset="0.328949" stop-color="#33C46D"/>
<stop offset="1" stop-color="#33B3C4"/>
</linearGradient>
</defs>
</svg>
