<svg fill-rule="evenodd" height="200mm" preserveAspectRatio="xMidYMid" stroke-linejoin="round" stroke-width="28.222" viewBox="0 0 20000 20000" width="200mm" xmlns="http://www.w3.org/2000/svg"><clipPath id="a"><path d="M0 0h20000v20000H0z"/></clipPath><g clip-path="url(#a)"><path d="M10358 19522c-2330 0-4460-847-6106-2256l-4052 555 1566-3862c-547-1202-851-2540-851-3946 0-5256 4228-9513 9443-9513 5214 0 9442 4257 9442 9513 0 5252-4228 9509-9442 9509m5154-9537v-28c0-2744-1938-4701-5274-4701H6629v9513h3553c3364 0 5330-2040 5330-4784m-5234 2448H9223V7593h1055c1546 0 2577 882 2577 2408v24c0 1538-1031 2408-2577 2408" fill="#2e9fff"/></g></svg>