<svg fill-rule="evenodd" height="200mm" preserveAspectRatio="xMidYMid" stroke-linejoin="round" stroke-width="28.222" viewBox="0 0 20000 20000" width="200mm" xmlns="http://www.w3.org/2000/svg"><clipPath id="a"><path d="M0 0h20000v20000H0z"/></clipPath><g clip-path="url(#a)"><path d="M17159 200H2841C1382 200 200 1382 200 2841v14318c0 1459 1182 2641 2641 2641h7061l13-7004H8095c-236 0-429-192-430-428l-8-2257c-1-238 191-432 429-432h1816V7498c0-2532 1547-3910 3805-3910h1853c237 0 429 192 429 429v1904c0 237-192 429-429 429l-1137 1c-1228 0-1466 584-1466 1440v1888h2699c257 0 457 225 426 480l-267 2259c-26 215-209 378-427 378h-2419l-12 7004h4202c1459 0 2641-1182 2641-2641V2841c0-1459-1182-2641-2641-2641" fill="#3b5998"/></g></svg>