<svg fill-rule="evenodd" height="200mm" preserveAspectRatio="xMidYMid" stroke-linejoin="round" stroke-width="28.222" viewBox="0 0 20000 20000" width="200mm" xmlns="http://www.w3.org/2000/svg"><clipPath id="a"><path d="M0 0h20000v20000H0z"/></clipPath><g clip-path="url(#a)"><path d="M200 1607c0-777 645-1407 1451-1407h16698c799 0 1451 630 1451 1407v16847c0 784-652 1407-1451 1407H1651c-806 0-1451-623-1451-1407z" fill="#0077b5"/><path d="M6152 16659V7778H3176v8881zM4657 6568c1040 0 1685-681 1685-1538-14-865-645-1532-1656-1532-1026 0-1686 667-1686 1532 0 857 645 1538 1642 1538zm3115 10091h2961v-4968c0-264 22-528 96-711 219-535 703-1085 1531-1085 1071 0 1496 814 1496 2008v4756h2961v-5100c0-2726-1459-3994-3408-3994-1606 0-2302 894-2698 1495h22V7778H7772c37 835 0 8881 0 8881" fill="#fff"/></g></svg>