<svg xmlns="http://www.w3.org/2000/svg" viewBox="194 194 812 812"><path d="M600 194c-223.9 0-406 182.1-406 406s182.1 406 406 406 406-182.1 406-406-182.1-406-406-406zM235 600c0-52.9 11.4-103.2 31.6-148.6l174.1 477.1C318.9 869.3 235 744.5 235 600zm365 365c-35.8 0-70.4-5.3-103.1-14.9l109.5-318.2 112.2 307.4c.7 1.8 1.6 3.5 2.6 5C683.3 957.7 642.5 965 600 965zm50.3-536.2c22-1.2 41.8-3.5 41.8-3.5 19.7-2.3 17.3-31.2-2.3-30.1 0 0-59.1 4.6-97.3 4.6-35.9 0-96.1-4.6-96.1-4.6-19.7-1.2-22 28.9-2.3 30.1 0 0 18.6 2.3 38.3 3.5l56.9 155.8-79.9 239.6-133-395.4c22-1.2 41.8-3.5 41.8-3.5 19.7-2.3 17.3-31.2-2.3-30.1 0 0-59.1 4.6-97.3 4.6-6.8 0-14.9-.2-23.5-.4C360.3 300.4 472.5 235 600 235c95 0 181.6 36.3 246.5 95.8-1.6-.1-3.1-.3-4.7-.3-35.9 0-61.3 31.2-61.3 64.8 0 30.1 17.4 55.5 35.9 85.6 13.9 24.3 30.1 55.5 30.1 100.7 0 31.2-12 67.5-27.8 118l-36.4 121.6zm270-3.9c28.5 52 44.7 111.7 44.7 175.1 0 134.7-73 252.2-181.5 315.5L895 593.1c20.8-52.1 27.8-93.7 27.8-130.7 0-13.4-.9-25.9-2.5-37.5z" fill="#0675c4"/></svg>