<svg xmlns="http://www.w3.org/2000/svg" xmlns:xlink="http://www.w3.org/1999/xlink" viewBox="0 0 36 34">
<style type="text/css">
	.st0{opacity:0.3;fill:#6D7B83;enable-background:new    ;}
	.st1{fill:#6D7B83;stroke:#BBC2C4;stroke-width:1.5;stroke-miterlimit:10;enable-background:new    ;}
</style>
<path class="st0" d="M5.7,0c-3,0-5.4,2.4-5.4,5.4v9.2c0,3,2.4,5.4,5.4,5.4h10.4c0.4-0.9,0.9-1.7,1.5-2.5H5.7c-1.6,0-2.9-1.3-2.9-2.9
	V5.4c0-1.6,1.3-2.9,2.9-2.9h22.5c1.6,0,2.9,1.3,2.9,2.9v9.1c0.8,0.4,1.6,1,2.3,1.6c0.1-0.5,0.2-1,0.2-1.6V5.4c0-3-2.4-5.4-5.4-5.4
	H5.7z M9.5,8.3c-0.4,0-0.9,0.2-1.2,0.5S7.8,9.6,7.8,10c0,0.4,0.2,0.9,0.5,1.2s0.7,0.5,1.2,0.5s0.9-0.2,1.2-0.5
	c0.3-0.3,0.5-0.7,0.5-1.2c0-0.4-0.2-0.9-0.5-1.2C10.4,8.5,9.9,8.3,9.5,8.3z M17,8.3c-0.4,0-0.9,0.2-1.2,0.5
	c-0.3,0.3-0.5,0.7-0.5,1.2c0,0.4,0.2,0.9,0.5,1.2c0.3,0.3,0.7,0.5,1.2,0.5c0.4,0,0.9-0.2,1.2-0.5c0.3-0.3,0.5-0.7,0.5-1.2
	c0-0.4-0.2-0.9-0.5-1.2C17.9,8.5,17.4,8.3,17,8.3z M24.5,8.3c-0.4,0-0.9,0.2-1.2,0.5C23,9.1,22.8,9.6,22.8,10c0,0.4,0.2,0.9,0.5,1.2
	c0.3,0.3,0.7,0.5,1.2,0.5c0.4,0,0.9-0.2,1.2-0.5c0.3-0.3,0.5-0.7,0.5-1.2c0-0.4-0.2-0.9-0.5-1.2C25.4,8.5,24.9,8.3,24.5,8.3z
	 M26.2,15c-5.1,0-9.2,4.1-9.2,9.2s4.1,9.2,9.2,9.2s9.2-4.1,9.2-9.2S31.2,15,26.2,15z M26.2,20c4.3,0,6.5,3.6,6.6,3.7
	c0.2,0.3,0.2,0.6,0,0.8c-0.1,0.2-2.2,3.7-6.6,3.7s-6.5-3.6-6.6-3.7c-0.2-0.3-0.2-0.6,0-0.8C19.7,23.6,21.8,20,26.2,20z M26.2,21.7
	c-1.4,0-2.5,1.1-2.5,2.5c0,1.4,1.1,2.5,2.5,2.5c1.4,0,2.5-1.1,2.5-2.5C28.7,22.8,27.5,21.7,26.2,21.7z"/>
<line class="st1" x1="19.9" y1="15.4" x2="32.5" y2="32.6"/>
</svg>
