<svg width="34" height="34" viewBox="0 0 34 34" fill="none" xmlns="http://www.w3.org/2000/svg">
<path d="M17 0.333008C7.8101 0.333008 0.333374 7.80974 0.333374 16.9997C0.333374 26.1896 7.8101 33.6663 17 33.6663C26.19 33.6663 33.6667 26.1896 33.6667 16.9997C33.6667 7.80974 26.19 0.333008 17 0.333008ZM17 2.83301C24.8389 2.83301 31.1667 9.16083 31.1667 16.9997C31.1667 24.8385 24.8389 31.1663 17 31.1663C9.16119 31.1663 2.83337 24.8385 2.83337 16.9997C2.83337 9.16083 9.16119 2.83301 17 2.83301ZM22.4053 10.3151C22.0752 10.3229 21.7616 10.461 21.5329 10.6992L17 15.2321L12.4672 10.6992C12.3506 10.5792 12.2112 10.4838 12.0572 10.4187C11.9032 10.3536 11.7376 10.32 11.5704 10.32C11.3216 10.32 11.0785 10.3943 10.8722 10.5333C10.6659 10.6723 10.5057 10.8697 10.4122 11.1002C10.3187 11.3308 10.2961 11.5839 10.3473 11.8274C10.3985 12.0708 10.5211 12.2935 10.6996 12.4668L15.2325 16.9997L10.6996 21.5326C10.5796 21.6477 10.4838 21.7857 10.4179 21.9384C10.3519 22.091 10.317 22.2553 10.3153 22.4216C10.3137 22.5879 10.3452 22.7529 10.408 22.9068C10.4709 23.0608 10.5638 23.2007 10.6814 23.3183C10.799 23.4359 10.9389 23.5288 11.0929 23.5917C11.2468 23.6546 11.4118 23.6861 11.5781 23.6844C11.7444 23.6827 11.9087 23.6478 12.0614 23.5819C12.214 23.5159 12.352 23.4201 12.4672 23.3001L17 18.7673L21.5329 23.3001C21.6481 23.4201 21.7861 23.5159 21.9387 23.5819C22.0914 23.6478 22.2557 23.6827 22.422 23.6844C22.5883 23.6861 22.7532 23.6546 22.9072 23.5917C23.0612 23.5288 23.2011 23.4359 23.3187 23.3183C23.4362 23.2007 23.5292 23.0608 23.5921 22.9068C23.6549 22.7529 23.6864 22.5879 23.6847 22.4216C23.683 22.2553 23.6482 22.091 23.5822 21.9384C23.5162 21.7857 23.4205 21.6477 23.3005 21.5326L18.7676 16.9997L23.3005 12.4668C23.4823 12.2923 23.6071 12.067 23.6586 11.8204C23.7101 11.5737 23.6858 11.3173 23.5891 11.0847C23.4923 10.8521 23.3275 10.6541 23.1162 10.5168C22.905 10.3795 22.6572 10.3092 22.4053 10.3151Z" fill="#FD4B7A"/>
</svg>
