<svg width="34" height="34" viewBox="0 0 34 34" fill="none" xmlns="http://www.w3.org/2000/svg">
<path d="M17 0.333008C7.81004 0.333008 0.333374 7.80967 0.333374 16.9997C0.333374 26.1897 7.81004 33.6663 17 33.6663C26.19 33.6663 33.6667 26.1897 33.6667 16.9997C33.6667 14.3255 33.0184 11.8057 31.8942 9.56315L30.0241 11.4333C30.7575 13.1424 31.1667 15.0238 31.1667 16.9997C31.1667 24.8113 24.8117 31.1663 17 31.1663C9.18837 31.1663 2.83337 24.8113 2.83337 16.9997C2.83337 9.18801 9.18837 2.83301 17 2.83301C20.705 2.83301 24.0714 4.27401 26.598 6.61068L28.3656 4.8431C25.3848 2.05393 21.3942 0.333008 17 0.333008ZM29.8923 6.15495C29.5677 6.16441 29.2595 6.29983 29.0329 6.53255L14.9167 20.6488L11.6338 17.3659C11.5186 17.2459 11.3807 17.1501 11.228 17.0842C11.0754 17.0182 10.9111 16.9833 10.7448 16.9816C10.5785 16.98 10.4135 17.0115 10.2595 17.0743C10.1056 17.1372 9.9657 17.2301 9.8481 17.3477C9.7305 17.4653 9.63755 17.6052 9.57469 17.7592C9.51183 17.9131 9.48032 18.0781 9.48201 18.2444C9.4837 18.4107 9.51856 18.575 9.58453 18.7277C9.65051 18.8803 9.74629 19.0183 9.86625 19.1335L14.0329 23.3001C14.2673 23.5345 14.5852 23.6661 14.9167 23.6661C15.2482 23.6661 15.5661 23.5345 15.8005 23.3001L30.8005 8.30013C30.9808 8.1245 31.1039 7.89852 31.1537 7.65177C31.2035 7.40501 31.1776 7.14898 31.0795 6.91717C30.9813 6.68536 30.8155 6.48858 30.6037 6.35259C30.3919 6.21659 30.1439 6.1477 29.8923 6.15495Z" fill="#33C46D"/>
</svg>
