<svg viewBox="0 0 407 40" fill="none" xmlns="http://www.w3.org/2000/svg">
<mask id="mask0_4703_11781" style="mask-type:alpha" maskUnits="userSpaceOnUse" x="0" y="0" width="407" height="40">
<rect width="407" height="40" rx="0" fill="#F6F7F7" fill-opacity="0.5"/>
</mask>
<g mask="url(#mask0_4703_11781)">
<rect width="407" height="40" rx="0" fill="#F6F7F7"/>
<g opacity="0.3">
<path d="M-94.9765 -2L-91.5124 0L-115.536 41.6099L-119 39.6099L-94.9765 -2Z" fill="#C4C4C4"/>
<path d="M-85.7212 -2L-82.2571 0L-106.281 41.6099L-109.745 39.6099L-85.7212 -2Z" fill="#C4C4C4"/>
<path d="M-76.4658 -2L-73.0017 0L-97.0252 41.6099L-100.489 39.6099L-76.4658 -2Z" fill="#C4C4C4"/>
<path d="M-67.2104 -2L-63.7463 0L-87.7698 41.6099L-91.2339 39.6099L-67.2104 -2Z" fill="#C4C4C4"/>
<path d="M-57.955 -2L-54.4909 0L-78.5144 41.6099L-81.9785 39.6099L-57.955 -2Z" fill="#C4C4C4"/>
<path d="M-48.6997 -2L-45.2356 0L-69.259 41.6099L-72.7231 39.6099L-48.6997 -2Z" fill="#C4C4C4"/>
<path d="M-39.4443 -2L-35.9802 0L-60.0037 41.6099L-63.4678 39.6099L-39.4443 -2Z" fill="#C4C4C4"/>
<path d="M-30.1889 -2L-26.7248 0L-50.7483 41.6099L-54.2124 39.6099L-30.1889 -2Z" fill="#C4C4C4"/>
<path d="M-20.9336 -2L-17.4695 0L-41.4929 41.6099L-44.957 39.6099L-20.9336 -2Z" fill="#C4C4C4"/>
<path d="M-11.6782 -2L-8.21409 0L-32.2376 41.6099L-35.7017 39.6099L-11.6782 -2Z" fill="#C4C4C4"/>
<path d="M-2.42281 -2L1.04128 0L-22.9822 41.6099L-26.4463 39.6099L-2.42281 -2Z" fill="#C4C4C4"/>
<path d="M6.83256 -2L10.2967 0L-13.7268 41.6099L-17.1909 39.6099L6.83256 -2Z" fill="#C4C4C4"/>
<path d="M16.0879 -2L19.552 0L-4.47144 41.6099L-7.93555 39.6099L16.0879 -2Z" fill="#C4C4C4"/>
<path d="M25.3433 -2L28.8074 0L4.78393 41.6099L1.31982 39.6099L25.3433 -2Z" fill="#C4C4C4"/>
<path d="M34.5987 -2L38.0628 0L14.0393 41.6099L10.5752 39.6099L34.5987 -2Z" fill="#C4C4C4"/>
<path d="M43.854 -2L47.3181 0L23.2947 41.6099L19.8306 39.6099L43.854 -2Z" fill="#C4C4C4"/>
<path d="M53.1094 -2L56.5735 0L32.55 41.6099L29.0859 39.6099L53.1094 -2Z" fill="#C4C4C4"/>
<path d="M62.3648 -2L65.8289 0L41.8054 41.6099L38.3413 39.6099L62.3648 -2Z" fill="#C4C4C4"/>
<path d="M71.6201 -2L75.0843 0L51.0608 41.6099L47.5967 39.6099L71.6201 -2Z" fill="#C4C4C4"/>
<path d="M80.8755 -2L84.3396 0L60.3161 41.6099L56.8521 39.6099L80.8755 -2Z" fill="#C4C4C4"/>
<path d="M90.1309 -2L93.595 0L69.5715 41.6099L66.1074 39.6099L90.1309 -2Z" fill="#C4C4C4"/>
<path d="M99.3863 -2L102.85 0L78.8269 41.6099L75.3628 39.6099L99.3863 -2Z" fill="#C4C4C4"/>
<path d="M108.642 -2L112.106 0L88.0823 41.6099L84.6182 39.6099L108.642 -2Z" fill="#C4C4C4"/>
<path d="M117.897 -2L121.361 0L97.3376 41.6099L93.8735 39.6099L117.897 -2Z" fill="#C4C4C4"/>
<path d="M127.152 -2L130.616 0L106.593 41.6099L103.129 39.6099L127.152 -2Z" fill="#C4C4C4"/>
<path d="M136.408 -2L139.872 0L115.848 41.6099L112.384 39.6099L136.408 -2Z" fill="#C4C4C4"/>
<path d="M145.663 -2L149.127 0L125.104 41.6099L121.64 39.6099L145.663 -2Z" fill="#C4C4C4"/>
<path d="M154.918 -2L158.383 0L134.359 41.6099L130.895 39.6099L154.918 -2Z" fill="#C4C4C4"/>
<path d="M164.174 -2L167.638 0L143.615 41.6099L140.15 39.6099L164.174 -2Z" fill="#C4C4C4"/>
<path d="M173.429 -2L176.893 0L152.87 41.6099L149.406 39.6099L173.429 -2Z" fill="#C4C4C4"/>
<path d="M182.685 -2L186.149 0L162.125 41.6099L158.661 39.6099L182.685 -2Z" fill="#C4C4C4"/>
<path d="M191.94 -2L195.404 0L171.381 41.6099L167.917 39.6099L191.94 -2Z" fill="#C4C4C4"/>
<path d="M201.195 -2L204.659 0L180.636 41.6099L177.172 39.6099L201.195 -2Z" fill="#C4C4C4"/>
<path d="M210.451 -2L213.915 0L189.891 41.6099L186.427 39.6099L210.451 -2Z" fill="#C4C4C4"/>
<path d="M219.706 -2L223.17 0L199.147 41.6099L195.683 39.6099L219.706 -2Z" fill="#C4C4C4"/>
<path d="M228.961 -2L232.426 0L208.402 41.6099L204.938 39.6099L228.961 -2Z" fill="#C4C4C4"/>
<path d="M238.217 -2L241.681 0L217.657 41.6099L214.193 39.6099L238.217 -2Z" fill="#C4C4C4"/>
<path d="M247.472 -2L250.936 0L226.913 41.6099L223.449 39.6099L247.472 -2Z" fill="#C4C4C4"/>
<path d="M256.728 -2L260.192 0L236.168 41.6099L232.704 39.6099L256.728 -2Z" fill="#C4C4C4"/>
<path d="M265.983 -2L269.447 0L245.424 41.6099L241.959 39.6099L265.983 -2Z" fill="#C4C4C4"/>
<path d="M275.238 -2L278.702 0L254.679 41.6099L251.215 39.6099L275.238 -2Z" fill="#C4C4C4"/>
<path d="M284.494 -2L287.958 0L263.934 41.6099L260.47 39.6099L284.494 -2Z" fill="#C4C4C4"/>
<path d="M293.749 -2L297.213 0L273.19 41.6099L269.726 39.6099L293.749 -2Z" fill="#C4C4C4"/>
<path d="M303.004 -2L306.469 0L282.445 41.6099L278.981 39.6099L303.004 -2Z" fill="#C4C4C4"/>
<path d="M312.26 -2L315.724 0L291.7 41.6099L288.236 39.6099L312.26 -2Z" fill="#C4C4C4"/>
<path d="M321.515 -2L324.979 0L300.956 41.6099L297.492 39.6099L321.515 -2Z" fill="#C4C4C4"/>
<path d="M330.771 -2L334.235 0L310.211 41.6099L306.747 39.6099L330.771 -2Z" fill="#C4C4C4"/>
<path d="M340.026 -2L343.49 0L319.467 41.6099L316.002 39.6099L340.026 -2Z" fill="#C4C4C4"/>
<path d="M349.281 -2L352.745 0L328.722 41.6099L325.258 39.6099L349.281 -2Z" fill="#C4C4C4"/>
<path d="M358.537 -2L362.001 0L337.977 41.6099L334.513 39.6099L358.537 -2Z" fill="#C4C4C4"/>
<path d="M367.792 -2L371.256 0L347.233 41.6099L343.769 39.6099L367.792 -2Z" fill="#C4C4C4"/>
<path d="M377.047 -2L380.512 0L356.488 41.6099L353.024 39.6099L377.047 -2Z" fill="#C4C4C4"/>
<path d="M386.303 -2L389.767 0L365.743 41.6099L362.279 39.6099L386.303 -2Z" fill="#C4C4C4"/>
<path d="M395.558 -2L399.022 0L374.999 41.6099L371.535 39.6099L395.558 -2Z" fill="#C4C4C4"/>
<path d="M404.814 -2L408.278 0L384.254 41.6099L380.79 39.6099L404.814 -2Z" fill="#C4C4C4"/>
<path d="M414.069 -2L417.533 0L393.51 41.6099L390.045 39.6099L414.069 -2Z" fill="#C4C4C4"/>
<path d="M423.324 -2L426.788 0L402.765 41.6099L399.301 39.6099L423.324 -2Z" fill="#C4C4C4"/>
<path d="M432.58 -2L436.044 0L412.02 41.6099L408.556 39.6099L432.58 -2Z" fill="#C4C4C4"/>
<path d="M441.835 -2L445.299 0L421.276 41.6099L417.812 39.6099L441.835 -2Z" fill="#C4C4C4"/>
<path d="M451.09 -2L454.554 0L430.531 41.6099L427.067 39.6099L451.09 -2Z" fill="#C4C4C4"/>
<path d="M460.346 -2L463.81 0L439.786 41.6099L436.322 39.6099L460.346 -2Z" fill="#C4C4C4"/>
<path d="M469.601 -2L473.065 0L449.042 41.6099L445.578 39.6099L469.601 -2Z" fill="#C4C4C4"/>
<path d="M478.857 -2L482.321 0L458.297 41.6099L454.833 39.6099L478.857 -2Z" fill="#C4C4C4"/>
<path d="M488.112 -2L491.576 0L467.552 41.6099L464.088 39.6099L488.112 -2Z" fill="#C4C4C4"/>
<path d="M497.367 -2L500.831 0L476.808 41.6099L473.344 39.6099L497.367 -2Z" fill="#C4C4C4"/>
<path d="M506.623 -2L510.087 0L486.063 41.6099L482.599 39.6099L506.623 -2Z" fill="#C4C4C4"/>
<path d="M515.878 -2L519.342 0L495.319 41.6099L491.854 39.6099L515.878 -2Z" fill="#C4C4C4"/>
</g>
</g>
</svg>
