<svg width="20" height="17" viewBox="0 0 20 17" fill="none" xmlns="http://www.w3.org/2000/svg">
<path d="M17.25 0H2.75C1.2335 0 0 1.234 0 2.75V14.25C0 15.766 1.2335 17 2.75 17H17.25C18.7665 17 20 15.766 20 14.25V2.75C20 1.234 18.7665 0 17.25 0ZM10.75 2.5C10.75 2.224 10.974 2 11.25 2H11.75C12.026 2 12.25 2.224 12.25 2.5V3C12.25 3.276 12.026 3.5 11.75 3.5H11.25C10.974 3.5 10.75 3.276 10.75 3V2.5ZM7.75 2.5C7.75 2.224 7.974 2 8.25 2H8.75C9.026 2 9.25 2.224 9.25 2.5V3C9.25 3.276 9.026 3.5 8.75 3.5H8.25C7.974 3.5 7.75 3.276 7.75 3V2.5ZM3.25 14.5C3.25 14.776 3.026 15 2.75 15H2.25C1.974 15 1.75 14.776 1.75 14.5V14C1.75 13.724 1.974 13.5 2.25 13.5H2.75C3.026 13.5 3.25 13.724 3.25 14V14.5ZM3.25 3C3.25 3.276 3.026 3.5 2.75 3.5H2.25C1.974 3.5 1.75 3.276 1.75 3V2.5C1.75 2.224 1.974 2 2.25 2H2.75C3.026 2 3.25 2.224 3.25 2.5V3ZM6.25 14.5C6.25 14.776 6.026 15 5.75 15H5.25C4.974 15 4.75 14.776 4.75 14.5V14C4.75 13.724 4.974 13.5 5.25 13.5H5.75C6.026 13.5 6.25 13.724 6.25 14V14.5ZM6.25 3C6.25 3.276 6.026 3.5 5.75 3.5H5.25C4.974 3.5 4.75 3.276 4.75 3V2.5C4.75 2.224 4.974 2 5.25 2H5.75C6.026 2 6.25 2.224 6.25 2.5V3ZM9.25 14.5C9.25 14.776 9.026 15 8.75 15H8.25C7.974 15 7.75 14.776 7.75 14.5V14C7.75 13.724 7.974 13.5 8.25 13.5H8.75C9.026 13.5 9.25 13.724 9.25 14V14.5ZM12.25 14.5C12.25 14.776 12.026 15 11.75 15H11.25C10.974 15 10.75 14.776 10.75 14.5V14C10.75 13.724 10.974 13.5 11.25 13.5H11.75C12.026 13.5 12.25 13.724 12.25 14V14.5ZM12.556 9.2615L8.806 11.3865C8.6725 11.4625 8.524 11.5 8.375 11.5C8.2225 11.5 8.0705 11.46 7.9345 11.381C7.6655 11.2245 7.5 10.9365 7.5 10.625V6.375C7.5 6.0635 7.6655 5.7755 7.9345 5.619C8.2025 5.4625 8.535 5.46 8.806 5.614L12.556 7.739C12.8305 7.894 13 8.185 13 8.5C13 8.815 12.8305 9.106 12.556 9.2615ZM15.25 14.5C15.25 14.776 15.026 15 14.75 15H14.25C13.974 15 13.75 14.776 13.75 14.5V14C13.75 13.724 13.974 13.5 14.25 13.5H14.75C15.026 13.5 15.25 13.724 15.25 14V14.5ZM15.25 3C15.25 3.276 15.026 3.5 14.75 3.5H14.25C13.974 3.5 13.75 3.276 13.75 3V2.5C13.75 2.224 13.974 2 14.25 2H14.75C15.026 2 15.25 2.224 15.25 2.5V3ZM18.25 14.5C18.25 14.776 18.026 15 17.75 15H17.25C16.974 15 16.75 14.776 16.75 14.5V14C16.75 13.724 16.974 13.5 17.25 13.5H17.75C18.026 13.5 18.25 13.724 18.25 14V14.5ZM18.25 3C18.25 3.276 18.026 3.5 17.75 3.5H17.25C16.974 3.5 16.75 3.276 16.75 3V2.5C16.75 2.224 16.974 2 17.25 2H17.75C18.026 2 18.25 2.224 18.25 2.5V3Z" fill="#6D7B83"/>
</svg>
