<svg width="40" height="40" viewBox="0 0 40 40" fill="none" xmlns="http://www.w3.org/2000/svg">
<circle cx="20" cy="20" r="19.5" stroke="url(#paint0_linear_1003_3129)"/>
<path d="M18.2499 10.0001C18.1291 9.99851 18.0098 10.0262 17.9019 10.0807C17.7941 10.1352 17.7011 10.2149 17.6307 10.3131C17.5603 10.4113 17.5147 10.525 17.4977 10.6446C17.4807 10.7642 17.4929 10.8862 17.5331 11.0001H15.3203C14.4016 11.0001 13.5414 11.4598 13.0322 12.2247L11.8486 14.0001H11.7499C11.6506 13.9987 11.5519 14.017 11.4597 14.0541C11.3674 14.0911 11.2835 14.1462 11.2127 14.2159C11.1419 14.2857 11.0857 14.3689 11.0474 14.4606C11.009 14.5523 10.9893 14.6507 10.9893 14.7501C10.9893 14.8495 11.009 14.9479 11.0474 15.0396C11.0857 15.1312 11.1419 15.2144 11.2127 15.2842C11.2835 15.354 11.3674 15.409 11.4597 15.446C11.5519 15.4831 11.6506 15.5015 11.7499 15.5001H12.1318C12.1961 15.5098 12.2614 15.5111 12.3261 15.504L13.5624 27.043C13.7116 28.4342 14.8979 29.5001 16.2968 29.5001H23.7021C25.101 29.5001 26.2873 28.4342 26.4365 27.043L27.6738 15.504C27.7372 15.5108 27.8011 15.5095 27.8642 15.5001H28.2499C28.3493 15.5015 28.448 15.4831 28.5402 15.446C28.6324 15.409 28.7164 15.354 28.7872 15.2842C28.8579 15.2144 28.9141 15.1312 28.9525 15.0396C28.9909 14.9479 29.0106 14.8495 29.0106 14.7501C29.0106 14.6507 28.9909 14.5523 28.9525 14.4606C28.9141 14.3689 28.8579 14.2857 28.7872 14.2159C28.7164 14.1462 28.6324 14.0911 28.5402 14.0541C28.448 14.017 28.3493 13.9987 28.2499 14.0001H28.1513L26.9677 12.2247C26.4581 11.4602 25.5979 11.0001 24.6796 11.0001H22.4667C22.507 10.8862 22.5192 10.7642 22.5022 10.6446C22.4852 10.525 22.4396 10.4113 22.3692 10.3131C22.2988 10.2149 22.2057 10.1352 22.0979 10.0807C21.9901 10.0262 21.8707 9.99851 21.7499 10.0001H18.2499ZM15.3203 12.5001H24.6796C25.0983 12.5001 25.4873 12.7082 25.7197 13.0567L26.3486 14.0001H13.6513L14.2802 13.0567C14.2805 13.0564 14.2809 13.0561 14.2812 13.0557C14.5129 12.7076 14.9009 12.5001 15.3203 12.5001ZM13.8349 15.5001H26.165L24.9453 26.8829C24.8764 27.5247 24.3471 28.0001 23.7021 28.0001H16.2968C15.6518 28.0001 15.1235 27.5247 15.0546 26.8829L13.8349 15.5001Z" fill="url(#paint1_linear_1003_3129)"/>
<defs>
<linearGradient id="paint0_linear_1003_3129" x1="-0.943544" y1="20.0966" x2="63.6219" y2="20.0966" gradientUnits="userSpaceOnUse">
<stop stop-color="#FD4B7A"/>
<stop offset="1" stop-color="#4D00AE"/>
</linearGradient>
<linearGradient id="paint1_linear_1003_3129" x1="10.5642" y1="19.7971" x2="39.6531" y2="19.7971" gradientUnits="userSpaceOnUse">
<stop stop-color="#FD4B7A"/>
<stop offset="1" stop-color="#4D00AE"/>
</linearGradient>
</defs>
</svg>
