<svg xmlns="http://www.w3.org/2000/svg" viewBox="0 0 83 67.48"><defs><style>.cls-1{fill:#6d7b83;}</style></defs><g id="Layer_2" data-name="Layer 2"><g id="Layer_1-2" data-name="Layer 1"><path class="cls-1" d="M74.5,16.83c0,.73.06,1.47.06,2.2,0,22.5-17.14,48.45-48.46,48.45A48.12,48.12,0,0,1,0,59.83a34.22,34.22,0,0,0,25.21-7A17.07,17.07,0,0,1,9.3,41a17,17,0,0,0,7.7-.3A17.06,17.06,0,0,1,3.33,24v-.22a16.87,16.87,0,0,0,7.72,2.13A17,17,0,0,1,5.78,3.14,48.34,48.34,0,0,0,21.44,15.77a48.41,48.41,0,0,0,19.44,5.16,17,17,0,0,1,29-15.53A33.87,33.87,0,0,0,80.71,1.27a17.13,17.13,0,0,1-7.49,9.42A34,34,0,0,0,83,8h0A34.56,34.56,0,0,1,74.5,16.83Z"/></g></g></svg>