<svg xmlns="http://www.w3.org/2000/svg" viewBox="0 0 83 82.99"><defs><style>.cls-1{fill:#6d7b83;}</style></defs><g id="Layer_2" data-name="Layer 2"><g id="Layer_1-2" data-name="Layer 1"><path class="cls-1" d="M38.27,0h6.49a30.42,30.42,0,0,0,3.55.54,40.43,40.43,0,0,1,22,11.17c9.49,9.35,13.64,20.76,12.44,34a39.14,39.14,0,0,1-10,23.08C62.91,79.74,50.56,84.39,36,82.63A39.65,39.65,0,0,1,12.39,71.07,40.87,40.87,0,0,1,.45,47.68,15,15,0,0,0,0,44.76V38.11c.23-.11.15-.32.17-.5A40.37,40.37,0,0,1,6.83,18.72,41.14,41.14,0,0,1,35.28.46,15,15,0,0,0,38.27,0Zm7.79,35.08c0-1.46,0-2.92,0-4.37a2.26,2.26,0,0,0-2.32-2.49,53,53,0,0,0-8.26-.11,3.23,3.23,0,0,0-2.33,1c-.64.7-.54,1.11.35,1.37a2.61,2.61,0,0,1,2.19,2.72c.09,1.7.19,3.4.14,5.1a12.46,12.46,0,0,1-.51,3.27c-.26.85-.82,1-1.56.54a5.86,5.86,0,0,1-1.32-1.31,38.77,38.77,0,0,1-5.37-9.48,2.9,2.9,0,0,0-2.95-2.06c-2.33,0-4.65,0-7,0-1.38,0-1.93.81-1.37,2.07,3,6.66,6.22,13.14,10.85,18.82C31,55.5,36.69,58.16,43.74,57.63c1.6-.12,2.14-.65,2.33-2.23a21,21,0,0,1,.65-3.25c.38-1.33,1.35-1.66,2.47-.81a11.28,11.28,0,0,1,1.26,1.14c1.12,1.17,2.22,2.36,3.35,3.52a5,5,0,0,0,3.33,1.68,56.62,56.62,0,0,0,8.34,0,2,2,0,0,0,1.61-3.17,6,6,0,0,0-.43-.68,41.83,41.83,0,0,0-6-6.69c-2.12-2.1-2.14-2.55-.37-5s3.54-4.84,5.28-7.28a11.21,11.21,0,0,0,1.81-3.86,1.24,1.24,0,0,0-1-1.66,3.67,3.67,0,0,0-.88-.13H56.69a1.87,1.87,0,0,0-1.85,1.32q-.17.45-.36.9a31.85,31.85,0,0,1-5.9,9.7c-.44.48-.82,1.24-1.62,1s-.79-1.14-.91-1.84A31.86,31.86,0,0,1,46.06,35.08Z"/></g></g></svg>