<svg xmlns="http://www.w3.org/2000/svg" width="22" height="22" viewBox="0 0 22 22"><g fill="none" class="nc-icon-wrapper"><path d="M22 11a11.05 11.05 0 0 1-.42 3.024C20.265 18.629 16.025 22 11 22 4.925 22 0 17.075 0 11S4.925 0 11 0c4.819 0 8.914 3.099 10.401 7.412C21.79 8.537 22 9.744 22 11z" fill="#000"/><path d="M17.787 6.609A5.129 5.129 0 0 1 19 9.937V16h-2.547V9.861c-.006-1.206-.953-2.191-2.105-2.191a2.5 2.5 0 0 0-.21.011c-1.03.11-1.895 1.137-1.895 2.244V16H9.696V9.879c-.005-1.213-.947-2.204-2.1-2.204-.066 0-.138.006-.21.012-1.025.111-1.894 1.136-1.894 2.25V16H3V9.861C3 7.18 5.077 5 7.624 5c1.274 0 2.487.56 3.362 1.533a4.521 4.521 0 0 1 3.788-1.516c1.163.105 2.232.67 3.013 1.592z" fill="#fff"/></g></svg>