<svg fill="none" height="180" viewBox="0 0 847 180" width="847" xmlns="http://www.w3.org/2000/svg"><path d="M223.833 67.106q4.22-15.806-3.488-24.187t-26.947-8.438h-49.151l-29.63 111.169h23.797l11.983-45h15.715c2.875-.144 5.74.443 8.326 1.706a7.69 7.69 0 0 1 3.601 6.132l4.294 37.162h25.504l-4.163-34.519c-.825-7.706-4.369-12.243-10.52-13.612a45.2 45.2 0 0 0 19.728-11.4 41 41 0 0 0 10.951-19.013m-22.784.394a17.64 17.64 0 0 1-7.764 11.025c-3.751 2.363-9.226 3.525-16.184 3.525h-22.09l7.763-29.044h22.11c6.938 0 11.702 1.182 14.327 3.525s3.188 6.057 1.838 10.97zm91.495-1.312-3.02 11.25a17.55 17.55 0 0 0-7.501-9.676 25.1 25.1 0 0 0-13.858-3.562 39.23 39.23 0 0 0-19.465 5.175 51.45 51.45 0 0 0-16.334 14.813 64.7 64.7 0 0 0-10.258 21.768 46.24 46.24 0 0 0-1.313 21.525c.966 5.67 4 10.78 8.514 14.344a26.9 26.9 0 0 0 16.878 4.988 37.33 37.33 0 0 0 28.354-12.957l-3.113 11.738h23.197l21.153-79.406zm-10.539 39.375a35.96 35.96 0 0 1-9.227 17.175 20.92 20.92 0 0 1-15.002 5.962c-5.907 0-9.883-1.875-12.021-5.869-2.137-3.993-2.194-9.562-.243-16.875a36.6 36.6 0 0 1 9.376-17.325 21.2 21.2 0 0 1 15.171-6.244c5.776 0 9.714 2.007 11.739 6 2.026 3.994 2.232 9.638.244 17.157zm116.529-39.319h-66.816l-4.932 18.525h38.893l-51.139 44.606-4.369 16.369h69.01l4.932-18.525h-41.725l51.983-45.244zm73.08 2.906a38.1 38.1 0 0 0-20.422-4.987 54.9 54.9 0 0 0-23.347 4.987 51 51 0 0 0-18.284 14.381 58.3 58.3 0 0 0-10.858 21.863 42 42 0 0 0-.788 21.862 23.8 23.8 0 0 0 10.633 14.4q8.064 4.97 20.628 4.969a53.9 53.9 0 0 0 23.085-4.969 50.4 50.4 0 0 0 18.19-14.4 58.1 58.1 0 0 0 10.877-21.862 41.8 41.8 0 0 0 .769-21.863 23.53 23.53 0 0 0-10.483-14.38zm-13.54 36.206c-2.081 7.8-5.138 13.65-9.264 17.513a20.88 20.88 0 0 1-14.796 5.756q-18.19 0-11.983-23.269 3.057-11.55 9.377-17.418a21.17 21.17 0 0 1 15.002-5.87c5.776 0 9.714 1.876 11.739 5.87 2.026 3.993 1.969 9.712-.075 17.418m266.139-39.168-3.019 11.25a17.55 17.55 0 0 0-7.501-9.676 25.06 25.06 0 0 0-13.858-3.618 39.2 39.2 0 0 0-19.484 5.231 51.5 51.5 0 0 0-16.353 14.813 65.1 65.1 0 0 0-10.258 21.768 46.7 46.7 0 0 0-1.312 21.525 23.25 23.25 0 0 0 8.514 14.344 27.12 27.12 0 0 0 17.083 4.988 37.1 37.1 0 0 0 15.246-3.338 36.6 36.6 0 0 0 12.846-9.619l-3.113 11.738h23.197l21.172-79.406zm-10.595 39.375a35.9 35.9 0 0 1-9.208 17.175 21.04 21.04 0 0 1-15.002 5.962c-5.926 0-9.901-1.875-12.039-5.869s-2.175-9.562-.244-16.875a36.76 36.76 0 0 1 9.377-17.325 21.27 21.27 0 0 1 15.189-6.243q8.664 0 11.74 6c2.175 3.88 2.231 9.637.187 17.156zm-159.436-18 5.926-21.619a17.65 17.65 0 0 0-7.97-1.556 31.3 31.3 0 0 0-15.302 4.012 33.3 33.3 0 0 0-10.839 9.488l3.056-11.644h-23.178l-21.341 79.406h23.516l11.046-41.456A26.64 26.64 0 0 1 527.741 90a24.04 24.04 0 0 1 15.602-5.08 23.14 23.14 0 0 1 10.839 2.643m81.95-18.019a25.77 25.77 0 0 0-16.765-5.269 37.06 37.06 0 0 0-16.877 4.088 35.2 35.2 0 0 0-13.127 11.156l.094-.544 3.956-12.731h-23.065l-5.889 22.069c0 .243-.131.506-.187.75L540.081 180h23.628l12.208-45.825a16.27 16.27 0 0 0 7.501 9.581 26.1 26.1 0 0 0 13.934 3.45 40.9 40.9 0 0 0 19.615-4.95 48.76 48.76 0 0 0 16.184-14.419 64.6 64.6 0 0 0 10.07-21.618 48.2 48.2 0 0 0 1.425-21.844 24.77 24.77 0 0 0-8.514-14.831m-16.708 36.3a35.36 35.36 0 0 1-9.171 16.875 21.1 21.1 0 0 1-15.002 5.85c-5.813 0-9.751-2.007-11.833-5.963-2.081-3.956-2.194-9.656-.15-17.175a35.95 35.95 0 0 1 9.377-17.268 21.1 21.1 0 0 1 15.002-6c5.626 0 9.545 2.1 11.589 6.243s2.175 10.013.188 17.438M846.013 63.6h-24.379l-3.75 7.837c-.3.394-.582.788-.919 1.275l-.394.638-30.005 41.962-6.225-49.068h-24.604l12.508 75.262L740.585 180h23.684l6.845-9.769c.207-.3.413-.544.6-.862l8.008-11.419.262-.3 35.762-51.019z" fill="#0c2651"/><path d="m54.383 47.175-7.126 25.95 40.206-26.081-26.254 98.606h26.648L126.656 0z" fill="#3395ff"/><path d="M11.064 104.175 0 145.65h54.664l22.372-84.375z" fill="#0c2651"/></svg>