<svg width="56" height="56" viewBox="0 0 56 56" fill="none" xmlns="http://www.w3.org/2000/svg">
<circle cx="28" cy="28" r="28" fill="white"/>
<path d="M38.9198 26.1799C33.8252 26.1799 29.6798 30.3253 29.6798 35.4199C29.6798 40.5145 33.8252 44.6599 38.9198 44.6599C44.0144 44.6599 48.1598 40.5145 48.1598 35.4199C48.1598 30.3253 44.0144 26.1799 38.9198 26.1799ZM38.9425 40.7077C38.2176 40.7077 37.738 40.2507 37.738 39.5544C37.738 38.8505 38.2168 38.3935 38.9425 38.3935C39.6826 38.3935 40.1471 38.8505 40.1471 39.5544C40.1471 40.2507 39.6826 40.7077 38.9425 40.7077ZM40.9232 35.1872C39.9732 35.7458 39.7052 36.1154 39.7052 36.8336V37.2469H38.0219L38.0143 36.7538C37.9488 35.666 38.3696 35.0133 39.3709 34.4253C40.2697 33.8819 40.5755 33.4971 40.5755 32.7789C40.5755 32.0246 39.9656 31.4803 39.0526 31.4803C38.1168 31.4803 37.5145 32.0464 37.4566 32.931H35.7522C35.8102 31.2115 36.9929 29.9641 39.1475 29.9641C41.1349 29.9641 42.4621 31.1107 42.4621 32.7134C42.4613 33.823 41.9102 34.5992 40.9232 35.1872ZM17.0798 26.1799C11.9852 26.1799 7.83984 30.3253 7.83984 35.4199C7.83984 40.5145 11.9852 44.6599 17.0798 44.6599C22.1744 44.6599 26.3198 40.5145 26.3198 35.4199C26.3198 30.3253 22.1744 26.1799 17.0798 26.1799ZM19.6998 39.1621H14.1776V38.1751L16.8278 35.4636C17.914 34.3606 18.1836 33.9474 18.1836 33.3854C18.1836 32.6848 17.6099 32.1775 16.8278 32.1775C15.9962 32.1775 15.4334 32.7235 15.4334 33.5333V33.5551H14.0995V33.5333C14.0995 32.0456 15.2402 31.0091 16.8724 31.0091C18.4432 31.0091 19.5788 31.9683 19.5788 33.2964C19.5788 34.1515 19.1429 34.8562 17.793 36.1902L16.129 37.8592V37.9533H19.7006L19.6998 39.1621ZM27.9998 7.69989C22.9052 7.69989 18.7598 11.8453 18.7598 16.9399C18.7598 22.0345 22.9052 26.1799 27.9998 26.1799C33.0944 26.1799 37.2398 22.0345 37.2398 16.9399C37.2398 11.8453 33.0944 7.69989 27.9998 7.69989ZM29.2775 20.6821H27.8562V14.162H27.7621L25.7839 15.5505V14.1847L27.8621 12.7298H29.2792V20.6821H29.2775Z" fill="#1A2136"/>
</svg>
