<svg width="56" height="56" viewBox="0 0 56 56" fill="none" xmlns="http://www.w3.org/2000/svg">
<circle cx="28" cy="28" r="28" fill="white"/>
<path d="M28.3983 6.07983C23.4483 6.07983 19.4 10.1298 19.4 15.0798C19.4 19.7238 22.973 23.5751 27.5 24.0341V30.5697C26.663 29.3187 25.4487 28.021 23.7207 27.04C23.7297 26.977 23.7295 26.9061 23.7295 26.8431C23.7205 24.1251 21.5872 22.0811 19.6162 21.3341C16.1152 20.0201 11.7326 22.1726 9.17659 26.4476C9.00559 26.7356 9.00559 27.095 9.17659 27.374C11.2466 30.767 14.4591 32.7915 17.4471 32.7915C18.2121 32.7915 18.9582 32.6663 19.6602 32.3873C20.6142 32.0183 21.5954 31.3431 22.3514 30.4431C21.9014 30.0471 21.4074 29.6962 20.8854 29.3902C20.8314 29.3542 20.7777 29.317 20.7237 29.29C18.7617 28.183 16.8526 27.9851 15.5926 28.0121C15.0976 28.0391 14.684 27.6352 14.675 27.1402C14.666 26.8702 14.7833 26.6272 14.9633 26.4652C15.1163 26.3212 15.3234 26.2226 15.5574 26.2226C17.0335 26.1776 19.2913 26.4115 21.6043 27.7255L21.7942 27.8328C22.3252 28.1478 22.8289 28.4983 23.3059 28.9033C23.3239 28.9033 23.3338 28.9134 23.3428 28.9314C26.2678 30.8304 27.2307 33.8898 27.4737 34.8798H19.4C18.905 34.8798 18.5 35.2848 18.5 35.7798V39.3798C18.5 39.8748 18.905 40.2798 19.4 40.2798H37.4C37.895 40.2798 38.3 39.8748 38.3 39.3798V35.7798C38.3 35.2848 37.895 34.8798 37.4 34.8798H29.3457C29.6787 33.7998 30.3615 32.3425 31.7205 31.0285C31.7835 30.9745 31.8386 30.919 31.9016 30.865C31.9826 30.784 32.0717 30.7032 32.1617 30.6312C32.1617 30.6222 32.153 30.6226 32.153 30.6136C32.27 30.4966 32.3961 30.3806 32.5221 30.2726C32.8641 29.9666 33.215 29.6776 33.575 29.4165C34.43 28.7686 35.3571 28.2197 36.3471 27.7607C36.6981 27.5987 37.1023 27.679 37.3543 27.94C37.4353 28.012 37.4992 28.1029 37.5442 28.2019C37.7512 28.6519 37.553 29.192 37.103 29.399C36.275 29.777 35.5009 30.2355 34.7809 30.7666C34.4119 31.0275 34.061 31.3061 33.728 31.6121C33.602 31.7291 33.4672 31.8466 33.3412 31.9636C33.3592 31.9726 33.3672 31.9915 33.3852 32.0005C33.5652 32.1355 33.755 32.2615 33.953 32.3785C33.962 32.3875 33.9703 32.3873 33.9793 32.3873L34.0602 32.44C34.1682 32.503 34.2774 32.5585 34.3854 32.6035C34.4124 32.6125 34.4392 32.6296 34.4662 32.6386C34.6192 32.7106 34.7806 32.7745 34.9426 32.8285C35.0956 32.8825 35.2574 32.9261 35.4014 32.9621C35.4734 32.9801 35.5467 32.9988 35.6088 33.0078C35.7438 33.0348 35.8783 33.053 36.0043 33.071C36.1933 33.089 36.3728 33.0974 36.5528 33.0974C39.3158 33.0974 41.9982 30.6948 43.0602 27.1578C43.1511 26.8428 43.0604 26.4918 42.8264 26.2578C40.0274 23.5038 36.2307 22.7476 33.8088 24.4666C32.6928 25.2496 31.6028 26.816 31.6028 28.571V28.7328C31.6028 28.7508 31.6026 28.7693 31.6116 28.7873C31.2246 29.0573 30.8468 29.3712 30.4778 29.7312C30.0278 30.1722 29.6313 30.6224 29.2983 31.0724V24.0341C33.8253 23.5751 37.3983 19.7238 37.3983 15.0798C37.3983 10.1298 33.3483 6.07983 28.3983 6.07983ZM28.1293 9.14019H29.1207V10.4902C29.7507 10.5802 31.4604 11.0295 31.4604 13.3695H29.6604C29.6604 12.8295 29.5697 11.8402 28.4897 11.8402C27.4997 11.9302 27.5 12.8291 27.5 13.0091C27.5 14.8991 31.55 14.1798 31.55 17.3298C31.55 19.5798 29.3893 19.8505 29.0293 19.8505V21.1091H28.0397V19.8505C27.6797 19.8505 25.3397 19.5798 25.3397 16.8798H27.1397C27.1397 17.1498 27.1397 18.4091 28.4897 18.4091C29.6597 18.4091 29.6604 17.5098 29.6604 17.3298C29.6604 15.3498 25.6104 16.1591 25.6104 13.0091C25.6104 11.1191 27.3193 10.4902 28.1293 10.4902V9.14019ZM19.9221 42.0798L21.2176 48.5591C21.2986 48.9731 21.668 49.2798 22.1 49.2798H34.7C35.132 49.2798 35.5015 48.9731 35.5825 48.5591L36.878 42.0798H19.9221Z" fill="#1A2136"/>
</svg>
