<svg width="1178" height="69" viewBox="0 0 1178 69" fill="none" xmlns="http://www.w3.org/2000/svg">
<g opacity="0.45" filter="url(#filter0_f_8135_19041)">
<path d="M19.6134 5.94611L29.526 42.7966H29.6773L41.6329 5.94611H53.4372L64.6361 42.7966H64.7874L75.5323 5.94611H90.9686L72.7326 63H57.5989L47.6107 29.933H47.4594L36.2605 63H21.2025L4.17711 5.94611H19.6134ZM127.152 18.507H109.522V28.0412H126.244V40.6022H109.522V50.4391H127.152V63H94.6906V5.94611H127.152V18.507ZM151.124 5.94611V50.4391H168.906V63H136.293V5.94611H151.124ZM214.543 7.30813V25.0902C213.03 23.0724 211.113 21.5338 208.792 20.4744C206.522 19.3646 204.101 18.8097 201.528 18.8097C197.039 18.8097 193.381 20.3231 190.556 23.3498C187.731 26.3765 186.319 30.1347 186.319 34.6244C186.319 39.1645 187.731 42.8975 190.556 45.8233C193.432 48.6987 197.165 50.1364 201.755 50.1364C204.177 50.1364 206.522 49.6067 208.792 48.5474C211.062 47.4376 212.979 45.9494 214.543 44.0829V61.865C208.792 63.6306 204.429 64.5134 201.453 64.5134C193.331 64.5134 186.193 61.7136 180.038 56.1142C173.935 50.6156 170.883 43.4271 170.883 34.5487C170.883 26.3765 173.682 19.4151 179.282 13.6643C182.107 10.7889 185.436 8.54405 189.27 6.92979C193.104 5.26509 197.013 4.43274 200.999 4.43274C205.387 4.43274 209.902 5.39121 214.543 7.30813ZM236.953 7.76215C241.745 5.29032 246.891 4.0544 252.389 4.0544C257.888 4.0544 263.033 5.29032 267.826 7.76215C272.618 10.1835 276.502 13.6643 279.478 18.2044C282.455 22.7445 283.943 27.8142 283.943 33.4137C283.943 42.6452 280.967 50.2121 275.014 56.1142C269.112 61.9659 261.57 64.8917 252.389 64.8917C243.208 64.8917 235.641 61.9659 229.689 56.1142C223.787 50.2121 220.836 42.6452 220.836 33.4137C220.836 27.8142 222.324 22.7445 225.3 18.2044C228.276 13.6643 232.161 10.1835 236.953 7.76215ZM263.739 22.9715C260.561 19.9447 256.778 18.4314 252.389 18.4314C248 18.4314 244.217 19.9447 241.039 22.9715C237.861 25.9982 236.272 29.5042 236.272 33.4894C236.272 38.3321 237.836 42.393 240.963 45.672C244.091 48.9005 247.9 50.5147 252.389 50.5147C256.879 50.5147 260.687 48.9005 263.815 45.672C266.943 42.393 268.507 38.3321 268.507 33.4894C268.507 29.5042 266.918 25.9982 263.739 22.9715ZM287.402 63L297.088 5.94611H311.692L323.269 36.4404L335.527 5.94611H350.283L358.909 63H344.078L339.916 30.16H339.765L326.069 63H320.167L307.076 30.16H306.925L302.158 63H287.402ZM397.681 18.507H380.05V28.0412H396.773V40.6022H380.05V50.4391H397.681V63H365.219V5.94611H397.681V18.507ZM455.46 18.507V63H440.629V18.507H428.371V5.94611H467.718V18.507H455.46ZM486.348 7.76215C491.14 5.29032 496.286 4.0544 501.784 4.0544C507.283 4.0544 512.428 5.29032 517.221 7.76215C522.013 10.1835 525.897 13.6643 528.873 18.2044C531.85 22.7445 533.338 27.8142 533.338 33.4137C533.338 42.6452 530.362 50.2121 524.409 56.1142C518.507 61.9659 510.965 64.8917 501.784 64.8917C492.603 64.8917 485.036 61.9659 479.084 56.1142C473.182 50.2121 470.231 42.6452 470.231 33.4137C470.231 27.8142 471.719 22.7445 474.695 18.2044C477.671 13.6643 481.556 10.1835 486.348 7.76215ZM513.134 22.9715C509.956 19.9447 506.173 18.4314 501.784 18.4314C497.395 18.4314 493.612 19.9447 490.434 22.9715C487.256 25.9982 485.667 29.5042 485.667 33.4894C485.667 38.3321 487.231 42.393 490.358 45.672C493.486 48.9005 497.295 50.5147 501.784 50.5147C506.274 50.5147 510.082 48.9005 513.21 45.672C516.338 42.393 517.902 38.3321 517.902 33.4894C517.902 29.5042 516.313 25.9982 513.134 22.9715ZM603.368 9.12418L597.466 20.6258C594.439 18.1035 591.16 16.8423 587.629 16.8423C586.065 16.8423 584.603 17.2711 583.24 18.1287C581.929 18.9863 581.273 20.1465 581.273 21.6094C581.273 22.6184 581.677 23.5264 582.484 24.3335C583.341 25.1406 584.123 25.6955 584.83 25.9982C585.586 26.3009 586.595 26.654 587.856 27.0576L591.64 28.1926C596.079 29.5042 599.534 31.3707 602.006 33.792C604.478 36.163 605.714 39.4924 605.714 43.7803C605.714 50.6913 603.747 55.8115 599.812 59.1409C595.574 62.7225 590.177 64.5134 583.619 64.5134C576.456 64.5134 569.772 62.3442 563.567 58.0059L569.923 46.0503C574.413 49.9851 578.801 51.9524 583.089 51.9524C585.006 51.9524 586.671 51.4732 588.083 50.5147C589.546 49.5058 590.278 48.0681 590.278 46.2016C590.278 43.6289 587.881 41.6363 583.089 40.2238C582.938 40.1734 582.332 39.9968 581.273 39.6942C578.549 38.9375 576.405 38.2312 574.841 37.5755C573.278 36.9197 571.714 36.0116 570.15 34.8514C568.586 33.6407 567.476 32.1273 566.82 30.3113C566.165 28.4953 565.837 26.2504 565.837 23.5768C565.837 17.826 567.678 13.2103 571.361 9.72952C575.043 6.19833 579.76 4.43274 585.511 4.43274C588.386 4.43274 591.438 4.86153 594.666 5.7191C597.945 6.57668 600.846 7.7117 603.368 9.12418ZM635.468 18.507V63H620.637V18.507H608.378V5.94611H647.726V18.507H635.468ZM683.565 53.0875H663.134L659.2 63H643.461L665.404 5.94611H681.597L703.087 63H687.273L683.565 53.0875ZM679.554 41.7372L673.501 23.5768H673.35L667.22 41.7372H679.554ZM737.233 39.6185L755.166 63H736.703L722.704 41.0562H722.553V63H707.722V5.94611H729.893C735.845 5.94611 740.638 7.40903 744.27 10.3349C747.902 13.2607 749.718 17.6495 749.718 23.5012C749.718 27.5872 748.608 31.1184 746.388 34.0947C744.219 37.071 741.167 38.9123 737.233 39.6185ZM722.553 17.2964V31.522H723.991C730.851 31.522 734.281 29.1511 734.281 24.4092C734.281 19.6673 730.851 17.2964 723.991 17.2964H722.553ZM781.853 18.507V63H767.022V18.507H754.764V5.94611H794.111V18.507H781.853ZM834.155 5.94611H848.986V38.0295C848.986 42.6705 848.608 46.58 847.851 49.758C847.145 52.8857 845.531 55.6854 843.009 58.1572C838.721 62.3947 832.415 64.5134 824.092 64.5134C815.768 64.5134 809.462 62.3947 805.174 58.1572C802.652 55.6854 801.013 52.8857 800.256 49.758C799.55 46.58 799.197 42.6705 799.197 38.0295V5.94611H814.028V35.9864C814.028 37.8025 814.053 39.3158 814.103 40.5265C814.204 41.7372 814.431 43.0992 814.784 44.6126C815.188 46.126 815.718 47.3367 816.373 48.2447C817.08 49.1527 818.089 49.9346 819.4 50.5904C820.712 51.1957 822.275 51.4984 824.092 51.4984C825.908 51.4984 827.471 51.1957 828.783 50.5904C830.095 49.9346 831.078 49.1527 831.734 48.2447C832.44 47.3367 832.97 46.126 833.323 44.6126C833.727 43.0992 833.954 41.7372 834.004 40.5265C834.105 39.3158 834.155 37.8025 834.155 35.9864V5.94611ZM858.393 63V5.94611H881.094C887.501 5.94611 892.545 7.50992 896.228 10.6375C899.961 13.7147 901.827 18.4062 901.827 24.7118C901.827 37.6259 895.093 44.0829 881.624 44.0829H873.224V63H858.393ZM873.224 17.9017V32.1273H875.722C877.134 32.1273 878.193 32.1273 878.9 32.1273C879.656 32.0769 880.59 31.9256 881.699 31.6733C882.86 31.4211 883.717 31.068 884.272 30.614C884.827 30.16 885.306 29.4789 885.71 28.5709C886.164 27.6629 886.391 26.5279 886.391 25.1659C886.391 23.7534 886.189 22.5931 885.785 21.6851C885.382 20.7266 884.903 19.9952 884.348 19.4907C883.793 18.9863 882.96 18.6332 881.851 18.4314C880.791 18.1791 879.858 18.0278 879.051 17.9774C878.294 17.9269 877.184 17.9017 875.722 17.9017H873.224ZM949.188 5.94611V50.4391H966.97V63H934.357V5.94611H949.188ZM1006.78 53.0875H986.35L982.416 63H966.677L988.62 5.94611H1004.81L1026.3 63H1010.49L1006.78 53.0875ZM1002.77 41.7372L996.717 23.5768H996.566L990.436 41.7372H1002.77ZM1030.94 63V5.94611H1045.77L1072.93 40.8292H1073.09V5.94611H1087.92V63H1073.09L1045.92 28.0412H1045.77V63H1030.94ZM1097.59 63V5.94611H1118.63C1126.6 5.94611 1133.41 8.72061 1139.06 14.2696C1144.76 19.7682 1147.61 26.5027 1147.61 34.4731C1147.61 42.4434 1144.76 49.2031 1139.06 54.7522C1133.41 60.2507 1126.6 63 1118.63 63H1097.59ZM1112.42 18.507V50.4391H1115.75C1120.49 50.4391 1124.4 49.1023 1127.48 46.4286C1130.61 43.755 1132.17 39.7698 1132.17 34.4731C1132.17 29.4789 1130.68 25.5694 1127.71 22.7445C1124.73 19.9195 1120.8 18.507 1115.9 18.507H1112.42ZM1157.9 49.3797C1159.61 47.6646 1161.7 46.807 1164.18 46.807C1166.65 46.807 1168.74 47.6646 1170.46 49.3797C1172.17 51.0949 1173.03 53.1883 1173.03 55.6602C1173.03 58.0816 1172.17 60.1751 1170.46 61.9406C1168.74 63.6558 1166.65 64.5134 1164.18 64.5134C1161.7 64.5134 1159.61 63.6558 1157.9 61.9406C1156.18 60.1751 1155.32 58.0816 1155.32 55.6602C1155.32 53.1883 1156.18 51.0949 1157.9 49.3797ZM1157.06 43.6289V5.94611H1171.36V43.6289H1157.06Z" fill="#1B2237"/>
</g>
<defs>
<filter id="filter0_f_8135_19041" x="0.177246" y="0.0544434" width="1176.85" height="68.8372" filterUnits="userSpaceOnUse" color-interpolation-filters="sRGB">
<feFlood flood-opacity="0" result="BackgroundImageFix"/>
<feBlend mode="normal" in="SourceGraphic" in2="BackgroundImageFix" result="shape"/>
<feGaussianBlur stdDeviation="2" result="effect1_foregroundBlur_8135_19041"/>
</filter>
</defs>
</svg>
