<svg width="1308" height="566" viewBox="0 0 1308 566" fill="none" xmlns="http://www.w3.org/2000/svg">
<g opacity="0.5">
<path opacity="0.5" d="M1038.67 75.2907L968.142 116.008L966.739 27.5793" stroke="#1A2136" stroke-width="31.627" stroke-linecap="round" stroke-linejoin="round"/>
<path opacity="0.5" d="M1029.67 67.2907L959.142 108.008L957.739 19.5793" stroke="#1A2136" stroke-width="31.627" stroke-linecap="round" stroke-linejoin="round"/>
</g>
<g opacity="0.5">
<g opacity="0.5">
<path d="M1163.15 493.406C1163.15 469.989 1182.1 451.006 1205.46 451.006C1220.07 451.006 1232.95 458.42 1240.55 469.698" stroke="#1A2136" stroke-width="31.627" stroke-linecap="round"/>
<path d="M1205.55 493.406C1205.55 516.823 1224.5 535.806 1247.87 535.806C1262.47 535.806 1275.35 528.391 1282.95 517.114" stroke="#1A2136" stroke-width="31.627" stroke-linecap="round"/>
</g>
<g opacity="0.5">
<path d="M1151 481.253C1151 457.836 1169.94 438.853 1193.31 438.853C1207.92 438.853 1220.79 446.268 1228.4 457.546" stroke="#1A2136" stroke-width="31.627" stroke-linecap="round"/>
<path d="M1198.55 507.406C1198.55 530.823 1217.5 549.806 1240.87 549.806C1255.47 549.806 1268.35 542.391 1275.95 531.114" stroke="#1A2136" stroke-width="31.627" stroke-linecap="round"/>
</g>
</g>
<g opacity="0.5">
<g opacity="0.5">
<line x1="264.997" y1="131.478" x2="334.657" y2="95.4778" stroke="#1A2136" stroke-width="31.627" stroke-linecap="round"/>
<line x1="312.986" y1="163.844" x2="273.78" y2="95.937" stroke="#1A2136" stroke-width="31.627" stroke-linecap="round"/>
</g>
<g opacity="0.5">
<line x1="263.997" y1="146.478" x2="333.657" y2="110.478" stroke="#1A2136" stroke-width="31.627" stroke-linecap="round"/>
<line x1="311.986" y1="178.844" x2="272.78" y2="110.937" stroke="#1A2136" stroke-width="31.627" stroke-linecap="round"/>
</g>
</g>
<g opacity="0.5">
<g opacity="0.5">
<circle cx="291.96" cy="388.356" r="35.3237" stroke="#1A2136" stroke-width="31.627" stroke-linecap="round"/>
</g>
<g opacity="0.5">
<circle cx="301.96" cy="399.356" r="35.3237" stroke="#1A2136" stroke-width="31.627" stroke-linecap="round"/>
</g>
</g>
<g opacity="0.5">
<g opacity="0.5">
<path d="M27.7007 184.991C27.7007 161.128 46.9853 141.783 70.774 141.783C94.5627 141.783 113.847 161.128 113.847 184.991C113.847 196.057 109.7 206.152 102.88 213.796" stroke="#1A2136" stroke-width="31.627" stroke-linecap="round" stroke-linejoin="round"/>
<circle cx="55.2944" cy="229.276" r="15.4795" fill="#1A2136"/>
</g>
<g opacity="0.5">
<path d="M16.7007 194.991C16.7007 171.128 35.9853 151.783 59.774 151.783C83.5627 151.783 102.847 171.128 102.847 194.991C102.847 206.057 98.7 216.152 91.8795 223.796" stroke="#1A2136" stroke-width="31.627" stroke-linecap="round" stroke-linejoin="round"/>
<circle cx="48.0278" cy="234.11" r="15.4795" fill="#1A2136"/>
</g>
</g>
<g opacity="0.5">
<g opacity="0.5">
<line x1="1015.62" y1="325.413" x2="1054.87" y2="364.66" stroke="#1A2136" stroke-width="31.627" stroke-linecap="round"/>
<path d="M1026.24 276.47L1100.05 350.284" stroke="#1A2136" stroke-width="31.627" stroke-linecap="round"/>
</g>
<g opacity="0.5">
<line x1="1017.62" y1="341.413" x2="1056.87" y2="380.66" stroke="#1A2136" stroke-width="31.627" stroke-linecap="round"/>
<path d="M1048.26 284.56L1122.07 358.375" stroke="#1A2136" stroke-width="31.627" stroke-linecap="round"/>
</g>
</g>
<g opacity="0.5">
<g opacity="0.5">
<path d="M1181.1 97.6907L1292.1 208.691" stroke="#1A2136" stroke-width="31.627" stroke-linecap="round"/>
<path d="M1188.1 157.691L1239.1 106.691" stroke="#1A2136" stroke-width="31.627" stroke-linecap="round"/>
</g>
<g opacity="0.5">
<path d="M1181.1 110.691L1292.1 221.691" stroke="#1A2136" stroke-width="31.627" stroke-linecap="round"/>
<path d="M1188.1 170.691L1239.1 119.691" stroke="#1A2136" stroke-width="31.627" stroke-linecap="round"/>
</g>
</g>
<g opacity="0.5">
<path opacity="0.5" d="M130.867 486.835L60.3422 527.553L58.9398 439.124" stroke="#1A2136" stroke-width="31.627" stroke-linecap="round" stroke-linejoin="round"/>
<path opacity="0.5" d="M138.733 498.821L68.208 539.539L66.8055 451.11" stroke="#1A2136" stroke-width="31.627" stroke-linecap="round" stroke-linejoin="round"/>
</g>
</svg>
