<svg width="1179" height="123" viewBox="0 0 1179 123" fill="none" xmlns="http://www.w3.org/2000/svg">
<g opacity="0.45" filter="url(#filter0_f_8302_17801)">
<path d="M19.6134 47.4461L29.526 84.2966H29.6773L41.6329 47.4461H53.4372L64.6361 84.2966H64.7874L75.5323 47.4461H90.9686L72.7326 104.5H57.5989L47.6107 71.433H47.4594L36.2605 104.5H21.2025L4.17711 47.4461H19.6134ZM127.152 60.007H109.522V69.5412H126.244V82.1022H109.522V91.9391H127.152V104.5H94.6906V47.4461H127.152V60.007ZM151.124 47.4461V91.9391H168.906V104.5H136.293V47.4461H151.124ZM214.543 48.8081V66.5902C213.03 64.5724 211.113 63.0338 208.792 61.9744C206.522 60.8646 204.101 60.3097 201.528 60.3097C197.039 60.3097 193.381 61.8231 190.556 64.8498C187.731 67.8765 186.319 71.6347 186.319 76.1244C186.319 80.6645 187.731 84.3975 190.556 87.3233C193.432 90.1987 197.165 91.6364 201.755 91.6364C204.177 91.6364 206.522 91.1067 208.792 90.0474C211.062 88.9376 212.979 87.4494 214.543 85.5829V103.365C208.792 105.131 204.429 106.013 201.453 106.013C193.331 106.013 186.193 103.214 180.038 97.6142C173.935 92.1156 170.883 84.9271 170.883 76.0487C170.883 67.8765 173.682 60.9151 179.282 55.1643C182.107 52.2889 185.436 50.0441 189.27 48.4298C193.104 46.7651 197.013 45.9327 200.999 45.9327C205.387 45.9327 209.902 46.8912 214.543 48.8081ZM236.953 49.2621C241.745 46.7903 246.891 45.5544 252.389 45.5544C257.888 45.5544 263.033 46.7903 267.826 49.2621C272.618 51.6835 276.502 55.1643 279.478 59.7044C282.455 64.2445 283.943 69.3142 283.943 74.9137C283.943 84.1452 280.967 91.7121 275.014 97.6142C269.112 103.466 261.57 106.392 252.389 106.392C243.208 106.392 235.641 103.466 229.689 97.6142C223.787 91.7121 220.836 84.1452 220.836 74.9137C220.836 69.3142 222.324 64.2445 225.3 59.7044C228.276 55.1643 232.161 51.6835 236.953 49.2621ZM263.739 64.4715C260.561 61.4447 256.778 59.9314 252.389 59.9314C248 59.9314 244.217 61.4447 241.039 64.4715C237.861 67.4982 236.272 71.0042 236.272 74.9894C236.272 79.8321 237.836 83.893 240.963 87.172C244.091 90.4005 247.9 92.0147 252.389 92.0147C256.879 92.0147 260.687 90.4005 263.815 87.172C266.943 83.893 268.507 79.8321 268.507 74.9894C268.507 71.0042 266.918 67.4982 263.739 64.4715ZM287.402 104.5L297.088 47.4461H311.692L323.269 77.9404L335.527 47.4461H350.283L358.909 104.5H344.078L339.916 71.66H339.765L326.069 104.5H320.167L307.076 71.66H306.925L302.158 104.5H287.402ZM397.681 60.007H380.05V69.5412H396.773V82.1022H380.05V91.9391H397.681V104.5H365.219V47.4461H397.681V60.007ZM455.46 60.007V104.5H440.629V60.007H428.371V47.4461H467.718V60.007H455.46ZM486.348 49.2621C491.14 46.7903 496.286 45.5544 501.784 45.5544C507.283 45.5544 512.428 46.7903 517.221 49.2621C522.013 51.6835 525.897 55.1643 528.873 59.7044C531.85 64.2445 533.338 69.3142 533.338 74.9137C533.338 84.1452 530.362 91.7121 524.409 97.6142C518.507 103.466 510.965 106.392 501.784 106.392C492.603 106.392 485.036 103.466 479.084 97.6142C473.182 91.7121 470.231 84.1452 470.231 74.9137C470.231 69.3142 471.719 64.2445 474.695 59.7044C477.671 55.1643 481.556 51.6835 486.348 49.2621ZM513.134 64.4715C509.956 61.4447 506.173 59.9314 501.784 59.9314C497.395 59.9314 493.612 61.4447 490.434 64.4715C487.256 67.4982 485.667 71.0042 485.667 74.9894C485.667 79.8321 487.231 83.893 490.358 87.172C493.486 90.4005 497.295 92.0147 501.784 92.0147C506.274 92.0147 510.082 90.4005 513.21 87.172C516.338 83.893 517.902 79.8321 517.902 74.9894C517.902 71.0042 516.313 67.4982 513.134 64.4715ZM603.368 50.6242L597.466 62.1258C594.439 59.6035 591.16 58.3423 587.629 58.3423C586.065 58.3423 584.603 58.7711 583.24 59.6287C581.929 60.4863 581.273 61.6465 581.273 63.1094C581.273 64.1184 581.677 65.0264 582.484 65.8335C583.341 66.6406 584.123 67.1955 584.83 67.4982C585.586 67.8009 586.595 68.154 587.856 68.5576L591.64 69.6926C596.079 71.0042 599.534 72.8707 602.006 75.292C604.478 77.663 605.714 80.9924 605.714 85.2803C605.714 92.1913 603.747 97.3115 599.812 100.641C595.574 104.223 590.177 106.013 583.619 106.013C576.456 106.013 569.772 103.844 563.567 99.5059L569.923 87.5503C574.413 91.4851 578.801 93.4524 583.089 93.4524C585.006 93.4524 586.671 92.9732 588.083 92.0147C589.546 91.0058 590.278 89.5681 590.278 87.7016C590.278 85.1289 587.881 83.1363 583.089 81.7238C582.938 81.6734 582.332 81.4968 581.273 81.1942C578.549 80.4375 576.405 79.7312 574.841 79.0755C573.278 78.4197 571.714 77.5116 570.15 76.3514C568.586 75.1407 567.476 73.6273 566.82 71.8113C566.165 69.9953 565.837 67.7504 565.837 65.0768C565.837 59.326 567.678 54.7103 571.361 51.2295C575.043 47.6983 579.76 45.9327 585.511 45.9327C588.386 45.9327 591.438 46.3615 594.666 47.2191C597.945 48.0767 600.846 49.2117 603.368 50.6242ZM635.468 60.007V104.5H620.637V60.007H608.378V47.4461H647.726V60.007H635.468ZM683.565 94.5875H663.134L659.2 104.5H643.461L665.404 47.4461H681.597L703.087 104.5H687.273L683.565 94.5875ZM679.554 83.2372L673.501 65.0768H673.35L667.22 83.2372H679.554ZM737.233 81.1185L755.166 104.5H736.703L722.704 82.5562H722.553V104.5H707.722V47.4461H729.893C735.845 47.4461 740.638 48.909 744.27 51.8349C747.902 54.7607 749.718 59.1495 749.718 65.0012C749.718 69.0872 748.608 72.6184 746.388 75.5947C744.219 78.571 741.167 80.4123 737.233 81.1185ZM722.553 58.7964V73.022H723.991C730.851 73.022 734.281 70.6511 734.281 65.9092C734.281 61.1673 730.851 58.7964 723.991 58.7964H722.553ZM781.853 60.007V104.5H767.022V60.007H754.764V47.4461H794.111V60.007H781.853ZM834.155 47.4461H848.986V79.5295C848.986 84.1705 848.608 88.08 847.851 91.258C847.145 94.3857 845.531 97.1854 843.009 99.6572C838.721 103.895 832.415 106.013 824.092 106.013C815.768 106.013 809.462 103.895 805.174 99.6572C802.652 97.1854 801.013 94.3857 800.256 91.258C799.55 88.08 799.197 84.1705 799.197 79.5295V47.4461H814.028V77.4864C814.028 79.3025 814.053 80.8158 814.103 82.0265C814.204 83.2372 814.431 84.5992 814.784 86.1126C815.188 87.626 815.718 88.8367 816.373 89.7447C817.08 90.6527 818.089 91.4346 819.4 92.0904C820.712 92.6957 822.275 92.9984 824.092 92.9984C825.908 92.9984 827.471 92.6957 828.783 92.0904C830.095 91.4346 831.078 90.6527 831.734 89.7447C832.44 88.8367 832.97 87.626 833.323 86.1126C833.727 84.5992 833.954 83.2372 834.004 82.0265C834.105 80.8158 834.155 79.3025 834.155 77.4864V47.4461ZM858.393 104.5V47.4461H881.094C887.501 47.4461 892.545 49.0099 896.228 52.1375C899.961 55.2147 901.827 59.9062 901.827 66.2118C901.827 79.1259 895.093 85.5829 881.624 85.5829H873.224V104.5H858.393ZM873.224 59.4017V73.6273H875.722C877.134 73.6273 878.193 73.6273 878.9 73.6273C879.656 73.5769 880.59 73.4256 881.699 73.1733C882.86 72.9211 883.717 72.568 884.272 72.114C884.827 71.66 885.306 70.9789 885.71 70.0709C886.164 69.1629 886.391 68.0279 886.391 66.6659C886.391 65.2534 886.189 64.0931 885.785 63.1851C885.382 62.2266 884.903 61.4952 884.348 60.9907C883.793 60.4863 882.96 60.1332 881.851 59.9314C880.791 59.6791 879.858 59.5278 879.051 59.4774C878.294 59.4269 877.184 59.4017 875.722 59.4017H873.224ZM949.188 47.4461V91.9391H966.97V104.5H934.357V47.4461H949.188ZM1006.78 94.5875H986.35L982.416 104.5H966.677L988.62 47.4461H1004.81L1026.3 104.5H1010.49L1006.78 94.5875ZM1002.77 83.2372L996.717 65.0768H996.566L990.436 83.2372H1002.77ZM1030.94 104.5V47.4461H1045.77L1072.93 82.3292H1073.09V47.4461H1087.92V104.5H1073.09L1045.92 69.5412H1045.77V104.5H1030.94ZM1097.59 104.5V47.4461H1118.63C1126.6 47.4461 1133.41 50.2206 1139.06 55.7696C1144.76 61.2682 1147.61 68.0027 1147.61 75.9731C1147.61 83.9434 1144.76 90.7031 1139.06 96.2522C1133.41 101.751 1126.6 104.5 1118.63 104.5H1097.59ZM1112.42 60.007V91.9391H1115.75C1120.49 91.9391 1124.4 90.6023 1127.48 87.9286C1130.61 85.255 1132.17 81.2698 1132.17 75.9731C1132.17 70.9789 1130.68 67.0694 1127.71 64.2445C1124.73 61.4195 1120.8 60.007 1115.9 60.007H1112.42ZM1157.9 90.8797C1159.61 89.1646 1161.7 88.307 1164.18 88.307C1166.65 88.307 1168.74 89.1646 1170.46 90.8797C1172.17 92.5949 1173.03 94.6883 1173.03 97.1602C1173.03 99.5816 1172.17 101.675 1170.46 103.441C1168.74 105.156 1166.65 106.013 1164.18 106.013C1161.7 106.013 1159.61 105.156 1157.9 103.441C1156.18 101.675 1155.32 99.5816 1155.32 97.1602C1155.32 94.6883 1156.18 92.5949 1157.9 90.8797ZM1157.06 85.1289V47.4461H1171.36V85.1289H1157.06Z" fill="#1B2237"/>
</g>
<mask id="mask0_8302_17801" style="mask-type:alpha" maskUnits="userSpaceOnUse" x="4" y="17" width="1170" height="61">
<path d="M19.6134 18.9461L29.526 55.7966H29.6773L41.6329 18.9461H53.4372L64.6361 55.7966H64.7874L75.5323 18.9461H90.9686L72.7326 76H57.5989L47.6107 42.933H47.4594L36.2605 76H21.2025L4.17711 18.9461H19.6134ZM127.152 31.507H109.522V41.0412H126.244V53.6022H109.522V63.4391H127.152V76H94.6906V18.9461H127.152V31.507ZM151.124 18.9461V63.4391H168.906V76H136.293V18.9461H151.124ZM214.543 20.3081V38.0902C213.03 36.0724 211.113 34.5338 208.792 33.4744C206.522 32.3646 204.101 31.8097 201.528 31.8097C197.039 31.8097 193.381 33.3231 190.556 36.3498C187.731 39.3765 186.319 43.1347 186.319 47.6244C186.319 52.1645 187.731 55.8975 190.556 58.8233C193.432 61.6987 197.165 63.1364 201.755 63.1364C204.177 63.1364 206.522 62.6067 208.792 61.5474C211.062 60.4376 212.979 58.9494 214.543 57.0829V74.865C208.792 76.6306 204.429 77.5134 201.453 77.5134C193.331 77.5134 186.193 74.7136 180.038 69.1142C173.935 63.6156 170.883 56.4271 170.883 47.5487C170.883 39.3765 173.682 32.4151 179.282 26.6643C182.107 23.7889 185.436 21.5441 189.27 19.9298C193.104 18.2651 197.013 17.4327 200.999 17.4327C205.387 17.4327 209.902 18.3912 214.543 20.3081ZM236.953 20.7621C241.745 18.2903 246.891 17.0544 252.389 17.0544C257.888 17.0544 263.033 18.2903 267.826 20.7621C272.618 23.1835 276.502 26.6643 279.478 31.2044C282.455 35.7445 283.943 40.8142 283.943 46.4137C283.943 55.6452 280.967 63.2121 275.014 69.1142C269.112 74.9659 261.57 77.8917 252.389 77.8917C243.208 77.8917 235.641 74.9659 229.689 69.1142C223.787 63.2121 220.836 55.6452 220.836 46.4137C220.836 40.8142 222.324 35.7445 225.3 31.2044C228.276 26.6643 232.161 23.1835 236.953 20.7621ZM263.739 35.9715C260.561 32.9447 256.778 31.4314 252.389 31.4314C248 31.4314 244.217 32.9447 241.039 35.9715C237.861 38.9982 236.272 42.5042 236.272 46.4894C236.272 51.3321 237.836 55.393 240.963 58.672C244.091 61.9005 247.9 63.5147 252.389 63.5147C256.879 63.5147 260.687 61.9005 263.815 58.672C266.943 55.393 268.507 51.3321 268.507 46.4894C268.507 42.5042 266.918 38.9982 263.739 35.9715ZM287.402 76L297.088 18.9461H311.692L323.269 49.4404L335.527 18.9461H350.283L358.909 76H344.078L339.916 43.16H339.765L326.069 76H320.167L307.076 43.16H306.925L302.158 76H287.402ZM397.681 31.507H380.05V41.0412H396.773V53.6022H380.05V63.4391H397.681V76H365.219V18.9461H397.681V31.507ZM455.46 31.507V76H440.629V31.507H428.371V18.9461H467.718V31.507H455.46ZM486.348 20.7621C491.14 18.2903 496.286 17.0544 501.784 17.0544C507.283 17.0544 512.428 18.2903 517.221 20.7621C522.013 23.1835 525.897 26.6643 528.873 31.2044C531.85 35.7445 533.338 40.8142 533.338 46.4137C533.338 55.6452 530.362 63.2121 524.409 69.1142C518.507 74.9659 510.965 77.8917 501.784 77.8917C492.603 77.8917 485.036 74.9659 479.084 69.1142C473.182 63.2121 470.231 55.6452 470.231 46.4137C470.231 40.8142 471.719 35.7445 474.695 31.2044C477.671 26.6643 481.556 23.1835 486.348 20.7621ZM513.134 35.9715C509.956 32.9447 506.173 31.4314 501.784 31.4314C497.395 31.4314 493.612 32.9447 490.434 35.9715C487.256 38.9982 485.667 42.5042 485.667 46.4894C485.667 51.3321 487.231 55.393 490.358 58.672C493.486 61.9005 497.295 63.5147 501.784 63.5147C506.274 63.5147 510.082 61.9005 513.21 58.672C516.338 55.393 517.902 51.3321 517.902 46.4894C517.902 42.5042 516.313 38.9982 513.134 35.9715ZM603.368 22.1242L597.466 33.6258C594.439 31.1035 591.16 29.8423 587.629 29.8423C586.065 29.8423 584.603 30.2711 583.24 31.1287C581.929 31.9863 581.273 33.1465 581.273 34.6094C581.273 35.6184 581.677 36.5264 582.484 37.3335C583.341 38.1406 584.123 38.6955 584.83 38.9982C585.586 39.3009 586.595 39.654 587.856 40.0576L591.64 41.1926C596.079 42.5042 599.534 44.3707 602.006 46.792C604.478 49.163 605.714 52.4924 605.714 56.7803C605.714 63.6913 603.747 68.8115 599.812 72.1409C595.574 75.7225 590.177 77.5134 583.619 77.5134C576.456 77.5134 569.772 75.3442 563.567 71.0059L569.923 59.0503C574.413 62.9851 578.801 64.9524 583.089 64.9524C585.006 64.9524 586.671 64.4732 588.083 63.5147C589.546 62.5058 590.278 61.0681 590.278 59.2016C590.278 56.6289 587.881 54.6363 583.089 53.2238C582.938 53.1734 582.332 52.9968 581.273 52.6942C578.549 51.9375 576.405 51.2312 574.841 50.5755C573.278 49.9197 571.714 49.0116 570.15 47.8514C568.586 46.6407 567.476 45.1273 566.82 43.3113C566.165 41.4953 565.837 39.2504 565.837 36.5768C565.837 30.826 567.678 26.2103 571.361 22.7295C575.043 19.1983 579.76 17.4327 585.511 17.4327C588.386 17.4327 591.438 17.8615 594.666 18.7191C597.945 19.5767 600.846 20.7117 603.368 22.1242ZM635.468 31.507V76H620.637V31.507H608.378V18.9461H647.726V31.507H635.468ZM683.565 66.0875H663.134L659.2 76H643.461L665.404 18.9461H681.597L703.087 76H687.273L683.565 66.0875ZM679.554 54.7372L673.501 36.5768H673.35L667.22 54.7372H679.554ZM737.233 52.6185L755.166 76H736.703L722.704 54.0562H722.553V76H707.722V18.9461H729.893C735.845 18.9461 740.638 20.409 744.27 23.3349C747.902 26.2607 749.718 30.6495 749.718 36.5012C749.718 40.5872 748.608 44.1184 746.388 47.0947C744.219 50.071 741.167 51.9123 737.233 52.6185ZM722.553 30.2964V44.522H723.991C730.851 44.522 734.281 42.1511 734.281 37.4092C734.281 32.6673 730.851 30.2964 723.991 30.2964H722.553ZM781.853 31.507V76H767.022V31.507H754.764V18.9461H794.111V31.507H781.853ZM834.155 18.9461H848.986V51.0295C848.986 55.6705 848.608 59.58 847.851 62.758C847.145 65.8857 845.531 68.6854 843.009 71.1572C838.721 75.3947 832.415 77.5134 824.092 77.5134C815.768 77.5134 809.462 75.3947 805.174 71.1572C802.652 68.6854 801.013 65.8857 800.256 62.758C799.55 59.58 799.197 55.6705 799.197 51.0295V18.9461H814.028V48.9864C814.028 50.8025 814.053 52.3158 814.103 53.5265C814.204 54.7372 814.431 56.0992 814.784 57.6126C815.188 59.126 815.718 60.3367 816.373 61.2447C817.08 62.1527 818.089 62.9346 819.4 63.5904C820.712 64.1957 822.275 64.4984 824.092 64.4984C825.908 64.4984 827.471 64.1957 828.783 63.5904C830.095 62.9346 831.078 62.1527 831.734 61.2447C832.44 60.3367 832.97 59.126 833.323 57.6126C833.727 56.0992 833.954 54.7372 834.004 53.5265C834.105 52.3158 834.155 50.8025 834.155 48.9864V18.9461ZM858.393 76V18.9461H881.094C887.501 18.9461 892.545 20.5099 896.228 23.6375C899.961 26.7147 901.827 31.4062 901.827 37.7118C901.827 50.6259 895.093 57.0829 881.624 57.0829H873.224V76H858.393ZM873.224 30.9017V45.1273H875.722C877.134 45.1273 878.193 45.1273 878.9 45.1273C879.656 45.0769 880.59 44.9256 881.699 44.6733C882.86 44.4211 883.717 44.068 884.272 43.614C884.827 43.16 885.306 42.4789 885.71 41.5709C886.164 40.6629 886.391 39.5279 886.391 38.1659C886.391 36.7534 886.189 35.5931 885.785 34.6851C885.382 33.7266 884.903 32.9952 884.348 32.4907C883.793 31.9863 882.96 31.6332 881.851 31.4314C880.791 31.1791 879.858 31.0278 879.051 30.9774C878.294 30.9269 877.184 30.9017 875.722 30.9017H873.224ZM949.188 18.9461V63.4391H966.97V76H934.357V18.9461H949.188ZM1006.78 66.0875H986.35L982.416 76H966.677L988.62 18.9461H1004.81L1026.3 76H1010.49L1006.78 66.0875ZM1002.77 54.7372L996.717 36.5768H996.566L990.436 54.7372H1002.77ZM1030.94 76V18.9461H1045.77L1072.93 53.8292H1073.09V18.9461H1087.92V76H1073.09L1045.92 41.0412H1045.77V76H1030.94ZM1097.59 76V18.9461H1118.63C1126.6 18.9461 1133.41 21.7206 1139.06 27.2696C1144.76 32.7682 1147.61 39.5027 1147.61 47.4731C1147.61 55.4434 1144.76 62.2031 1139.06 67.7522C1133.41 73.2507 1126.6 76 1118.63 76H1097.59ZM1112.42 31.507V63.4391H1115.75C1120.49 63.4391 1124.4 62.1023 1127.48 59.4286C1130.61 56.755 1132.17 52.7698 1132.17 47.4731C1132.17 42.4789 1130.68 38.5694 1127.71 35.7445C1124.73 32.9195 1120.8 31.507 1115.9 31.507H1112.42ZM1157.9 62.3797C1159.61 60.6646 1161.7 59.807 1164.18 59.807C1166.65 59.807 1168.74 60.6646 1170.46 62.3797C1172.17 64.0949 1173.03 66.1883 1173.03 68.6602C1173.03 71.0816 1172.17 73.1751 1170.46 74.9406C1168.74 76.6558 1166.65 77.5134 1164.18 77.5134C1161.7 77.5134 1159.61 76.6558 1157.9 74.9406C1156.18 73.1751 1155.32 71.0816 1155.32 68.6602C1155.32 66.1883 1156.18 64.0949 1157.9 62.3797ZM1157.06 56.6289V18.9461H1171.36V56.6289H1157.06Z" fill="white"/>
</mask>
<g mask="url(#mask0_8302_17801)">
<rect x="-8" y="8" width="1192" height="79" fill="white"/>
<g filter="url(#filter1_f_8302_17801)">
<path d="M222.627 8.27222H967.197C977.262 37.3409 980.189 54.6721 981.65 87.0152H207.178C210.725 54.617 213.331 37.4076 222.627 8.27222Z" fill="url(#paint0_linear_8302_17801)"/>
</g>
</g>
<defs>
<filter id="filter0_f_8302_17801" x="0.177246" y="41.5544" width="1176.85" height="68.8372" filterUnits="userSpaceOnUse" color-interpolation-filters="sRGB">
<feFlood flood-opacity="0" result="BackgroundImageFix"/>
<feBlend mode="normal" in="SourceGraphic" in2="BackgroundImageFix" result="shape"/>
<feGaussianBlur stdDeviation="2" result="effect1_foregroundBlur_8302_17801"/>
</filter>
<filter id="filter1_f_8302_17801" x="203.178" y="4.27222" width="782.472" height="86.7429" filterUnits="userSpaceOnUse" color-interpolation-filters="sRGB">
<feFlood flood-opacity="0" result="BackgroundImageFix"/>
<feBlend mode="normal" in="SourceGraphic" in2="BackgroundImageFix" result="shape"/>
<feGaussianBlur stdDeviation="2" result="effect1_foregroundBlur_8302_17801"/>
</filter>
<linearGradient id="paint0_linear_8302_17801" x1="207" y1="47.9999" x2="982" y2="47.9999" gradientUnits="userSpaceOnUse">
<stop stop-color="#1A2136"/>
<stop offset="0.499244" stop-color="#1B3058"/>
<stop offset="1" stop-color="#1A2136"/>
</linearGradient>
</defs>
</svg>
