<svg width="1312" height="566" viewBox="0 0 1312 566" fill="none" xmlns="http://www.w3.org/2000/svg">
<g clip-path="url(#clip0_8055_17536)">
<g opacity="0.5">
<path opacity="0.5" d="M1037.67 75.2907L967.142 116.008L965.739 27.5793" stroke="#1A2136" stroke-width="31.627" stroke-linecap="round" stroke-linejoin="round"/>
<path opacity="0.5" d="M1028.67 67.2907L958.142 108.008L956.739 19.5793" stroke="#1A2136" stroke-width="31.627" stroke-linecap="round" stroke-linejoin="round"/>
</g>
<g opacity="0.5">
<g opacity="0.5">
<path d="M1162.15 493.406C1162.15 469.989 1181.1 451.006 1204.46 451.006C1219.07 451.006 1231.95 458.42 1239.55 469.698" stroke="#1A2136" stroke-width="31.627" stroke-linecap="round"/>
<path d="M1204.55 493.406C1204.55 516.823 1223.5 535.806 1246.87 535.806C1261.47 535.806 1274.35 528.391 1281.95 517.114" stroke="#1A2136" stroke-width="31.627" stroke-linecap="round"/>
</g>
<g opacity="0.5">
<path d="M1150 481.253C1150 457.836 1168.94 438.853 1192.31 438.853C1206.92 438.853 1219.79 446.268 1227.4 457.546" stroke="#1A2136" stroke-width="31.627" stroke-linecap="round"/>
<path d="M1197.55 507.406C1197.55 530.823 1216.5 549.806 1239.87 549.806C1254.47 549.806 1267.35 542.391 1274.95 531.114" stroke="#1A2136" stroke-width="31.627" stroke-linecap="round"/>
</g>
</g>
<g opacity="0.5">
<g opacity="0.5">
<line x1="263.997" y1="131.478" x2="333.657" y2="95.4778" stroke="#1A2136" stroke-width="31.627" stroke-linecap="round"/>
<line x1="311.986" y1="163.844" x2="272.78" y2="95.937" stroke="#1A2136" stroke-width="31.627" stroke-linecap="round"/>
</g>
<g opacity="0.5">
<line x1="262.997" y1="146.478" x2="332.657" y2="110.478" stroke="#1A2136" stroke-width="31.627" stroke-linecap="round"/>
<line x1="310.986" y1="178.844" x2="271.78" y2="110.937" stroke="#1A2136" stroke-width="31.627" stroke-linecap="round"/>
</g>
</g>
<g opacity="0.5">
<g opacity="0.5">
<circle cx="290.96" cy="388.356" r="35.3237" stroke="#1A2136" stroke-width="31.627" stroke-linecap="round"/>
</g>
<g opacity="0.5">
<circle cx="300.96" cy="399.356" r="35.3237" stroke="#1A2136" stroke-width="31.627" stroke-linecap="round"/>
</g>
</g>
<g opacity="0.5">
<g opacity="0.5">
<path d="M26.7007 184.991C26.7007 161.128 45.9853 141.783 69.774 141.783C93.5627 141.783 112.847 161.128 112.847 184.991C112.847 196.057 108.7 206.152 101.88 213.796" stroke="#1A2136" stroke-width="31.627" stroke-linecap="round" stroke-linejoin="round"/>
<circle cx="54.2944" cy="229.276" r="15.4795" fill="#1A2136"/>
</g>
<g opacity="0.5">
<path d="M15.7007 194.991C15.7007 171.128 34.9853 151.783 58.774 151.783C82.5627 151.783 101.847 171.128 101.847 194.991C101.847 206.057 97.7 216.152 90.8795 223.796" stroke="#1A2136" stroke-width="31.627" stroke-linecap="round" stroke-linejoin="round"/>
<circle cx="47.0278" cy="234.11" r="15.4795" fill="#1A2136"/>
</g>
</g>
<g opacity="0.5">
<g opacity="0.5">
<line x1="1014.62" y1="325.413" x2="1053.87" y2="364.66" stroke="#1A2136" stroke-width="31.627" stroke-linecap="round"/>
<path d="M1025.24 276.47L1099.05 350.284" stroke="#1A2136" stroke-width="31.627" stroke-linecap="round"/>
</g>
<g opacity="0.5">
<line x1="1016.62" y1="341.413" x2="1055.87" y2="380.66" stroke="#1A2136" stroke-width="31.627" stroke-linecap="round"/>
<path d="M1047.26 284.56L1121.07 358.375" stroke="#1A2136" stroke-width="31.627" stroke-linecap="round"/>
</g>
</g>
<g opacity="0.5">
<g opacity="0.5">
<path d="M1180.1 97.6907L1291.1 208.691" stroke="#1A2136" stroke-width="31.627" stroke-linecap="round"/>
<path d="M1187.1 157.691L1238.1 106.691" stroke="#1A2136" stroke-width="31.627" stroke-linecap="round"/>
</g>
<g opacity="0.5">
<path d="M1180.1 110.691L1291.1 221.691" stroke="#1A2136" stroke-width="31.627" stroke-linecap="round"/>
<path d="M1187.1 170.691L1238.1 119.691" stroke="#1A2136" stroke-width="31.627" stroke-linecap="round"/>
</g>
</g>
<g opacity="0.5">
<path opacity="0.5" d="M129.867 486.835L59.3422 527.553L57.9398 439.124" stroke="#1A2136" stroke-width="31.627" stroke-linecap="round" stroke-linejoin="round"/>
<path opacity="0.5" d="M137.733 498.821L67.208 539.539L65.8055 451.11" stroke="#1A2136" stroke-width="31.627" stroke-linecap="round" stroke-linejoin="round"/>
</g>
</g>
<defs>
<clipPath id="clip0_8055_17536">
<rect width="1312" height="566" fill="white"/>
</clipPath>
</defs>
</svg>
