<svg viewBox="0 0 50 38" fill="none" xmlns="http://www.w3.org/2000/svg">
<path d="M47 4H26V3C26 1.34766 24.6523 0 23 0H3C1.34766 0 0 1.34766 0 3V35C0 36.6523 1.34766 38 3 38H9V35H13V38H37V35H41V38H47C48.6523 38 50 36.6523 50 35V7C50 5.34766 48.6523 4 47 4ZM6 27C6.20703 23.4219 10.9844 23.9414 11.6484 22.0859C11.7031 21.4492 11.6836 21.0078 11.6836 20.4258C11.4062 20.2773 10.8906 19.3164 10.8086 18.5C10.5898 18.4844 10.25 18.2617 10.1484 17.3906C10.0938 16.9219 10.3086 16.6602 10.4375 16.5781C9.70312 13.6328 10.1055 11.0625 13.4648 11C14.3047 11 14.9492 11.2344 15.1992 11.6953C17.6523 12.0469 16.9141 15.4727 16.5625 16.5781C16.6914 16.6602 16.9062 16.9258 16.8516 17.3906C16.7539 18.2656 16.4102 18.4844 16.1914 18.5039C16.1055 19.3164 15.6133 20.2773 15.3359 20.4297C15.3359 21.0078 15.3164 21.4492 15.3711 22.0859C16.0352 23.9414 20.793 23.4219 21 27H6ZM44 27H26V25H44V27ZM44 22H26V20H44V22ZM44 17H26V15H44V17Z" fill="url(#paint0_linear_5792_13961)"/>
<defs>
<linearGradient id="paint0_linear_5792_13961" x1="0" y1="19" x2="50" y2="19" gradientUnits="userSpaceOnUse">
<stop stop-color="#D95379"/>
<stop offset="1" stop-color="#E25E73"/>
</linearGradient>
</defs>
</svg>
