<svg viewBox="0 0 47 47" fill="none" xmlns="http://www.w3.org/2000/svg">
<path d="M2.10156 0C0.941406 0 0 0.941406 0 2.10156V41.9023C0 43.0586 0.941406 44 2.10156 44H12C13.1055 44 14 43.1055 14 42V2.10156C14 0.941406 13.0586 0 11.9023 0H2.10156ZM32.0977 0C30.9414 0 30 0.941406 30 2.10156V27.2656C31.9727 25.8477 34.3828 25 37 25C39.6172 25 42.0273 25.8477 44 27.2656V2.10156C44 0.941406 43.0586 0 41.9023 0H32.0977ZM3 8H11C11.5547 8 12 8.44922 12 9C12 9.55078 11.5547 10 11 10H3C2.44531 10 2 9.55078 2 9C2 8.44922 2.44531 8 3 8ZM33 8H41C41.5547 8 42 8.44922 42 9C42 9.55078 41.5547 10 41 10H33C32.4453 10 32 9.55078 32 9C32 8.44922 32.4453 8 33 8ZM17 9C15.8945 9 15 9.89453 15 11V42C15 43.1055 15.8945 44 17 44H27.2656C26.0312 42.2812 25.2344 40.2305 25.0508 38H18C17.4492 38 17 37.5508 17 37C17 36.4492 17.4492 36 18 36H25.0508C25.3125 32.8555 26.7812 30.0625 29 28.0742V11C29 9.89453 28.1055 9 27 9H17ZM18 17H26C26.5547 17 27 17.4492 27 18C27 18.5508 26.5547 19 26 19H18C17.4453 19 17 18.5508 17 18C17 17.4492 17.4453 17 18 17ZM37 27C31.4883 27 27 31.4883 27 37C27 42.5117 31.4883 47 37 47C42.5117 47 47 42.5117 47 37C47 31.4883 42.5117 27 37 27ZM37 29C41.4297 29 45 32.5703 45 37C45 41.4297 41.4297 45 37 45C32.5703 45 29 41.4297 29 37C29 32.5703 32.5703 29 37 29ZM3 31H11C11.5547 31 12 31.4492 12 32C12 32.5508 11.5547 33 11 33H3C2.44531 33 2 32.5508 2 32C2 31.4492 2.44531 31 3 31ZM41.2383 32.3477L35.8477 38.6406L32.5977 36.1992L31.4023 37.8008L36.1523 41.3594L42.7617 33.6523L41.2383 32.3477ZM3 35H11C11.5547 35 12 35.4492 12 36C12 36.5508 11.5547 37 11 37H3C2.44531 37 2 36.5508 2 36C2 35.4492 2.44531 35 3 35Z" fill="url(#paint0_linear_5792_13969)"/>
<defs>
<linearGradient id="paint0_linear_5792_13969" x1="0" y1="23.5" x2="47" y2="23.5" gradientUnits="userSpaceOnUse">
<stop stop-color="#6B0DA6"/>
<stop offset="1" stop-color="#5906AB"/>
</linearGradient>
</defs>
</svg>
