<svg viewBox="0 0 50 50" fill="none" xmlns="http://www.w3.org/2000/svg">
<path d="M30.5872 0.20019C30.1567 0.168492 29.7151 0.246748 29.3068 0.442768L24.9995 2.49097L20.6943 0.442768C19.6024 -0.0788724 18.2846 0.248148 17.5513 1.21691L14.691 5.03066L9.92589 5.21839C8.71845 5.26699 7.70079 6.17126 7.50855 7.36574L6.74706 12.0718L2.61691 14.4553C1.56823 15.0591 1.08601 16.329 1.46941 17.4781L2.98394 22.0006L0.431596 26.0253C-0.219644 27.0491 -0.0540498 28.4008 0.82183 29.2378L4.26222 32.5369L3.8741 37.2914C3.7769 38.4956 4.5482 39.6144 5.71136 39.9535L10.2929 41.2739L12.1555 45.6636C12.6361 46.7878 13.845 47.416 15.02 47.1654L19.6944 46.2078L23.3816 49.2263C23.8363 49.5989 24.4119 49.8043 25.0016 49.8043C25.5913 49.8043 26.1638 49.601 26.6174 49.2284L30.3067 46.2099L34.9726 47.1654C36.1552 47.4192 37.3671 46.7857 37.8456 45.6614L39.7082 41.2739L44.2918 39.9535C45.4539 39.6154 46.2253 38.4956 46.1249 37.2914L45.7389 32.5369L49.1792 29.24C50.0551 28.403 50.2217 27.0502 49.5737 26.0253L47.0192 21.9985L48.538 17.4739C48.9171 16.3258 48.4306 15.0559 47.3863 14.4532L43.2561 12.0718L42.4946 7.35941C42.2959 6.16817 41.2784 5.2691 40.0731 5.2205L35.308 5.03066L32.4477 1.21691C31.9914 0.608733 31.3048 0.253019 30.5872 0.20019ZM11.4784 20.1401C14.8264 20.1401 15.1508 22.517 15.1508 23.165H13.5308C13.5308 22.517 13.2064 21.545 11.4784 21.545C9.85839 21.545 9.75081 22.5165 9.75081 22.7325C9.75081 25.0005 15.4735 23.4885 15.4735 27.0525C15.4735 29.8605 12.1255 30.0753 11.6935 30.0753C8.02155 30.0753 7.69839 27.4837 7.69839 26.7277H9.31839V26.6201C9.31839 26.9441 9.31755 28.6725 11.6935 28.6725C13.6375 28.6725 13.746 27.3757 13.746 27.2677C13.746 24.8917 8.02113 26.5117 8.02113 22.9477C8.02113 22.2997 8.45439 20.1401 11.4784 20.1401ZM20.1184 20.2477H21.846L25.5184 29.7525H23.7908L22.8184 27.2677H19.0384L18.1735 29.7525H16.446L20.1184 20.2477ZM27.0308 20.2477H28.6508V28.2401H33.5108V29.645H27.0308V20.2477ZM35.346 20.2477H42.1508V21.6525H36.966V24.1353H41.7184V25.5401H36.966V28.3477H42.2584V29.7525H35.346V20.2477ZM20.9811 21.8677L19.4708 25.9725H22.386L20.9811 21.8677Z" fill="url(#paint0_linear_5792_13967)"/>
<defs>
<linearGradient id="paint0_linear_5792_13967" x1="0.0351563" y1="24.9988" x2="49.9672" y2="24.9988" gradientUnits="userSpaceOnUse">
<stop stop-color="#992198"/>
<stop offset="1" stop-color="#881A9D"/>
</linearGradient>
</defs>
</svg>
