<svg width="50" height="40" viewBox="0 0 50 40" fill="none" xmlns="http://www.w3.org/2000/svg">
<path opacity="0.05" d="M17.036 0C22.5762 0 25.3463 2.10275 25.3463 6.30825C25.3463 11.374 24.1921 16.583 21.8837 21.9355C19.4829 27.3835 16.8052 31.7324 13.8504 34.9821C10.8033 38.3274 8.40259 40 6.6482 40C4.89382 40 3.37027 39.7133 2.07756 39.1398C0.692524 38.6619 0 37.8973 0 36.8459C0 35.8901 0.507847 34.2174 1.52354 31.828C4.57064 24.4683 6.09418 15.9618 6.09418 6.30825C6.09418 2.10275 8.86427 0 14.4044 0H17.036ZM41.6898 0C47.2299 0 50 2.10275 50 6.30825C50 11.374 48.8458 16.583 46.5374 21.9355C44.1367 27.3835 41.4589 31.7324 38.5042 34.9821C35.4571 38.3274 33.0563 40 31.3019 40C29.5476 40 28.024 39.7133 26.7313 39.1398C25.3463 38.6619 24.6537 37.8973 24.6537 36.8459C24.6537 35.8901 25.1616 34.2174 26.1773 31.828C29.2244 24.4683 30.7479 15.9618 30.7479 6.30825C30.7479 2.10275 33.518 0 39.0582 0H41.6898Z" fill="black"/>
</svg>
