<svg width="27" height="28" viewBox="0 0 27 28" fill="none" xmlns="http://www.w3.org/2000/svg">
<path d="M3.80322 0C1.97947 0 0.5 1.47703 0.5 3.30078C0.5 5.12453 1.97828 6.63574 3.80078 6.63574C5.62328 6.63574 7.104 5.12453 7.104 3.30078C7.104 1.47828 5.62697 0 3.80322 0ZM19.9189 8.75C17.1452 8.75 15.5581 10.2006 14.7969 11.6431H14.7163V9.13818H9.25V27.5H14.9458V18.4106C14.9458 16.0156 15.1266 13.7012 18.0903 13.7012C21.0116 13.7012 21.0542 16.432 21.0542 18.562V27.5H26.7427H26.75V17.4146C26.75 12.4796 25.6889 8.75 19.9189 8.75ZM0.954102 9.13818V27.5H6.65479V9.13818H0.954102Z" fill="#45474F"/>
</svg>
