<svg width="30" height="26" viewBox="0 0 30 26" fill="none" xmlns="http://www.w3.org/2000/svg">
<path d="M30 3.69824C28.8965 4.18652 27.71 4.51855 26.4648 4.66504C27.7344 3.90332 28.7109 2.69727 29.1699 1.26172C27.9834 1.96484 26.665 2.47754 25.2637 2.75586C24.1406 1.55957 22.5391 0.807617 20.7715 0.807617C17.373 0.807617 14.6143 3.56641 14.6143 6.96484C14.6143 7.44824 14.668 7.91699 14.7754 8.36621C9.6582 8.1123 5.12207 5.66113 2.08984 1.93555C1.55762 2.84375 1.25488 3.90332 1.25488 5.03125C1.25488 7.16504 2.33887 9.0498 3.99414 10.1533C2.9834 10.1191 2.03613 9.8457 1.20606 9.38183C1.20606 9.41113 1.20606 9.43555 1.20606 9.45996C1.20606 12.4434 3.3252 14.9336 6.14258 15.4951C5.625 15.6367 5.08301 15.7148 4.52148 15.7148C4.12598 15.7148 3.73535 15.6758 3.36426 15.6025C4.14551 18.0488 6.4209 19.8262 9.11133 19.8799C7.00684 21.5303 4.35059 22.5117 1.46973 22.5117C0.97168 22.5117 0.483399 22.4824 0 22.4238C2.72461 24.1719 5.95703 25.1924 9.43359 25.1924C20.7568 25.1924 26.9482 15.8125 26.9482 7.67773C26.9482 7.41406 26.9385 7.14551 26.9287 6.88184C28.1299 6.01269 29.1748 4.92871 30 3.69824Z" fill="#45474F"/>
</svg>
