<svg width="18" height="20" viewBox="0 0 18 20" fill="none" xmlns="http://www.w3.org/2000/svg">
<path d="M9 0C4.313 0 0.5 3.813 0.5 8.5C0.5 10.518 1.2245 12.4765 2.5465 14.024C2.6975 14.1955 6.26 18.2435 7.45 19.378C7.8845 19.7925 8.442 20 9 20C9.558 20 10.1155 19.7925 10.5505 19.378C11.934 18.0585 15.3125 14.1855 15.4605 14.0155C16.7755 12.4765 17.5 10.518 17.5 8.5C17.5 3.813 13.687 0 9 0ZM9 11C7.6195 11 6.5 9.8805 6.5 8.5C6.5 7.1195 7.6195 6 9 6C10.3805 6 11.5 7.1195 11.5 8.5C11.5 9.8805 10.3805 11 9 11Z" fill="url(#paint0_linear_1501_989)"/>
<defs>
<linearGradient id="paint0_linear_1501_989" x1="0.0989936" y1="10.0483" x2="27.5393" y2="10.0483" gradientUnits="userSpaceOnUse">
<stop stop-color="#FD4B7A"/>
<stop offset="1" stop-color="#4D00AE"/>
</linearGradient>
</defs>
</svg>
