<svg width="36" height="34" viewBox="0 0 36 34" fill="none" xmlns="http://www.w3.org/2000/svg">
<path opacity="0.3" d="M5.75 0C2.76667 0 0.333336 2.43333 0.333336 5.41667V14.5833C0.333336 17.5667 2.76667 20 5.75 20H16.1667C16.5417 19.1 17.0331 18.2583 17.6331 17.5H5.75C4.14167 17.5 2.83334 16.1917 2.83334 14.5833V5.41667C2.83334 3.80833 4.14167 2.5 5.75 2.5H28.25C29.8583 2.5 31.1667 3.80833 31.1667 5.41667V14.5589C31.9917 14.9839 32.7587 15.5243 33.4421 16.1409C33.5837 15.6493 33.6667 15.125 33.6667 14.5833V5.41667C33.6667 2.43333 31.2333 0 28.25 0H5.75ZM9.5 8.33333C9.05797 8.33333 8.63405 8.50893 8.32149 8.82149C8.00893 9.13405 7.83334 9.55797 7.83334 10C7.83334 10.442 8.00893 10.8659 8.32149 11.1785C8.63405 11.4911 9.05797 11.6667 9.5 11.6667C9.94203 11.6667 10.366 11.4911 10.6785 11.1785C10.9911 10.8659 11.1667 10.442 11.1667 10C11.1667 9.55797 10.9911 9.13405 10.6785 8.82149C10.366 8.50893 9.94203 8.33333 9.5 8.33333ZM17 8.33333C16.558 8.33333 16.1341 8.50893 15.8215 8.82149C15.5089 9.13405 15.3333 9.55797 15.3333 10C15.3333 10.442 15.5089 10.8659 15.8215 11.1785C16.1341 11.4911 16.558 11.6667 17 11.6667C17.442 11.6667 17.866 11.4911 18.1785 11.1785C18.4911 10.8659 18.6667 10.442 18.6667 10C18.6667 9.55797 18.4911 9.13405 18.1785 8.82149C17.866 8.50893 17.442 8.33333 17 8.33333ZM24.5 8.33333C24.058 8.33333 23.6341 8.50893 23.3215 8.82149C23.0089 9.13405 22.8333 9.55797 22.8333 10C22.8333 10.442 23.0089 10.8659 23.3215 11.1785C23.6341 11.4911 24.058 11.6667 24.5 11.6667C24.942 11.6667 25.366 11.4911 25.6785 11.1785C25.9911 10.8659 26.1667 10.442 26.1667 10C26.1667 9.55797 25.9911 9.13405 25.6785 8.82149C25.366 8.50893 24.942 8.33333 24.5 8.33333ZM26.1667 15C21.1042 15 17 19.1042 17 24.1667C17 29.2292 21.1042 33.3333 26.1667 33.3333C31.2292 33.3333 35.3333 29.2292 35.3333 24.1667C35.3333 19.1042 31.2292 15 26.1667 15ZM26.1667 20C30.485 20 32.6302 23.5942 32.7194 23.7467C32.8702 24.0067 32.8702 24.3266 32.7194 24.5866C32.6302 24.7399 30.485 28.3333 26.1667 28.3333C21.8483 28.3333 19.7031 24.7391 19.6139 24.5866C19.4631 24.3266 19.4631 24.0067 19.6139 23.7467C19.7031 23.5942 21.8483 20 26.1667 20ZM26.1667 21.6667C24.7858 21.6667 23.6667 22.7858 23.6667 24.1667C23.6667 25.5475 24.7858 26.6667 26.1667 26.6667C27.5475 26.6667 28.6667 25.5475 28.6667 24.1667C28.6667 22.7858 27.5475 21.6667 26.1667 21.6667Z" fill="#6D7B83"/>
</svg>
