<svg width="20" height="20" viewBox="0 0 20 20" fill="none" xmlns="http://www.w3.org/2000/svg">
<path d="M3.25 0C1.458 0 0 1.458 0 3.25V4H18V3.25C18 1.458 16.542 0 14.75 0H3.25ZM0 5.5V14.75C0 16.542 1.458 18 3.25 18H13.4043L11.0068 15.6025C10.7088 15.3045 10.4895 14.9347 10.373 14.5312C9.98005 13.1582 9.61426 11.8672 9.61426 11.8672C9.53076 11.6467 9.49345 11.4152 9.50195 11.1797C9.51845 10.7367 9.69924 10.3222 10.0107 10.0107C10.3242 9.69774 10.7401 9.51698 11.1826 9.50098C11.4151 9.49648 11.6467 9.53126 11.8662 9.61426C11.8662 9.61426 13.1563 9.97907 14.5283 10.3721C14.9343 10.4891 15.305 10.7088 15.6025 11.0068L18 13.4043V5.5H0ZM3.75 7H14.25C14.6645 7 15 7.3355 15 7.75C15 8.1645 14.6645 8.5 14.25 8.5H3.75C3.3355 8.5 3 8.1645 3 7.75C3 7.3355 3.3355 7 3.75 7ZM3.75 10H7.75C8.1645 10 8.5 10.3355 8.5 10.75C8.5 11.1645 8.1645 11.5 7.75 11.5H3.75C3.3355 11.5 3 11.1645 3 10.75C3 10.3355 3.3355 10 3.75 10ZM11.2168 10.5C11.0353 10.5065 10.8558 10.5778 10.7168 10.7168C10.5783 10.8553 10.507 11.0338 10.5 11.2148C10.4965 11.3153 10.5123 11.4172 10.5488 11.5127L11.334 14.2529C11.404 14.4944 11.5349 14.7155 11.7139 14.8945L16.1133 19.2949C16.4698 19.6519 16.892 19.8824 17.334 19.9619C17.4735 19.9869 17.612 19.9985 17.749 19.999C18.346 20.0005 18.9103 19.7703 19.3398 19.3398C19.7698 18.9103 20.001 18.346 20 17.749C19.9995 17.612 19.9874 17.4735 19.9619 17.334C19.8824 16.892 19.6519 16.4698 19.2949 16.1133L14.8955 11.7139C14.717 11.5354 14.4944 11.404 14.2529 11.334L11.5127 10.5488C11.4177 10.5128 11.3173 10.4965 11.2168 10.5Z" fill="url(#paint0_linear_1501_997)"/>
<defs>
<linearGradient id="paint0_linear_1501_997" x1="-0.471772" y1="10.0478" x2="31.8109" y2="10.0478" gradientUnits="userSpaceOnUse">
<stop stop-color="#FD4B7A"/>
<stop offset="1" stop-color="#4D00AE"/>
</linearGradient>
</defs>
</svg>
