<svg width="37" height="37" viewBox="0 0 37 37" fill="none" xmlns="http://www.w3.org/2000/svg">
<path d="M14.5 0C6.50963 0 0 6.50964 0 14.5C0 22.4904 6.50963 29 14.5 29C17.9564 29 21.1337 27.779 23.6289 25.75L33.4395 35.5605C33.5777 35.7045 33.7432 35.8194 33.9264 35.8986C34.1096 35.9778 34.3068 36.0196 34.5063 36.0216C34.7059 36.0237 34.9038 35.9859 35.0886 35.9104C35.2734 35.835 35.4412 35.7234 35.5823 35.5823C35.7234 35.4412 35.835 35.2734 35.9104 35.0886C35.9859 34.9038 36.0237 34.7059 36.0216 34.5063C36.0196 34.3068 35.9778 34.1096 35.8986 33.9264C35.8194 33.7432 35.7045 33.5777 35.5605 33.4395L25.75 23.6289C27.779 21.1337 29 17.9564 29 14.5C29 6.50964 22.4904 0 14.5 0ZM14.5 3C20.869 3 26 8.13096 26 14.5C26 17.6026 24.7762 20.4057 22.791 22.4707C22.6686 22.5606 22.5606 22.6686 22.4707 22.791C20.4057 24.7762 17.6026 26 14.5 26C8.13095 26 3 20.869 3 14.5C3 8.13096 8.13095 3 14.5 3Z" fill="#6D7B83"/>
</svg>
