<svg width="21" height="22" viewBox="0 0 21 22" fill="none" xmlns="http://www.w3.org/2000/svg">
<path d="M15.5 0.5C12.4625 0.5 10 2.9625 10 6C10 9.0375 12.4625 11.5 15.5 11.5C18.5375 11.5 21 9.0375 21 6C21 2.9625 18.5375 0.5 15.5 0.5ZM2.25 2C1.0095 2 0 3.0095 0 4.25V14.75C0 15.9905 1.0095 17 2.25 17H6.5V19.5H4.75C4.65062 19.4986 4.55194 19.517 4.45972 19.554C4.36749 19.5911 4.28355 19.6461 4.21277 19.7159C4.142 19.7857 4.08579 19.8688 4.04743 19.9605C4.00907 20.0522 3.98932 20.1506 3.98932 20.25C3.98932 20.3494 4.00907 20.4478 4.04743 20.5395C4.08579 20.6312 4.142 20.7143 4.21277 20.7841C4.28355 20.8539 4.36749 20.9089 4.45972 20.946C4.55194 20.983 4.65062 21.0014 4.75 21H7.12695C7.20747 21.0132 7.2896 21.0132 7.37012 21H12.627C12.7075 21.0132 12.7896 21.0132 12.8701 21H15.25C15.3494 21.0014 15.4481 20.983 15.5403 20.946C15.6325 20.9089 15.7164 20.8539 15.7872 20.7841C15.858 20.7143 15.9142 20.6312 15.9526 20.5395C15.9909 20.4478 16.0107 20.3494 16.0107 20.25C16.0107 20.1506 15.9909 20.0522 15.9526 19.9605C15.9142 19.8688 15.858 19.7857 15.7872 19.7159C15.7164 19.6461 15.6325 19.5911 15.5403 19.554C15.4481 19.517 15.3494 19.4986 15.25 19.5H13.5V17H17.75C18.9905 17 20 15.9905 20 14.75V10.6836C18.832 11.8066 17.248 12.5 15.5 12.5C11.91 12.5 9 9.59 9 6C9 4.49 9.51979 3.1035 10.3838 2H2.25ZM15 2.5C15.276 2.5 15.5 2.724 15.5 3V6H18C18.276 6 18.5 6.224 18.5 6.5C18.5 6.776 18.276 7 18 7H15C14.724 7 14.5 6.776 14.5 6.5V3C14.5 2.724 14.724 2.5 15 2.5ZM8 17H12V19.5H8V17Z" fill="#6D7B83"/>
</svg>
