<svg width="91" height="90" viewBox="0 0 91 90" fill="none" xmlns="http://www.w3.org/2000/svg">
<circle cx="45.5" cy="45" r="45" fill="white"/>
<circle cx="45.5" cy="45" r="30" fill="url(#paint0_linear_6202_14869)"/>
<path d="M52.9893 38.008H44.1153L43.6733 40.932L45.7813 40.762C48.3653 40.558 50.5186 41.3627 52.2413 43.176C53.9866 44.9893 54.8593 47.2447 54.8593 49.942C54.8593 52.7527 53.76 55.0647 51.5613 56.878C49.7706 58.306 47.2773 59.02 44.0813 59.02C40.908 59.02 38.12 58.2493 35.7173 56.708L36.7033 50.418C38.902 52.39 41.282 53.376 43.8433 53.376C44.9313 53.376 45.8833 53.0247 46.6993 52.322C47.5153 51.5967 47.9233 50.69 47.9233 49.602C47.9233 48.174 47.3566 47.086 46.2233 46.338C45.1126 45.59 43.8093 45.216 42.3133 45.216C40.5453 45.216 38.9133 45.5673 37.4173 46.27L39.6613 32.364H52.9893V38.008Z" fill="white"/>
<defs>
<linearGradient id="paint0_linear_6202_14869" x1="15.5" y1="45" x2="75.5" y2="45" gradientUnits="userSpaceOnUse">
<stop stop-color="#7511A3"/>
<stop offset="1" stop-color="#5504AD"/>
</linearGradient>
</defs>
</svg>
