<svg width="91" height="90" viewBox="0 0 91 90" fill="none" xmlns="http://www.w3.org/2000/svg">
<circle cx="45.5" cy="45" r="45" fill="white"/>
<circle cx="45.5" cy="45" r="30" fill="url(#paint0_linear_6202_14851)"/>
<path d="M47.1737 52.356H55.5717V58H34.9677L45.4397 46.61C47.389 44.4793 48.3637 42.3827 48.3637 40.32C48.3637 39.4587 48.0804 38.688 47.5137 38.008C46.9697 37.328 46.2784 36.988 45.4397 36.988C44.5784 36.988 43.8984 37.2827 43.3997 37.872C42.901 38.4613 42.6517 39.2093 42.6517 40.116C42.6517 40.4787 42.6857 40.8413 42.7537 41.204H35.4097C35.523 38.2347 36.4637 35.8547 38.2317 34.064C40.0224 32.2507 42.4137 31.344 45.4057 31.344C48.171 31.344 50.5057 32.1827 52.4097 33.86C54.3364 35.5373 55.2997 37.736 55.2997 40.456C55.2997 42.1787 54.9597 43.652 54.2797 44.876C53.6224 46.1 52.5797 47.358 51.1517 48.65L47.1737 52.356Z" fill="white"/>
<defs>
<linearGradient id="paint0_linear_6202_14851" x1="15.5" y1="45" x2="75.5" y2="45" gradientUnits="userSpaceOnUse">
<stop stop-color="#E75F72"/>
<stop offset="1" stop-color="#D74780"/>
</linearGradient>
</defs>
</svg>
