<svg width="74" height="74" viewBox="0 0 74 74" fill="none" xmlns="http://www.w3.org/2000/svg">
<circle cx="37" cy="37" r="37" fill="white"/>
<path d="M22.2099 30.3086H13.9132L13.4999 33.0424L15.4708 32.8834C17.8867 32.6927 19.8999 33.445 21.5105 35.1404C23.1423 36.8358 23.9582 38.9444 23.9582 41.4662C23.9582 44.094 22.9304 46.2556 20.8748 47.951C19.2006 49.2861 16.8695 49.9536 13.8814 49.9536C10.9145 49.9536 8.30788 49.2331 6.06152 47.7921L6.98337 41.9113C9.039 43.755 11.2642 44.6768 13.6589 44.6768C14.6761 44.6768 15.5662 44.3483 16.3291 43.6914C17.092 43.0132 17.4734 42.1656 17.4734 41.1483C17.4734 39.8132 16.9436 38.796 15.884 38.0967C14.8456 37.3974 13.6271 37.0477 12.2284 37.0477C10.5754 37.0477 9.0496 37.3762 7.65092 38.0331L9.74894 25.0318H22.2099V30.3086ZM31.9918 25.2225C33.3269 24.4596 34.8527 24.0782 36.5693 24.0782C38.2858 24.0782 39.8117 24.4596 41.1468 25.2225C42.4819 25.9642 43.5415 26.9709 44.3256 28.2424C45.1309 29.4927 45.7348 30.8702 46.1375 32.3748C46.5401 33.8583 46.7415 35.4053 46.7415 37.0159C46.7415 38.2874 46.6143 39.5378 46.36 40.7669C46.1269 41.9748 45.7454 43.1404 45.2156 44.2636C44.6858 45.3868 44.0289 46.3722 43.2448 47.2199C42.4819 48.0464 41.5176 48.7033 40.3521 49.1907C39.2077 49.6993 37.9468 49.9536 36.5693 49.9536C35.1918 49.9536 33.9203 49.6993 32.7547 49.1907C31.6104 48.7033 30.6461 48.0464 29.862 47.2199C29.0991 46.3722 28.4527 45.3868 27.9229 44.2636C27.3931 43.1404 27.0011 41.9748 26.7468 40.7669C26.5137 39.5378 26.3971 38.2874 26.3971 37.0159C26.3971 35.4053 26.5984 33.8583 27.0011 32.3748C27.4037 30.8702 27.9971 29.4927 28.7812 28.2424C29.5865 26.9709 30.6567 25.9642 31.9918 25.2225ZM38.5084 30.404C37.9574 29.853 37.311 29.5775 36.5693 29.5775C35.8276 29.5775 35.1706 29.853 34.5984 30.404C34.0474 30.9338 33.6342 31.6119 33.3587 32.4384C33.0832 33.2649 32.8819 34.0596 32.7547 34.8225C32.6488 35.5854 32.5958 36.306 32.5958 36.9841C32.5958 37.6623 32.6488 38.3934 32.7547 39.1775C32.8819 39.9404 33.0832 40.7457 33.3587 41.5934C33.6342 42.4199 34.0474 43.1086 34.5984 43.6596C35.1706 44.1894 35.8276 44.4543 36.5693 44.4543C37.311 44.4543 37.9574 44.1894 38.5084 43.6596C39.0805 43.1086 39.5044 42.4199 39.7799 41.5934C40.0554 40.7457 40.2461 39.9404 40.3521 39.1775C40.4792 38.3934 40.5428 37.6623 40.5428 36.9841C40.5428 36.306 40.4792 35.5854 40.3521 34.8225C40.2461 34.0596 40.0554 33.2649 39.7799 32.4384C39.5044 31.6119 39.0805 30.9338 38.5084 30.404ZM53.284 25.2225C54.6191 24.4596 56.1449 24.0782 57.8615 24.0782C59.5781 24.0782 61.1039 24.4596 62.439 25.2225C63.7741 25.9642 64.8337 26.9709 65.6178 28.2424C66.4231 29.4927 67.0271 30.8702 67.4297 32.3748C67.8324 33.8583 68.0337 35.4053 68.0337 37.0159C68.0337 38.2874 67.9065 39.5378 67.6522 40.7669C67.4191 41.9748 67.0377 43.1404 66.5079 44.2636C65.9781 45.3868 65.3211 46.3722 64.537 47.2199C63.7741 48.0464 62.8098 48.7033 61.6443 49.1907C60.4999 49.6993 59.239 49.9536 57.8615 49.9536C56.484 49.9536 55.2125 49.6993 54.0469 49.1907C52.9026 48.7033 51.9383 48.0464 51.1542 47.2199C50.3913 46.3722 49.7449 45.3868 49.2151 44.2636C48.6853 43.1404 48.2933 41.9748 48.039 40.7669C47.8059 39.5378 47.6893 38.2874 47.6893 37.0159C47.6893 35.4053 47.8906 33.8583 48.2933 32.3748C48.6959 30.8702 49.2893 29.4927 50.0734 28.2424C50.8787 26.9709 51.9489 25.9642 53.284 25.2225ZM59.8006 30.404C59.2496 29.853 58.6032 29.5775 57.8615 29.5775C57.1198 29.5775 56.4628 29.853 55.8906 30.404C55.3396 30.9338 54.9264 31.6119 54.6509 32.4384C54.3754 33.2649 54.1741 34.0596 54.0469 34.8225C53.941 35.5854 53.888 36.306 53.888 36.9841C53.888 37.6623 53.941 38.3934 54.0469 39.1775C54.1741 39.9404 54.3754 40.7457 54.6509 41.5934C54.9264 42.4199 55.3396 43.1086 55.8906 43.6596C56.4628 44.1894 57.1198 44.4543 57.8615 44.4543C58.6032 44.4543 59.2496 44.1894 59.8006 43.6596C60.3728 43.1086 60.7966 42.4199 61.0721 41.5934C61.3476 40.7457 61.5383 39.9404 61.6443 39.1775C61.7714 38.3934 61.835 37.6623 61.835 36.9841C61.835 36.306 61.7714 35.5854 61.6443 34.8225C61.5383 34.0596 61.3476 33.2649 61.0721 32.4384C60.7966 31.6119 60.3728 30.9338 59.8006 30.404Z" fill="#1A2136"/>
</svg>
