<svg width="8" height="556" viewBox="0 0 8 556" fill="none" xmlns="http://www.w3.org/2000/svg">
<path d="M6.20825 1L0.999918 8.79976L6.20825 16.6084L0.999918 24.4082L6.20825 32.2168L0.999917 40.0166L6.20825 47.8252L0.999916 55.625L6.20825 63.4336L0.999916 71.2422L6.20825 79.042L0.999915 86.8507L6.20825 94.6504L0.999914 102.459L6.20825 110.259L0.999914 118.067L6.20825 125.876L0.999913 133.676L6.20825 141.484L0.999912 149.293L6.20825 157.093L0.999912 164.902L6.20824 172.71L0.999911 180.51L6.20824 188.319L0.99991 196.127L6.20824 203.936L0.99991 211.736L6.20824 219.544L0.999909 227.353L6.20824 235.162L0.999908 242.97L6.20824 250.779L0.999908 258.579L6.20824 266.387L0.999907 274.196L6.20824 282.005L0.999906 289.813L6.20824 297.622L0.999906 305.422L6.20824 313.239L0.999905 321.039L6.20824 328.847L0.999904 336.656L6.20824 344.465L0.999903 352.273L6.20824 360.082L0.999903 367.891L6.20824 375.699L0.999902 383.508L6.20823 391.308L0.999901 399.116L6.20823 406.925L0.999901 414.734L6.20823 422.542L0.9999 430.351L6.20823 438.16L0.999899 445.968L6.20823 453.777L0.999899 461.586L6.20823 469.394L0.999898 477.203L6.20823 485.02L0.999897 492.829L6.20823 500.638L0.999897 508.446L6.20823 516.255L0.999896 524.072L6.20823 531.881L0.999895 539.699L6.20823 547.516L0.999895 555.334" stroke="white" stroke-width="1.5" stroke-miterlimit="10"/>
</svg>
