<svg version="1.1" id="Layer_1" xmlns="http://www.w3.org/2000/svg" xmlns:xlink="http://www.w3.org/1999/xlink" x="0px" y="0px"
	 viewBox="0 0 878 878" style="enable-background:new 0 0 878 878;" xml:space="preserve">
<style type="text/css">
	.st0{opacity:0.4;fill:url(#SVGID_1_);enable-background:new    ;}
	.st1{opacity:0.7;}
	.st2{opacity:0.34;}
	.st3{fill-rule:evenodd;clip-rule:evenodd;}
	
		.st4{opacity:0.7;fill-rule:evenodd;clip-rule:evenodd;fill:url(#SVGID_00000097469489090491824440000004330315812140831618_);enable-background:new    ;}
	.st5{fill:#FFFFFF;}
	.st6{fill:#0F0F0F;}
	.st7{fill:#44CF5B;}
	.st8{fill:none;filter:url(#Adobe_OpacityMaskFilter);}
	.st9{mask:url(#mask0_7623_15940_00000015315736526772931430000011349620547979681942_);}
</style>
<radialGradient id="SVGID_1_" cx="-519.3464" cy="983.3987" r="1" gradientTransform="matrix(9.368549e-15 153 153 -9.368549e-15 -150024 79909)" gradientUnits="userSpaceOnUse">
	<stop  offset="0" style="stop-color:#000000"/>
	<stop  offset="1" style="stop-color:#000000;stop-opacity:0"/>
</radialGradient>
<circle class="st0" cx="436" cy="449" r="153"/>
<g class="st1">
	<g class="st2">
		<path class="st3" d="M597.8,451.7c-0.6,5-1.2,10.1-2.1,15.1c-1.1,5-2.2,10-3.5,14.9c-1.6,4.9-3.2,9.8-5,14.6
			c-2,4.8-4.2,9.5-6.5,14.2c-2.5,4.6-5.2,9.1-7.9,13.6c-3,4.4-6.1,8.7-9.2,12.9c-3.4,4.1-6.9,8.1-10.5,12.1
			c-3.8,3.8-7.7,7.5-11.7,11.2c-4.2,3.5-8.5,6.8-12.9,10.1c-4.5,3.1-9.2,6.1-13.9,9c-4.9,2.7-9.8,5.3-14.8,7.7
			c-5.1,2.3-10.3,4.4-15.5,6.4c-5.3,1.8-10.7,3.5-16.2,5.1c-5.5,1.3-11.1,2.5-16.7,3.6c-5.7,0.8-19.6,2.4-25.3,3l-18.5,0.3
			l-24.4-1.1l-37.6-2.1c-32.8-4.6-49.9-11.6-78.6-30.1c0,0,23.4,31.1,41.3,43.6s35.3,20.3,35.3,20.3l29.2-1.3l28.7,0.5
			c1.5,0.9,18.4,0.3,24,0.1c0.6,0,1.1,0,1.4-0.1c3.4-0.1,6.9-0.3,10.3-0.5l0.4,0c6.5-0.7,12.9-1.5,19.3-2.4l0.4-0.1l0.4-0.1
			c6.3-1.2,12.6-2.6,18.9-4.1l0.4-0.1l0.4-0.1c6.2-1.8,12.3-3.7,18.3-5.7l0.4-0.1l0.3-0.1c5.9-2.3,11.8-4.7,17.6-7.3l0.3-0.2
			l0.3-0.2c5.7-2.8,11.2-5.7,16.7-8.8l0.3-0.2l0.3-0.2c5.3-3.3,10.6-6.7,15.7-10.2l0.3-0.2l0.3-0.2c5-3.7,9.8-7.6,14.6-11.5l0.3-0.2
			l0.3-0.2c4.6-4.1,9-8.4,13.3-12.7l0.3-0.3l0.2-0.3c4.1-4.5,8.1-9.1,12-13.7l0.2-0.3l0.2-0.3c3.6-4.8,7.1-9.7,10.5-14.7l0.2-0.3
			l0.2-0.3c3.1-5.1,6.1-10.3,9-15.5l0.2-0.3l0.2-0.3c2.6-5.3,5.1-10.7,7.4-16.1l0.1-0.3l0.1-0.3c2.1-5.5,4-11.1,5.7-16.6l0.1-0.3
			l0.1-0.3c1.5-5.6,2.8-11.3,4-17l0.1-0.4l0.1-0.4c0.9-5.7,1.7-11.5,2.3-17.2l0-0.4l0-0.4c0.4-5.8,0.6-11.5,0.6-17.3l0-0.4l0-0.4
			c-0.2-5.7-0.6-11.5-1.1-17.2l0-0.4l0-0.4c-0.8-5.7-1.7-11.3-2.7-16.9l-0.1-0.4l-0.1-0.3c-1.3-5.5-2.8-11-4.4-16.5l-0.1-0.3
			l-0.1-0.3c-1.9-5.4-3.8-10.7-6-16l-0.1-0.3l-0.2-0.3c-2.4-5.2-4.9-10.3-7.5-15.3l-0.2-0.3l-0.2-0.3c-2.9-4.9-5.8-9.7-8.9-14.5
			l-0.2-0.3l-0.2-0.3c-3.3-4.6-6.7-9.1-10.3-13.6l-0.2-0.3l-0.2-0.3c-3.7-4.3-7.6-8.5-11.5-12.6l-0.3-0.3l-0.3-0.3
			c-4.1-3.9-8.3-7.7-12.6-11.4l-0.3-0.2l-0.3-0.2c-4.5-3.5-9-6.9-13.6-10.2l-0.3-0.2l-0.3-0.2c-4.8-3.1-9.6-6.1-14.5-8.9l-0.3-0.2
			l-0.3-0.2c-5-2.6-10.1-5.1-15.3-7.5l-0.3-0.2l-0.3-0.1c-5.2-2.2-10.5-4.2-15.9-6.1l-0.4-0.1l-0.4-0.1c-5.4-1.7-10.9-3.2-16.3-4.7
			l-0.4-0.1l-0.4-0.1c-5.5-1.2-11.1-2.2-16.6-3.2l-0.4-0.1l-0.4,0c-5.6-0.7-11.2-1.3-16.8-1.7l-0.4,0l-0.4,0
			c-5.6-0.2-11.2-0.3-16.8-0.2l-0.4,0l-0.4,0c-5.6,0.3-11.1,0.7-16.7,1.3l-0.4,0l-0.4,0.1c-5.5,0.8-10.9,1.7-16.4,2.8l-0.4,0.1
			l-0.4,0.1c-5.4,1.3-10.7,2.7-16,4.2l-0.4,0.1l-0.4,0.1c-5.2,1.7-10.3,3.6-15.4,5.5l-0.4,0.1l-0.3,0.2c-5,2.2-9.9,4.5-14.7,6.8
			l-0.3,0.2l-0.3,0.2c-4.7,2.6-9.3,5.3-13.9,8.1l-0.3,0.2l-0.3,0.2c-4.4,3-8.7,6.1-13,9.2l-0.3,0.2l-0.3,0.2
			c-4.1,3.3-8,6.8-11.9,10.3l-0.3,0.2l-0.3,0.3c-3.7,3.7-7.3,7.4-10.8,11.2l-0.2,0.3l-0.2,0.3c-3.3,4-6.5,8-9.6,12.1l-0.2,0.3
			l-0.2,0.3c-2.9,4.2-5.7,8.5-8.3,12.8l-0.2,0.3l-0.2,0.3c-2.4,4.4-4.8,8.9-7,13.4l-0.2,0.3l-0.1,0.3c-2,4.6-3.8,9.2-5.6,13.9
			l-0.1,0.3l-0.1,0.3c-1.5,4.7-2.9,9.5-4.2,14.3l-0.1,0.3l-0.1,0.4c-1,4.8-1.9,9.7-2.7,14.5l-0.1,0.4l0,0.4c-0.5,4.9-1,9.7-1.3,14.6
			l0,0.4l0,0.4c-0.1,4.9,0,9.7,0.2,14.6l0,0.4l0,0.4c0.4,4.8,1,9.6,1.6,14.4l0,0.4l0.1,0.4c0.9,4.7,1.9,9.5,3,14.1l0.1,0.3l0.1,0.3
			c1.3,4.6,2.8,9.2,4.4,13.7l0.1,0.3l0.1,0.3c1.8,4.5,3.7,8.9,5.7,13.2l0.2,0.3l0.2,0.3c2.2,4.3,4.5,8.4,6.9,12.6l0.2,0.3l0.2,0.3
			c2.6,4,5.3,8,8.1,11.8l0.2,0.3l0.2,0.3c3,3.7,6,7.4,9.2,11l0.2,0.3l0.3,0.3c3.3,3.4,6.7,6.8,10.2,10.1l0.3,0.3l0.3,0.2
			c3.6,3.1,7.3,6.1,11.1,9.1l0.3,0.2l0.3,0.2c3.9,2.8,7.8,5.4,11.8,8l0.3,0.2l0.3,0.2c4.1,2.4,8.3,4.7,12.5,6.9l0.3,0.2l0.3,0.2
			c4.3,2,8.7,3.9,13.1,5.7l0.3,0.1l0.4,0.1c4.5,1.6,9,3.1,13.5,4.5l0.4,0.1l0.4,0.1c4.6,1.2,9.2,2.3,13.8,3.3l0.4,0.1l0.4,0.1
			c4.6,0.8,9.3,1.5,14,2l0.4,0l0.4,0c4.7,0.4,9.4,0.6,14,0.8l0.4,0l0.4,0c4.7-0.1,9.3-0.2,14-0.5l0.4,0l0.4,0
			c4.6-0.5,9.2-1,13.8-1.7l0.4-0.1l0.4-0.1c4.5-0.9,9-1.8,13.5-2.9l0.4-0.1l0.4-0.1c4.4-1.3,8.7-2.6,13-4.1l0.4-0.1l0.4-0.1
			c4.2-1.6,8.4-3.4,12.5-5.2l0.3-0.2l0.3-0.2c4-2,8-4.1,11.9-6.2l0.3-0.2l0.3-0.2c3.8-2.3,7.5-4.7,11.1-7.2l0.3-0.2l0.3-0.2
			c3.5-2.6,6.9-5.3,10.3-8.1l0.3-0.2l0.3-0.2c3.2-2.9,6.3-5.9,9.4-8.9l0.3-0.3l0.2-0.3c2.9-3.2,5.7-6.4,8.4-9.7l0.2-0.3l0.2-0.3
			c2.5-3.4,5-6.8,7.4-10.3l0.2-0.3l0.2-0.3c2.2-3.6,4.3-7.2,6.3-10.8l0.2-0.3l0.2-0.3c1.8-3.7,3.5-7.5,5.1-11.3l0.1-0.3l0.1-0.3
			c1.4-3.8,2.8-7.7,4-11.6l0.1-0.3l0.1-0.3c1-3.9,2-7.9,2.8-11.8l0.1-0.4l0.1-0.4c0.6-4,1.2-8,1.6-12l0-0.4l0-0.4
			c0.2-4,0.4-8,0.4-12l0-0.4l0-0.4c-0.2-4-0.4-7.9-0.8-11.9l0-0.4l0-0.4c-0.6-3.9-1.2-7.8-1.9-11.7l-0.1-0.4l-0.1-0.4
			c-0.9-3.8-2-7.6-3.1-11.4l-0.1-0.3l-0.1-0.3c-1.3-3.7-2.7-7.4-4.2-11l-0.1-0.3l-0.2-0.3c-1.6-3.5-3.4-7-5.2-10.5l-0.2-0.3
			l-0.2-0.3c-2-3.4-4-6.7-6.2-9.9l-0.2-0.3l-0.2-0.3c-2.3-3.1-4.6-6.2-7.1-9.3l-0.2-0.3l-0.2-0.3c-2.6-2.9-5.2-5.7-7.9-8.5l-0.3-0.3
			l-0.3-0.3c-2.8-2.6-5.7-5.2-8.6-7.7l-0.3-0.2l-0.3-0.2c-3.1-2.4-6.2-4.7-9.3-6.9l-0.3-0.2l-0.3-0.2c-3.3-2.1-6.5-4.1-9.9-6
			l-0.3-0.2l-0.3-0.2c-3.4-1.8-6.9-3.4-10.4-5l-0.3-0.2l-0.3-0.1c-3.5-1.4-7.1-2.8-10.7-4.1l-0.4-0.1l-0.4-0.1
			c-3.6-1.1-7.3-2.1-11-3.1l-0.4-0.1l-0.4-0.1c-3.7-0.8-7.4-1.5-11.2-2.1l-0.4-0.1l-0.4,0c-3.7-0.4-7.5-0.8-11.3-1l-0.4,0l-0.4,0
			c-3.7-0.1-7.5-0.1-11.2,0l-0.4,0l-0.4,0c-3.7,0.2-7.4,0.6-11.1,1l-0.4,0l-0.4,0.1c-3.6,0.6-7.3,1.2-10.9,1.9l-0.4,0.1l-0.4,0.1
			c-3.5,0.9-7.1,1.8-10.6,2.9l-0.4,0.1l-0.4,0.1c-3.4,1.2-6.8,2.4-10.1,3.8l-0.4,0.1l-0.3,0.2c-3.3,1.5-6.5,3-9.7,4.6l-0.3,0.2
			l-0.3,0.2c-3.1,1.7-6.1,3.5-9.1,5.4l-0.3,0.2l-0.3,0.2c-2.9,2-5.7,4-8.4,6.2l-0.3,0.2l-0.3,0.2c-2.6,2.2-5.2,4.5-7.7,6.8l-0.3,0.3
			l-0.3,0.3c-2.4,2.4-4.7,4.9-7,7.4l-0.2,0.3l-0.2,0.3c-2.1,2.6-4.2,5.3-6.1,7.9l-0.2,0.3l-0.2,0.3c-1.8,2.8-3.6,5.6-5.3,8.4
			l-0.2,0.3l-0.2,0.3c-1.5,2.9-3,5.8-4.4,8.8l-0.2,0.3l-0.1,0.3c-1.2,3-2.4,6-3.5,9l-0.1,0.3l-0.1,0.3c-0.9,3.1-1.8,6.1-2.5,9.2
			l-0.1,0.4l-0.1,0.4c-0.6,3.1-1.1,6.2-1.6,9.3l-0.1,0.4l0,0.4c-0.3,3.1-0.5,6.2-0.7,9.4l0,0.4l0,0.4c0,3.1,0.1,6.2,0.3,9.3l0,0.4
			l0,0.4c0.3,3.1,0.7,6.1,1.2,9.2l0.1,0.4l0.1,0.4c0.6,3,1.3,6,2.1,8.9l0.1,0.4l0.1,0.3c0.9,2.9,1.9,5.8,2.9,8.6l0.1,0.3l0.1,0.3
			c1.2,2.8,2.4,5.5,3.7,8.3l0.2,0.3l0.2,0.3c1.4,2.6,2.9,5.2,4.5,7.8l0.2,0.3l0.2,0.3c1.7,2.5,3.4,4.9,5.2,7.3l0.2,0.3l0.2,0.3
			c1.9,2.3,3.9,4.6,5.9,6.8l0.2,0.3l0.3,0.3c2.1,2.1,4.3,4.1,6.5,6.1l0.3,0.2l0.3,0.2c2.3,1.9,4.6,3.7,7,5.5l0.3,0.2l0.3,0.2
			c2.4,1.7,4.9,3.3,7.4,4.8l0.3,0.2l0.3,0.2c2.6,1.4,5.2,2.8,7.8,4.1l0.3,0.2l0.3,0.2c2.7,1.2,5.4,2.3,8.1,3.3l0.4,0.1l0.4,0.1
			c2.8,0.9,5.5,1.8,8.3,2.6l0.4,0.1l0.4,0.1c2.8,0.7,5.6,1.3,8.4,1.8l0.4,0.1l0.4,0.1c2.8,0.4,5.7,0.7,8.5,1l0.4,0l0.4,0
			c2.8,0.1,5.7,0.2,8.5,0.2l0.4,0l0.4,0c2.8-0.1,5.6-0.3,8.4-0.5l0.4,0l0.4,0c2.8-0.4,5.5-0.8,8.2-1.2l0.4-0.1l0.4-0.1
			c2.7-0.6,5.3-1.2,8-2l0.4-0.1l0.4-0.1c2.6-0.8,5.1-1.7,7.7-2.6l0.4-0.1l0.3-0.1c2.5-1,4.9-2.1,7.3-3.3l0.3-0.2l0.3-0.2
			c2.3-1.2,4.6-2.5,6.9-3.9l0.3-0.2l0.3-0.2c2.2-1.4,4.3-2.9,6.4-4.4l0.3-0.2l0.3-0.2c2-1.6,3.9-3.3,5.8-4.9l0.3-0.2l0.3-0.3
			c1.8-1.8,3.6-3.6,5.3-5.4l0.3-0.3l0.2-0.3c1.6-1.9,3.2-3.8,4.7-5.8l0.2-0.3l0.2-0.3c1.4-2,2.7-4,4-6.1l0.2-0.3l0.2-0.3
			c1.2-2.1,2.3-4.2,3.3-6.4l0.2-0.3l0.1-0.3c0.9-2.2,1.8-4.4,2.7-6.6l0.1-0.3l0.1-0.3c0.7-2.2,1.4-4.5,2-6.7l0.1-0.4l0.1-0.4
			c0.5-2.2,0.9-4.5,1.3-6.8l0.1-0.4l0-0.4c0.3-2.3,0.4-4.5,0.6-6.8l0-0.4l0-0.4c0-2.2,0-4.5-0.1-6.7l0-0.4l0-0.4
			c-0.2-2.2-0.5-4.4-0.8-6.6l-0.1-0.4l-0.1-0.4c-0.4-2.2-0.9-4.3-1.4-6.4l-0.1-0.4l-0.1-0.4c-0.6-2.1-1.3-4.1-2-6.2l-0.1-0.3
			l-0.1-0.3c-0.8-2-1.7-4-2.6-5.9l-0.2-0.3l-0.2-0.3c-1-1.9-2.1-3.7-3.1-5.6l-0.2-0.3l-0.2-0.3c-1.2-1.8-2.4-3.5-3.6-5.2l-0.2-0.3
			l-0.2-0.3c-1.3-1.6-2.7-3.2-4.1-4.8l-0.2-0.3l-0.3-0.3c-1.5-1.5-3-2.9-4.5-4.3l-0.3-0.3l-0.3-0.2c-1.6-1.3-3.2-2.6-4.9-3.9
			l-0.3-0.2l-0.3-0.2c-1.7-1.2-3.4-2.3-5.2-3.4l-0.3-0.2l-0.3-0.2c-1.8-1-3.6-1.9-5.4-2.8l-0.3-0.2l-0.4-0.2
			c-1.9-0.8-3.7-1.6-5.6-2.3l-0.4-0.1l-0.4-0.1c-1.9-0.6-3.8-1.2-5.7-1.8l-0.4-0.1l-0.4-0.1c-1.9-0.4-3.9-0.9-5.8-1.2l-0.4-0.1
			l-0.4-0.1c-1.9-0.3-3.9-0.5-5.8-0.7l-0.4,0l-0.4,0c-1.9-0.1-3.9-0.1-5.8-0.1h-0.4l-0.4,0c-1.9,0.1-3.8,0.2-5.7,0.4l-0.4,0
			l-0.4,0.1c-1.9,0.3-3.7,0.6-5.5,0.9l-0.4,0.1L423,367c-1.8,0.4-3.6,0.9-5.3,1.4l-0.4,0.1l-0.4,0.1c-1.7,0.6-3.4,1.2-5.1,1.8
			l-0.4,0.1l-0.4,0.2c-1.6,0.7-3.2,1.5-4.8,2.3l-0.3,0.2l-0.3,0.2c-1.5,0.8-3,1.7-4.5,2.6l-0.3,0.2l-0.3,0.2c-1.4,1-2.8,2-4.1,3
			l-0.3,0.2l-0.3,0.2c-1.3,1.1-2.5,2.2-3.7,3.3l-0.3,0.3l-0.3,0.3c-1.1,1.2-2.3,2.4-3.3,3.6l-0.3,0.3l-0.2,0.3c-1,1.3-2,2.5-2.9,3.8
			l-0.2,0.3l-0.2,0.3c-0.9,1.3-1.7,2.7-2.5,4l-0.2,0.3l-0.2,0.3c-0.7,1.4-1.4,2.8-2,4.1l-0.2,0.3l-0.1,0.4c-0.5,1.4-1.1,2.8-1.5,4.2
			l-0.1,0.4l-0.1,0.4c-0.4,1.4-0.8,2.9-1.1,4.3l-0.1,0.4l-0.1,0.4c-0.2,1.4-0.4,2.9-0.6,4.3l0,0.4l0,0.4c-0.1,1.4-0.1,2.8-0.2,4.3
			l0,0.4l0,0.4c0.1,1.4,0.2,2.8,0.3,4.2l0,0.4l0.1,0.4c0.2,1.4,0.4,2.7,0.7,4l0.1,0.4l0.1,0.4c0.3,1.3,0.7,2.6,1.1,3.9l0.1,0.4
			l0.1,0.4c0.5,1.2,1,2.5,1.5,3.7l0.2,0.4l0.2,0.3c0.6,1.2,1.2,2.3,1.8,3.5l0.2,0.3l0.2,0.3c0.7,1.1,1.4,2.2,2.1,3.2l0.2,0.3
			l0.2,0.3c0.8,1,1.6,2,2.4,2.9l0.3,0.3l0.3,0.3c0.9,0.9,1.8,1.8,2.7,2.6l0.3,0.3l0.3,0.3c0.9,0.8,1.9,1.6,2.9,2.3l0.3,0.2l0.3,0.2
			c1,0.7,2,1.4,3.1,2l0.3,0.2l0.4,0.2c1.1,0.6,2.1,1.1,3.2,1.6l0.4,0.2l0.4,0.2c1.1,0.5,2.2,0.9,3.3,1.3l0.4,0.1l0.4,0.1
			c1.1,0.3,2.2,0.7,3.3,0.9l0.4,0.1l0.4,0.1c1.1,0.2,2.2,0.4,3.4,0.6l0.4,0.1l0.4,0c1.1,0.1,2.2,0.2,3.3,0.3l0.4,0l0.4,0
			c1.1,0,2.2,0,3.3-0.1l0.4,0l0.4,0c1.1-0.1,2.1-0.2,3.2-0.4l0-0.2c15.7-1.8,27.9-14.4,27.9-29.7c0-16.5-14.1-29.9-31.6-29.9
			c-3.4,0-6.6,0.5-9.7,1.4c0.1-0.2,0.3-0.4,0.4-0.6c0.6-0.6,1.2-1.3,1.8-1.9c0.7-0.6,1.3-1.2,2-1.8c0.7-0.6,1.5-1.1,2.3-1.6
			c0.8-0.5,1.6-1,2.5-1.5c0.9-0.4,1.8-0.9,2.7-1.3c1-0.4,1.9-0.7,2.9-1c1-0.3,2-0.5,3.1-0.8c1.1-0.2,2.1-0.4,3.2-0.5
			c1.1-0.1,2.2-0.2,3.4-0.2c1.1,0,2.3,0,3.4,0.1c1.2,0.1,2.3,0.2,3.5,0.4c1.2,0.2,2.4,0.5,3.5,0.7c1.2,0.3,2.3,0.7,3.5,1.1
			c1.2,0.5,2.3,0.9,3.5,1.4c1.1,0.6,2.3,1.2,3.4,1.8c1.1,0.7,2.2,1.4,3.3,2.1c1,0.8,2.1,1.6,3.1,2.5c1,0.9,1.9,1.8,2.9,2.8
			c0.9,1,1.8,2,2.6,3.1c0.8,1.1,1.6,2.2,2.4,3.4c0.7,1.2,1.4,2.4,2.1,3.6c0.6,1.3,1.2,2.6,1.7,3.9c0.5,1.4,0.9,2.7,1.3,4.1
			c0.3,1.4,0.7,2.8,0.9,4.3c0.2,1.5,0.4,2.9,0.5,4.4c0.1,1.5,0.1,3,0.1,4.5c-0.1,1.5-0.2,3.1-0.4,4.6c-0.3,1.5-0.5,3.1-0.9,4.6
			c-0.4,1.5-0.9,3.1-1.4,4.6c-0.6,1.5-1.2,3-1.8,4.5c-0.7,1.5-1.5,3-2.3,4.4c-0.9,1.4-1.8,2.8-2.8,4.2c-1.1,1.4-2.1,2.7-3.3,4
			c-1.2,1.3-2.4,2.5-3.7,3.8c-1.3,1.2-2.7,2.3-4.1,3.5c-1.5,1.1-3,2.1-4.5,3.2c-1.6,1-3.2,1.9-4.9,2.8c-1.7,0.8-3.5,1.6-5.2,2.4
			c-1.8,0.7-3.7,1.3-5.5,1.9c-1.9,0.5-3.8,1-5.8,1.4c-2,0.3-4,0.6-6,0.9c-2,0.2-4.1,0.3-6.1,0.4c-2.1,0-4.1-0.1-6.2-0.2
			c-2.1-0.2-4.2-0.5-6.2-0.7c-2.1-0.4-4.1-0.8-6.2-1.3c-2.1-0.6-4.1-1.2-6.1-1.9c-2-0.8-4-1.6-6-2.5c-1.9-1-3.9-2-5.8-3
			c-1.9-1.2-3.7-2.3-5.5-3.6c-1.8-1.3-3.5-2.7-5.2-4.1c-1.6-1.5-3.3-3-4.8-4.6c-1.5-1.7-3-3.4-4.4-5.1c-1.4-1.8-2.7-3.7-3.9-5.5
			c-1.2-1.9-2.3-3.9-3.4-5.9c-1-2.1-1.9-4.2-2.8-6.3c-0.8-2.2-1.5-4.4-2.2-6.6c-0.6-2.3-1.1-4.5-1.6-6.8c-0.4-2.3-0.7-4.7-0.9-7
			c-0.1-2.4-0.2-4.8-0.2-7.1c0.1-2.4,0.3-4.8,0.5-7.2c0.4-2.4,0.8-4.8,1.2-7.2c0.6-2.4,1.3-4.8,2-7.1c0.8-2.3,1.7-4.7,2.7-7
			c1.1-2.3,2.2-4.6,3.4-6.8c1.3-2.2,2.7-4.4,4.1-6.5c1.5-2.1,3.1-4.2,4.8-6.2c1.8-2,3.6-3.9,5.4-5.8c2-1.8,4-3.6,6.1-5.4
			c2.2-1.7,4.4-3.3,6.6-4.8c2.3-1.5,4.7-2.9,7.2-4.3c2.5-1.3,5-2.5,7.6-3.6c2.6-1,5.3-2,8-3c2.8-0.8,5.6-1.6,8.4-2.3
			c2.9-0.6,5.7-1.1,8.6-1.5c2.9-0.3,5.9-0.6,8.8-0.8c3-0.1,6,0,8.9,0c3,0.2,6,0.5,9,0.8c3,0.5,6,1,8.9,1.6c3,0.8,5.9,1.6,8.8,2.5
			c2.9,1,5.8,2.1,8.6,3.3c2.8,1.3,5.6,2.6,8.3,4.1c2.7,1.5,5.3,3.2,8,4.8c2.5,1.8,5,3.6,7.5,5.6c2.4,2,4.7,4.1,7,6.3
			c2.2,2.3,4.3,4.6,6.4,6.9c2,2.5,3.9,5,5.7,7.5c1.7,2.6,3.4,5.3,5,8.1c1.5,2.8,2.9,5.7,4.2,8.5c1.2,3,2.3,5.9,3.4,9
			c0.9,3.1,1.7,6.2,2.5,9.3c0.6,3.2,1.1,6.3,1.6,9.5c0.3,3.2,0.5,6.5,0.6,9.7c0,3.3-0.1,6.5-0.3,9.8c-0.4,3.3-0.8,6.6-1.3,9.8
			c-0.7,3.3-1.5,6.5-2.3,9.7c-1,3.2-2.1,6.4-3.3,9.6c-1.3,3.1-2.8,6.2-4.2,9.3c-1.7,3-3.4,6-5.2,9c-2,2.9-4,5.7-6.1,8.5
			c-2.3,2.7-4.6,5.4-7,8c-2.5,2.5-5.1,5-7.8,7.4c-2.8,2.3-5.6,4.5-8.5,6.7c-3,2.1-6.1,4.1-9.2,6c-3.2,1.8-6.5,3.5-9.9,5.2
			c-3.4,1.5-6.9,2.9-10.4,4.3c-3.6,1.2-7.2,2.3-10.9,3.4c-3.7,0.9-7.5,1.7-11.2,2.4c-3.8,0.6-7.7,1-11.5,1.4
			c-3.9,0.2-7.8,0.3-11.7,0.4c-3.9-0.1-7.8-0.3-11.8-0.6c-3.9-0.5-7.8-1-11.7-1.7c-3.9-0.8-7.7-1.8-11.6-2.8
			c-3.8-1.2-7.6-2.5-11.3-3.8c-3.7-1.5-7.4-3.1-11-4.8c-3.6-1.9-7.1-3.8-10.5-5.8c-3.4-2.2-6.7-4.4-10-6.8c-3.2-2.5-6.3-5.1-9.3-7.7
			c-2.9-2.8-5.8-5.6-8.6-8.5c-2.7-3-5.2-6.2-7.8-9.3c-2.4-3.3-4.6-6.6-6.9-10c-2-3.5-4-7.1-5.9-10.7c-1.7-3.7-3.3-7.4-4.8-11.2
			c-1.3-3.9-2.6-7.8-3.7-11.7c-0.9-4-1.8-8-2.6-12c-0.6-4.1-1-8.2-1.4-12.3c-0.1-4.1-0.2-8.3-0.1-12.4c0.3-4.2,0.6-8.3,1.1-12.5
			c0.7-4.1,1.5-8.3,2.3-12.4c1.1-4.1,2.3-8.2,3.6-12.2c1.5-4,3.1-8,4.8-11.9c1.9-3.9,3.9-7.7,6-11.5c2.3-3.7,4.7-7.4,7.1-11
			c2.7-3.5,5.4-7,8.2-10.4c3-3.3,6.1-6.5,9.3-9.7c3.3-3,6.8-6,10.3-8.8c3.7-2.7,7.4-5.4,11.2-7.9c3.9-2.4,7.9-4.7,12-7
			c4.2-2.1,8.4-4,12.7-5.9c4.4-1.7,8.8-3.3,13.3-4.8c4.6-1.3,9.1-2.5,13.8-3.6c4.7-0.9,9.4-1.7,14.1-2.4c4.8-0.5,9.6-0.8,14.4-1.1
			c4.8,0,9.7,0,14.5,0.2c4.9,0.4,9.7,0.9,14.5,1.5c4.8,0.8,9.6,1.7,14.4,2.8c4.7,1.2,9.5,2.6,14.2,4.1c4.6,1.7,9.2,3.4,13.8,5.3
			c4.5,2.1,8.9,4.3,13.3,6.6c4.3,2.5,8.5,5.1,12.6,7.7c4,2.9,8,5.8,11.9,8.9c3.7,3.2,7.4,6.5,11,9.9c3.4,3.6,6.8,7.2,10,10.9
			c3.1,3.9,6.1,7.8,8.9,11.8c2.7,4.2,5.3,8.4,7.8,12.7c2.3,4.4,4.5,8.9,6.5,13.4c1.8,4.6,3.6,9.3,5.2,14c1.4,4.8,2.7,9.6,3.8,14.4
			c0.9,4.9,1.7,9.8,2.4,14.8c0.4,5,0.7,10,0.9,15C598.3,441.7,598.1,446.7,597.8,451.7z"/>
	</g>
</g>
<radialGradient id="SVGID_00000103249064841845672060000000095884291014759357_" cx="-519.7722" cy="981.1845" r="1" gradientTransform="matrix(2.688100e-14 439 439 -2.688100e-14 -430301 228619)" gradientUnits="userSpaceOnUse">
	<stop  offset="0.4763" style="stop-color:#181E31"/>
	<stop  offset="0.9906" style="stop-color:#181E31;stop-opacity:0"/>
</radialGradient>
<path style="opacity:0.7;fill-rule:evenodd;clip-rule:evenodd;fill:url(#SVGID_00000103249064841845672060000000095884291014759357_);enable-background:new    ;" d="
	M439,878c242.5,0,439-196.5,439-439S681.5,0,439,0S0,196.5,0,439S196.5,878,439,878z M439,656.5c120.1,0,217.5-97.4,217.5-217.5
	S559.1,221.5,439,221.5S221.5,318.9,221.5,439S318.9,656.5,439,656.5z"/>
<path class="st5" d="M302,328h-4.2v-16.5h-5.4V308h15.1v3.5H302V328z M326.8,328h-4.2v-8.6h-7.9v8.6h-4.2v-20h4.2v7.8h7.9V308h4.2
	V328z M344.1,328l-1.5-4.8h-7.3L334,328h-4.6l7.1-20.1h5.2l7.1,20.1H344.1z M341.7,319.7l-1.4-4.6c-0.1-0.3-0.2-0.7-0.4-1.2
	c-0.1-0.5-0.3-1-0.5-1.5c-0.1-0.5-0.3-1-0.4-1.3c-0.1,0.4-0.2,0.8-0.4,1.4c-0.2,0.5-0.3,1.1-0.5,1.6c-0.1,0.5-0.3,0.8-0.3,1.1
	l-1.4,4.6H341.7z M369,328h-5.4l-8.7-15.1h-0.1c0,0.6,0.1,1.3,0.1,1.9c0,0.6,0.1,1.3,0.1,1.9c0,0.6,0.1,1.3,0.1,1.9v9.4h-3.8v-20
	h5.3l8.7,15h0.1c0-0.6,0-1.2-0.1-1.8c0-0.6-0.1-1.2-0.1-1.8c0-0.6,0-1.2-0.1-1.8V308h3.8V328z M390.1,328h-4.8l-5.2-8.4l-1.8,1.3
	v7.1H374v-20h4.2v9.1c0.3-0.4,0.6-0.8,0.8-1.2c0.3-0.4,0.6-0.8,0.8-1.2l5.4-6.8h4.7l-7,8.8L390.1,328z M406.1,316.2l4.2-8.2h4.6
	l-6.6,12.2v7.8H404v-7.6l-6.6-12.3h4.6L406.1,316.2z M435.5,318c0,1.5-0.2,2.9-0.6,4.2c-0.4,1.3-1,2.3-1.8,3.3
	c-0.8,0.9-1.8,1.6-3,2.1c-1.2,0.5-2.6,0.7-4.2,0.7c-1.6,0-3-0.2-4.2-0.7c-1.2-0.5-2.2-1.2-3-2.1c-0.8-0.9-1.4-2-1.7-3.3
	c-0.4-1.3-0.6-2.7-0.6-4.2c0-2.1,0.3-3.9,1-5.4c0.7-1.5,1.7-2.7,3.1-3.6c1.4-0.8,3.2-1.3,5.4-1.3c2.2,0,4,0.4,5.3,1.3
	c1.4,0.8,2.4,2,3.1,3.6C435.2,314.1,435.5,315.9,435.5,318z M420.9,318c0,1.4,0.2,2.6,0.5,3.6c0.4,1,0.9,1.8,1.7,2.3
	c0.7,0.5,1.7,0.8,2.9,0.8c1.2,0,2.2-0.3,2.9-0.8c0.7-0.5,1.3-1.3,1.6-2.3c0.3-1,0.5-2.2,0.5-3.6c0-2.1-0.4-3.7-1.2-5
	s-2.1-1.8-3.9-1.8c-1.2,0-2.2,0.3-2.9,0.8c-0.7,0.5-1.3,1.3-1.7,2.3C421.1,315.4,420.9,316.6,420.9,318z M455.9,308v12.9
	c0,1.4-0.3,2.6-0.9,3.7c-0.6,1.1-1.5,2-2.7,2.6c-1.2,0.6-2.8,1-4.6,1c-2.6,0-4.7-0.7-6-2c-1.4-1.3-2.1-3.1-2.1-5.4V308h4.2v12.2
	c0,1.7,0.3,2.8,1,3.5c0.7,0.7,1.7,1,3,1c0.9,0,1.7-0.2,2.3-0.5c0.6-0.3,1-0.8,1.3-1.5c0.3-0.7,0.4-1.5,0.4-2.5V308H455.9z
	 M475.8,328h-4.2v-16.5h-5.4V308h15.1v3.5h-5.4V328z M502.4,318c0,1.5-0.2,2.9-0.6,4.2c-0.4,1.3-1,2.3-1.8,3.3
	c-0.8,0.9-1.8,1.6-3,2.1c-1.2,0.5-2.6,0.7-4.2,0.7c-1.6,0-3-0.2-4.2-0.7c-1.2-0.5-2.2-1.2-3-2.1c-0.8-0.9-1.4-2-1.7-3.3
	c-0.4-1.3-0.6-2.7-0.6-4.2c0-2.1,0.3-3.9,1-5.4c0.7-1.5,1.7-2.7,3.1-3.6c1.4-0.8,3.2-1.3,5.4-1.3c2.2,0,4,0.4,5.3,1.3
	c1.4,0.8,2.4,2,3.1,3.6C502.1,314.1,502.4,315.9,502.4,318z M487.8,318c0,1.4,0.2,2.6,0.5,3.6c0.4,1,0.9,1.8,1.7,2.3
	c0.7,0.5,1.7,0.8,2.9,0.8c1.2,0,2.2-0.3,2.9-0.8c0.7-0.5,1.3-1.3,1.6-2.3c0.3-1,0.5-2.2,0.5-3.6c0-2.1-0.4-3.7-1.2-5
	c-0.8-1.2-2.1-1.8-3.9-1.8c-1.2,0-2.2,0.3-2.9,0.8c-0.7,0.5-1.3,1.3-1.7,2.3C488,315.4,487.8,316.6,487.8,318z M532,318
	c0,1.5-0.2,2.9-0.6,4.2c-0.4,1.3-1,2.3-1.8,3.3c-0.8,0.9-1.8,1.6-3,2.1c-1.2,0.5-2.6,0.7-4.2,0.7c-1.6,0-3-0.2-4.2-0.7
	c-1.2-0.5-2.2-1.2-3-2.1c-0.8-0.9-1.4-2-1.7-3.3s-0.6-2.7-0.6-4.2c0-2.1,0.3-3.9,1-5.4c0.7-1.5,1.7-2.7,3.1-3.6
	c1.4-0.8,3.2-1.3,5.4-1.3c2.2,0,4,0.4,5.3,1.3c1.4,0.8,2.4,2,3.1,3.6C531.6,314.1,532,315.9,532,318z M517.4,318
	c0,1.4,0.2,2.6,0.5,3.6c0.4,1,0.9,1.8,1.7,2.3c0.7,0.5,1.7,0.8,2.9,0.8c1.2,0,2.2-0.3,2.9-0.8c0.7-0.5,1.3-1.3,1.6-2.3
	c0.3-1,0.5-2.2,0.5-3.6c0-2.1-0.4-3.7-1.2-5c-0.8-1.2-2.1-1.8-3.9-1.8c-1.2,0-2.2,0.3-2.9,0.8c-0.7,0.5-1.3,1.3-1.7,2.3
	C517.6,315.4,517.4,316.6,517.4,318z M552.4,308v12.9c0,1.4-0.3,2.6-0.9,3.7c-0.6,1.1-1.5,2-2.7,2.6c-1.2,0.6-2.8,1-4.6,1
	c-2.6,0-4.7-0.7-6-2c-1.4-1.3-2.1-3.1-2.1-5.4V308h4.2v12.2c0,1.7,0.3,2.8,1,3.5c0.7,0.7,1.7,1,3,1c0.9,0,1.7-0.2,2.3-0.5
	c0.6-0.3,1-0.8,1.3-1.5c0.3-0.7,0.4-1.5,0.4-2.5V308H552.4z M563.1,308c1.8,0,3.3,0.2,4.5,0.7c1.2,0.4,2.1,1.1,2.6,2
	c0.6,0.9,0.9,2,0.9,3.4c0,0.9-0.2,1.7-0.5,2.4c-0.3,0.7-0.8,1.3-1.4,1.7s-1.2,0.9-1.8,1.2l5.9,8.7h-4.7l-4.8-7.7h-2.3v7.7h-4.2v-20
	H563.1z M562.8,311.5h-1.3v5.4h1.4c1.4,0,2.4-0.2,3-0.7c0.6-0.5,0.9-1.2,0.9-2.1c0-0.9-0.3-1.6-1-2
	C565.2,311.7,564.2,311.5,562.8,311.5z M327,363h-4.2v-20h11.5v3.5H327v5.2h6.8v3.5H327V363z M338.2,363v-20h4.2v20H338.2z
	 M353.3,343c1.8,0,3.3,0.2,4.5,0.7c1.2,0.4,2.1,1.1,2.6,2c0.6,0.9,0.9,2,0.9,3.4c0,0.9-0.2,1.7-0.5,2.4c-0.3,0.7-0.8,1.3-1.4,1.7
	s-1.2,0.9-1.8,1.2l5.9,8.7h-4.7l-4.8-7.7h-2.3v7.7h-4.2v-20H353.3z M353,346.5h-1.3v5.4h1.4c1.4,0,2.4-0.2,3-0.7
	c0.6-0.5,0.9-1.2,0.9-2.1c0-0.9-0.3-1.6-1-2C355.4,346.7,354.4,346.5,353,346.5z M377.8,357.4c0,1.2-0.3,2.2-0.9,3.1
	c-0.6,0.9-1.4,1.5-2.5,2c-1.1,0.5-2.4,0.7-4,0.7c-0.7,0-1.4,0-2-0.1c-0.7-0.1-1.3-0.2-1.9-0.4c-0.6-0.2-1.2-0.4-1.7-0.7v-3.9
	c0.9,0.4,1.9,0.8,3,1.1c1,0.3,2,0.5,3,0.5c0.7,0,1.2-0.1,1.7-0.3c0.4-0.2,0.7-0.4,0.9-0.8c0.2-0.3,0.3-0.7,0.3-1.1
	c0-0.5-0.2-0.9-0.5-1.3c-0.3-0.4-0.8-0.7-1.4-1c-0.6-0.3-1.2-0.6-2-1c-0.5-0.2-1-0.5-1.5-0.8c-0.5-0.3-1.1-0.7-1.6-1.2
	c-0.5-0.5-0.9-1-1.2-1.7c-0.3-0.7-0.5-1.4-0.5-2.4c0-1.2,0.3-2.2,0.8-3.1c0.5-0.8,1.3-1.5,2.3-1.9c1-0.5,2.2-0.7,3.6-0.7
	c1,0,2,0.1,3,0.4c0.9,0.2,1.9,0.6,3,1l-1.4,3.3c-0.9-0.4-1.7-0.7-2.5-0.9c-0.7-0.2-1.5-0.3-2.2-0.3c-0.5,0-1,0.1-1.4,0.3
	c-0.4,0.2-0.7,0.4-0.8,0.7c-0.2,0.3-0.3,0.7-0.3,1.1c0,0.5,0.1,0.9,0.4,1.2c0.3,0.3,0.7,0.6,1.3,0.9c0.6,0.3,1.3,0.7,2.1,1.1
	c1,0.5,1.9,1,2.6,1.5c0.7,0.5,1.3,1.1,1.7,1.8C377.6,355.5,377.8,356.4,377.8,357.4z M389.1,363h-4.2v-16.5h-5.4V343h15.1v3.5h-5.4
	V363z M416.7,357.4c0,1.2-0.3,2.2-0.9,3.1c-0.6,0.9-1.4,1.5-2.5,2c-1.1,0.5-2.4,0.7-4,0.7c-0.7,0-1.4,0-2-0.1
	c-0.7-0.1-1.3-0.2-1.9-0.4c-0.6-0.2-1.2-0.4-1.7-0.7v-3.9c0.9,0.4,1.9,0.8,3,1.1c1,0.3,2,0.5,3,0.5c0.7,0,1.2-0.1,1.7-0.3
	c0.4-0.2,0.7-0.4,0.9-0.8c0.2-0.3,0.3-0.7,0.3-1.1c0-0.5-0.2-0.9-0.5-1.3c-0.3-0.4-0.8-0.7-1.4-1c-0.6-0.3-1.2-0.6-2-1
	c-0.5-0.2-1-0.5-1.5-0.8c-0.5-0.3-1.1-0.7-1.6-1.2c-0.5-0.5-0.9-1-1.2-1.7c-0.3-0.7-0.5-1.4-0.5-2.4c0-1.2,0.3-2.2,0.8-3.1
	c0.5-0.8,1.3-1.5,2.3-1.9c1-0.5,2.2-0.7,3.6-0.7c1,0,2,0.1,3,0.4c0.9,0.2,1.9,0.6,3,1l-1.4,3.3c-0.9-0.4-1.7-0.7-2.5-0.9
	c-0.7-0.2-1.5-0.3-2.2-0.3c-0.5,0-1,0.1-1.4,0.3c-0.4,0.2-0.7,0.4-0.8,0.7c-0.2,0.3-0.3,0.7-0.3,1.1c0,0.5,0.1,0.9,0.4,1.2
	c0.3,0.3,0.7,0.6,1.3,0.9c0.6,0.3,1.3,0.7,2.1,1.1c1,0.5,1.9,1,2.6,1.5c0.7,0.5,1.3,1.1,1.7,1.8
	C416.5,355.5,416.7,356.4,416.7,357.4z M426.7,343c2.6,0,4.5,0.6,5.6,1.7c1.2,1.1,1.8,2.6,1.8,4.6c0,0.9-0.1,1.7-0.4,2.5
	c-0.3,0.8-0.7,1.5-1.3,2.1c-0.6,0.6-1.4,1.1-2.4,1.5c-1,0.4-2.2,0.5-3.7,0.5h-1.8v7.1h-4.2v-20H426.7z M426.5,346.5h-1.9v5.9h1.4
	c0.8,0,1.5-0.1,2.1-0.3c0.6-0.2,1-0.5,1.4-1c0.3-0.4,0.5-1,0.5-1.7c0-1-0.3-1.7-0.8-2.2C428.5,346.7,427.6,346.5,426.5,346.5z
	 M456,353c0,1.5-0.2,2.9-0.6,4.2c-0.4,1.3-1,2.3-1.8,3.3c-0.8,0.9-1.8,1.6-3,2.1c-1.2,0.5-2.6,0.7-4.2,0.7c-1.6,0-3-0.2-4.2-0.7
	c-1.2-0.5-2.2-1.2-3-2.1c-0.8-0.9-1.4-2-1.7-3.3s-0.6-2.7-0.6-4.2c0-2.1,0.3-3.9,1-5.4c0.7-1.5,1.7-2.7,3.1-3.6
	c1.4-0.8,3.2-1.3,5.4-1.3c2.2,0,4,0.4,5.3,1.3c1.4,0.8,2.4,2,3.1,3.6C455.7,349.1,456,350.9,456,353z M441.5,353
	c0,1.4,0.2,2.6,0.5,3.6c0.4,1,0.9,1.8,1.7,2.3c0.7,0.5,1.7,0.8,2.9,0.8c1.2,0,2.2-0.3,2.9-0.8c0.7-0.5,1.3-1.3,1.6-2.3
	c0.3-1,0.5-2.2,0.5-3.6c0-2.1-0.4-3.7-1.2-5s-2.1-1.8-3.9-1.8c-1.2,0-2.2,0.3-2.9,0.8c-0.7,0.5-1.3,1.3-1.7,2.3
	C441.6,350.4,441.5,351.6,441.5,353z M477.9,363h-5.4l-8.7-15.1h-0.1c0,0.6,0.1,1.3,0.1,1.9c0,0.6,0.1,1.3,0.1,1.9
	c0,0.6,0.1,1.3,0.1,1.9v9.4h-3.8v-20h5.3l8.7,15h0.1c0-0.6,0-1.2-0.1-1.8c0-0.6-0.1-1.2-0.1-1.8c0-0.6,0-1.2-0.1-1.8V343h3.8V363z
	 M494.8,357.4c0,1.2-0.3,2.2-0.9,3.1c-0.6,0.9-1.4,1.5-2.5,2c-1.1,0.5-2.4,0.7-4,0.7c-0.7,0-1.4,0-2-0.1c-0.7-0.1-1.3-0.2-1.9-0.4
	c-0.6-0.2-1.2-0.4-1.7-0.7v-3.9c0.9,0.4,1.9,0.8,3,1.1c1,0.3,2,0.5,3,0.5c0.7,0,1.2-0.1,1.7-0.3c0.4-0.2,0.7-0.4,0.9-0.8
	c0.2-0.3,0.3-0.7,0.3-1.1c0-0.5-0.2-0.9-0.5-1.3c-0.3-0.4-0.8-0.7-1.4-1c-0.6-0.3-1.2-0.6-2-1c-0.5-0.2-1-0.5-1.5-0.8
	c-0.5-0.3-1.1-0.7-1.6-1.2c-0.5-0.5-0.9-1-1.2-1.7c-0.3-0.7-0.5-1.4-0.5-2.4c0-1.2,0.3-2.2,0.8-3.1c0.5-0.8,1.3-1.5,2.3-1.9
	c1-0.5,2.2-0.7,3.6-0.7c1,0,2,0.1,3,0.4c0.9,0.2,1.9,0.6,3,1l-1.4,3.3c-0.9-0.4-1.7-0.7-2.5-0.9c-0.7-0.2-1.5-0.3-2.2-0.3
	c-0.5,0-1,0.1-1.4,0.3c-0.4,0.2-0.7,0.4-0.8,0.7c-0.2,0.3-0.3,0.7-0.3,1.1c0,0.5,0.1,0.9,0.4,1.2c0.3,0.3,0.7,0.6,1.3,0.9
	c0.6,0.3,1.3,0.7,2.1,1.1c1,0.5,1.9,1,2.6,1.5c0.7,0.5,1.3,1.1,1.7,1.8C494.6,355.5,494.8,356.4,494.8,357.4z M516.5,353
	c0,1.5-0.2,2.9-0.6,4.2c-0.4,1.3-1,2.3-1.8,3.3c-0.8,0.9-1.8,1.6-3,2.1c-1.2,0.5-2.6,0.7-4.2,0.7c-1.6,0-3-0.2-4.2-0.7
	c-1.2-0.5-2.2-1.2-3-2.1c-0.8-0.9-1.4-2-1.7-3.3c-0.4-1.3-0.6-2.7-0.6-4.2c0-2.1,0.3-3.9,1-5.4c0.7-1.5,1.7-2.7,3.1-3.6
	c1.4-0.8,3.2-1.3,5.4-1.3c2.2,0,4,0.4,5.3,1.3c1.4,0.8,2.4,2,3.1,3.6C516.2,349.1,516.5,350.9,516.5,353z M501.9,353
	c0,1.4,0.2,2.6,0.5,3.6c0.4,1,0.9,1.8,1.7,2.3c0.7,0.5,1.7,0.8,2.9,0.8c1.2,0,2.2-0.3,2.9-0.8c0.7-0.5,1.3-1.3,1.6-2.3
	c0.3-1,0.5-2.2,0.5-3.6c0-2.1-0.4-3.7-1.2-5s-2.1-1.8-3.9-1.8c-1.2,0-2.2,0.3-2.9,0.8c-0.7,0.5-1.3,1.3-1.7,2.3
	C502.1,350.4,501.9,351.6,501.9,353z M526.5,343c1.8,0,3.3,0.2,4.5,0.7c1.2,0.4,2.1,1.1,2.6,2c0.6,0.9,0.9,2,0.9,3.4
	c0,0.9-0.2,1.7-0.5,2.4c-0.3,0.7-0.8,1.3-1.4,1.7s-1.2,0.9-1.8,1.2l5.9,8.7h-4.7l-4.8-7.7h-2.3v7.7h-4.2v-20H526.5z M526.2,346.5
	h-1.3v5.4h1.4c1.4,0,2.4-0.2,3-0.7c0.6-0.5,0.9-1.2,0.9-2.1c0-0.9-0.3-1.6-1-2C528.6,346.7,527.6,346.5,526.2,346.5z M542.3,356.4
	H539l-0.7-13.4h4.7L542.3,356.4z M538.2,361c0-0.9,0.2-1.5,0.7-1.8c0.5-0.3,1-0.5,1.7-0.5c0.6,0,1.2,0.2,1.7,0.5
	c0.5,0.3,0.7,0.9,0.7,1.8c0,0.8-0.2,1.4-0.7,1.8c-0.5,0.4-1,0.5-1.7,0.5c-0.7,0-1.2-0.2-1.7-0.5C538.5,362.5,538.2,361.9,538.2,361z
	"/>
<path class="st6 url_rect" href="https://mergeworld.com/" d="M367,544h131c12.2,0,22,9.8,22,22l0,0c0,12.2-9.8,22-22,22H367c-12.2,0-22-9.8-22-22l0,0
	C345,553.8,354.8,544,367,544z" />
<path class="st7" d="M379.8,563.3c0.9,0,1.7,0.2,2.1,0.7c0.5,0.5,0.7,1.3,0.7,2.4v5.6h-1.3v-5.5c0-0.7-0.2-1.2-0.5-1.6
	c-0.3-0.3-0.7-0.5-1.3-0.5c-0.8,0-1.4,0.2-1.8,0.7s-0.6,1.2-0.6,2.1v4.8h-1.3v-5.5c0-0.5-0.1-0.8-0.2-1.2c-0.1-0.3-0.3-0.5-0.6-0.7
	c-0.3-0.2-0.6-0.2-1-0.2c-0.6,0-1,0.1-1.4,0.4c-0.3,0.2-0.6,0.6-0.8,1c-0.2,0.5-0.2,1-0.2,1.7v4.5h-1.3v-8.6h1l0.2,1.2h0.1
	c0.2-0.3,0.4-0.5,0.6-0.8c0.3-0.2,0.6-0.4,0.9-0.5c0.3-0.1,0.7-0.2,1-0.2c0.7,0,1.2,0.1,1.6,0.4c0.4,0.2,0.8,0.6,1,1.1h0.1
	c0.3-0.5,0.7-0.9,1.2-1.1C378.7,563.4,379.2,563.3,379.8,563.3z M388.6,563.3c0.7,0,1.4,0.2,1.9,0.5c0.5,0.3,0.9,0.8,1.2,1.4
	c0.3,0.6,0.4,1.3,0.4,2v0.8h-5.9c0,1,0.3,1.8,0.8,2.3s1.2,0.8,2,0.8c0.5,0,1,0,1.4-0.1c0.4-0.1,0.8-0.2,1.3-0.4v1.1
	c-0.4,0.2-0.9,0.3-1.3,0.4c-0.4,0.1-0.9,0.1-1.5,0.1c-0.8,0-1.5-0.2-2.2-0.5c-0.6-0.3-1.1-0.8-1.4-1.5c-0.3-0.7-0.5-1.4-0.5-2.4
	c0-0.9,0.2-1.7,0.5-2.4c0.3-0.7,0.8-1.2,1.3-1.6C387.2,563.5,387.8,563.3,388.6,563.3z M388.6,564.3c-0.7,0-1.2,0.2-1.7,0.7
	c-0.4,0.5-0.7,1.1-0.7,1.9h4.5c0-0.5-0.1-1-0.2-1.3c-0.2-0.4-0.4-0.7-0.7-0.9C389.5,564.5,389.1,564.3,388.6,564.3z M398.2,563.3
	c0.2,0,0.4,0,0.5,0c0.2,0,0.4,0,0.5,0.1l-0.2,1.2c-0.1,0-0.3-0.1-0.5-0.1s-0.3,0-0.5,0c-0.3,0-0.7,0.1-1,0.2
	c-0.3,0.1-0.6,0.3-0.8,0.6c-0.2,0.3-0.4,0.6-0.5,0.9c-0.1,0.4-0.2,0.8-0.2,1.2v4.6h-1.3v-8.6h1.1l0.1,1.6h0.1
	c0.2-0.3,0.4-0.6,0.6-0.9c0.2-0.3,0.5-0.5,0.9-0.6C397.4,563.4,397.8,563.3,398.2,563.3z M403.2,575.8c-1.1,0-2-0.2-2.6-0.6
	c-0.6-0.4-0.9-1-0.9-1.8c0-0.5,0.2-1,0.5-1.4c0.3-0.4,0.8-0.6,1.4-0.8c-0.2-0.1-0.4-0.3-0.6-0.5c-0.2-0.2-0.2-0.4-0.2-0.7
	c0-0.3,0.1-0.6,0.3-0.8c0.2-0.2,0.4-0.5,0.8-0.7c-0.4-0.2-0.8-0.5-1.1-0.9c-0.3-0.4-0.4-0.9-0.4-1.5c0-0.6,0.1-1.1,0.4-1.6
	c0.3-0.4,0.6-0.8,1.1-1c0.5-0.2,1.1-0.3,1.8-0.3c0.2,0,0.3,0,0.5,0c0.2,0,0.3,0,0.4,0.1c0.1,0,0.3,0,0.4,0.1h2.9v0.8l-1.6,0.2
	c0.2,0.2,0.3,0.4,0.4,0.7c0.1,0.3,0.2,0.6,0.2,1c0,0.9-0.3,1.5-0.9,2c-0.6,0.5-1.4,0.8-2.4,0.8c-0.2,0-0.5,0-0.7-0.1
	c-0.3,0.1-0.5,0.3-0.6,0.5c-0.1,0.2-0.2,0.4-0.2,0.6c0,0.2,0,0.3,0.1,0.4c0.1,0.1,0.3,0.2,0.4,0.2c0.2,0,0.4,0.1,0.7,0.1h1.5
	c0.9,0,1.6,0.2,2.1,0.6c0.5,0.4,0.8,1,0.8,1.7c0,0.9-0.4,1.7-1.2,2.2S404.7,575.8,403.2,575.8z M403.3,574.8c0.7,0,1.3-0.1,1.8-0.2
	c0.5-0.1,0.8-0.3,1-0.6c0.2-0.3,0.4-0.6,0.4-1c0-0.3-0.1-0.6-0.2-0.8c-0.2-0.2-0.4-0.3-0.7-0.3c-0.3-0.1-0.7-0.1-1.1-0.1h-1.5
	c-0.4,0-0.7,0.1-1,0.2c-0.3,0.1-0.5,0.3-0.7,0.5c-0.2,0.2-0.2,0.5-0.2,0.9c0,0.5,0.2,0.8,0.6,1.1C402,574.7,402.5,574.8,403.3,574.8
	z M403.6,568c0.6,0,1.1-0.2,1.4-0.5c0.3-0.3,0.5-0.8,0.5-1.4c0-0.6-0.2-1.1-0.5-1.4c-0.3-0.3-0.8-0.5-1.4-0.5
	c-0.6,0-1.1,0.2-1.4,0.5c-0.3,0.3-0.5,0.8-0.5,1.4c0,0.6,0.2,1,0.5,1.3C402.5,567.8,403,568,403.6,568z M412.8,563.3
	c0.7,0,1.4,0.2,1.9,0.5s0.9,0.8,1.2,1.4c0.3,0.6,0.4,1.3,0.4,2v0.8h-5.9c0,1,0.3,1.8,0.8,2.3c0.5,0.5,1.2,0.8,2,0.8
	c0.5,0,1,0,1.4-0.1s0.8-0.2,1.3-0.4v1.1c-0.4,0.2-0.9,0.3-1.3,0.4c-0.4,0.1-0.9,0.1-1.5,0.1c-0.8,0-1.5-0.2-2.2-0.5
	c-0.6-0.3-1.1-0.8-1.4-1.5c-0.3-0.7-0.5-1.4-0.5-2.4c0-0.9,0.2-1.7,0.5-2.4c0.3-0.7,0.8-1.2,1.3-1.6
	C411.4,563.5,412.1,563.3,412.8,563.3z M412.8,564.3c-0.7,0-1.2,0.2-1.7,0.7c-0.4,0.5-0.7,1.1-0.7,1.9h4.5c0-0.5-0.1-1-0.2-1.3
	c-0.2-0.4-0.4-0.7-0.7-0.9C413.7,564.5,413.3,564.3,412.8,564.3z M425.5,572l-1.5-5c-0.1-0.2-0.1-0.4-0.2-0.6
	c-0.1-0.2-0.1-0.4-0.2-0.6c0-0.2-0.1-0.4-0.1-0.5c0-0.2-0.1-0.3-0.1-0.4h-0.1c0,0.1,0,0.3-0.1,0.4c0,0.2-0.1,0.3-0.1,0.5
	c0,0.2-0.1,0.4-0.2,0.6c-0.1,0.2-0.1,0.4-0.2,0.6l-1.6,5h-1.5l-2.4-8.6h1.3l1.2,4.7c0.1,0.3,0.2,0.6,0.2,0.9
	c0.1,0.3,0.1,0.6,0.2,0.9c0.1,0.3,0.1,0.5,0.1,0.7h0.1c0-0.1,0.1-0.3,0.1-0.5c0-0.2,0.1-0.4,0.1-0.6c0.1-0.2,0.1-0.4,0.2-0.6
	c0.1-0.2,0.1-0.4,0.2-0.6l1.6-5h1.4l1.5,5c0.1,0.2,0.2,0.5,0.2,0.8c0.1,0.3,0.1,0.5,0.2,0.8c0.1,0.2,0.1,0.5,0.1,0.7h0.1
	c0-0.2,0.1-0.4,0.1-0.7c0.1-0.3,0.1-0.5,0.2-0.9c0.1-0.3,0.2-0.6,0.2-1l1.2-4.7h1.3L427,572H425.5z M438.3,567.7
	c0,0.7-0.1,1.3-0.3,1.9c-0.2,0.6-0.4,1-0.8,1.4c-0.3,0.4-0.8,0.7-1.2,0.9c-0.5,0.2-1,0.3-1.6,0.3c-0.6,0-1.1-0.1-1.6-0.3
	c-0.5-0.2-0.9-0.5-1.2-0.9c-0.3-0.4-0.6-0.8-0.8-1.4c-0.2-0.6-0.3-1.2-0.3-1.9c0-0.9,0.2-1.7,0.5-2.4c0.3-0.7,0.8-1.2,1.4-1.5
	c0.6-0.3,1.3-0.5,2.1-0.5c0.8,0,1.5,0.2,2,0.5c0.6,0.3,1,0.9,1.4,1.5C438.1,566,438.3,566.8,438.3,567.7z M431.8,567.7
	c0,0.7,0.1,1.3,0.3,1.8c0.2,0.5,0.5,0.9,0.8,1.2c0.4,0.3,0.9,0.4,1.5,0.4c0.6,0,1.1-0.1,1.5-0.4c0.4-0.3,0.7-0.7,0.9-1.2
	c0.2-0.5,0.3-1.1,0.3-1.8c0-0.7-0.1-1.3-0.3-1.8c-0.2-0.5-0.5-0.9-0.8-1.2s-0.9-0.4-1.5-0.4c-0.9,0-1.5,0.3-2,0.9
	C432,565.8,431.8,566.7,431.8,567.7z M444.4,563.3c0.2,0,0.4,0,0.5,0c0.2,0,0.4,0,0.5,0.1l-0.2,1.2c-0.1,0-0.3-0.1-0.5-0.1
	s-0.3,0-0.5,0c-0.3,0-0.7,0.1-1,0.2c-0.3,0.1-0.6,0.3-0.8,0.6c-0.2,0.3-0.4,0.6-0.5,0.9c-0.1,0.4-0.2,0.8-0.2,1.2v4.6h-1.3v-8.6h1.1
	l0.1,1.6h0.1c0.2-0.3,0.4-0.6,0.6-0.9c0.2-0.3,0.5-0.5,0.9-0.6C443.7,563.4,444,563.3,444.4,563.3z M448.4,572h-1.3v-12.2h1.3V572z
	 M454.2,572.2c-1.1,0-1.9-0.4-2.6-1.1c-0.6-0.7-0.9-1.8-0.9-3.3c0-1.5,0.3-2.6,1-3.3c0.6-0.8,1.5-1.1,2.6-1.1c0.5,0,0.8,0.1,1.2,0.2
	c0.3,0.1,0.6,0.3,0.9,0.5c0.2,0.2,0.5,0.4,0.6,0.7h0.1c0-0.2,0-0.4-0.1-0.7s0-0.5,0-0.7v-3.4h1.3V572h-1l-0.2-1.2h-0.1
	c-0.2,0.3-0.4,0.5-0.6,0.7c-0.2,0.2-0.5,0.4-0.9,0.5C455,572.1,454.6,572.2,454.2,572.2z M454.4,571.1c0.9,0,1.6-0.3,1.9-0.8
	s0.6-1.3,0.6-2.3v-0.2c0-1.1-0.2-1.9-0.5-2.5c-0.4-0.6-1-0.9-2-0.9c-0.8,0-1.4,0.3-1.8,0.9c-0.4,0.6-0.6,1.4-0.6,2.5
	c0,1.1,0.2,1.9,0.6,2.4C453,570.8,453.6,571.1,454.4,571.1z M460.7,571.2c0-0.4,0.1-0.6,0.3-0.8c0.2-0.2,0.4-0.2,0.6-0.2
	c0.3,0,0.5,0.1,0.7,0.2c0.2,0.2,0.3,0.4,0.3,0.8c0,0.4-0.1,0.6-0.3,0.8c-0.2,0.2-0.4,0.2-0.7,0.2c-0.3,0-0.5-0.1-0.6-0.2
	C460.8,571.8,460.7,571.5,460.7,571.2z M468.6,572.2c-0.8,0-1.5-0.2-2-0.5c-0.6-0.3-1-0.8-1.4-1.5c-0.3-0.7-0.5-1.5-0.5-2.5
	c0-1,0.2-1.9,0.5-2.5c0.3-0.7,0.8-1.2,1.4-1.5c0.6-0.3,1.3-0.5,2.1-0.5c0.4,0,0.8,0,1.2,0.1c0.4,0.1,0.7,0.2,1,0.3l-0.4,1.1
	c-0.3-0.1-0.6-0.2-0.9-0.3c-0.3-0.1-0.7-0.1-1-0.1c-0.6,0-1.1,0.1-1.5,0.4c-0.4,0.3-0.7,0.6-0.9,1.1c-0.2,0.5-0.3,1.1-0.3,1.8
	c0,0.7,0.1,1.3,0.3,1.8c0.2,0.5,0.5,0.9,0.9,1.1c0.4,0.3,0.9,0.4,1.4,0.4c0.5,0,0.9,0,1.2-0.1c0.4-0.1,0.7-0.2,1-0.3v1.2
	c-0.3,0.1-0.6,0.3-1,0.3C469.5,572.1,469,572.2,468.6,572.2z M480.2,567.7c0,0.7-0.1,1.3-0.3,1.9s-0.4,1-0.8,1.4
	c-0.3,0.4-0.8,0.7-1.2,0.9c-0.5,0.2-1,0.3-1.6,0.3c-0.6,0-1.1-0.1-1.6-0.3c-0.5-0.2-0.9-0.5-1.2-0.9c-0.3-0.4-0.6-0.8-0.8-1.4
	c-0.2-0.6-0.3-1.2-0.3-1.9c0-0.9,0.2-1.7,0.5-2.4c0.3-0.7,0.8-1.2,1.4-1.5c0.6-0.3,1.3-0.5,2.1-0.5c0.8,0,1.5,0.2,2,0.5
	c0.6,0.3,1,0.9,1.4,1.5C480,566,480.2,566.8,480.2,567.7z M473.7,567.7c0,0.7,0.1,1.3,0.3,1.8c0.2,0.5,0.5,0.9,0.8,1.2
	s0.9,0.4,1.5,0.4c0.6,0,1.1-0.1,1.5-0.4c0.4-0.3,0.7-0.7,0.9-1.2c0.2-0.5,0.3-1.1,0.3-1.8c0-0.7-0.1-1.3-0.3-1.8
	c-0.2-0.5-0.5-0.9-0.8-1.2c-0.4-0.3-0.9-0.4-1.5-0.4c-0.9,0-1.5,0.3-2,0.9C473.9,565.8,473.7,566.7,473.7,567.7z M491.7,563.3
	c0.9,0,1.7,0.2,2.1,0.7c0.5,0.5,0.7,1.3,0.7,2.4v5.6h-1.3v-5.5c0-0.7-0.2-1.2-0.5-1.6c-0.3-0.3-0.7-0.5-1.3-0.5
	c-0.8,0-1.4,0.2-1.8,0.7s-0.6,1.2-0.6,2.1v4.8h-1.3v-5.5c0-0.5-0.1-0.8-0.2-1.2c-0.1-0.3-0.3-0.5-0.6-0.7c-0.3-0.2-0.6-0.2-1-0.2
	c-0.6,0-1,0.1-1.4,0.4c-0.3,0.2-0.6,0.6-0.8,1c-0.2,0.5-0.2,1-0.2,1.7v4.5h-1.3v-8.6h1l0.2,1.2h0.1c0.2-0.3,0.4-0.5,0.6-0.8
	c0.3-0.2,0.6-0.4,0.9-0.5c0.3-0.1,0.7-0.2,1-0.2c0.7,0,1.2,0.1,1.6,0.4c0.4,0.2,0.8,0.6,1,1.1h0.1c0.3-0.5,0.7-0.9,1.2-1.1
	C490.6,563.4,491.1,563.3,491.7,563.3z"/>
<defs>
	<filter id="Adobe_OpacityMaskFilter" filterUnits="userSpaceOnUse" x="305.6" y="418" width="252.9" height="78.2">
		<feColorMatrix  type="matrix" values="1 0 0 0 0  0 1 0 0 0  0 0 1 0 0  0 0 0 1 0"/>
	</filter>
</defs>
<mask maskUnits="userSpaceOnUse" x="305.6" y="418" width="252.9" height="78.2" id="mask0_7623_15940_00000015315736526772931430000011349620547979681942_">
	<rect x="317.6" y="428.5" class="st8" width="234" height="60.4"/>
</mask>
<g class="st9">
	<rect x="305.6" y="418" class="st5" width="252.9" height="78.2"/>
</g>
<g>
	<path class="st5" d="M499.1,424.9c4.8,2.1,9.6,4.2,14.9,6.5c-2.9,4.3-5.2,7.7-7.4,11c-4.1-1.5-7.8-3.4-11.7-4.2
		c-8-1.7-15.9,2.7-19.3,10.3c-3.6,8.1-1.1,19,5.7,24.3c6,4.8,16.3,5.1,22,0c1.9-1.7,2.1-5.4,3.5-9.4c-3.7,0-6,0-8.2,0
		c-2.3,0-4.7,0-7.4,0c0-4,0-7.6,0-12c8,0,16,0,24.5,0c0-8.5,0-16.3,0-24.4c14.5,0,28.5,0,42.8,0c0,3.7,0,7.4,0,11.5
		c-9.5,0-19,0-28.8,0c0,4.4,0,8.2,0,12.5c8,0,15.8,0,24.1,0c0,4.1,0,7.7,0,12.1c-7.7,0-15.7,0-24.1,0c0,4.5,0,8.3,0,12.8
		c9.2,0,18.7,0,28.6,0c0,4.4,0,8.2,0,12.4c-13.9,0-27.8,0-42.3,0c-0.2-2.4-0.4-4.8-0.7-8.1c-10.6,8.5-22.3,11.4-34.8,7.1
		c-12.8-4.4-19.1-14.4-21.1-27.7c-3.4,2.5-6.5,4.7-10.2,7.3c4.6,6.8,9.4,13.8,14.8,21.7c-5.5,0-9.9,0.2-14.3-0.1
		c-1.3-0.1-2.7-1.5-3.6-2.7c-2.4-3.3-5-6.6-6.8-10.2c-3.1-6.3-7.7-8.4-15.2-6.2c0,4.4-0.3,9.1,0.1,13.8c0.4,4.6-1.4,6.1-5.8,5.6
		c-2.5-0.3-5-0.1-7.9-0.1c0-4.2,0-7.8,0-12.2c-9.7,0-19,0-28.6,0c0-4.7,0-8.7,0-13.1c8,0,15.7,0,23.7,0c0-4.1,0-7.7,0-11.8
		c-7.8,0-15.5,0-23.6,0c0-4.4,0-8.4,0-12.8c9.4,0,18.5,0,28.2,0c0-4.1,0-7.7,0-11.5c12.2,0,23.9-0.7,35.4,0.2
		c8.5,0.7,14.1,6.4,16.1,14.8c3.9-3.9,7.1-8.3,11.4-11.2c4.1-2.8,9.3-4.2,14-6.3C491.2,424.9,495.1,424.9,499.1,424.9z M424.5,456.4
		c5.8,0,11,0.3,16.2-0.1c4.8-0.4,7.4-3.4,7.5-8.2c0.1-4.7-2.2-8-7.1-8.5c-5.4-0.6-10.9-0.6-16.6-0.8
		C424.5,445.2,424.5,450.6,424.5,456.4z"/>
	<path class="st5" d="M305.6,427.1c4.6-0.3,9.2-0.8,13.9-0.7c1.2,0,2.6,2.1,3.4,3.6c4.7,8.2,9.2,16.4,14.3,25.5
		c4.5-8.1,9.1-15.2,12.6-22.8c2.5-5.4,5.9-7.5,11.6-6.6c1.9,0.3,3.9,0,6.4,0c0,20.5,0,40.6,0,61.2c-4,0-8.2,0-13.2,0
		c0-10.6,0-21.3,0-32c-0.4-0.1-0.8-0.2-1.2-0.3c-5.3,7.8-10.6,15.7-16.3,24.1c-5.7-8.5-11.1-16.4-17.3-25.6c0,12.1,0,22.8,0,34.6
		c-5.2-0.5-9.7-0.9-14.2-1.3C305.6,467,305.6,447,305.6,427.1z"/>
</g>
</svg>
