<svg width="729" height="103" viewBox="0 0 729 103" fill="none" xmlns="http://www.w3.org/2000/svg">
<path d="M64.2601 10.368L61.4521 15.84C60.0121 14.64 58.4521 14.04 56.7721 14.04C56.0281 14.04 55.3321 14.244 54.6841 14.652C54.0601 15.06 53.7481 15.612 53.7481 16.308C53.7481 16.788 53.9401 17.22 54.3241 17.604C54.7321 17.988 55.1041 18.252 55.4401 18.396C55.8001 18.54 56.2801 18.708 56.8801 18.9L58.6801 19.44C60.7921 20.064 62.4361 20.952 63.6121 22.104C64.7881 23.232 65.3761 24.816 65.3761 26.856C65.3761 30.144 64.4401 32.58 62.5681 34.164C60.5521 35.868 57.9841 36.72 54.8641 36.72C51.4561 36.72 48.2761 35.688 45.3241 33.624L48.3481 27.936C50.4841 29.808 52.5721 30.744 54.6121 30.744C55.5241 30.744 56.3161 30.516 56.9881 30.06C57.6841 29.58 58.0321 28.896 58.0321 28.008C58.0321 26.784 56.8921 25.836 54.6121 25.164C54.5401 25.14 54.2521 25.056 53.7481 24.912C52.4521 24.552 51.4321 24.216 50.6881 23.904C49.9441 23.592 49.2001 23.16 48.4561 22.608C47.7121 22.032 47.1841 21.312 46.8721 20.448C46.5601 19.584 46.4041 18.516 46.4041 17.244C46.4041 14.508 47.2801 12.312 49.0321 10.656C50.7841 8.976 53.0281 8.136 55.7641 8.136C57.1321 8.136 58.5841 8.34 60.1201 8.748C61.6801 9.156 63.0601 9.696 64.2601 10.368ZM84.1757 14.832H75.7877V19.368H83.7437V25.344H75.7877V30.024H84.1757V36H68.7317V8.856H84.1757V14.832ZM95.5807 8.856V30.024H104.041V36H88.5247V8.856H95.5807ZM121.793 14.832H113.405V19.368H121.361V25.344H113.405V30.024H121.793V36H106.349V8.856H121.793V14.832ZM145.546 9.504V17.964C144.826 17.004 143.914 16.272 142.81 15.768C141.73 15.24 140.578 14.976 139.354 14.976C137.218 14.976 135.478 15.696 134.134 17.136C132.79 18.576 132.118 20.364 132.118 22.5C132.118 24.66 132.79 26.436 134.134 27.828C135.502 29.196 137.278 29.88 139.462 29.88C140.614 29.88 141.73 29.628 142.81 29.124C143.89 28.596 144.802 27.888 145.546 27V35.46C142.81 36.3 140.734 36.72 139.318 36.72C135.454 36.72 132.058 35.388 129.13 32.724C126.226 30.108 124.774 26.688 124.774 22.464C124.774 18.576 126.106 15.264 128.77 12.528C130.114 11.16 131.698 10.092 133.522 9.324C135.346 8.532 137.206 8.136 139.102 8.136C141.19 8.136 143.338 8.592 145.546 9.504ZM160.708 14.832V36H153.652V14.832H147.82V8.856H166.54V14.832H160.708ZM198.075 31.284H188.355L186.483 36H178.995L189.435 8.856H197.139L207.363 36H199.839L198.075 31.284ZM196.167 25.884L193.287 17.244H193.215L190.299 25.884H196.167ZM221.908 36V8.856H232.708C235.756 8.856 238.156 9.6 239.908 11.088C241.684 12.552 242.572 14.784 242.572 17.784C242.572 23.928 239.368 27 232.96 27H228.964V36H221.908ZM228.964 14.544V21.312H230.152C230.824 21.312 231.328 21.312 231.664 21.312C232.024 21.288 232.468 21.216 232.996 21.096C233.548 20.976 233.956 20.808 234.22 20.592C234.484 20.376 234.712 20.052 234.904 19.62C235.12 19.188 235.228 18.648 235.228 18C235.228 17.328 235.132 16.776 234.94 16.344C234.748 15.888 234.52 15.54 234.256 15.3C233.992 15.06 233.596 14.892 233.068 14.796C232.564 14.676 232.12 14.604 231.736 14.58C231.376 14.556 230.848 14.544 230.152 14.544H228.964ZM259.668 31.284H249.948L248.076 36H240.588L251.028 8.856H258.732L268.956 36H261.432L259.668 31.284ZM257.76 25.884L254.88 17.244H254.808L251.892 25.884H257.76ZM290.565 9.504V17.964C289.845 17.004 288.933 16.272 287.829 15.768C286.749 15.24 285.597 14.976 284.373 14.976C282.237 14.976 280.497 15.696 279.153 17.136C277.809 18.576 277.137 20.364 277.137 22.5C277.137 24.66 277.809 26.436 279.153 27.828C280.521 29.196 282.297 29.88 284.481 29.88C285.633 29.88 286.749 29.628 287.829 29.124C288.909 28.596 289.821 27.888 290.565 27V35.46C287.829 36.3 285.753 36.72 284.337 36.72C280.473 36.72 277.077 35.388 274.149 32.724C271.245 30.108 269.793 26.688 269.793 22.464C269.793 18.576 271.125 15.264 273.789 12.528C275.133 11.16 276.717 10.092 278.541 9.324C280.365 8.532 282.225 8.136 284.121 8.136C286.209 8.136 288.357 8.592 290.565 9.504ZM302.055 20.052L310.587 8.856H319.335L308.535 21.708L320.307 36H311.163L302.055 24.228H301.983V36H294.927V8.856H301.983V20.052H302.055ZM338.84 31.284H329.12L327.248 36H319.76L330.2 8.856H337.904L348.128 36H340.604L338.84 31.284ZM336.932 25.884L334.052 17.244H333.98L331.064 25.884H336.932ZM363.401 20.844H377.405C377.357 23.196 377.153 25.188 376.793 26.82C376.457 28.452 375.737 30.036 374.633 31.572C372.089 35.124 368.357 36.9 363.437 36.9C359.165 36.9 355.685 35.58 352.997 32.94C350.309 30.276 348.965 26.82 348.965 22.572C348.965 18.18 350.321 14.652 353.033 11.988C355.745 9.3 359.297 7.956 363.689 7.956C366.521 7.956 368.981 8.592 371.069 9.864C373.157 11.136 374.777 13.032 375.929 15.552L369.233 18.36C368.729 17.016 367.973 15.96 366.965 15.192C365.957 14.424 364.757 14.04 363.365 14.04C361.181 14.04 359.453 14.904 358.181 16.632C356.933 18.36 356.309 20.352 356.309 22.608C356.309 24.864 356.945 26.844 358.217 28.548C359.513 30.252 361.265 31.104 363.473 31.104C365.057 31.104 366.365 30.696 367.397 29.88C368.429 29.064 369.017 27.9 369.161 26.388H363.401V20.844ZM396.082 14.832H387.694V19.368H395.65V25.344H387.694V30.024H396.082V36H380.638V8.856H396.082V14.832ZM429.403 31.284H419.683L417.811 36H410.323L420.763 8.856H428.467L438.691 36H431.167L429.403 31.284ZM427.495 25.884L424.615 17.244H424.543L421.627 25.884H427.495ZM440.896 36V8.856H447.952L460.876 25.452H460.948V8.856H468.004V36H460.948L448.024 19.368H447.952V36H440.896ZM472.607 36V8.856H482.615C486.407 8.856 489.647 10.176 492.335 12.816C495.047 15.432 496.403 18.636 496.403 22.428C496.403 26.22 495.047 29.436 492.335 32.076C489.647 34.692 486.407 36 482.615 36H472.607ZM479.663 14.832V30.024H481.247C483.503 30.024 485.363 29.388 486.827 28.116C488.315 26.844 489.059 24.948 489.059 22.428C489.059 20.052 488.351 18.192 486.935 16.848C485.519 15.504 483.647 14.832 481.319 14.832H479.663ZM519.073 19.332H529.261V8.856H536.317V36H529.261V24.876H519.073V36H512.017V8.856H519.073V19.332ZM556.359 14.832H547.971V19.368H555.927V25.344H547.971V30.024H556.359V36H540.915V8.856H556.359V14.832ZM567.764 8.856V30.024H576.224V36H560.708V8.856H567.764ZM578.533 36V8.856H589.333C592.381 8.856 594.781 9.6 596.533 11.088C598.309 12.552 599.197 14.784 599.197 17.784C599.197 23.928 595.993 27 589.585 27H585.589V36H578.533ZM585.589 14.544V21.312H586.777C587.449 21.312 587.953 21.312 588.289 21.312C588.649 21.288 589.093 21.216 589.621 21.096C590.173 20.976 590.581 20.808 590.845 20.592C591.109 20.376 591.337 20.052 591.529 19.62C591.745 19.188 591.853 18.648 591.853 18C591.853 17.328 591.757 16.776 591.565 16.344C591.373 15.888 591.145 15.54 590.881 15.3C590.617 15.06 590.221 14.892 589.693 14.796C589.189 14.676 588.745 14.604 588.361 14.58C588.001 14.556 587.473 14.544 586.777 14.544H585.589ZM620.045 10.368L617.237 15.84C615.797 14.64 614.237 14.04 612.557 14.04C611.813 14.04 611.117 14.244 610.469 14.652C609.845 15.06 609.533 15.612 609.533 16.308C609.533 16.788 609.725 17.22 610.109 17.604C610.517 17.988 610.889 18.252 611.225 18.396C611.585 18.54 612.065 18.708 612.665 18.9L614.465 19.44C616.577 20.064 618.221 20.952 619.397 22.104C620.573 23.232 621.161 24.816 621.161 26.856C621.161 30.144 620.225 32.58 618.353 34.164C616.337 35.868 613.769 36.72 610.649 36.72C607.241 36.72 604.061 35.688 601.109 33.624L604.133 27.936C606.269 29.808 608.357 30.744 610.397 30.744C611.309 30.744 612.101 30.516 612.773 30.06C613.469 29.58 613.817 28.896 613.817 28.008C613.817 26.784 612.677 25.836 610.397 25.164C610.325 25.14 610.037 25.056 609.533 24.912C608.237 24.552 607.217 24.216 606.473 23.904C605.729 23.592 604.985 23.16 604.241 22.608C603.497 22.032 602.969 21.312 602.657 20.448C602.345 19.584 602.189 18.516 602.189 17.244C602.189 14.508 603.065 12.312 604.817 10.656C606.569 8.976 608.813 8.136 611.549 8.136C612.917 8.136 614.369 8.34 615.905 8.748C617.465 9.156 618.845 9.696 620.045 10.368ZM653.345 8.856H660.401V24.12C660.401 26.328 660.221 28.188 659.861 29.7C659.525 31.188 658.757 32.52 657.557 33.696C655.517 35.712 652.517 36.72 648.557 36.72C644.597 36.72 641.597 35.712 639.557 33.696C638.357 32.52 637.577 31.188 637.217 29.7C636.881 28.188 636.713 26.328 636.713 24.12V8.856H643.769V23.148C643.769 24.012 643.781 24.732 643.805 25.308C643.853 25.884 643.961 26.532 644.129 27.252C644.321 27.972 644.573 28.548 644.885 28.98C645.221 29.412 645.701 29.784 646.325 30.096C646.949 30.384 647.693 30.528 648.557 30.528C649.421 30.528 650.165 30.384 650.789 30.096C651.413 29.784 651.881 29.412 652.193 28.98C652.529 28.548 652.781 27.972 652.949 27.252C653.141 26.532 653.249 25.884 653.273 25.308C653.321 24.732 653.345 24.012 653.345 23.148V8.856ZM682.588 10.368L679.78 15.84C678.34 14.64 676.78 14.04 675.1 14.04C674.356 14.04 673.66 14.244 673.012 14.652C672.388 15.06 672.076 15.612 672.076 16.308C672.076 16.788 672.268 17.22 672.652 17.604C673.06 17.988 673.432 18.252 673.768 18.396C674.128 18.54 674.608 18.708 675.208 18.9L677.008 19.44C679.12 20.064 680.764 20.952 681.94 22.104C683.116 23.232 683.704 24.816 683.704 26.856C683.704 30.144 682.768 32.58 680.896 34.164C678.88 35.868 676.312 36.72 673.192 36.72C669.784 36.72 666.604 35.688 663.652 33.624L666.676 27.936C668.812 29.808 670.9 30.744 672.94 30.744C673.852 30.744 674.644 30.516 675.316 30.06C676.012 29.58 676.36 28.896 676.36 28.008C676.36 26.784 675.22 25.836 672.94 25.164C672.868 25.14 672.58 25.056 672.076 24.912C670.78 24.552 669.76 24.216 669.016 23.904C668.272 23.592 667.528 23.16 666.784 22.608C666.04 22.032 665.512 21.312 665.2 20.448C664.888 19.584 664.732 18.516 664.732 17.244C664.732 14.508 665.608 12.312 667.36 10.656C669.112 8.976 671.356 8.136 674.092 8.136C675.46 8.136 676.912 8.34 678.448 8.748C680.008 9.156 681.388 9.696 682.588 10.368ZM59.7485 92L64.3565 64.856H71.3045L76.8125 79.364L82.6445 64.856H89.6645L93.7685 92H86.7125L84.7325 76.376H84.6605L78.1445 92H75.3365L69.1085 76.376H69.0365L66.7685 92H59.7485ZM113.403 87.284H103.683L101.811 92H94.3228L104.763 64.856H112.467L122.691 92H115.167L113.403 87.284ZM111.495 81.884L108.615 73.244H108.543L105.627 81.884H111.495ZM132.024 76.052L140.556 64.856H149.304L138.504 77.708L150.276 92H141.132L132.024 80.228H131.952V92H124.896V64.856H131.952V76.052H132.024ZM167.621 70.832H159.233V75.368H167.189V81.344H159.233V86.024H167.621V92H152.177V64.856H167.621V70.832ZM509.35 75.332H519.538V64.856H526.594V92H519.538V80.876H509.35V92H502.294V64.856H509.35V75.332ZM547.825 87.284H538.105L536.233 92H528.745L539.185 64.856H546.889L557.113 92H549.589L547.825 87.284ZM545.917 81.884L543.037 73.244H542.965L540.049 81.884H545.917ZM559.318 92V64.856H570.118C573.166 64.856 575.566 65.6 577.318 67.088C579.094 68.552 579.982 70.784 579.982 73.784C579.982 79.928 576.778 83 570.37 83H566.374V92H559.318ZM566.374 70.544V77.312H567.562C568.234 77.312 568.738 77.312 569.074 77.312C569.434 77.288 569.878 77.216 570.406 77.096C570.958 76.976 571.366 76.808 571.63 76.592C571.894 76.376 572.122 76.052 572.314 75.62C572.53 75.188 572.638 74.648 572.638 74C572.638 73.328 572.542 72.776 572.35 72.344C572.158 71.888 571.93 71.54 571.666 71.3C571.402 71.06 571.006 70.892 570.478 70.796C569.974 70.676 569.53 70.604 569.146 70.58C568.786 70.556 568.258 70.544 567.562 70.544H566.374ZM583.118 92V64.856H593.918C596.966 64.856 599.366 65.6 601.118 67.088C602.894 68.552 603.782 70.784 603.782 73.784C603.782 79.928 600.578 83 594.17 83H590.174V92H583.118ZM590.174 70.544V77.312H591.362C592.034 77.312 592.538 77.312 592.874 77.312C593.234 77.288 593.678 77.216 594.206 77.096C594.758 76.976 595.166 76.808 595.43 76.592C595.694 76.376 595.922 76.052 596.114 75.62C596.33 75.188 596.438 74.648 596.438 74C596.438 73.328 596.342 72.776 596.15 72.344C595.958 71.888 595.73 71.54 595.466 71.3C595.202 71.06 594.806 70.892 594.278 70.796C593.774 70.676 593.33 70.604 592.946 70.58C592.586 70.556 592.058 70.544 591.362 70.544H590.174ZM622.363 70.832H613.975V75.368H621.931V81.344H613.975V86.024H622.363V92H606.919V64.856H622.363V70.832ZM626.712 92V64.856H633.768L646.692 81.452H646.764V64.856H653.82V92H646.764L633.84 75.368H633.768V92H626.712ZM660.043 85.52C660.859 84.704 661.855 84.296 663.031 84.296C664.207 84.296 665.203 84.704 666.019 85.52C666.835 86.336 667.243 87.332 667.243 88.508C667.243 89.66 666.835 90.656 666.019 91.496C665.203 92.312 664.207 92.72 663.031 92.72C661.855 92.72 660.859 92.312 660.043 91.496C659.227 90.656 658.819 89.66 658.819 88.508C658.819 87.332 659.227 86.336 660.043 85.52ZM659.647 82.784V64.856H666.451V82.784H659.647Z" fill="white"/>
<path d="M213.031 60.545H202.816L199.081 77.78L195.301 60.545H185.086V92.045H192.961V76.745L197.146 92.045H201.016L205.156 76.835V92.045H213.031V60.545ZM227.898 59.78C219.708 59.78 216.828 68.15 216.873 76.295C216.828 84.44 219.798 92.81 227.898 92.81C235.998 92.81 238.878 84.44 238.923 76.295C238.878 68.15 235.998 59.78 227.898 59.78ZM224.748 76.295C224.703 70.445 225.783 66.845 227.853 66.845C229.923 66.845 231.003 70.445 231.048 76.295C231.003 82.145 229.878 85.745 227.853 85.745C225.783 85.745 224.703 82.145 224.748 76.295ZM252.598 60.545H242.743V92.045H250.618V83H252.598C260.608 83 262.858 76.7 262.813 71.75C262.858 66.8 260.608 60.545 252.598 60.545ZM250.663 75.89V67.61C253.768 67.61 254.983 69.095 254.938 71.75C254.983 74.405 253.768 75.89 250.663 75.89ZM273.919 68.825C273.874 67.52 275.179 66.845 277.024 66.845C278.914 66.845 281.389 67.835 282.739 68.6L282.784 61.085C281.119 60.5 278.104 59.735 275.854 59.735C270.004 59.735 266.044 63.155 266.044 68.825C266.044 75.485 275.494 80.255 275.449 83.765C275.449 85.07 273.964 85.745 271.894 85.745C270.004 85.745 267.214 84.755 265.594 83.99L265.639 91.505C267.529 92.09 270.859 92.855 273.109 92.855C279.139 92.855 283.324 89.525 283.324 83.765C283.369 77.105 273.874 72.335 273.919 68.825ZM299.788 77.825H286.018L286.063 83.675H299.833L299.788 77.825ZM314.75 85.7L315.605 92.045H323.66L317.9 60.545H306.965L301.205 92.045H309.26L310.115 85.7H314.75ZM311.06 78.635L312.5 68.015L313.895 78.635H311.06ZM335.437 60.545H325.582V92.045H333.457V83H335.437C343.447 83 345.697 76.7 345.652 71.75C345.697 66.8 343.447 60.545 335.437 60.545ZM333.502 75.89V67.61C336.607 67.61 337.822 69.095 337.777 71.75C337.822 74.405 336.607 75.89 333.502 75.89ZM360.718 85.7L361.573 92.045H369.628L363.868 60.545H352.933L347.173 92.045H355.228L356.083 85.7H360.718ZM357.028 78.635L358.468 68.015L359.863 78.635H357.028ZM387.705 92.045L387.75 84.98H379.47L379.425 60.545H371.55V92.045H387.705ZM400.267 59.78C392.077 59.78 389.197 68.15 389.242 76.295C389.197 84.44 392.167 92.81 400.267 92.81C408.367 92.81 411.247 84.44 411.292 76.295C411.247 68.15 408.367 59.78 400.267 59.78ZM397.117 76.295C397.072 70.445 398.152 66.845 400.222 66.845C402.292 66.845 403.372 70.445 403.417 76.295C403.372 82.145 402.247 85.745 400.222 85.745C398.152 85.745 397.072 82.145 397.117 76.295ZM424.821 59.78C416.631 59.78 413.751 68.15 413.796 76.295C413.751 84.44 416.721 92.81 424.821 92.81C432.921 92.81 435.801 84.44 435.846 76.295C435.801 68.15 432.921 59.78 424.821 59.78ZM421.671 76.295C421.626 70.445 422.706 66.845 424.776 66.845C426.846 66.845 427.926 70.445 427.971 76.295C427.926 82.145 426.801 85.745 424.776 85.745C422.706 85.745 421.626 82.145 421.671 76.295ZM457.026 60.5H437.541L437.586 67.565H446.631L436.956 88.895L437.001 92H457.071V84.935H447.441L457.071 63.605L457.026 60.5ZM472.813 85.7L473.668 92.045H481.723L475.963 60.545H465.028L459.268 92.045H467.323L468.178 85.7H472.813ZM469.123 78.635L470.563 68.015L471.958 78.635H469.123Z" fill="#040404" fill-opacity="0.28"/>
<path d="M213.245 64.545H203.03L199.295 81.78L195.515 64.545H185.3V96.045H193.175V80.745L197.36 96.045H201.23L205.37 80.835V96.045H213.245V64.545ZM228.113 63.78C219.923 63.78 217.043 72.15 217.088 80.295C217.043 88.44 220.013 96.81 228.113 96.81C236.213 96.81 239.093 88.44 239.138 80.295C239.093 72.15 236.213 63.78 228.113 63.78ZM224.963 80.295C224.918 74.445 225.998 70.845 228.068 70.845C230.138 70.845 231.218 74.445 231.263 80.295C231.218 86.145 230.093 89.745 228.068 89.745C225.998 89.745 224.918 86.145 224.963 80.295ZM252.812 64.545H242.957V96.045H250.832V87H252.812C260.822 87 263.072 80.7 263.027 75.75C263.072 70.8 260.822 64.545 252.812 64.545ZM250.877 79.89V71.61C253.982 71.61 255.197 73.095 255.152 75.75C255.197 78.405 253.982 79.89 250.877 79.89ZM274.133 72.825C274.088 71.52 275.393 70.845 277.238 70.845C279.128 70.845 281.603 71.835 282.953 72.6L282.998 65.085C281.333 64.5 278.318 63.735 276.068 63.735C270.218 63.735 266.258 67.155 266.258 72.825C266.258 79.485 275.708 84.255 275.663 87.765C275.663 89.07 274.178 89.745 272.108 89.745C270.218 89.745 267.428 88.755 265.808 87.99L265.853 95.505C267.743 96.09 271.073 96.855 273.323 96.855C279.353 96.855 283.538 93.525 283.538 87.765C283.583 81.105 274.088 76.335 274.133 72.825ZM300.002 81.825H286.232L286.277 87.675H300.047L300.002 81.825ZM314.964 89.7L315.819 96.045H323.874L318.114 64.545H307.179L301.419 96.045H309.474L310.329 89.7H314.964ZM311.274 82.635L312.714 72.015L314.109 82.635H311.274ZM335.651 64.545H325.796V96.045H333.671V87H335.651C343.661 87 345.911 80.7 345.866 75.75C345.911 70.8 343.661 64.545 335.651 64.545ZM333.716 79.89V71.61C336.821 71.61 338.036 73.095 337.991 75.75C338.036 78.405 336.821 79.89 333.716 79.89ZM360.932 89.7L361.787 96.045H369.842L364.082 64.545H353.147L347.387 96.045H355.442L356.297 89.7H360.932ZM357.242 82.635L358.682 72.015L360.077 82.635H357.242ZM387.919 96.045L387.964 88.98H379.684L379.639 64.545H371.764V96.045H387.919ZM400.481 63.78C392.291 63.78 389.411 72.15 389.456 80.295C389.411 88.44 392.381 96.81 400.481 96.81C408.581 96.81 411.461 88.44 411.506 80.295C411.461 72.15 408.581 63.78 400.481 63.78ZM397.331 80.295C397.286 74.445 398.366 70.845 400.436 70.845C402.506 70.845 403.586 74.445 403.631 80.295C403.586 86.145 402.461 89.745 400.436 89.745C398.366 89.745 397.286 86.145 397.331 80.295ZM425.036 63.78C416.846 63.78 413.966 72.15 414.011 80.295C413.966 88.44 416.936 96.81 425.036 96.81C433.136 96.81 436.016 88.44 436.061 80.295C436.016 72.15 433.136 63.78 425.036 63.78ZM421.886 80.295C421.841 74.445 422.921 70.845 424.991 70.845C427.061 70.845 428.141 74.445 428.186 80.295C428.141 86.145 427.016 89.745 424.991 89.745C422.921 89.745 421.841 86.145 421.886 80.295ZM457.24 64.5H437.755L437.8 71.565H446.845L437.17 92.895L437.215 96H457.285V88.935H447.655L457.285 67.605L457.24 64.5ZM473.028 89.7L473.883 96.045H481.938L476.178 64.545H465.243L459.483 96.045H467.538L468.393 89.7H473.028ZM469.338 82.635L470.778 72.015L472.173 82.635H469.338Z" fill="white"/>
</svg>
