<svg width="54" height="54" viewBox="0 0 54 54" fill="none" xmlns="http://www.w3.org/2000/svg">
<path d="M21.4418 0.000436185C19.2548 0.0242595 17.1429 1.14765 15.9295 3.15517L15.5076 3.85312C14.9073 4.84417 13.8581 5.44702 12.7003 5.46926L11.8876 5.48787C8.37119 5.56093 5.56111 8.36938 5.48805 11.8873L5.47254 12.7C5.44871 13.8562 4.84275 14.907 3.85328 15.5073L3.15532 15.9261C0.147183 17.7462 -0.879865 21.5895 0.81638 24.6706L1.20724 25.381C1.76471 26.3958 1.76471 27.6046 1.20724 28.6195L0.81638 29.3329C-0.878277 32.4141 0.150285 36.2542 3.15842 38.0743L3.85328 38.4962C4.84434 39.0966 5.44871 40.1442 5.47254 41.3004L5.48805 42.1131C5.56111 45.6295 8.37119 48.4426 11.8876 48.5157L12.7003 48.5312C13.8565 48.555 14.9073 49.1578 15.5076 50.1504L15.9264 50.8453C17.1541 52.8734 19.3008 54 21.5132 54C22.5821 54 23.6642 53.7369 24.668 53.1842L25.3814 52.7933C26.3947 52.2343 27.6082 52.2343 28.6231 52.7933L29.3334 53.1842C32.4146 54.8772 36.2564 53.8518 38.075 50.8453L38.4969 50.1473C39.0972 49.1563 40.1464 48.5534 41.3042 48.5312L42.1138 48.5126C45.6302 48.4395 48.4434 45.6311 48.5164 42.1131L48.532 41.3004C48.5558 40.1442 49.1586 39.0935 50.1481 38.4931L50.8461 38.0743C53.851 36.2542 54.8797 32.4141 53.185 29.3329L52.7942 28.6195C52.2367 27.6046 52.2367 26.3958 52.7942 25.381L53.185 24.6706C54.8797 21.5895 53.8511 17.7462 50.843 15.9261L50.1481 15.5073C49.157 14.907 48.5527 13.8562 48.5289 12.7L48.5133 11.8873C48.4403 8.37096 45.6302 5.56093 42.1138 5.48787L41.3011 5.46926C40.1449 5.44543 39.0941 4.84265 38.4937 3.85001L38.075 3.15827C36.86 1.15076 34.7466 0.0242595 32.5595 0.000436185C31.4684 -0.0122696 30.3578 0.252442 29.3334 0.816261L28.62 1.20711C27.6067 1.76617 26.3932 1.76617 25.3783 1.20711L24.668 0.816261C23.6435 0.250854 22.533 -0.0106814 21.4418 0.000436185Z" fill="url(#paint0_linear_1956_4182)"/>
<path d="M14.367 37.1145L12.0654 37.7312L9.10921 26.6986L15.433 25.0041L15.9466 26.9209L11.9244 27.9986L12.6867 30.8435L16.4297 29.8406L16.9413 31.7498L13.1983 32.7528L14.367 37.1145ZM21.2429 28.6965L21.9975 28.4943C22.7371 28.2962 23.2499 28.0266 23.536 27.6858C23.8221 27.3449 23.8944 26.9103 23.7528 26.3821C23.6126 25.8589 23.3318 25.5351 22.9102 25.4108C22.4937 25.2852 21.9082 25.3235 21.1535 25.5257L20.4442 25.7157L21.2429 28.6965ZM21.7524 30.5982L22.8868 34.8317L20.5474 35.4585L17.5913 24.4258L20.806 23.5644C22.3052 23.1627 23.4879 23.1397 24.3543 23.4952C25.2193 23.8458 25.8007 24.577 26.0987 25.6888C26.2725 26.3378 26.249 26.9642 26.0279 27.568C25.8055 28.1668 25.4058 28.6972 24.8286 29.1592C27.1533 31.1946 28.6643 32.5071 29.3615 33.0968L26.7656 33.7923L22.9976 30.2645L21.7524 30.5982ZM37.104 31.0222L30.75 32.7247L27.7938 21.692L34.1478 19.9895L34.6614 21.9062L30.6468 22.982L31.2959 25.4043L35.0313 24.4034L35.5449 26.3202L31.8095 27.3211L32.5718 30.166L36.5864 29.0903L37.104 31.0222ZM45.7672 28.7009L39.4132 30.4034L36.457 19.3707L42.811 17.6682L43.3246 19.585L39.3099 20.6607L39.959 23.083L43.6944 22.0821L44.208 23.9989L40.4726 24.9998L41.2349 27.8447L45.2495 26.769L45.7672 28.7009Z" fill="white"/>
<defs>
<linearGradient id="paint0_linear_1956_4182" x1="-1.27378" y1="27.1304" x2="85.8895" y2="27.1304" gradientUnits="userSpaceOnUse">
<stop stop-color="#FD4B7A"/>
<stop offset="1" stop-color="#4D00AE"/>
</linearGradient>
</defs>
</svg>
