<svg width="1266" height="855" viewBox="0 0 1266 855" fill="none" xmlns="http://www.w3.org/2000/svg">
<path d="M1108.07 377.809V165.782H478.099C478.099 158.802 477.226 151.822 477.226 143.969C473.736 84.6362 484.206 40.1367 484.206 40.1367L494.677 0L453.668 7.85285C349.836 27.0487 266.945 71.5481 207.612 139.606C157.005 196.321 122.976 270.487 106.398 361.231C94.1821 355.995 83.7117 350.76 78.4765 343.78L48.8102 308.006L32.232 350.76C6.05585 418.818 -4.4146 485.131 1.69317 547.081C6.92839 603.796 26.1242 656.148 57.5356 702.393C89.8195 749.51 134.319 788.774 186.671 814.95C237.278 841.126 291.376 854.215 345.473 854.215C349.836 854.215 1108.07 854.215 1108.07 854.215V642.188H1266V377.809H1108.07ZM791.34 219.007H1054.85V377.809H791.34V219.007ZM738.987 219.007V377.809H577.568C569.715 366.466 560.117 355.123 551.392 343.78C520.853 308.006 499.912 266.124 487.697 219.007H738.987ZM101.162 672.727C64.5159 619.502 31.3594 530.503 69.7511 403.113C75.8588 405.73 81.0941 408.348 86.3293 410.965C95.0547 414.456 103.78 418.818 109.888 423.181L144.789 447.612L150.897 404.858C165.73 308.006 197.142 231.223 246.876 174.508C291.376 123.9 351.581 88.1263 426.619 68.058C424.001 88.1263 422.256 115.175 424.001 145.714C428.364 234.713 458.903 314.986 510.383 377.809C594.146 478.151 619.45 575.002 582.803 657.894C547.902 738.167 454.54 796.627 356.816 800.99C353.326 800.99 348.963 800.99 345.473 800.99C251.239 801.862 155.26 751.255 101.162 672.727ZM738.987 801.862H524.343C573.205 770.451 610.724 728.569 631.665 679.707C636.9 667.491 641.263 655.276 644.753 643.06H738.987V801.862ZM738.987 589.836H651.734C652.606 568.895 650.861 546.209 645.626 524.395C642.136 509.562 638.646 495.601 633.41 480.768V431.034H738.987H791.34H896.917V589.836H738.987ZM1055.72 801.862H792.212V643.06H1055.72V801.862ZM1213.65 589.836H950.141V431.034H1213.65V589.836Z" fill="#F46F46"/>
</svg>
