<svg width="50" height="60" viewBox="0 0 50 60" fill="none" xmlns="http://www.w3.org/2000/svg">
<path d="M23.8651 0.462666C21.5226 1.68204 17.9324 3.29068 15.6596 4.13955C13.0527 5.10567 10.4227 5.84668 7.67672 6.38602C7.11546 6.49858 4.14218 7.0004 1.44257 7.44594C0.793184 7.54911 0.204094 7.67105 0.134517 7.70857L0 7.77892V8.72628C0 10.3771 0.27831 16.8351 0.487043 20.1087C0.565897 21.2905 0.816376 24.4187 0.862761 24.7282C0.983362 25.6053 1.53998 28.2644 1.90642 29.7371C2.71816 32.9965 3.44177 35.1914 4.71272 38.2446C5.36675 39.8157 5.97903 40.9788 7.41233 43.3706C8.4699 45.1246 9.2399 46.2737 10.5294 48.0136C12.1622 50.2085 13.9897 52.122 16.6383 54.3966C19.6394 56.9807 20.0476 57.3043 21.3742 58.1016C21.8427 58.3877 22.4132 58.7441 22.6498 58.8989C23.1461 59.2319 24.4681 59.8978 24.7742 59.9729C24.9783 60.0245 25.0108 60.0151 25.4468 59.8322C26.3003 59.4664 27.0193 59.1006 27.4831 58.791C27.7382 58.6269 28.3366 58.2517 28.8144 57.9609C29.9694 57.2621 30.7533 56.6431 33.374 54.3731C35.132 52.8489 35.3407 52.6473 36.6766 51.2356C38.4254 49.3878 38.7269 49.022 40.2808 46.8505C41.5331 45.1012 42.2428 43.9756 43.6297 41.565C44.7894 39.539 45.9026 36.9548 46.9509 33.8501C47.7441 31.4911 48.8434 26.7496 49.1403 24.3999C49.4603 21.8862 49.8314 15.0717 49.9845 8.94202C50.0123 7.79299 50.0077 7.73671 49.9288 7.70857C49.6552 7.62885 47.656 7.26303 46.1531 7.02385C44.1029 6.69086 42.1083 6.32974 41.0739 6.10463C38.1053 5.44804 35.2201 4.52412 32.2608 3.2813C30.4378 2.51685 28.0397 1.41003 26.2493 0.504875C24.9366 -0.161091 25.0618 -0.161091 23.8651 0.462666Z" fill="#7E66FF"/>
<path d="M27.1438 23.8367C23.6131 28.8991 20.7169 33.0393 20.7081 33.0362C20.6994 33.0299 19.7303 31.6498 18.5578 29.9687L16.425 26.9105L14.2747 29.9937L12.1266 33.0738L16.4206 39.2277L20.7125 45.3847L29.2919 33.0832L37.8735 20.7786L35.7297 17.7048C34.5506 16.0142 33.5816 14.631 33.575 14.631C33.5685 14.631 30.6744 18.7744 27.1438 23.8367Z" fill="white"/>
</svg>
