<svg width="86" height="77" viewBox="0 0 86 77" fill="none" xmlns="http://www.w3.org/2000/svg">
<g clip-path="url(#clip0_5_209)">
<path d="M43 15.8106C19.2341 15.8106 0 33.0298 0 54.3106C0 55.2353 0.837076 55.9846 1.86959 55.9846C2.69894 55.9846 34.9199 55.9846 35.5483 55.9846C36.3857 58.9711 39.4084 61.1894 43 61.1894C46.5916 61.1894 49.6143 58.9711 50.4517 55.9846C51.0751 55.9846 83.2771 55.9846 84.1304 55.9846C85.1629 55.9846 86 55.2353 86 54.3106C86 33.0321 66.7682 15.8106 43 15.8106ZM44.8693 19.1973C54.034 19.5794 62.6267 22.7662 69.4088 28.2982C66.0867 31.2726 66.1333 31.2309 62.8373 34.1817C57.8443 30.2241 51.5615 27.8871 44.8693 27.5183V19.1973ZM41.1302 19.1973V27.5183H41.1304C34.5437 27.8817 28.2537 30.1511 23.1624 34.1817C19.8712 31.2351 19.9158 31.2749 16.591 28.2982C23.3731 22.7662 31.9657 19.5794 41.1302 19.1973ZM3.78255 52.6367C4.20931 44.4311 7.76826 36.7377 13.9469 30.6656L20.5183 36.5491C16.2268 40.8922 13.4979 46.4695 13.0759 52.6367H3.78255ZM43 57.8415C40.8255 57.8415 39.0564 56.2575 39.0564 54.3106C39.0564 52.3635 40.8255 50.7798 43 50.7798C45.1428 50.7798 46.9436 52.3682 46.9436 54.3106C46.9436 56.2578 45.1745 57.8415 43 57.8415ZM49.1123 50.1488C48.6718 49.631 48.2072 49.2255 47.648 48.8382L52.4466 45.8526L49.1123 50.1488ZM51.7347 52.6367L61.4443 40.1264C62.6289 38.6005 60.544 36.737 58.8424 37.7965L43.345 47.4388C39.6248 47.2917 36.4191 49.5361 35.5471 52.6367H16.8243C17.7895 40.3545 29.1882 30.8153 43 30.8153C56.8621 30.8151 68.2155 40.4192 69.1757 52.6367H51.7347ZM72.9239 52.6367C72.5163 46.6592 69.9151 41.039 65.4814 36.5491L72.0529 30.6656C78.2315 36.7377 81.7907 44.4311 82.2172 52.6367H72.9239Z" fill="#7E66FF"/>
</g>
<defs>
<clipPath id="clip0_5_209">
<rect width="86" height="77" fill="white"/>
</clipPath>
</defs>
</svg>
