<svg viewBox="0 0 36 34" fill="none" xmlns="http://www.w3.org/2000/svg">
<path opacity="0.3" d="M5.74992 0C2.76659 0 0.333252 2.43333 0.333252 5.41667V14.5833C0.333252 17.5667 2.76659 20 5.74992 20H16.1666C16.5416 19.1 17.0331 18.2583 17.6331 17.5H5.74992C4.14159 17.5 2.83325 16.1917 2.83325 14.5833V5.41667C2.83325 3.80833 4.14159 2.5 5.74992 2.5H28.2499C29.8583 2.5 31.1666 3.80833 31.1666 5.41667V14.5589C31.9916 14.9839 32.7586 15.5243 33.442 16.1409C33.5836 15.6493 33.6666 15.125 33.6666 14.5833V5.41667C33.6666 2.43333 31.2333 0 28.2499 0H5.74992ZM9.49992 8.33333C9.05789 8.33333 8.63397 8.50893 8.32141 8.82149C8.00885 9.13405 7.83325 9.55797 7.83325 10C7.83325 10.442 8.00885 10.8659 8.32141 11.1785C8.63397 11.4911 9.05789 11.6667 9.49992 11.6667C9.94195 11.6667 10.3659 11.4911 10.6784 11.1785C10.991 10.8659 11.1666 10.442 11.1666 10C11.1666 9.55797 10.991 9.13405 10.6784 8.82149C10.3659 8.50893 9.94195 8.33333 9.49992 8.33333ZM16.9999 8.33333C16.5579 8.33333 16.134 8.50893 15.8214 8.82149C15.5088 9.13405 15.3333 9.55797 15.3333 10C15.3333 10.442 15.5088 10.8659 15.8214 11.1785C16.134 11.4911 16.5579 11.6667 16.9999 11.6667C17.4419 11.6667 17.8659 11.4911 18.1784 11.1785C18.491 10.8659 18.6666 10.442 18.6666 10C18.6666 9.55797 18.491 9.13405 18.1784 8.82149C17.8659 8.50893 17.4419 8.33333 16.9999 8.33333ZM24.4999 8.33333C24.0579 8.33333 23.634 8.50893 23.3214 8.82149C23.0088 9.13405 22.8333 9.55797 22.8333 10C22.8333 10.442 23.0088 10.8659 23.3214 11.1785C23.634 11.4911 24.0579 11.6667 24.4999 11.6667C24.9419 11.6667 25.3659 11.4911 25.6784 11.1785C25.991 10.8659 26.1666 10.442 26.1666 10C26.1666 9.55797 25.991 9.13405 25.6784 8.82149C25.3659 8.50893 24.9419 8.33333 24.4999 8.33333ZM26.1666 15C21.1041 15 16.9999 19.1042 16.9999 24.1667C16.9999 29.2292 21.1041 33.3333 26.1666 33.3333C31.2291 33.3333 35.3333 29.2292 35.3333 24.1667C35.3333 19.1042 31.2291 15 26.1666 15ZM26.1666 20C30.4849 20 32.6302 23.5942 32.7193 23.7467C32.8702 24.0067 32.8702 24.3266 32.7193 24.5866C32.6302 24.7399 30.4849 28.3333 26.1666 28.3333C21.8483 28.3333 19.703 24.7391 19.6138 24.5866C19.463 24.3266 19.463 24.0067 19.6138 23.7467C19.703 23.5942 21.8483 20 26.1666 20ZM26.1666 21.6667C24.7858 21.6667 23.6666 22.7858 23.6666 24.1667C23.6666 25.5475 24.7858 26.6667 26.1666 26.6667C27.5474 26.6667 28.6666 25.5475 28.6666 24.1667C28.6666 22.7858 27.5474 21.6667 26.1666 21.6667Z" fill="#6D7B83"/>
</svg>
