<svg width="40" height="22" viewBox="0 0 40 22" fill="none" xmlns="http://www.w3.org/2000/svg">
<path opacity="0.3" d="M12.1273 0.166016C10.7032 0.166016 9.33389 0.727963 8.32035 1.72852L2.36006 7.61393L2.41052 7.56673C0.364138 9.37664 0.364138 12.6221 2.41052 14.432L2.36006 14.3848L8.32035 20.2702C9.33389 21.2707 10.7032 21.8327 12.1273 21.8327H33.75C36.7266 21.8327 39.1667 19.3926 39.1667 16.416V5.58268C39.1667 2.60607 36.7266 0.166016 33.75 0.166016H12.1273ZM12.1273 2.66602H33.75C35.3751 2.66602 36.6667 3.95763 36.6667 5.58268V16.416C36.6667 18.0411 35.3751 19.3327 33.75 19.3327H12.1273C11.3597 19.3327 10.6246 19.0307 10.0782 18.4912L4.09183 12.583L4.06579 12.5602C3.11217 11.7168 3.11217 10.2819 4.06579 9.43848L4.09183 9.41569L10.0782 3.50749C10.6246 2.96803 11.3597 2.66602 12.1273 2.66602ZM14.1667 9.33268C13.7247 9.33268 13.3008 9.50828 12.9882 9.82084C12.6756 10.1334 12.5 10.5573 12.5 10.9993C12.5 11.4414 12.6756 11.8653 12.9882 12.1779C13.3008 12.4904 13.7247 12.666 14.1667 12.666C14.6087 12.666 15.0326 12.4904 15.3452 12.1779C15.6578 11.8653 15.8334 11.4414 15.8334 10.9993C15.8334 10.5573 15.6578 10.1334 15.3452 9.82084C15.0326 9.50828 14.6087 9.33268 14.1667 9.33268ZM20 9.33268C19.558 9.33268 19.1341 9.50828 18.8215 9.82084C18.509 10.1334 18.3334 10.5573 18.3334 10.9993C18.3334 11.4414 18.509 11.8653 18.8215 12.1779C19.1341 12.4904 19.558 12.666 20 12.666C20.4421 12.666 20.866 12.4904 21.1785 12.1779C21.4911 11.8653 21.6667 11.4414 21.6667 10.9993C21.6667 10.5573 21.4911 10.1334 21.1785 9.82084C20.866 9.50828 20.4421 9.33268 20 9.33268ZM25.8334 9.33268C25.3913 9.33268 24.9674 9.50828 24.6549 9.82084C24.3423 10.1334 24.1667 10.5573 24.1667 10.9993C24.1667 11.4414 24.3423 11.8653 24.6549 12.1779C24.9674 12.4904 25.3913 12.666 25.8334 12.666C26.2754 12.666 26.6993 12.4904 27.0119 12.1779C27.3244 11.8653 27.5 11.4414 27.5 10.9993C27.5 10.5573 27.3244 10.1334 27.0119 9.82084C26.6993 9.50828 26.2754 9.33268 25.8334 9.33268ZM31.6667 9.33268C31.2247 9.33268 30.8007 9.50828 30.4882 9.82084C30.1756 10.1334 30 10.5573 30 10.9993C30 11.4414 30.1756 11.8653 30.4882 12.1779C30.8007 12.4904 31.2247 12.666 31.6667 12.666C32.1087 12.666 32.5327 12.4904 32.8452 12.1779C33.1578 11.8653 33.3334 11.4414 33.3334 10.9993C33.3334 10.5573 33.1578 10.1334 32.8452 9.82084C32.5327 9.50828 32.1087 9.33268 31.6667 9.33268Z" fill="#6D7B83"/>
</svg>
