<svg width="22" height="19" viewBox="0 0 22 19" fill="none" xmlns="http://www.w3.org/2000/svg">
<path d="M20.4935 0.5H14C12.7575 0.5 11.75 1.5075 11.75 2.75V15.75C11.75 16.164 11.414 16.5 11 16.5C10.586 16.5 10.25 16.164 10.25 15.75V2.75C10.25 1.5075 9.2425 0.5 8 0.5H1.5C0.6715 0.5 0 1.1715 0 2V16C0 16.8285 0.6715 17.5 1.5 17.5H9.2775C9.624 18.0955 10.2615 18.5 11 18.5C11.7385 18.5 12.376 18.0955 12.7225 17.5H20.4935C21.322 17.5 21.9935 16.8285 21.9935 16V2C21.9935 1.1715 21.322 0.5 20.4935 0.5ZM7.25 13.25H3C2.5855 13.25 2.25 12.914 2.25 12.5C2.25 12.086 2.5855 11.75 3 11.75H7.25C7.6645 11.75 8 12.086 8 12.5C8 12.914 7.6645 13.25 7.25 13.25ZM7.25 9.75H3C2.5855 9.75 2.25 9.414 2.25 9C2.25 8.586 2.5855 8.25 3 8.25H7.25C7.6645 8.25 8 8.586 8 9C8 9.414 7.6645 9.75 7.25 9.75ZM7.25 6.25H3C2.5855 6.25 2.25 5.914 2.25 5.5C2.25 5.086 2.5855 4.75 3 4.75H7.25C7.6645 4.75 8 5.086 8 5.5C8 5.914 7.6645 6.25 7.25 6.25ZM18 13.25H14.75C14.3355 13.25 14 12.914 14 12.5C14 12.086 14.3355 11.75 14.75 11.75H18C18.4145 11.75 18.75 12.086 18.75 12.5C18.75 12.914 18.4145 13.25 18 13.25ZM19 9.75H14.75C14.3355 9.75 14 9.414 14 9C14 8.586 14.3355 8.25 14.75 8.25H19C19.4145 8.25 19.75 8.586 19.75 9C19.75 9.414 19.4145 9.75 19 9.75ZM19 6.25H14.75C14.3355 6.25 14 5.914 14 5.5C14 5.086 14.3355 4.75 14.75 4.75H19C19.4145 4.75 19.75 5.086 19.75 5.5C19.75 5.914 19.4145 6.25 19 6.25Z" fill="#45474f"/>
</svg>
