<svg width="41" height="40" viewBox="0 0 41 40" fill="none" xmlns="http://www.w3.org/2000/svg">
<path d="M20.5 0C16.0875 0 12.5 3.5875 12.5 8C12.5 8.85625 12.65 9.66875 12.9 10.45C16.2938 11.0656 18.7594 11.9031 20.275 12.5L20.5 12.575L20.725 12.5C22.2406 11.9031 24.7125 11.0906 28.1 10.475C28.3531 9.6875 28.5 8.84688 28.5 8C28.5 3.5875 24.9125 0 20.5 0ZM2.9 11.2C2.45938 11.2 2.1 11.5594 2.1 12V16.8H2.9C5.14375 16.8 6.9 18.5563 6.9 20.8V22.4C6.9 24.6438 5.14375 26.4 2.9 26.4H2.1V34.4C2.1 34.8438 2.45938 35.2 2.9 35.2C12.375 35.2 18.3094 38.7094 19.7 39.625V13.975C17.3688 13.0563 11.575 11.2 2.9 11.2ZM38.1 11.2C29.425 11.2 23.6313 13.0563 21.3 13.975V39.625C22.6906 38.7094 28.6281 35.2 38.1 35.2C38.5438 35.2 38.9 34.8438 38.9 34.4V26.4H38.1C35.8563 26.4 34.1 24.6438 34.1 22.4V20.8C34.1 18.5563 35.8563 16.8 38.1 16.8H38.9V12C38.9 11.5594 38.5438 11.2 38.1 11.2ZM2.1 18.4C1.21875 18.4 0.5 19.1188 0.5 20V23.2C0.5 24.0813 1.21875 24.8 2.1 24.8H2.9C4.25938 24.8 5.3 23.7594 5.3 22.4V20.8C5.3 19.4406 4.25938 18.4 2.9 18.4H2.1ZM38.1 18.4C37.9313 18.4 37.7594 18.4188 37.6 18.45C36.4906 18.6688 35.7 19.6094 35.7 20.8V22.4C35.7 23.7594 36.7406 24.8 38.1 24.8H38.9C39.7812 24.8 40.5 24.0813 40.5 23.2V20C40.5 19.1188 39.7812 18.4 38.9 18.4H38.1Z" fill="#45474f"/>
</svg>
