<svg width="14" height="9" viewBox="0 0 14 9" fill="none" xmlns="http://www.w3.org/2000/svg">
<path d="M10.5262 0.994573C10.2892 0.985459 10.0693 1.12103 9.97249 1.3375C9.87452 1.55396 9.91667 1.80688 10.0807 1.98005L11.8728 3.91682H0.592831C0.382065 3.9134 0.187248 4.02391 0.0812957 4.20619C-0.0257965 4.38734 -0.0257965 4.61292 0.0812957 4.79406C0.187248 4.97634 0.382065 5.08685 0.592831 5.08344H11.8728L10.0807 7.02021C9.9349 7.17287 9.88363 7.39161 9.94515 7.59326C10.0067 7.79492 10.1719 7.94758 10.3769 7.99315C10.5831 8.03872 10.7973 7.96922 10.9375 7.81314L14.001 4.50013L10.9375 1.18711C10.8326 1.0709 10.6834 1.00027 10.5262 0.994573Z" fill="white"/>
</svg>
