<svg width="40" height="22" viewBox="0 0 40 22" fill="none" xmlns="http://www.w3.org/2000/svg">
<path opacity="0.3" d="M12.1273 0.166992C10.7032 0.166992 9.33383 0.72894 8.32029 1.72949L2.36 7.61491L2.41045 7.56771C0.364077 9.37762 0.364077 12.623 2.41045 14.4329L2.36 14.3857L8.32029 20.2712C9.33383 21.2717 10.7032 21.8337 12.1273 21.8337H33.75C36.7266 21.8337 39.1666 19.3936 39.1666 16.417V5.58366C39.1666 2.60704 36.7266 0.166992 33.75 0.166992H12.1273ZM12.1273 2.66699H33.75C35.375 2.66699 36.6666 3.95861 36.6666 5.58366V16.417C36.6666 18.042 35.375 19.3337 33.75 19.3337H12.1273C11.3597 19.3337 10.6246 19.0316 10.0781 18.4922L4.09177 12.584L4.06573 12.5612C3.11211 11.7178 3.11211 10.2829 4.06573 9.43945L4.09177 9.41667L10.0781 3.50846C10.6246 2.96901 11.3597 2.66699 12.1273 2.66699ZM14.1666 9.33366C13.7246 9.33366 13.3007 9.50925 12.9881 9.82181C12.6756 10.1344 12.5 10.5583 12.5 11.0003C12.5 11.4424 12.6756 11.8663 12.9881 12.1788C13.3007 12.4914 13.7246 12.667 14.1666 12.667C14.6087 12.667 15.0326 12.4914 15.3451 12.1788C15.6577 11.8663 15.8333 11.4424 15.8333 11.0003C15.8333 10.5583 15.6577 10.1344 15.3451 9.82181C15.0326 9.50925 14.6087 9.33366 14.1666 9.33366ZM20 9.33366C19.5579 9.33366 19.134 9.50925 18.8215 9.82181C18.5089 10.1344 18.3333 10.5583 18.3333 11.0003C18.3333 11.4424 18.5089 11.8663 18.8215 12.1788C19.134 12.4914 19.5579 12.667 20 12.667C20.442 12.667 20.8659 12.4914 21.1785 12.1788C21.491 11.8663 21.6666 11.4424 21.6666 11.0003C21.6666 10.5583 21.491 10.1344 21.1785 9.82181C20.8659 9.50925 20.442 9.33366 20 9.33366ZM25.8333 9.33366C25.3913 9.33366 24.9674 9.50925 24.6548 9.82181C24.3422 10.1344 24.1666 10.5583 24.1666 11.0003C24.1666 11.4424 24.3422 11.8663 24.6548 12.1788C24.9674 12.4914 25.3913 12.667 25.8333 12.667C26.2753 12.667 26.6993 12.4914 27.0118 12.1788C27.3244 11.8663 27.5 11.4424 27.5 11.0003C27.5 10.5583 27.3244 10.1344 27.0118 9.82181C26.6993 9.50925 26.2753 9.33366 25.8333 9.33366ZM31.6666 9.33366C31.2246 9.33366 30.8007 9.50925 30.4881 9.82181C30.1756 10.1344 30 10.5583 30 11.0003C30 11.4424 30.1756 11.8663 30.4881 12.1788C30.8007 12.4914 31.2246 12.667 31.6666 12.667C32.1087 12.667 32.5326 12.4914 32.8452 12.1788C33.1577 11.8663 33.3333 11.4424 33.3333 11.0003C33.3333 10.5583 33.1577 10.1344 32.8452 9.82181C32.5326 9.50925 32.1087 9.33366 31.6666 9.33366Z" fill="#6D7B83"/>
</svg>
