<svg width="34" height="34" viewBox="0 0 34 34" fill="none" xmlns="http://www.w3.org/2000/svg">
<rect width="34" height="34" rx="8" fill="url(#paint0_linear_4005_10340)"/>
<path d="M26.7154 22.647L18.9744 8.664C18.5709 7.9355 17.8329 7.5 16.9999 7.5C16.1669 7.5 15.4289 7.9355 15.0254 8.664L7.28442 22.647C6.89292 23.3545 6.90392 24.192 7.31492 24.8885C7.72492 25.5845 8.45192 26 9.25942 26H24.7409C25.5479 26 26.2749 25.5845 26.6854 24.8885C27.0954 24.1925 27.1069 23.3545 26.7154 22.647ZM16.2499 13.75C16.2499 13.3355 16.5859 13 16.9999 13C17.4139 13 17.7499 13.3355 17.7499 13.75V18.75C17.7499 19.1645 17.4139 19.5 16.9999 19.5C16.5859 19.5 16.2499 19.1645 16.2499 18.75V13.75ZM16.9999 23C16.4474 23 15.9999 22.5525 15.9999 22C15.9999 21.4475 16.4474 21 16.9999 21C17.5524 21 17.9999 21.4475 17.9999 22C17.9999 22.5525 17.5524 23 16.9999 23Z" fill="#FDFDFD"/>
<defs>
<linearGradient id="paint0_linear_4005_10340" x1="-4.08001" y1="-3.62666" x2="34" y2="34" gradientUnits="userSpaceOnUse">
<stop stop-color="#FFB83F"/>
<stop offset="1" stop-color="#FD4B7A"/>
</linearGradient>
</defs>
</svg>
