<svg width="34" height="34" viewBox="0 0 34 34" fill="none" xmlns="http://www.w3.org/2000/svg">
<path opacity="0.3" d="M17 0.333313C7.81004 0.333313 0.333321 7.81004 0.333321 17C0.333321 26.1899 7.81004 33.6666 17 33.6666C26.1899 33.6666 33.6667 26.1899 33.6667 17C33.6667 7.81004 26.1899 0.333313 17 0.333313ZM17 2.83331C24.8388 2.83331 31.1667 9.16114 31.1667 17C31.1667 24.8388 24.8388 31.1666 17 31.1666C9.16114 31.1666 2.83332 24.8388 2.83332 17C2.83332 9.16114 9.16114 2.83331 17 2.83331ZM17 5.33331C10.5712 5.33331 5.33332 10.5712 5.33332 17C5.33332 23.4288 10.5712 28.6666 17 28.6666C18.4392 28.6666 19.8235 28.4054 21.0999 27.9261C21.2554 27.8698 21.3982 27.7831 21.52 27.6712C21.6418 27.5593 21.7402 27.4243 21.8094 27.2741C21.8787 27.1239 21.9174 26.9615 21.9235 26.7962C21.9295 26.6309 21.9026 26.4661 21.8445 26.3112C21.7863 26.1564 21.6981 26.0146 21.5847 25.8941C21.4714 25.7737 21.3353 25.6769 21.1843 25.6094C21.0333 25.5419 20.8704 25.505 20.705 25.501C20.5397 25.4969 20.3752 25.5256 20.221 25.5856C19.2207 25.9612 18.1374 26.1666 17 26.1666C11.9221 26.1666 7.83332 22.0779 7.83332 17C7.83332 11.9221 11.9221 7.83331 17 7.83331C22.0779 7.83331 26.1667 11.9221 26.1667 17V18.25C26.1667 19.4152 25.2485 20.3333 24.0833 20.3333C22.9181 20.3333 22 19.4152 22 18.25V12.4166C22.0024 12.1096 21.8918 11.8125 21.6892 11.5818C21.4866 11.3511 21.2062 11.2031 20.9014 11.1658C20.5967 11.1286 20.2889 11.2049 20.0367 11.38C19.7846 11.5552 19.6057 11.817 19.5342 12.1155C18.6905 11.5202 17.6814 11.1666 16.5833 11.1666C13.5401 11.1666 11.1667 13.8562 11.1667 17C11.1667 20.1438 13.5401 22.8333 16.5833 22.8333C18.1256 22.8333 19.4936 22.1401 20.47 21.0495C21.3113 22.13 22.6194 22.8333 24.0833 22.8333C26.5998 22.8333 28.6667 20.7665 28.6667 18.25V17C28.6667 10.5712 23.4288 5.33331 17 5.33331ZM16.5833 13.6666C18.1351 13.6666 19.5 15.0888 19.5 17C19.5 18.9112 18.1351 20.3333 16.5833 20.3333C15.0315 20.3333 13.6667 18.9112 13.6667 17C13.6667 15.0888 15.0315 13.6666 16.5833 13.6666Z" fill="#6D7B83"/>
</svg>
