<svg width="36" height="34" viewBox="0 0 36 34" fill="none" xmlns="http://www.w3.org/2000/svg">
<path opacity="0.3" d="M5.75 0C2.76667 0 0.333336 2.43333 0.333336 5.41667V14.5833C0.333336 17.5667 2.76667 20 5.75 20H16.1667C16.5417 19.1 17.0331 18.2583 17.6331 17.5H5.75C4.14167 17.5 2.83334 16.1917 2.83334 14.5833V5.41667C2.83334 3.80833 4.14167 2.5 5.75 2.5H28.25C29.8583 2.5 31.1667 3.80833 31.1667 5.41667V14.5589C31.9917 14.9839 32.7587 15.5243 33.4421 16.1409C33.5837 15.6493 33.6667 15.125 33.6667 14.5833V5.41667C33.6667 2.43333 31.2333 0 28.25 0H5.75ZM9.5 8.33333C9.05797 8.33333 8.63405 8.50893 8.32149 8.82149C8.00893 9.13405 7.83334 9.55797 7.83334 10C7.83334 10.442 8.00893 10.866 8.32149 11.1785C8.63405 11.4911 9.05797 11.6667 9.5 11.6667C9.94203 11.6667 10.366 11.4911 10.6785 11.1785C10.9911 10.866 11.1667 10.442 11.1667 10C11.1667 9.55797 10.9911 9.13405 10.6785 8.82149C10.366 8.50893 9.94203 8.33333 9.5 8.33333ZM17 8.33333C16.558 8.33333 16.1341 8.50893 15.8215 8.82149C15.5089 9.13405 15.3333 9.55797 15.3333 10C15.3333 10.442 15.5089 10.866 15.8215 11.1785C16.1341 11.4911 16.558 11.6667 17 11.6667C17.442 11.6667 17.866 11.4911 18.1785 11.1785C18.4911 10.866 18.6667 10.442 18.6667 10C18.6667 9.55797 18.4911 9.13405 18.1785 8.82149C17.866 8.50893 17.442 8.33333 17 8.33333ZM24.5 8.33333C24.058 8.33333 23.6341 8.50893 23.3215 8.82149C23.0089 9.13405 22.8333 9.55797 22.8333 10C22.8333 10.442 23.0089 10.866 23.3215 11.1785C23.6341 11.4911 24.058 11.6667 24.5 11.6667C24.942 11.6667 25.366 11.4911 25.6785 11.1785C25.9911 10.866 26.1667 10.442 26.1667 10C26.1667 9.55797 25.9911 9.13405 25.6785 8.82149C25.366 8.50893 24.942 8.33333 24.5 8.33333ZM26.1667 15C21.1042 15 17 19.1042 17 24.1667C17 29.2292 21.1042 33.3333 26.1667 33.3333C31.2292 33.3333 35.3333 29.2292 35.3333 24.1667C35.3333 19.1042 31.2292 15 26.1667 15ZM26.1667 18.3333C27.77 18.3333 29.2575 19.0041 30.3333 20.1074V19.1667C30.3333 18.7067 30.7058 18.3333 31.1667 18.3333C31.6275 18.3333 32 18.7067 32 19.1667V22.5C32 22.96 31.6275 23.3333 31.1667 23.3333H27.8333C27.3725 23.3333 27 22.96 27 22.5C27 22.04 27.3725 21.6667 27.8333 21.6667H29.4674C28.6966 20.6433 27.4908 20 26.1667 20C23.8692 20 22 21.8692 22 24.1667C22 26.4642 23.8692 28.3333 26.1667 28.3333C27.925 28.3333 29.5025 27.2175 30.0908 25.5566C30.2442 25.1225 30.7195 24.8947 31.1536 25.0488C31.5878 25.203 31.8156 25.6783 31.6615 26.1117C30.839 28.4375 28.63 30 26.1667 30C22.9508 30 20.3333 27.3833 20.3333 24.1667C20.3333 20.95 22.9508 18.3333 26.1667 18.3333Z" fill="#6D7B83"/>
</svg>
