<svg width="112" height="34" viewBox="0 0 112 34" fill="none" xmlns="http://www.w3.org/2000/svg">
<g clip-path="url(#clip0_1221_2258)">
<path d="M12.0524 6.00745V14.8581H3.87819V6.00745H0V27.1351H3.87924V18.5717H12.0514V27.1351H15.9316V6.00745H12.0524ZM28.3483 20.3063C28.3483 21.1531 28.0102 21.9653 27.4082 22.5641C26.8062 23.1629 25.9897 23.4993 25.1384 23.4993C24.2871 23.4993 23.4706 23.1629 22.8686 22.5641C22.2666 21.9653 21.9284 21.1531 21.9284 20.3063V11.2562H18.2487V20.3063C18.2487 22.1221 18.9738 23.8635 20.2646 25.1475C21.5554 26.4315 23.3061 27.1528 25.1316 27.1528C26.957 27.1528 28.7077 26.4315 29.9985 25.1475C31.2893 23.8635 32.0145 22.1221 32.0145 20.3063V11.2562H28.3483V20.3063ZM55.6143 12.1888C55.6143 10.333 56.8479 9.74507 58.199 9.74507C59.2888 9.74507 60.7271 10.5701 61.6688 11.5705L64.0783 8.74461C62.8751 7.12591 60.4352 6.00745 58.4374 6.00745C54.4447 6.00745 51.5576 8.33315 51.5576 12.1888C51.5576 19.3424 60.3471 17.072 60.3471 21.0759C60.3471 22.3103 59.1418 23.4006 57.7623 23.4006C55.5859 23.4006 54.8804 22.3427 53.881 21.2232L51.2059 23.9896C52.9172 26.0782 55.0274 27.1392 57.5544 27.1392C61.3476 27.1392 64.3985 24.7854 64.3985 21.1052C64.3985 13.1642 55.608 15.6319 55.608 12.1888H55.6143ZM109.991 23.7598C107.817 23.7598 107.198 22.8241 107.198 21.3913V15.0471H110.579V11.8327H107.198V7.59168L103.467 9.25737V22.1798C103.467 25.485 105.76 27.1507 108.903 27.1507C109.397 27.1591 109.89 27.1194 110.375 27.0338L111.285 23.7003C110.875 23.7285 110.403 23.7567 109.991 23.7567V23.7598ZM42.3556 11.3617C40.533 11.3617 39.2606 11.888 38.0302 13.0879V6.13381H34.3452V19.0238C34.3452 23.8486 37.8517 27.1549 41.7929 27.1549C46.1645 27.1549 50.0101 23.7901 50.0101 19.2599C50.0101 14.786 46.471 11.3648 42.3556 11.3648V11.3617ZM42.3325 23.4653C41.7833 23.4653 41.2395 23.3577 40.7321 23.1487C40.2247 22.9396 39.7636 22.6332 39.3753 22.2469C38.9869 21.8606 38.6789 21.402 38.4687 20.8973C38.2585 20.3925 38.1504 19.8516 38.1504 19.3053C38.1504 18.759 38.2585 18.218 38.4687 17.7133C38.6789 17.2086 38.9869 16.75 39.3753 16.3637C39.7636 15.9774 40.2247 15.671 40.7321 15.4619C41.2395 15.2528 41.7833 15.1452 42.3325 15.1452C43.4417 15.1452 44.5054 15.5835 45.2897 16.3637C46.074 17.1439 46.5146 18.202 46.5146 19.3053C46.5146 20.4086 46.074 21.4667 45.2897 22.2469C44.5054 23.027 43.4417 23.4653 42.3325 23.4653ZM82.3763 19.0677C82.3763 14.5291 78.539 11.1727 74.159 11.1727C70.2189 11.1727 66.7113 14.4779 66.7113 19.3037V32.2011H70.3963V25.2375C71.6247 26.4354 72.8992 26.9638 74.7197 26.9638C78.8351 26.9638 82.3752 23.5426 82.3752 19.0677H82.3763ZM78.8866 19.0218C78.8866 20.1251 78.4459 21.1832 77.6616 21.9634C76.8773 22.7435 75.8136 23.1818 74.7044 23.1818C73.5953 23.1818 72.5315 22.7435 71.7472 21.9634C70.9629 21.1832 70.5223 20.1251 70.5223 19.0218C70.5223 17.9184 70.9629 16.8603 71.7472 16.0802C72.5315 15.3 73.5953 14.8617 74.7044 14.8617C75.8136 14.8617 76.8773 15.3 77.6616 16.0802C78.4459 16.8603 78.8866 17.9184 78.8866 19.0218Z" fill="#33475B"/>
<path d="M94.2836 10.9951V7.3118C94.7729 7.08431 95.1872 6.72326 95.4783 6.27067C95.7693 5.81808 95.9252 5.29257 95.9277 4.75531V4.67072C95.9277 3.10424 94.651 1.83434 93.0763 1.83434H92.9912C92.235 1.83434 91.5097 2.13318 90.975 2.6651C90.4402 3.19702 90.1398 3.91846 90.1398 4.67072V4.75531C90.1423 5.29257 90.2981 5.81808 90.5892 6.27067C90.8803 6.72326 91.2946 7.08431 91.7839 7.3118V10.9951C90.3775 11.2093 89.053 11.7893 87.9445 12.6765L77.7892 4.80857C77.8617 4.54853 77.8995 4.28118 77.9037 4.01279C77.9049 3.38067 77.7177 2.76239 77.3656 2.23614C77.0135 1.70989 76.5125 1.29932 75.9258 1.05637C75.3392 0.813417 74.6932 0.748995 74.0698 0.871252C73.4463 0.993509 72.8733 1.29695 72.4232 1.7432C71.9731 2.18944 71.6662 2.75845 71.5412 3.37823C71.4163 3.99801 71.4789 4.64073 71.7213 5.22509C71.9636 5.80945 72.3747 6.3092 72.9026 6.66112C73.4305 7.01304 74.0514 7.20132 74.6869 7.20214C75.2428 7.19954 75.7884 7.0519 76.269 6.77397L86.269 14.5145C85.3706 15.8644 84.902 17.4523 84.9241 19.071C84.9462 20.6898 85.458 22.2644 86.3928 23.5896L83.3514 26.616C83.1055 26.5378 82.8494 26.4963 82.5913 26.4928C82.0697 26.4932 81.5599 26.6474 81.1263 26.936C80.6928 27.2245 80.3549 27.6344 80.1555 28.1138C79.9561 28.5933 79.904 29.1208 80.0059 29.6297C80.1078 30.1386 80.359 30.606 80.7278 30.9729C81.0967 31.3398 81.5666 31.5897 82.0782 31.691C82.5898 31.7924 83.1201 31.7406 83.6021 31.5422C84.0841 31.3438 84.4961 31.0078 84.7862 30.5765C85.0762 30.1453 85.2313 29.6381 85.2317 29.1193C85.2283 28.8625 85.1866 28.6077 85.1078 28.3632L88.1167 25.3691C89.0979 26.1205 90.239 26.6385 91.4525 26.8835C92.666 27.1285 93.9198 27.0939 95.1179 26.7824C96.3159 26.4709 97.4263 25.8908 98.3641 25.0864C99.3019 24.2821 100.042 23.2749 100.528 22.142C101.014 21.0091 101.233 19.7806 101.168 18.5506C101.103 17.3205 100.756 16.1216 100.153 15.0457C99.5505 13.9697 98.7082 13.0453 97.6907 12.3432C96.6733 11.6411 95.5078 11.18 94.2836 10.9951ZM93.0364 23.1092C92.4803 23.1244 91.9268 23.0286 91.4086 22.8275C90.8903 22.6263 90.4179 22.3238 90.0192 21.938C89.6204 21.5521 89.3035 21.0907 89.0871 20.5809C88.8707 20.0711 88.7592 19.5234 88.7592 18.9701C88.7592 18.4167 88.8707 17.869 89.0871 17.3592C89.3035 16.8494 89.6204 16.388 90.0192 16.0021C90.4179 15.6163 90.8903 15.3138 91.4086 15.1126C91.9268 14.9115 92.4803 14.8157 93.0364 14.8309C94.1141 14.8684 95.1352 15.3206 95.8845 16.0921C96.6338 16.8636 97.0528 17.8943 97.0534 18.967C97.0539 20.0397 96.6359 21.0708 95.8874 21.8431C95.1389 22.6153 94.1183 23.0685 93.0406 23.1071" fill="#FF7A59"/>
</g>
<defs>
<clipPath id="clip0_1221_2258">
<rect width="111.285" height="32.3739" fill="white" transform="translate(0 0.812988)"/>
</clipPath>
</defs>
</svg>
