<svg width="17" height="20" viewBox="0 0 17 20" fill="none" xmlns="http://www.w3.org/2000/svg">
<path d="M8.5 0C3.813 0 0 3.813 0 8.5C0 10.518 0.7245 12.4765 2.0465 14.024C2.1975 14.1955 5.76 18.2435 6.95 19.378C7.3845 19.7925 7.942 20 8.5 20C9.058 20 9.6155 19.7925 10.0505 19.378C11.434 18.0585 14.8125 14.1855 14.9605 14.0155C16.2755 12.4765 17 10.518 17 8.5C17 3.813 13.187 0 8.5 0ZM8.5 11C7.1195 11 6 9.8805 6 8.5C6 7.1195 7.1195 6 8.5 6C9.8805 6 11 7.1195 11 8.5C11 9.8805 9.8805 11 8.5 11Z" fill="#6D7B83"/>
</svg>
