<svg width="21" height="18" viewBox="0 0 21 18" fill="none" xmlns="http://www.w3.org/2000/svg">
<path d="M11.75 0C11.06 0 10.5 0.56 10.5 1.25V1.5V8.87012L12 7.91016V3C12.8285 3 13.5 2.3285 13.5 1.5H18C18 2.3285 18.6715 3 19.5 3V15C18.6715 15 18 15.6715 18 16.5H13.5C13.5 15.79 13.0096 15.2 12.3496 15.04L12 15.415L10.5703 16.9453C10.5704 16.9456 10.5702 16.946 10.5703 16.9463L10.5254 16.9951C10.6404 17.5701 11.145 18 11.75 18H12H19.5H19.75C20.44 18 21 17.44 21 16.75V16.5V1.5V1.25C21 0.56 20.44 0 19.75 0H19.5H12H11.75ZM15.75 3C15.4848 3 15.2304 3.10536 15.0429 3.29289C14.8554 3.48043 14.75 3.73478 14.75 4C14.75 4.26522 14.8554 4.51957 15.0429 4.70711C15.2304 4.89464 15.4848 5 15.75 5C16.0152 5 16.2696 4.89464 16.4571 4.70711C16.6446 4.51957 16.75 4.26522 16.75 4C16.75 3.73478 16.6446 3.48043 16.4571 3.29289C16.2696 3.10536 16.0152 3 15.75 3ZM9.5 4.44043L6.16992 5.46484C5.57492 5.64984 5.04504 6.01953 4.66504 6.51953L0.705078 11.7305C0.570078 11.9055 0.5 12.12 0.5 12.335V17C0.5 17.55 0.95 18 1.5 18L6.49023 17.9951C7.60023 17.9951 8.65516 17.5346 9.41016 16.7246L14.5547 11.2148C14.8497 10.9048 14.9951 10.5054 14.9951 10.1104C14.9951 9.67535 14.8197 9.2398 14.4697 8.9248C13.9447 8.44481 13.1597 8.37012 12.5547 8.74512L10.0254 10.3604V10.3652L8.50488 11.3799C8.43488 11.4249 8.35527 11.4596 8.28027 11.4746L8.25 11.4951L8.26465 11.4805C8.20965 11.4955 8.15461 11.5 8.09961 11.5C7.85461 11.5 7.60973 11.3803 7.46973 11.1553C7.24473 10.8053 7.34531 10.3401 7.69531 10.1201L9.5 8.96484V4.44043ZM15.75 6.55469C14.86 6.55469 14.0652 6.92965 13.5752 7.51465C14.1602 7.55465 14.7095 7.78957 15.1445 8.18457C15.6845 8.66957 15.9951 9.37535 15.9951 10.1104C15.9951 10.5854 15.8699 11.0404 15.6299 11.4404C15.6699 11.4454 15.71 11.4453 15.75 11.4453C17.27 11.4453 18.5 10.35 18.5 9C18.5 7.65 17.27 6.55469 15.75 6.55469ZM15.75 13C15.4848 13 15.2304 13.1054 15.0429 13.2929C14.8554 13.4804 14.75 13.7348 14.75 14C14.75 14.2652 14.8554 14.5196 15.0429 14.7071C15.2304 14.8946 15.4848 15 15.75 15C16.0152 15 16.2696 14.8946 16.4571 14.7071C16.6446 14.5196 16.75 14.2652 16.75 14C16.75 13.7348 16.6446 13.4804 16.4571 13.2929C16.2696 13.1054 16.0152 13 15.75 13Z" fill="url(#paint0_linear_1501_993)"/>
<defs>
<linearGradient id="paint0_linear_1501_993" x1="0.0164335" y1="9.04348" x2="33.1062" y2="9.04348" gradientUnits="userSpaceOnUse">
<stop stop-color="#FD4B7A"/>
<stop offset="1" stop-color="#4D00AE"/>
</linearGradient>
</defs>
</svg>
