<svg width="35" height="36" viewBox="0 0 35 36" fill="none" xmlns="http://www.w3.org/2000/svg">
<path opacity="0.3" d="M13.5 0.333374C8.91243 0.333374 5.16666 4.07914 5.16666 8.66671C5.16666 13.2543 8.91243 17 13.5 17C18.0876 17 21.8333 13.2543 21.8333 8.66671C21.8333 4.07914 18.0876 0.333374 13.5 0.333374ZM13.5 2.83337C16.7365 2.83337 19.3333 5.43024 19.3333 8.66671C19.3333 11.9032 16.7365 14.5 13.5 14.5C10.2635 14.5 7.66666 11.9032 7.66666 8.66671C7.66666 5.43024 10.2635 2.83337 13.5 2.83337ZM25.1667 17C20.1042 17 16 21.1042 16 26.1667C16 31.2292 20.1042 35.3334 25.1667 35.3334C30.2292 35.3334 34.3333 31.2292 34.3333 26.1667C34.3333 21.1042 30.2292 17 25.1667 17ZM3.91666 20.3334C1.85 20.3334 0.166664 22.0167 0.166664 24.0834V25.0827C0.166664 29.8994 6.025 33.6667 13.5 33.6667C14.7417 33.6667 15.9409 33.5591 17.0742 33.3591C16.4575 32.6674 15.9253 31.9008 15.5003 31.0674C14.8587 31.1341 14.1917 31.1667 13.5 31.1667C6.80833 31.1667 2.66666 28.0077 2.66666 25.0827V24.0834C2.66666 23.3917 3.225 22.8334 3.91666 22.8334H14.859C15.1424 21.9417 15.5423 21.1084 16.0423 20.3334H3.91666ZM25.1667 20.3334C25.5667 20.3334 25.9237 20.5882 26.0537 20.9665L26.9814 23.6667H30.0625C30.465 23.6667 30.8228 23.9239 30.9512 24.3047C31.0795 24.6864 30.9497 25.1079 30.6289 25.3513L28.1338 27.2442L28.9785 29.9493C29.1002 30.3376 28.957 30.7592 28.6253 30.9942C28.4628 31.1092 28.2725 31.1667 28.0833 31.1667C27.8858 31.1667 27.6876 31.1045 27.5218 30.9795L25.1667 29.2168L22.8115 30.9795C22.4865 31.2237 22.0405 31.2308 21.708 30.9958C21.3763 30.7608 21.2331 30.3376 21.3548 29.9493L22.1995 27.2458L19.7044 25.3513C19.3836 25.1079 19.2538 24.688 19.3822 24.3064C19.5113 23.9247 19.8683 23.6667 20.2708 23.6667H23.3519L24.2796 20.9665C24.4096 20.5882 24.7667 20.3334 25.1667 20.3334Z" fill="#6D7B83"/>
</svg>
