<svg viewBox="0 0 20 20" fill="none" xmlns="http://www.w3.org/2000/svg">
<path d="M17.5697 11.141C17.2132 10.8795 17.0002 10.4595 17.0002 10.017C17.0002 9.5745 17.2132 9.1545 17.5692 8.8935L19.2162 7.686C19.4787 7.493 19.5872 7.1535 19.4847 6.844C19.0607 5.57 18.3902 4.408 17.4912 3.3895C17.2747 3.1455 16.9257 3.0685 16.6272 3.1995L14.7727 4.015C14.3687 4.193 13.8982 4.1675 13.5147 3.946C13.1317 3.725 12.8747 3.331 12.8262 2.8915L12.6032 0.855503C12.5677 0.531503 12.3267 0.267503 12.0077 0.202003C10.7092 -0.0634973 9.34474 -0.0679972 8.02324 0.197003C7.70224 0.261503 7.46074 0.525503 7.42524 0.851003L7.20424 2.874C7.15574 3.314 6.89874 3.708 6.51474 3.929C6.13174 4.15 5.66274 4.1765 5.25724 3.998L3.39274 3.178C3.09674 3.047 2.74674 3.123 2.53024 3.3665C1.62824 4.381 0.954743 5.5415 0.526243 6.8145C0.422243 7.1235 0.530243 7.465 0.793743 7.6585L2.43024 8.8585C2.78724 9.1205 3.00024 9.5405 3.00024 9.983C3.00024 10.4255 2.78724 10.8455 2.43124 11.1065L0.784243 12.314C0.521743 12.507 0.413243 12.8465 0.515743 13.156C0.939743 14.43 1.61024 15.592 2.50924 16.6105C2.72574 16.855 3.07574 16.9325 3.37324 16.8005L5.22774 15.985C5.63174 15.807 6.10174 15.8325 6.48574 16.054C6.86874 16.275 7.12574 16.669 7.17424 17.1085L7.39724 19.1445C7.43274 19.4685 7.67374 19.7325 7.99274 19.798C8.64974 19.932 9.32474 20 10.0002 20C10.6592 20 11.3242 19.9335 11.9767 19.8025C12.2977 19.738 12.5392 19.474 12.5747 19.1485L12.7962 17.1255C12.8447 16.6855 13.1017 16.2915 13.4857 16.0705C13.8687 15.85 14.3382 15.824 14.7432 16.0015L16.6077 16.8215C16.9047 16.953 17.2537 16.877 17.4702 16.633C18.3722 15.6185 19.0457 14.458 19.4742 13.185C19.5782 12.876 19.4702 12.5345 19.2067 12.341L17.5697 11.141ZM10.0002 13.5C8.06724 13.5 6.50024 11.933 6.50024 10C6.50024 8.067 8.06724 6.5 10.0002 6.5C11.9332 6.5 13.5002 8.067 13.5002 10C13.5002 11.933 11.9332 13.5 10.0002 13.5Z" fill="url(#paint0_linear_4611_12387)"/>
<defs>
<linearGradient id="paint0_linear_4611_12387" x1="0.0282843" y1="10.0486" x2="30.7701" y2="10.0486" gradientUnits="userSpaceOnUse">
<stop stop-color="#FD4B7A"/>
<stop offset="1" stop-color="#4D00AE"/>
</linearGradient>
</defs>
</svg>
