<svg width="16" height="15" viewBox="0 0 16 15" fill="none" xmlns="http://www.w3.org/2000/svg">
<path d="M14.8285 0.00108433C14.4964 0.0128033 14.1917 0.188584 14.016 0.469834L6.45349 11.7354L1.71912 7.82336C1.4574 7.55188 1.06482 7.45032 0.703491 7.5636C0.344116 7.67493 0.0765383 7.97961 0.0140383 8.35071C-0.0484617 8.72375 0.101929 9.09875 0.406616 9.32336L6.01599 14.0011C6.23474 14.1866 6.5238 14.2686 6.807 14.2276C7.09216 14.1847 7.34411 14.0225 7.50036 13.7823L15.7035 1.56358C15.9183 1.24913 15.9359 0.842881 15.7503 0.51085C15.5648 0.180772 15.2074 -0.0164937 14.8285 0.00108433Z" fill="white"/>
</svg>
