<svg xmlns="http://www.w3.org/2000/svg" xmlns:xlink="http://www.w3.org/1999/xlink" viewBox="0 0 34 34" width="34" height="34">
	<style type="text/css">
		.st0 {
			opacity: 0.3;
			fill-rule: evenodd;
			clip-rule: evenodd;
			fill: #6D7B83;
			enable-background: new;
		}

	</style>
	<g>
		<path class="st0" d="M8.6,16c0,0-0.1,0-0.1,0c-2.8,0.6-4.7,1.5-6,2.9c-1.3,1.4-1.7,3.3-1.7,5.6v3.5c0,0.3,0.1,0.5,0.4,0.7
		c11.5,7.2,22.2,6.8,31.8,0v0c0.2-0.1,0.3-0.4,0.3-0.6v-3.5c0-2.1-0.6-4-1.8-5.4c-1.2-1.4-3.1-2.5-5.5-3.1h0c-0.3-0.1-0.6,0-0.8,0.2
		c-1.1,1.1-2.2,2.6-3.5,3.7c-1.3,1.1-2.6,1.9-4.1,1.9c0,0,0,0,0,0c-3.5,0.1-6.1-3.5-8.3-5.7C9,16.1,8.8,16,8.6,16L8.6,16z" />
		<path class="st0" d="M17,0c-3.9,0-7,3.1-7,6.9c0,1.9,0.7,4.5,1.9,6.7c0.6,1.1,1.3,2.1,2.1,2.9c0.8,0.8,1.8,1.3,2.9,1.3
		c1.1,0,2.1-0.5,2.9-1.3c0.8-0.8,1.5-1.8,2.1-2.9c1.2-2.2,1.9-4.8,1.9-6.7C24,3.1,20.8,0,17,0L17,0z" />
	</g>
</svg>
