<svg width="54" height="54" viewBox="0 0 54 54" fill="none" xmlns="http://www.w3.org/2000/svg">
<path d="M21.4418 0.000436185C19.2548 0.0242595 17.1429 1.14765 15.9295 3.15517L15.5076 3.85312C14.9073 4.84417 13.8581 5.44702 12.7003 5.46926L11.8876 5.48787C8.37119 5.56093 5.56111 8.36937 5.48805 11.8873L5.47254 12.7C5.44871 13.8562 4.84275 14.907 3.85328 15.5073L3.15532 15.9261C0.147183 17.7462 -0.879865 21.5895 0.81638 24.6706L1.20724 25.381C1.76471 26.3958 1.76471 27.6046 1.20724 28.6195L0.81638 29.3329C-0.878277 32.4141 0.150285 36.2542 3.15842 38.0743L3.85328 38.4962C4.84434 39.0966 5.44871 40.1442 5.47254 41.3004L5.48805 42.1131C5.56111 45.6295 8.37119 48.4426 11.8876 48.5157L12.7003 48.5312C13.8565 48.555 14.9073 49.1578 15.5076 50.1504L15.9264 50.8453C17.1541 52.8734 19.3008 54 21.5132 54C22.5821 54 23.6642 53.7369 24.668 53.1842L25.3814 52.7933C26.3947 52.2343 27.6082 52.2343 28.6231 52.7933L29.3334 53.1842C32.4146 54.8772 36.2564 53.8518 38.075 50.8453L38.4969 50.1473C39.0972 49.1563 40.1464 48.5534 41.3042 48.5312L42.1138 48.5126C45.6302 48.4395 48.4434 45.6311 48.5164 42.1131L48.532 41.3004C48.5558 40.1442 49.1586 39.0935 50.1481 38.4931L50.8461 38.0743C53.851 36.2542 54.8797 32.4141 53.185 29.3329L52.7942 28.6195C52.2367 27.6046 52.2367 26.3958 52.7942 25.381L53.185 24.6706C54.8797 21.5895 53.8511 17.7462 50.843 15.9261L50.1481 15.5073C49.157 14.907 48.5527 13.8562 48.5288 12.7L48.5133 11.8873C48.4403 8.37096 45.6302 5.56093 42.1138 5.48787L41.3011 5.46926C40.1449 5.44543 39.0941 4.84265 38.4937 3.85001L38.075 3.15827C36.86 1.15076 34.7466 0.0242595 32.5595 0.000436185C31.4684 -0.0122696 30.3578 0.252442 29.3334 0.816261L28.62 1.20711C27.6067 1.76617 26.3932 1.76617 25.3783 1.20711L24.668 0.816261C23.6435 0.250854 22.533 -0.0106814 21.4418 0.000436185Z" fill="url(#paint0_linear_3732_9018)"/>
<path d="M7.08574 20.4444L10.5193 19.5244C11.9883 19.1308 13.1554 19.0391 14.0206 19.2495C14.8857 19.4598 15.4572 20.0831 15.7349 21.1195C15.8467 21.537 15.8799 21.9326 15.8344 22.306C15.7939 22.6781 15.6769 23.0061 15.4833 23.2898C15.2897 23.5735 15.0206 23.7966 14.6759 23.9591L14.6961 24.0345C15.0836 24.0116 15.4507 24.0534 15.7974 24.16C16.1427 24.2616 16.4506 24.4649 16.7211 24.7699C16.9952 25.0685 17.2098 25.507 17.3648 26.0856C17.5441 26.7547 17.5342 27.372 17.3353 27.9376C17.1364 28.5031 16.7669 28.9958 16.2269 29.4154C15.6906 29.8287 15.0049 30.1473 14.1698 30.3711L10.0419 31.4771L7.08574 20.4444ZM10.5958 24.1869L11.9542 23.8229C12.6333 23.6409 13.0754 23.4093 13.2804 23.1279C13.484 22.8414 13.5299 22.4895 13.418 22.0719C13.3048 21.6493 13.068 21.3892 12.7075 21.2917C12.3508 21.1878 11.8378 21.2255 11.1687 21.4048L9.93869 21.7343L10.5958 24.1869ZM11.0933 26.0433L11.8637 28.9184L13.388 28.51C14.0923 28.3213 14.5464 28.054 14.7503 27.7082C14.9542 27.3624 14.9949 26.9606 14.8722 26.5028C14.7994 26.2311 14.675 26.0083 14.499 25.8344C14.323 25.6605 14.0761 25.5541 13.7583 25.5152C13.4456 25.475 13.0402 25.5216 12.5421 25.6551L11.0933 26.0433ZM26.7796 26.9923L20.4256 28.6948L17.4694 17.6621L23.8234 15.9596L24.337 17.8763L20.3224 18.952L20.9715 21.3744L24.7069 20.3735L25.2205 22.2903L21.4851 23.2912L22.2474 26.1361L26.262 25.0604L26.7796 26.9923ZM34.7803 21.5647C34.9555 22.2187 34.9494 22.8297 34.7619 23.3976C34.5743 23.9654 34.2112 24.4618 33.6726 24.8865C33.139 25.3098 32.4395 25.6374 31.5742 25.8693C31.1919 25.9718 30.8103 26.047 30.4296 26.0951C30.0539 26.1419 29.6847 26.1626 29.322 26.1573C28.963 26.1457 28.6131 26.1074 28.2721 26.0423L27.6898 23.869C28.275 23.9602 28.8743 24.0234 29.4876 24.0586C30.1009 24.0938 30.6843 24.0372 31.2377 23.8889C31.62 23.7865 31.9134 23.6539 32.1179 23.4913C32.3274 23.3273 32.4614 23.1432 32.5198 22.9388C32.5783 22.7344 32.5772 22.519 32.5166 22.2926C32.4424 22.0159 32.286 21.8044 32.0473 21.6581C31.8086 21.5117 31.5028 21.3969 31.1299 21.3134C30.7621 21.2287 30.3482 21.1428 29.8881 21.0557C29.5992 21.0038 29.2809 20.9327 28.9332 20.8425C28.5842 20.7473 28.2401 20.6103 27.9011 20.4316C27.562 20.2528 27.2566 20.0084 26.9848 19.6984C26.7167 19.382 26.5152 18.9723 26.3804 18.4692C26.2038 17.8102 26.2038 17.2063 26.3803 16.6575C26.5567 16.1088 26.8912 15.6363 27.3835 15.2402C27.8796 14.8377 28.51 14.534 29.2747 14.3291C29.8482 14.1754 30.4122 14.097 30.9668 14.094C31.5251 14.0846 32.1221 14.1296 32.758 14.2288L32.4907 16.2496C31.9273 16.1795 31.4296 16.143 30.9974 16.1402C30.564 16.1323 30.1384 16.1843 29.7209 16.2962C29.4291 16.3744 29.1929 16.4889 29.0122 16.6398C28.8302 16.7856 28.7093 16.9582 28.6495 17.1576C28.5883 17.3519 28.5874 17.5597 28.6467 17.7811C28.7168 18.0427 28.8516 18.2438 29.051 18.3845C29.2542 18.5188 29.5314 18.6278 29.8828 18.7116C30.2392 18.7941 30.6785 18.884 31.2006 18.9813C31.8355 19.097 32.3908 19.2474 32.8664 19.4327C33.3457 19.6116 33.7461 19.8683 34.0676 20.2028C34.3877 20.5322 34.6253 20.9862 34.7803 21.5647ZM41.8571 22.9522L39.5178 23.5791L37.0833 14.4933L34.0874 15.2961L33.5657 13.3491L41.8968 11.1168L42.4185 13.0638L39.4226 13.8665L41.8571 22.9522ZM15.2544 40.0409C15.3858 40.5314 15.3812 40.9896 15.2406 41.4156C15.0999 41.8415 14.8276 42.2137 14.4236 42.5322C14.0234 42.8498 13.4988 43.0955 12.8498 43.2694C12.5631 43.3462 12.2769 43.4027 11.9914 43.4387C11.7096 43.4738 11.4327 43.4893 11.1607 43.4854C10.8914 43.4767 10.629 43.4479 10.3733 43.3991L9.9365 41.7691C10.3754 41.8376 10.8249 41.885 11.2849 41.9113C11.7449 41.9377 12.1824 41.8953 12.5974 41.7841C12.8842 41.7072 13.1042 41.6078 13.2576 41.4859C13.4147 41.3629 13.5152 41.2248 13.559 41.0715C13.6029 40.9182 13.6021 40.7566 13.5566 40.5868C13.501 40.3793 13.3837 40.2207 13.2046 40.1109C13.0256 40.0012 12.7962 39.915 12.5166 39.8525C12.2408 39.7889 11.9303 39.7245 11.5853 39.6592C11.3686 39.6202 11.1298 39.5669 10.8691 39.4993C10.6073 39.4279 10.3493 39.3251 10.095 39.1911C9.84065 39.057 9.61158 38.8737 9.40774 38.6412C9.20666 38.4039 9.05557 38.0966 8.95447 37.7193C8.82203 37.225 8.82199 36.7721 8.95435 36.3605C9.08672 35.949 9.33754 35.5946 9.70682 35.2975C10.0789 34.9956 10.5516 34.7679 11.1252 34.6142C11.5553 34.4989 11.9783 34.4402 12.3943 34.4379C12.813 34.4309 13.2608 34.4646 13.7377 34.539L13.5372 36.0546C13.1146 36.002 12.7413 35.9747 12.4172 35.9725C12.0921 35.9666 11.773 36.0056 11.4598 36.0896C11.241 36.1482 11.0638 36.2341 10.9283 36.3472C10.7918 36.4566 10.7011 36.586 10.6563 36.7356C10.6104 36.8813 10.6097 37.0372 10.6542 37.2032C10.7068 37.3994 10.8079 37.5503 10.9574 37.6558C11.1098 37.7565 11.3177 37.8383 11.5813 37.9011C11.8486 37.9629 12.178 38.0304 12.5696 38.1034C13.0458 38.1901 13.4623 38.303 13.819 38.4419C14.1785 38.5761 14.4787 38.7686 14.7198 39.0195C14.9599 39.2665 15.1381 39.607 15.2544 40.0409ZM22.1354 40.66L17.3699 41.9369L15.1528 33.6624L19.9183 32.3855L20.3035 33.823L17.2925 34.6298L17.7793 36.4466L20.5808 35.6959L20.966 37.1335L18.1645 37.8842L18.7362 40.0179L21.7472 39.2111L22.1354 40.66ZM23.8673 40.1959L21.6501 31.9214L23.4046 31.4513L25.2336 38.2769L28.5898 37.3776L28.978 38.8265L23.8673 40.1959ZM30.4212 38.4398L28.2041 30.1653L29.9586 29.6952L31.7875 36.5208L35.1437 35.6215L35.532 37.0704L30.4212 38.4398ZM41.7407 35.4068L36.9752 36.6837L34.758 28.4092L39.5235 27.1323L39.9087 28.5698L36.8978 29.3766L37.3846 31.1934L40.1861 30.4427L40.5713 31.8803L37.7698 32.6309L38.3415 34.7647L41.3525 33.9579L41.7407 35.4068ZM43.6664 26.0222C44.4173 25.821 45.0604 25.7457 45.5956 25.7964C46.1347 25.8461 46.5721 26.0221 46.9079 26.3244C47.2436 26.6267 47.4863 27.057 47.636 27.6155C47.7371 27.9928 47.7538 28.3421 47.6863 28.6636C47.6187 28.985 47.4943 29.2751 47.3129 29.534C47.1315 29.7929 46.9217 30.021 46.6834 30.2183L50.0831 33.1714L48.1362 33.6931L45.3102 31.0473L44.3763 31.2975L45.2271 34.4726L43.4726 34.9427L41.2554 26.6682L43.6664 26.0222ZM43.9271 27.4931L43.3951 27.6356L43.9941 29.8712L44.5601 29.7196C45.1412 29.5639 45.5304 29.3565 45.7279 29.0973C45.9281 28.8334 45.9777 28.5127 45.8766 28.1354C45.7715 27.743 45.5608 27.5002 45.2447 27.407C44.9323 27.3127 44.4931 27.3414 43.9271 27.4931Z" fill="white"/>
<defs>
<linearGradient id="paint0_linear_3732_9018" x1="-1.27378" y1="27.1304" x2="85.8895" y2="27.1304" gradientUnits="userSpaceOnUse">
<stop stop-color="#FD4B7A"/>
<stop offset="1" stop-color="#4D00AE"/>
</linearGradient>
</defs>
</svg>
