<svg width="91" height="90" viewBox="0 0 91 90" fill="none" xmlns="http://www.w3.org/2000/svg">
<circle cx="45.5" cy="45" r="45" fill="white"/>
<circle cx="45.5" cy="45" r="30" fill="url(#paint0_linear_6202_14857)"/>
<path d="M42.5157 39.742H36.3277C36.577 37.1807 37.5744 35.118 39.3197 33.554C40.9744 32.0807 43.1504 31.344 45.8477 31.344C48.2277 31.344 50.1884 32.0013 51.7297 33.316C53.271 34.6307 54.0417 36.4553 54.0417 38.79C54.0417 39.878 53.815 40.9093 53.3617 41.884C52.9084 42.836 52.2397 43.5613 51.3557 44.06C52.6477 44.4 53.6677 45.216 54.4157 46.508C55.1637 47.7773 55.5377 49.1147 55.5377 50.52C55.5377 52.3107 55.0504 53.8633 54.0757 55.178C53.1237 56.4927 51.8997 57.456 50.4037 58.068C48.9304 58.7027 47.321 59.02 45.5757 59.02C42.3797 59.02 39.8297 58.0567 37.9257 56.13C37.1097 55.2913 36.407 54.2713 35.8177 53.07C35.251 51.8687 34.979 50.7353 35.0017 49.67H41.8017C41.8017 50.7127 42.1304 51.5853 42.7877 52.288C43.4677 52.968 44.329 53.308 45.3717 53.308C46.4144 53.308 47.2644 52.9907 47.9217 52.356C48.6017 51.7213 48.9417 50.894 48.9417 49.874C48.9417 48.922 48.5904 48.1173 47.8877 47.46C47.185 46.78 46.3577 46.44 45.4057 46.44C45.1337 46.44 44.7484 46.508 44.2497 46.644V42.19H44.9297C45.791 42.19 46.4937 41.9407 47.0377 41.442C47.5817 40.9207 47.8537 40.2293 47.8537 39.368C47.8537 38.5973 47.6044 37.974 47.1057 37.498C46.607 37.022 45.9837 36.784 45.2357 36.784C44.397 36.784 43.7284 37.0673 43.2297 37.634C42.731 38.178 42.493 38.8807 42.5157 39.742Z" fill="white"/>
<defs>
<linearGradient id="paint0_linear_6202_14857" x1="15.5" y1="45" x2="75.5" y2="45" gradientUnits="userSpaceOnUse">
<stop stop-color="#D24183"/>
<stop offset="1" stop-color="#B52D90"/>
</linearGradient>
</defs>
</svg>
