<svg width="79" height="79" viewBox="0 0 79 79" fill="none" xmlns="http://www.w3.org/2000/svg">
<rect width="79" height="79" rx="39.5" fill="#F1F3F4"/>
<path d="M23.7974 20C23.7974 20 23.3319 21.5539 23.3319 22.6855C23.3319 25.0405 25.428 26.5314 27.0363 27.1647C29.0004 27.9378 33.6427 28.7352 35.757 29.0853L19.0545 45.7878C18.0912 46.7511 18.0912 48.314 19.0545 49.2773C20.0179 50.2423 21.5791 50.2423 22.5441 49.2773L31.0402 40.7812L32.6288 42.2135L22.3879 52.4544C21.4245 53.4178 21.4245 54.9807 22.3879 55.944C23.3512 56.909 24.9124 56.909 25.8774 55.944L36.2974 45.5241L37.8859 46.9564L29.0545 55.7878C28.0912 56.7511 28.0912 58.314 29.0545 59.2773C30.0179 60.2423 31.5791 60.2423 32.5441 59.2773L41.5545 50.2669L43.2733 51.8197L37.3358 57.7539C36.4408 58.6489 36.4408 60.1011 37.3358 60.9961C38.2308 61.8911 39.6846 61.8911 40.578 60.9961L57.2739 44.2969C60.2556 41.3152 60.8133 36.6794 58.6183 33.0794L54.5884 26.4648C52.7751 23.4865 49.5383 21.6667 46.05 21.6667H33.3319L23.7974 20Z" fill="url(#paint0_linear_7465_15991)"/>
<defs>
<linearGradient id="paint0_linear_7465_15991" x1="18.332" y1="40.8337" x2="59.9527" y2="40.8337" gradientUnits="userSpaceOnUse">
<stop stop-color="#D24183"/>
<stop offset="1" stop-color="#B52D90"/>
</linearGradient>
</defs>
</svg>
