<svg width="79" height="79" viewBox="0 0 79 79" fill="none" xmlns="http://www.w3.org/2000/svg">
<rect width="79" height="79" rx="39.5" fill="#F1F3F4"/>
<path d="M19.7812 20.9219C18.2344 20.9219 16.9739 22.1771 16.9739 23.7292V32.7604H62.3594V23.7292C62.3594 22.1771 61.0989 20.9219 59.5521 20.9219H19.7812ZM22.8958 24.8646C23.9844 24.8646 24.8646 25.75 24.8646 26.8385C24.8646 27.9271 23.9844 28.8125 22.8958 28.8125C21.8021 28.8125 20.9219 27.9271 20.9219 26.8385C20.9219 25.75 21.8021 24.8646 22.8958 24.8646ZM28.8125 24.8646C29.901 24.8646 30.7864 25.75 30.7864 26.8385C30.7864 27.9271 29.901 28.8125 28.8125 28.8125C27.7239 28.8125 26.8385 27.9271 26.8385 26.8385C26.8385 25.75 27.7239 24.8646 28.8125 24.8646ZM33.7448 24.8646H57.4271V28.8125H33.7448V24.8646ZM16.9739 34.7344V57.4271C16.9739 57.974 17.4166 58.4115 17.9583 58.4115H61.375C61.9166 58.4115 62.3594 57.974 62.3594 57.4271V34.7344H16.9739ZM28.7864 38.6823C29.4739 38.6823 30.0052 38.8698 30.2135 39.2448C31.1354 39.375 31.5469 40.0104 31.6979 40.776C31.7552 41.0521 31.7708 41.3438 31.7708 41.6406C31.7708 42.2813 31.6458 42.8906 31.5364 43.2292C31.6406 43.2969 31.8177 43.5104 31.7708 43.8906C31.6927 44.599 31.4062 44.7813 31.2291 44.7969C31.1614 45.4583 30.5521 46.2448 30.3229 46.3646C30.3229 46.8385 30.3073 47.1979 30.3489 47.7188C30.8958 49.2292 34.5677 48.8073 34.7344 51.724V52.4948H22.8958V51.724C23.0625 48.8073 26.7448 49.2292 27.2916 47.7188C27.3385 47.1979 27.3229 46.8385 27.3229 46.3646C27.0937 46.2448 26.4635 45.4583 26.3958 44.7969C26.2187 44.7813 25.9375 44.599 25.8541 43.8906C25.8125 43.5104 25.9844 43.2969 26.0937 43.2292C25.9531 42.6771 25.8489 42.1406 25.8541 41.6406C25.8541 41.3385 25.8854 41.0469 25.9479 40.776C26.2187 39.5365 27.1146 38.6823 28.7864 38.6823ZM40.651 40.651H56.4375V42.625H40.651V40.651ZM40.651 45.5885H56.4375V47.5625H40.651V45.5885ZM40.651 50.5208H53.4791V52.4948H40.651V50.5208Z" fill="#FB5477"/>
</svg>
