<svg width="56" height="57" viewBox="0 0 56 57" fill="none" xmlns="http://www.w3.org/2000/svg">
<circle cx="28" cy="28.5" r="28" fill="white"/>
<path d="M19.9202 12.0599C16.3483 12.0599 13.4402 14.968 13.4402 18.5399C13.4402 20.5789 14.3937 22.3902 15.8702 23.5799H14.8802C13.6905 23.5799 12.7202 24.5502 12.7202 25.7399V40.8599C12.7202 42.0496 13.6905 43.0199 14.8802 43.0199H37.9202C39.1099 43.0199 40.0802 42.0496 40.0802 40.8599V25.7399C40.0802 24.5502 39.1099 23.5799 37.9202 23.5799H36.2102C37.6868 22.3902 38.6402 20.5789 38.6402 18.5399C38.6402 14.968 35.7349 12.0599 32.1602 12.0599C29.3252 12.0599 26.9177 13.8852 26.0402 16.4249C25.1627 13.8852 22.7552 12.0599 19.9202 12.0599ZM26.0402 20.6549C26.4424 21.8193 27.168 22.8205 28.1102 23.5799H23.9702C24.9124 22.8205 25.638 21.8193 26.0402 20.6549ZM45.2552 26.4599C44.3158 26.4599 43.5733 27.3177 42.8477 28.1474C42.4568 28.5946 41.8043 29.3399 41.5202 29.3399H41.4752V37.9799H41.5202C41.8212 37.9799 42.3837 38.6858 42.7577 39.1499C43.4299 39.9908 44.1246 40.8599 45.1202 40.8599H47.2802V26.4599H45.2552Z" fill="#1A2136"/>
</svg>
