<svg width="25" height="24" viewBox="0 0 25 24" fill="none" xmlns="http://www.w3.org/2000/svg">
<path d="M15.8766 19.5008C15.5432 19.6508 15.2432 19.6341 14.9766 19.4508C14.7099 19.2674 14.5766 18.9841 14.5766 18.6008C14.5766 18.4174 14.6432 18.2341 14.7766 18.0508C14.9099 17.8674 15.0682 17.7258 15.2516 17.6258C16.3349 17.1091 17.1932 16.3341 17.8266 15.3008C18.4599 14.2674 18.7766 13.1424 18.7766 11.9258C18.7766 11.1591 18.5849 10.3799 18.2016 9.58828C17.8182 8.79661 17.3266 8.09245 16.7266 7.47578L16.1016 6.92578V8.92578C16.1016 9.15911 16.0182 9.35495 15.8516 9.51328C15.6849 9.67161 15.4849 9.75078 15.2516 9.75078C15.0182 9.75078 14.8224 9.67161 14.6641 9.51328C14.5057 9.35495 14.4266 9.15911 14.4266 8.92578V4.77578C14.4266 4.49245 14.5224 4.25911 14.7141 4.07578C14.9057 3.89245 15.1432 3.80078 15.4266 3.80078H19.5516C19.7849 3.80078 19.9807 3.87995 20.1391 4.03828C20.2974 4.19661 20.3766 4.39245 20.3766 4.62578C20.3766 4.87578 20.2974 5.07578 20.1391 5.22578C19.9807 5.37578 19.7849 5.45078 19.5516 5.45078H17.4516L17.7016 5.70078C18.7182 6.65078 19.4849 7.67161 20.0016 8.76328C20.5182 9.85495 20.7766 10.9091 20.7766 11.9258C20.7766 13.5924 20.3307 15.0966 19.4391 16.4383C18.5474 17.7799 17.3599 18.8008 15.8766 19.5008ZM5.52656 20.2008C5.29323 20.2008 5.0974 20.1216 4.93906 19.9633C4.78073 19.8049 4.70156 19.6091 4.70156 19.3758C4.70156 19.1258 4.78073 18.9258 4.93906 18.7758C5.0974 18.6258 5.29323 18.5508 5.52656 18.5508H7.60156L7.37656 18.3508C6.27656 17.4674 5.47656 16.5174 4.97656 15.5008C4.47656 14.4841 4.22656 13.3424 4.22656 12.0758C4.22656 10.4091 4.68073 8.90078 5.58906 7.55078C6.4974 6.20078 7.69323 5.18411 9.17656 4.50078C9.5099 4.36745 9.80573 4.39245 10.0641 4.57578C10.3224 4.75911 10.4516 5.04245 10.4516 5.42578C10.4516 5.60911 10.3849 5.78828 10.2516 5.96328C10.1182 6.13828 9.96823 6.27578 9.80156 6.37578C8.71823 6.89245 7.85156 7.66745 7.20156 8.70078C6.55156 9.73411 6.22656 10.8591 6.22656 12.0758C6.22656 13.0924 6.41406 13.9716 6.78906 14.7133C7.16406 15.4549 7.67656 16.1008 8.32656 16.6508L9.00156 17.0758V15.0758C9.00156 14.8424 9.08073 14.6466 9.23906 14.4883C9.3974 14.3299 9.59323 14.2508 9.82656 14.2508C10.0599 14.2508 10.2557 14.3299 10.4141 14.4883C10.5724 14.6466 10.6516 14.8424 10.6516 15.0758V19.2258C10.6516 19.5091 10.5557 19.7424 10.3641 19.9258C10.1724 20.1091 9.9349 20.2008 9.65156 20.2008H5.52656Z" fill="#2563EB"/>
</svg>
