<svg width="25" height="24" viewBox="0 0 25 24" fill="none" xmlns="http://www.w3.org/2000/svg">
<path d="M9.94844 11.0754H18.5734C18.7901 11.0754 18.9776 10.9962 19.1359 10.8379C19.2943 10.6796 19.3734 10.4837 19.3734 10.2504C19.3734 10.0337 19.2943 9.84622 19.1359 9.68789C18.9776 9.52956 18.7901 9.45039 18.5734 9.45039H9.94844C9.7151 9.45039 9.52344 9.52956 9.37344 9.68789C9.22344 9.84622 9.14844 10.0421 9.14844 10.2754C9.14844 10.4921 9.22344 10.6796 9.37344 10.8379C9.52344 10.9962 9.7151 11.0754 9.94844 11.0754ZM9.94844 13.4504H14.1234C14.3568 13.4504 14.5526 13.3712 14.7109 13.2129C14.8693 13.0546 14.9484 12.8587 14.9484 12.6254C14.9484 12.4087 14.8693 12.2212 14.7109 12.0629C14.5526 11.9046 14.3568 11.8254 14.1234 11.8254H9.94844C9.7151 11.8254 9.52344 11.9046 9.37344 12.0629C9.22344 12.2212 9.14844 12.4171 9.14844 12.6504C9.14844 12.8671 9.22344 13.0546 9.37344 13.2129C9.52344 13.3712 9.7151 13.4504 9.94844 13.4504ZM9.94844 8.70039H18.5734C18.7901 8.70039 18.9776 8.62122 19.1359 8.46289C19.2943 8.30456 19.3734 8.10872 19.3734 7.87539C19.3734 7.64206 19.2943 7.44622 19.1359 7.28789C18.9776 7.12956 18.7901 7.05039 18.5734 7.05039H9.94844C9.7151 7.05039 9.52344 7.13372 9.37344 7.30039C9.22344 7.46706 9.14844 7.66706 9.14844 7.90039C9.14844 8.11706 9.22344 8.30456 9.37344 8.46289C9.52344 8.62122 9.7151 8.70039 9.94844 8.70039ZM7.37344 19.1254C6.82344 19.1254 6.3526 18.9296 5.96094 18.5379C5.56927 18.1462 5.37344 17.6754 5.37344 17.1254V3.37539C5.37344 2.84206 5.56927 2.37956 5.96094 1.98789C6.3526 1.59622 6.82344 1.40039 7.37344 1.40039H21.1234C21.6568 1.40039 22.1193 1.59622 22.5109 1.98789C22.9026 2.37956 23.0984 2.84206 23.0984 3.37539V17.1254C23.0984 17.6754 22.9026 18.1462 22.5109 18.5379C22.1193 18.9296 21.6568 19.1254 21.1234 19.1254H7.37344ZM7.37344 17.1254H21.1234V3.37539H7.37344V17.1254ZM3.87344 22.6004C3.3401 22.6004 2.8776 22.4046 2.48594 22.0129C2.09427 21.6212 1.89844 21.1587 1.89844 20.6254V5.87539C1.89844 5.59206 1.99427 5.35456 2.18594 5.16289C2.3776 4.97122 2.6151 4.87539 2.89844 4.87539C3.18177 4.87539 3.4151 4.97122 3.59844 5.16289C3.78177 5.35456 3.87344 5.59206 3.87344 5.87539V20.6254H18.6234C18.9068 20.6254 19.1443 20.7212 19.3359 20.9129C19.5276 21.1046 19.6234 21.3421 19.6234 21.6254C19.6234 21.9087 19.5276 22.1421 19.3359 22.3254C19.1443 22.5087 18.9068 22.6004 18.6234 22.6004H3.87344ZM7.37344 3.37539V17.1254V3.37539Z" fill="#2563EB"/>
</svg>
