<svg width="25" height="24" viewBox="0 0 25 24" fill="none" xmlns="http://www.w3.org/2000/svg">
<path d="M17.2984 17.6492C17.0984 17.8492 16.8651 17.9451 16.5984 17.9367C16.3318 17.9284 16.0984 17.8242 15.8984 17.6242C15.7151 17.4409 15.6234 17.2076 15.6234 16.9242C15.6234 16.6409 15.7151 16.4076 15.8984 16.2242L20.1734 11.9742L15.9234 7.72422C15.7401 7.54089 15.6526 7.31172 15.6609 7.03672C15.6693 6.76172 15.7651 6.52422 15.9484 6.32422C16.1484 6.12422 16.3901 6.02422 16.6734 6.02422C16.9568 6.02422 17.1984 6.12422 17.3984 6.32422L22.2984 11.2492C22.4984 11.4492 22.5984 11.6826 22.5984 11.9492C22.5984 12.2159 22.4984 12.4492 22.2984 12.6492L17.2984 17.6492ZM7.64844 17.5492L2.69844 12.6492C2.49844 12.4492 2.39844 12.2159 2.39844 11.9492C2.39844 11.6826 2.49844 11.4492 2.69844 11.2492L7.69844 6.24922C7.89844 6.04922 8.13594 5.94922 8.41094 5.94922C8.68594 5.94922 8.92344 6.04922 9.12344 6.24922C9.30677 6.43255 9.39844 6.66589 9.39844 6.94922C9.39844 7.23255 9.30677 7.46589 9.12344 7.64922L4.84844 11.9242L9.07344 16.1492C9.25677 16.3492 9.3526 16.5826 9.36094 16.8492C9.36927 17.1159 9.27344 17.3492 9.07344 17.5492C8.87344 17.7492 8.63594 17.8492 8.36094 17.8492C8.08594 17.8492 7.84844 17.7492 7.64844 17.5492Z" fill="#2563EB"/>
</svg>
