<svg width="25" height="24" viewBox="0 0 25 24" fill="none" xmlns="http://www.w3.org/2000/svg">
<path d="M11.4484 13.025V10.9H13.5234V13.025H11.4484ZM9.32344 15.125V13.025H11.4484V15.125H9.32344ZM13.5234 15.125V13.025H15.6484V15.125H13.5234ZM15.6484 13.025V10.9H17.7734V13.025H15.6484ZM7.22344 13.025V10.9H9.32344V13.025H7.22344ZM5.12344 21.35C4.5901 21.35 4.1276 21.1542 3.73594 20.7625C3.34427 20.3708 3.14844 19.9083 3.14844 19.375V4.625C3.14844 4.075 3.34427 3.60417 3.73594 3.2125C4.1276 2.82083 4.5901 2.625 5.12344 2.625H19.8734C20.4234 2.625 20.8943 2.82083 21.2859 3.2125C21.6776 3.60417 21.8734 4.075 21.8734 4.625V19.375C21.8734 19.9083 21.6776 20.3708 21.2859 20.7625C20.8943 21.1542 20.4234 21.35 19.8734 21.35H5.12344ZM7.22344 19.375H9.32344V17.25H7.22344V19.375ZM11.4484 19.375H13.5234V17.25H11.4484V19.375ZM15.6484 19.375H17.7734V17.25H15.6484V19.375ZM5.12344 17.25H7.22344V15.125H9.32344V17.25H11.4484V15.125H13.5484V17.25H15.6484V15.125H17.7484V17.25H19.8734V15.125H17.7484V13.025H19.8734V4.625H5.12344V13.025H7.22344V15.125H5.12344V17.25ZM5.12344 19.375V4.625V19.375Z" fill="#2563EB"/>
</svg>
