<svg width="25" height="24" viewBox="0 0 25 24" fill="none" xmlns="http://www.w3.org/2000/svg">
<path d="M12.5984 13.2C12.8651 13.2 13.0943 13.1042 13.2859 12.9125C13.4776 12.7208 13.5734 12.4833 13.5734 12.2V7.6C13.5734 7.33333 13.4734 7.10417 13.2734 6.9125C13.0734 6.72083 12.8401 6.625 12.5734 6.625C12.2901 6.625 12.0526 6.72083 11.8609 6.9125C11.6693 7.10417 11.5734 7.34167 11.5734 7.625V12.225C11.5734 12.4917 11.6734 12.7208 11.8734 12.9125C12.0734 13.1042 12.3151 13.2 12.5984 13.2ZM12.4984 17.35C12.8318 17.35 13.1026 17.2458 13.3109 17.0375C13.5193 16.8292 13.6234 16.5583 13.6234 16.225C13.6234 15.9083 13.5193 15.6375 13.3109 15.4125C13.1026 15.1875 12.8318 15.075 12.4984 15.075C12.1651 15.075 11.8943 15.1875 11.6859 15.4125C11.4776 15.6375 11.3734 15.9083 11.3734 16.225C11.3734 16.5583 11.4776 16.8292 11.6859 17.0375C11.8943 17.2458 12.1651 17.35 12.4984 17.35ZM12.4984 22.35C11.0318 22.35 9.66927 22.0875 8.41094 21.5625C7.1526 21.0375 6.05677 20.3083 5.12344 19.375C4.1901 18.4417 3.46094 17.3458 2.93594 16.0875C2.41094 14.8292 2.14844 13.4667 2.14844 12C2.14844 10.55 2.41094 9.19167 2.93594 7.925C3.46094 6.65833 4.1901 5.5625 5.12344 4.6375C6.05677 3.7125 7.1526 2.97917 8.41094 2.4375C9.66927 1.89583 11.0318 1.625 12.4984 1.625C13.9484 1.625 15.3068 1.89583 16.5734 2.4375C17.8401 2.97917 18.9359 3.7125 19.8609 4.6375C20.7859 5.5625 21.5193 6.65417 22.0609 7.9125C22.6026 9.17083 22.8734 10.5333 22.8734 12C22.8734 13.4667 22.6026 14.8292 22.0609 16.0875C21.5193 17.3458 20.7859 18.4417 19.8609 19.375C18.9359 20.3083 17.8401 21.0375 16.5734 21.5625C15.3068 22.0875 13.9484 22.35 12.4984 22.35ZM12.4984 20.375C14.7984 20.375 16.7693 19.5583 18.4109 17.925C20.0526 16.2917 20.8734 14.3167 20.8734 12C20.8734 9.7 20.0526 7.72917 18.4109 6.0875C16.7693 4.44583 14.7984 3.625 12.4984 3.625C10.1984 3.625 8.2276 4.44583 6.58594 6.0875C4.94427 7.72917 4.12344 9.7 4.12344 12C4.12344 14.3167 4.94427 16.2917 6.58594 17.925C8.2276 19.5583 10.1984 20.375 12.4984 20.375Z" fill="#2563EB"/>
</svg>
