<svg width="25" height="24" viewBox="0 0 25 24" fill="none" xmlns="http://www.w3.org/2000/svg">
<path d="M3.95156 20.6742C3.6849 20.6742 3.45573 20.5742 3.26406 20.3742C3.0724 20.1742 2.97656 19.9409 2.97656 19.6742C2.97656 19.4076 3.0724 19.1742 3.26406 18.9742C3.45573 18.7742 3.69323 18.6742 3.97656 18.6742H21.0516C21.3182 18.6742 21.5474 18.7784 21.7391 18.9867C21.9307 19.1951 22.0266 19.4326 22.0266 19.6992C22.0266 19.9659 21.9307 20.1951 21.7391 20.3867C21.5474 20.5784 21.3099 20.6742 21.0266 20.6742H3.95156ZM3.95156 5.29922C3.6849 5.29922 3.45573 5.19922 3.26406 4.99922C3.0724 4.79922 2.97656 4.56589 2.97656 4.29922C2.97656 4.03255 3.0724 3.80339 3.26406 3.61172C3.45573 3.42005 3.69323 3.32422 3.97656 3.32422H21.0516C21.3182 3.32422 21.5474 3.42422 21.7391 3.62422C21.9307 3.82422 22.0266 4.05755 22.0266 4.32422C22.0266 4.59089 21.9307 4.82005 21.7391 5.01172C21.5474 5.20339 21.3099 5.29922 21.0266 5.29922H3.95156ZM4.97656 16.0742C4.42656 16.0742 3.95573 15.8826 3.56406 15.4992C3.1724 15.1159 2.97656 14.6492 2.97656 14.0992V9.89922C2.97656 9.34922 3.1724 8.87839 3.56406 8.48672C3.95573 8.09505 4.42656 7.89922 4.97656 7.89922H20.0266C20.5766 7.89922 21.0474 8.09505 21.4391 8.48672C21.8307 8.87839 22.0266 9.34922 22.0266 9.89922V14.0992C22.0266 14.6492 21.8307 15.1159 21.4391 15.4992C21.0474 15.8826 20.5766 16.0742 20.0266 16.0742H4.97656ZM4.97656 14.0992H20.0266V9.89922H4.97656V14.0992ZM4.97656 9.89922V14.0992V9.89922Z" fill="#2563EB"/>
</svg>
