<svg width="126" height="132" viewBox="0 0 126 132" fill="none" xmlns="http://www.w3.org/2000/svg">
<g opacity="0.22">
<path fill-rule="evenodd" clip-rule="evenodd" d="M30.8858 61.9709C30.6953 61.9729 30.5047 61.9947 30.3172 62.033C19.6193 64.2764 12.0958 67.7792 7.25698 73.3326C2.41813 78.886 0.637695 86.1838 0.637695 94.9791V108.489C0.638731 109.512 1.16591 110.464 2.03383 111.006C46.0926 138.573 87.2454 137.069 124.111 110.91V110.912C124.895 110.354 125.362 109.451 125.362 108.489V94.9791C125.362 86.8281 123.234 79.7469 118.521 74.1996C113.808 68.6523 106.716 64.7674 97.2487 62.2589H97.2476C96.2057 61.9834 95.0965 62.2941 94.3496 63.0699C90.185 67.393 85.7264 72.9693 80.8056 77.3534C75.8848 81.7386 70.7063 84.7763 65.1404 84.7371C65.1031 84.7361 65.0659 84.7361 65.0286 84.7371C51.6627 85.1483 41.5025 71.3402 33.0285 62.8411C32.4609 62.2735 31.6883 61.9586 30.8856 61.97L30.8858 61.9709Z" fill="#6D7B83"/>
<path fill-rule="evenodd" clip-rule="evenodd" d="M63.0477 0.569336C48.1883 0.569336 36.1516 12.4904 36.1516 27.0608C36.1516 34.3947 38.9627 44.2445 43.5239 52.7216C45.8046 56.9597 48.5295 60.8323 51.7423 63.7664C54.9561 66.7005 58.7861 68.7606 63.0472 68.7606C67.308 68.7606 71.1383 66.7006 74.3521 63.7664C77.5659 60.8323 80.29 56.9597 82.5704 52.7216C87.1317 44.2442 89.9427 34.3947 89.9427 27.0608C89.9427 12.4758 77.8228 0.569336 63.0466 0.569336H63.0477Z" fill="#6D7B83"/>
</g>
</svg>
