<svg xmlns="http://www.w3.org/2000/svg" viewBox="0 0 83 83.07"><defs><style>.cls-1{fill:#6d7b83;}</style></defs><g id="Layer_2" data-name="Layer 2"><g id="Layer_1-2" data-name="Layer 1"><path class="cls-1" d="M41.5,0C18.54,0,0,19.05,0,42.6A42.56,42.56,0,0,0,28.37,83a2.14,2.14,0,0,0,2.81-2.11V73q-11.64,2.59-14-5-1.91-4.9-4.61-6.21c-2.54-1.81-2.44-2.67.3-2.61a7.56,7.56,0,0,1,6.32,4.41c3.7,6.52,9.72,4.61,12.13,3.51a9.5,9.5,0,0,1,2.6-5.71c-9.22-1-18.94-4.71-18.94-21.05a17.09,17.09,0,0,1,4.31-11.43,16,16,0,0,1,.4-11.23C22,16.91,29.48,18.87,31.07,22a40.36,40.36,0,0,1,10.43-1.4A41,41,0,0,1,51.93,22q7.91-5.41,11.32-4.31c2.31,5.82.9,10.23.4,11.23A16.61,16.61,0,0,1,68,40.3c0,16.44-9.72,20-18.94,21.05,1.5,1.3,2.8,3.91,2.8,7.92,0,5.61-.1,10.22-.1,11.62,0,1.11.81,2.51,2.91,2.11A42.7,42.7,0,0,0,83,42.6C83,19.05,64.46,0,41.5,0Z"/></g></g></svg>