<svg xmlns="http://www.w3.org/2000/svg" viewBox="0 0 83.38 83.38"><defs><style>.cls-1{fill:#6d7b83;}</style></defs><g id="Layer_2" data-name="Layer 2"><g id="Layer_1-2" data-name="Layer 1"><path class="cls-1" d="M60.22,0H23.16A23.16,23.16,0,0,0,0,23.16V60.22A23.16,23.16,0,0,0,23.16,83.38H60.22A23.16,23.16,0,0,0,83.38,60.22V23.16A23.16,23.16,0,0,0,60.22,0ZM41.69,64.85A23.16,23.16,0,1,1,64.85,41.69,23.16,23.16,0,0,1,41.69,64.85ZM69.48,18.53a4.64,4.64,0,1,1,4.64-4.63,4.64,4.64,0,0,1-4.64,4.63Z"/><path class="cls-1" d="M41.69,27.79a13.9,13.9,0,1,0,13.9,13.9,13.91,13.91,0,0,0-13.9-13.9Z"/></g></g></svg>