<svg width="40" height="40" viewBox="0 0 40 40" fill="none" xmlns="http://www.w3.org/2000/svg">
<path d="M14.25 10C13.0095 10 12 11.0095 12 12.25V27.75C12 28.9905 13.0095 30 14.25 30H25.5V28.5H14.25C13.8365 28.5 13.5 28.1635 13.5 27.75V12.25C13.5 11.8365 13.8365 11.5 14.25 11.5H20V15.75C20 16.9905 21.0095 18 22.25 18H26.5V21.1748C26.728 21.0658 26.9805 21 27.25 21C27.5195 21 27.772 21.0658 28 21.1748V17.25C28 17.043 27.916 16.8555 27.7803 16.7197L21.2803 10.2197C21.1446 10.084 20.9572 10 20.75 10H14.25ZM21.5 12.5605L25.4395 16.5H22.25C21.8365 16.5 21.5 16.1635 21.5 15.75V12.5605ZM27.25 22C27.058 22 26.8662 22.0732 26.7197 22.2197L24.2197 24.7197C23.9272 25.0127 23.9272 25.4873 24.2197 25.7803C24.5127 26.0733 24.9873 26.0733 25.2803 25.7803L26.5 24.5605V30.25C26.5 30.6645 26.8355 31 27.25 31C27.6645 31 28 30.6645 28 30.25V24.5605L29.2197 25.7803C29.5127 26.0733 29.9873 26.0733 30.2803 25.7803C30.5733 25.4878 30.5733 25.0122 30.2803 24.7197L27.7803 22.2197C27.6343 22.0732 27.442 22 27.25 22Z" fill="url(#paint0_linear_1003_3236)"/>
<circle cx="20" cy="20" r="19.5" stroke="url(#paint1_linear_1003_3236)"/>
<defs>
<linearGradient id="paint0_linear_1003_3236" x1="11.5636" y1="20.5507" x2="41.4251" y2="20.5507" gradientUnits="userSpaceOnUse">
<stop stop-color="#FD4B7A"/>
<stop offset="1" stop-color="#4D00AE"/>
</linearGradient>
<linearGradient id="paint1_linear_1003_3236" x1="-0.943544" y1="20.0966" x2="63.6219" y2="20.0966" gradientUnits="userSpaceOnUse">
<stop stop-color="#FD4B7A"/>
<stop offset="1" stop-color="#4D00AE"/>
</linearGradient>
</defs>
</svg>
