<svg width="41" height="40" viewBox="0 0 41 40" fill="none" xmlns="http://www.w3.org/2000/svg">
<path d="M14.75 10C13.5095 10 12.5 11.0095 12.5 12.25V27.75C12.5 28.9905 13.5095 30 14.75 30H26V28.5H14.75C14.3365 28.5 14 28.1635 14 27.75V12.25C14 11.8365 14.3365 11.5 14.75 11.5H20.5V15.75C20.5 16.9905 21.5095 18 22.75 18H27V21.1748C27.228 21.0658 27.4805 21 27.75 21C28.0195 21 28.272 21.0658 28.5 21.1748V17.25C28.5 17.043 28.416 16.8555 28.2803 16.7197L21.7803 10.2197C21.6446 10.084 21.4572 10 21.25 10H14.75ZM22 12.5605L25.9395 16.5H22.75C22.3365 16.5 22 16.1635 22 15.75V12.5605ZM27.75 22C27.558 22 27.3662 22.0732 27.2197 22.2197L24.7197 24.7197C24.4272 25.0127 24.4272 25.4873 24.7197 25.7803C25.0127 26.0733 25.4873 26.0733 25.7803 25.7803L27 24.5605V30.25C27 30.6645 27.3355 31 27.75 31C28.1645 31 28.5 30.6645 28.5 30.25V24.5605L29.7197 25.7803C30.0127 26.0733 30.4873 26.0733 30.7803 25.7803C31.0733 25.4878 31.0733 25.0122 30.7803 24.7197L28.2803 22.2197C28.1343 22.0732 27.942 22 27.75 22Z" fill="url(#paint0_linear_4428_11720)"/>
<circle cx="20.5" cy="20" r="19.5" stroke="url(#paint1_linear_4428_11720)"/>
<defs>
<linearGradient id="paint0_linear_4428_11720" x1="12.0636" y1="20.5507" x2="41.9251" y2="20.5507" gradientUnits="userSpaceOnUse">
<stop stop-color="#FD4B7A"/>
<stop offset="1" stop-color="#4D00AE"/>
</linearGradient>
<linearGradient id="paint1_linear_4428_11720" x1="-0.443544" y1="20.0966" x2="64.1219" y2="20.0966" gradientUnits="userSpaceOnUse">
<stop stop-color="#FD4B7A"/>
<stop offset="1" stop-color="#4D00AE"/>
</linearGradient>
</defs>
</svg>
