<svg width="24" height="24" viewBox="0 0 24 24" fill="none" xmlns="http://www.w3.org/2000/svg">
<path d="M12.75 3C12.06 3 11.5 3.56 11.5 4.25V4.5V11.8701L13 10.9102V6C13.8285 6 14.5 5.3285 14.5 4.5H19C19 5.3285 19.6715 6 20.5 6V18C19.6715 18 19 18.6715 19 19.5H14.5C14.5 18.79 14.0096 18.2 13.3496 18.04L13 18.415L11.5703 19.9453C11.5704 19.9456 11.5702 19.946 11.5703 19.9463L11.5254 19.9951C11.6404 20.5701 12.145 21 12.75 21H13H20.5H20.75C21.44 21 22 20.44 22 19.75V19.5V4.5V4.25C22 3.56 21.44 3 20.75 3H20.5H13H12.75ZM16.75 6C16.4848 6 16.2304 6.10536 16.0429 6.29289C15.8554 6.48043 15.75 6.73478 15.75 7C15.75 7.26522 15.8554 7.51957 16.0429 7.70711C16.2304 7.89464 16.4848 8 16.75 8C17.0152 8 17.2696 7.89464 17.4571 7.70711C17.6446 7.51957 17.75 7.26522 17.75 7C17.75 6.73478 17.6446 6.48043 17.4571 6.29289C17.2696 6.10536 17.0152 6 16.75 6ZM10.5 7.44043L7.16992 8.46484C6.57492 8.64984 6.04504 9.01953 5.66504 9.51953L1.70508 14.7305C1.57008 14.9055 1.5 15.12 1.5 15.335V20C1.5 20.55 1.95 21 2.5 21L7.49023 20.9951C8.60023 20.9951 9.65516 20.5346 10.4102 19.7246L15.5547 14.2148C15.8497 13.9048 15.9951 13.5054 15.9951 13.1104C15.9951 12.6754 15.8197 12.2398 15.4697 11.9248C14.9447 11.4448 14.1597 11.3701 13.5547 11.7451L11.0254 13.3604V13.3652L9.50488 14.3799C9.43488 14.4249 9.35527 14.4596 9.28027 14.4746L9.25 14.4951L9.26465 14.4805C9.20965 14.4955 9.15461 14.5 9.09961 14.5C8.85461 14.5 8.60973 14.3803 8.46973 14.1553C8.24473 13.8053 8.34531 13.3401 8.69531 13.1201L10.5 11.9648V7.44043ZM16.75 9.55469C15.86 9.55469 15.0652 9.92965 14.5752 10.5146C15.1602 10.5546 15.7095 10.7896 16.1445 11.1846C16.6845 11.6696 16.9951 12.3754 16.9951 13.1104C16.9951 13.5854 16.8699 14.0404 16.6299 14.4404C16.6699 14.4454 16.71 14.4453 16.75 14.4453C18.27 14.4453 19.5 13.35 19.5 12C19.5 10.65 18.27 9.55469 16.75 9.55469ZM16.75 16C16.4848 16 16.2304 16.1054 16.0429 16.2929C15.8554 16.4804 15.75 16.7348 15.75 17C15.75 17.2652 15.8554 17.5196 16.0429 17.7071C16.2304 17.8946 16.4848 18 16.75 18C17.0152 18 17.2696 17.8946 17.4571 17.7071C17.6446 17.5196 17.75 17.2652 17.75 17C17.75 16.7348 17.6446 16.4804 17.4571 16.2929C17.2696 16.1054 17.0152 16 16.75 16Z" fill="#6D7B83"/>
</svg>
