<svg width="24" height="24" viewBox="0 0 24 24" fill="none" xmlns="http://www.w3.org/2000/svg">
<path d="M6.25 3C4.458 3 3 4.458 3 6.25V7H21V6.25C21 4.458 19.542 3 17.75 3H6.25ZM3 8.5V17.75C3 19.542 4.458 21 6.25 21H16.4043L14.0068 18.6025C13.7088 18.3045 13.4895 17.9347 13.373 17.5312C12.98 16.1582 12.6143 14.8672 12.6143 14.8672C12.5308 14.6467 12.4935 14.4152 12.502 14.1797C12.5185 13.7367 12.6992 13.3222 13.0107 13.0107C13.3242 12.6977 13.7401 12.517 14.1826 12.501C14.4151 12.4965 14.6467 12.5313 14.8662 12.6143C14.8662 12.6143 16.1563 12.9791 17.5283 13.3721C17.9343 13.4891 18.305 13.7088 18.6025 14.0068L21 16.4043V8.5H3ZM6.75 10H17.25C17.6645 10 18 10.3355 18 10.75C18 11.1645 17.6645 11.5 17.25 11.5H6.75C6.3355 11.5 6 11.1645 6 10.75C6 10.3355 6.3355 10 6.75 10ZM6.75 13H10.75C11.1645 13 11.5 13.3355 11.5 13.75C11.5 14.1645 11.1645 14.5 10.75 14.5H6.75C6.3355 14.5 6 14.1645 6 13.75C6 13.3355 6.3355 13 6.75 13ZM14.2168 13.5C14.0353 13.5065 13.8558 13.5778 13.7168 13.7168C13.5783 13.8553 13.507 14.0338 13.5 14.2148C13.4965 14.3153 13.5123 14.4172 13.5488 14.5127L14.334 17.2529C14.404 17.4944 14.5349 17.7155 14.7139 17.8945L19.1133 22.2949C19.4698 22.6519 19.892 22.8824 20.334 22.9619C20.4735 22.9869 20.612 22.9985 20.749 22.999C21.346 23.0005 21.9103 22.7703 22.3398 22.3398C22.7698 21.9103 23.001 21.346 23 20.749C22.9995 20.612 22.9874 20.4735 22.9619 20.334C22.8824 19.892 22.6519 19.4698 22.2949 19.1133L17.8955 14.7139C17.717 14.5354 17.4944 14.404 17.2529 14.334L14.5127 13.5488C14.4177 13.5128 14.3173 13.4965 14.2168 13.5Z" fill="#6D7B83"/>
</svg>
