<svg width="105" height="100" viewBox="0 0 105 100" fill="none" xmlns="http://www.w3.org/2000/svg">
<circle cx="52" cy="30" r="30" fill="#45474F"/>
<g filter="url(#filter0_d_1351_3070)">
<path d="M69.4891 54.3776V30.1035C69.3111 26.1877 66.1072 23.0855 62.1659 23.0855C58.2246 23.0855 54.9953 26.2385 54.8682 30.1798C54.7411 36.9436 49.2233 42.3851 42.4341 42.3851C35.6449 42.3851 30.1271 36.9436 30 30.2052H35.1109C35.2381 34.1465 38.4674 37.2995 42.4341 37.2995C46.3754 37.2995 49.6047 34.1465 49.7318 30.2052C49.859 23.4415 55.3767 18 62.1659 18C68.9297 18 74.422 23.4161 74.6 30.129V49.7298C73.0819 51.4674 71.3666 53.0283 69.4891 54.3776Z" fill="#F8F9F9"/>
</g>
<path fill-rule="evenodd" clip-rule="evenodd" d="M42.4341 18C49.2233 18 54.7411 23.4415 54.8682 30.2052C54.9953 34.1465 58.2246 37.2995 62.1659 37.2995C66.1326 37.2995 69.3619 34.1465 69.4891 30.2052H74.6C74.4729 36.969 68.9551 42.4105 62.1659 42.4105C55.3767 42.4105 49.859 36.969 49.7318 30.2052C49.6047 26.264 46.3754 23.1109 42.4341 23.1109C38.4674 23.1109 35.2381 26.264 35.1109 30.2052H30C30.1271 23.4415 35.6449 18 42.4341 18Z" fill="#939BA1"/>
<defs>
<filter id="filter0_d_1351_3070" x="0" y="3" width="104.6" height="96.3776" filterUnits="userSpaceOnUse" color-interpolation-filters="sRGB">
<feFlood flood-opacity="0" result="BackgroundImageFix"/>
<feColorMatrix in="SourceAlpha" type="matrix" values="0 0 0 0 0 0 0 0 0 0 0 0 0 0 0 0 0 0 127 0" result="hardAlpha"/>
<feOffset dy="15"/>
<feGaussianBlur stdDeviation="15"/>
<feComposite in2="hardAlpha" operator="out"/>
<feColorMatrix type="matrix" values="0 0 0 0 0 0 0 0 0 0 0 0 0 0 0 0 0 0 0.1 0"/>
<feBlend mode="normal" in2="BackgroundImageFix" result="effect1_dropShadow_1351_3070"/>
<feBlend mode="normal" in="SourceGraphic" in2="effect1_dropShadow_1351_3070" result="shape"/>
</filter>
</defs>
</svg>
