<svg width="60" height="60" viewBox="0 0 60 60" fill="none" xmlns="http://www.w3.org/2000/svg">
<circle cx="30" cy="30" r="30" fill="#45474F"/>
<path d="M5.01501 26.3641C4.98832 26.4196 4.99722 26.4936 5.0417 26.5306C5.17515 26.6138 5.28191 26.697 5.41536 26.7802C6.03813 27.1223 6.74096 27.2887 7.4438 27.261C8.82278 27.261 9.69465 26.5028 9.69465 25.2639V25.2362C9.69465 24.0805 8.71602 23.6829 7.79966 23.3778L7.7018 23.3316C7.02565 23.1097 6.42958 22.9062 6.42958 22.4347V22.407C6.42958 22.0187 6.78544 21.7043 7.31924 21.7043C7.93311 21.7136 8.53808 21.88 9.08078 22.1851C9.13416 22.2221 9.21423 22.2128 9.25871 22.1573V22.1296C9.2854 22.0464 9.53451 21.3992 9.53451 21.3437C9.5523 21.279 9.53451 21.2143 9.48113 21.1773C8.87616 20.8075 8.18222 20.6133 7.47938 20.6133H7.34593C6.07371 20.6133 5.18405 21.3992 5.18405 22.5549V22.5826C5.18405 23.7938 6.16268 24.1914 7.07903 24.441L7.21248 24.4965C7.88863 24.7184 8.45801 24.8848 8.45801 25.3749V25.4026C8.45801 25.8556 8.08436 26.1885 7.47938 26.1885C6.84772 26.1977 6.22496 26.0036 5.69116 25.6522C5.5844 25.5967 5.53102 25.5413 5.47764 25.5135C5.42426 25.4673 5.34419 25.4858 5.29971 25.5413V25.569L5.01501 26.3641Z" fill="#F8F9F9"/>
<path d="M25.3265 26.3641C25.2998 26.4196 25.3087 26.4936 25.3532 26.5306C25.4867 26.6138 25.5934 26.697 25.7269 26.7802C26.3496 27.1223 27.0525 27.2887 27.7553 27.261C29.1343 27.261 30.0061 26.5028 30.0061 25.2639V25.2362C30.0061 24.0805 29.0275 23.6829 28.1112 23.3778L28.0133 23.3316C27.3372 23.1097 26.7411 22.9062 26.7411 22.4347V22.407C26.7411 22.0187 27.097 21.7043 27.6307 21.7043C28.2446 21.7136 28.8496 21.88 29.3923 22.1851C29.4456 22.2221 29.5257 22.2128 29.5702 22.1573V22.1296C29.5969 22.0464 29.846 21.3992 29.846 21.3437C29.8638 21.279 29.846 21.2143 29.7926 21.1773C29.1876 20.8075 28.4937 20.6133 27.7909 20.6133H27.6574C26.3852 20.6133 25.4956 21.3992 25.4956 22.5549V22.5826C25.4956 23.7938 26.4742 24.1914 27.3905 24.441L27.524 24.4965C28.2001 24.7184 28.7695 24.8848 28.7695 25.3749V25.4026C28.7695 25.8556 28.3959 26.1885 27.7909 26.1885C27.1592 26.1977 26.5365 26.0036 26.0027 25.6522C25.8959 25.5967 25.8425 25.5413 25.7892 25.5135C25.7358 25.4673 25.6557 25.4858 25.6112 25.5413V25.569L25.3265 26.3641Z" fill="#F8F9F9"/>
<path d="M40.3971 22.6474C40.2904 22.2683 40.1124 21.9169 39.8811 21.6026C39.632 21.3067 39.3295 21.0663 38.9915 20.8999C38.1908 20.5671 37.3011 20.5671 36.5004 20.8999C36.1623 21.0663 35.8509 21.3067 35.6107 21.6026C35.3616 21.9077 35.1926 22.259 35.0947 22.6474C34.8812 23.498 34.8812 24.3855 35.0947 25.2362C35.2015 25.6152 35.3794 25.9666 35.6107 26.2809C35.8598 26.5768 36.1623 26.8172 36.5004 26.9836C37.3011 27.3164 38.1908 27.3164 38.9915 26.9836C39.3384 26.8264 39.6409 26.586 39.8811 26.2809C40.1302 25.9758 40.2993 25.6245 40.3971 25.2362C40.5039 24.8109 40.5662 24.3763 40.5573 23.9418C40.5662 23.5072 40.5128 23.0727 40.3971 22.6474ZM39.2317 23.9418C39.2584 24.515 39.1249 25.079 38.858 25.5782C38.6089 25.9666 38.173 26.1885 37.7192 26.1422C37.2744 26.17 36.8385 25.9573 36.5805 25.5782C36.0733 24.552 36.0733 23.3408 36.5805 22.3145C36.8296 21.9262 37.2655 21.7043 37.7192 21.7505C38.1641 21.7228 38.6 21.9354 38.858 22.3145C39.1338 22.8045 39.2673 23.3778 39.2317 23.9418Z" fill="#F8F9F9"/>
<path d="M49.9075 25.9758C49.8897 25.9111 49.8364 25.8741 49.7741 25.8926C49.5961 25.9666 49.4182 26.0221 49.2314 26.059C49.0268 26.096 48.8132 26.1145 48.6086 26.1145C48.1193 26.1423 47.6389 25.9573 47.283 25.606C46.9183 25.1437 46.7403 24.5427 46.7937 23.9418C46.7759 23.3778 46.9272 22.8323 47.2296 22.37C47.541 21.954 48.0303 21.7321 48.5285 21.7783C48.9378 21.769 49.347 21.8245 49.7474 21.9447C49.8097 21.954 49.863 21.917 49.8808 21.8615C49.9876 21.5749 50.0677 21.353 50.1744 21.0479C50.1922 20.9924 50.1566 20.9277 50.1033 20.9092C49.8453 20.8167 49.5873 20.752 49.3204 20.715C49.0357 20.678 48.7421 20.6596 48.4574 20.6596C48.0125 20.6503 47.5677 20.7335 47.1585 20.9092C46.7937 21.0664 46.4734 21.3068 46.2154 21.6119C45.9663 21.917 45.7706 22.2683 45.646 22.6566C45.5126 23.0727 45.4503 23.5165 45.4592 23.951C45.4236 24.8201 45.6905 25.6707 46.2154 26.3457C46.8204 26.9836 47.6656 27.3072 48.5197 27.2425C49.0801 27.2517 49.6495 27.1408 50.1744 26.9374C50.2189 26.9096 50.2367 26.8542 50.2278 26.7987L49.9075 25.9758Z" fill="#F8F9F9"/>
<path d="M55.8414 22.4255C55.7346 22.0741 55.5656 21.7413 55.3253 21.4639C55.1207 21.2051 54.8627 21.0016 54.5691 20.8722C54.2044 20.7243 53.8218 20.6411 53.4304 20.6503C52.9855 20.6411 52.5407 20.7243 52.1314 20.8999C51.7845 21.0664 51.482 21.3068 51.2418 21.6026C51.0016 21.917 50.8147 22.2868 50.6991 22.6751C50.5923 23.1004 50.53 23.535 50.5389 23.9695C50.53 24.4133 50.5923 24.8479 50.7258 25.2639C50.8236 25.6522 51.0193 26.0128 51.2951 26.3087C51.5798 26.5953 51.909 26.8264 52.2738 26.9836C52.7275 27.1685 53.2168 27.2425 53.7061 27.2055C54.3912 27.2517 55.0673 27.1131 55.6812 26.8172C55.7346 26.7895 55.7613 26.7617 55.7079 26.623L55.4321 25.8649C55.4232 25.8187 55.3698 25.7817 55.3253 25.8002H55.2987C54.7827 26.0313 54.2311 26.133 53.6706 26.1053C53.1812 26.1238 52.6919 25.9573 52.3183 25.6245C51.998 25.2547 51.8378 24.7646 51.8556 24.2746H55.788C55.8503 24.2746 55.8947 24.2284 55.8947 24.1729C55.9748 24.1452 56.1083 23.3223 55.8414 22.4255ZM51.9446 23.2761C51.9802 22.934 52.0958 22.6104 52.2738 22.3145C52.514 21.917 52.941 21.6951 53.3859 21.7228C53.8307 21.7043 54.2489 21.9262 54.498 22.3145C54.667 22.6012 54.756 22.934 54.7738 23.2761H51.9446Z" fill="#F8F9F9"/>
<path d="M24.3921 22.4255C24.2853 22.0741 24.1163 21.7413 23.8761 21.4639C23.6715 21.2051 23.4135 21.0016 23.1199 20.8722C22.7551 20.7243 22.3726 20.6411 21.9811 20.6503C21.5363 20.6411 21.0915 20.7243 20.6822 20.8999C20.3352 21.0664 20.0328 21.3068 19.7925 21.6026C19.5523 21.917 19.3655 22.2868 19.2498 22.6751C19.1431 23.1004 19.0808 23.535 19.0897 23.9695C19.0808 24.4133 19.1431 24.8479 19.2765 25.2639C19.3744 25.6522 19.5701 26.0128 19.8459 26.3087C20.1306 26.5953 20.4598 26.8264 20.8246 26.9836C21.2783 27.1685 21.7676 27.2425 22.2569 27.2055C22.942 27.2517 23.6181 27.1131 24.232 26.8172C24.2853 26.7895 24.312 26.7617 24.2587 26.623L23.9562 25.8741C23.9473 25.8279 23.8939 25.7909 23.8494 25.8094H23.8227C23.3067 26.0406 22.7551 26.1423 22.1946 26.1145C21.7053 26.133 21.216 25.9666 20.8423 25.6337C20.5221 25.2639 20.3619 24.7739 20.3797 24.2839H24.312C24.3743 24.2839 24.4188 24.2376 24.4188 24.1822C24.4989 24.1544 24.6323 23.3408 24.3654 22.4347L24.3921 22.4255ZM20.4598 23.2761C20.4954 22.934 20.611 22.6104 20.789 22.3145C21.0292 21.917 21.4562 21.6951 21.901 21.7228C22.3459 21.7043 22.764 21.9262 23.0131 22.3145C23.1822 22.6012 23.2711 22.934 23.2889 23.2761H20.4598Z" fill="#F8F9F9"/>
<path d="M13.556 23.0727C13.3958 23.0727 13.2001 23.0449 12.9332 23.0449C12.604 23.0542 12.2748 23.1004 11.9546 23.1836C11.661 23.2668 11.3852 23.3963 11.145 23.5719C10.9048 23.7383 10.709 23.9787 10.5756 24.2469C10.4332 24.5335 10.3621 24.8571 10.3621 25.1714C10.3443 25.495 10.4155 25.8094 10.5489 26.096C10.6646 26.3549 10.8425 26.5768 11.0649 26.7432C11.3051 26.9189 11.5898 27.0483 11.8745 27.113C12.2126 27.1962 12.5595 27.2332 12.9065 27.224C13.3069 27.2332 13.7072 27.187 14.0987 27.113C14.4723 27.0576 14.9616 26.9466 15.104 26.9189C15.1929 26.9004 15.2908 26.8726 15.3798 26.8357C15.442 26.8172 15.4776 26.7617 15.4598 26.697V22.9525C15.5132 22.2868 15.2908 21.6303 14.8371 21.1496C14.3122 20.7427 13.6716 20.5486 13.0222 20.5856C12.6663 20.5856 12.3104 20.6225 11.9635 20.6965C11.5364 20.7705 11.1272 20.9277 10.7446 21.1496C10.6912 21.1865 10.6823 21.2605 10.7179 21.316L10.9937 22.1019C11.0026 22.1481 11.056 22.1851 11.1005 22.1666H11.1272C11.145 22.1666 11.1628 22.1573 11.1806 22.1388C11.7144 21.8707 12.2837 21.732 12.8709 21.7135C13.2179 21.6858 13.556 21.7783 13.8495 21.9632C14.0631 22.1296 14.1787 22.3885 14.1787 22.9432V23.1096L13.556 23.0542V23.0727ZM12.0079 25.9573C11.919 25.8926 11.8478 25.8001 11.7944 25.7077C11.5542 25.2731 11.6432 24.7184 12.0079 24.3855C12.346 24.1544 12.7464 24.0527 13.1467 24.0989C13.5026 24.0989 13.8495 24.1267 14.2054 24.1821V26.0405C13.8584 26.1145 13.5026 26.1607 13.1467 26.1792C12.7553 26.2439 12.3549 26.17 12.0079 25.9573Z" fill="#F8F9F9"/>
<path d="M45.2459 20.9646C45.2726 20.9184 45.2459 20.8537 45.2015 20.826C44.9879 20.7612 44.7744 20.715 44.552 20.715C44.205 20.678 43.867 20.7335 43.5467 20.8814C43.2976 20.9924 43.0752 21.1681 42.8972 21.39V20.8814C42.8972 20.8167 42.8438 20.7705 42.7905 20.7705H41.7318C41.6695 20.7705 41.625 20.826 41.625 20.8814V26.9836C41.625 27.0483 41.6784 27.0946 41.7318 27.0946H42.7638C42.826 27.0946 42.8705 27.0391 42.8705 26.9836V23.9418C42.8616 23.5812 42.9061 23.2206 43.004 22.8693C43.0663 22.6381 43.1908 22.4347 43.3598 22.2775C43.4933 22.1296 43.6623 22.0279 43.8492 21.9724C44.0182 21.917 44.1872 21.8892 44.3652 21.8892C44.5075 21.8892 44.6588 21.9077 44.8011 21.9447C44.8634 21.9539 44.9257 21.9077 44.9346 21.8337C45.0146 21.6396 45.2015 21.0756 45.2459 20.9646Z" fill="#F8F9F9"/>
<path d="M35.5479 18.1447L35.1742 18.0615C34.9963 18.0245 34.8184 18.006 34.6315 18.006C34.0177 17.9598 33.4216 18.1817 32.9768 18.6255C32.5497 19.1525 32.2739 19.7997 32.1938 20.4839L32.1405 20.7705H31.2508C31.1885 20.7705 31.1351 20.8167 31.1174 20.8814L30.9839 21.7228C30.975 21.7875 31.0195 21.8522 31.0729 21.8615H31.9803L31.0907 26.9559C31.0462 27.2979 30.9572 27.64 30.8505 27.9729C30.7971 28.1855 30.6992 28.3889 30.5747 28.5646C30.4857 28.694 30.37 28.7957 30.2188 28.8512C30.0675 28.8975 29.9163 28.9159 29.7562 28.9067C29.6761 28.9067 29.5426 28.879 29.427 28.879C29.3469 28.8605 29.2757 28.8327 29.2135 28.7957C29.1601 28.7773 29.1067 28.805 29.08 28.8512C29.0533 28.9344 28.8042 29.6094 28.7864 29.6648C28.7597 29.7296 28.7775 29.8035 28.8398 29.8313C28.9555 29.8775 29.0711 29.9145 29.1957 29.9422C29.3825 29.9884 29.5693 30.0069 29.7651 29.9977C30.0942 30.0069 30.4323 29.9515 30.7437 29.8313C31.0284 29.7111 31.2775 29.5354 31.4732 29.295C31.6956 29.0269 31.8736 28.7218 31.9892 28.3982C32.1405 27.9451 32.2561 27.4829 32.3451 27.0206L33.2348 21.8152H34.5159C34.5782 21.8152 34.6315 21.769 34.6493 21.7043L34.7828 20.8629C34.7917 20.7982 34.7472 20.7335 34.6938 20.7242H33.4038C33.4394 20.4099 33.5106 20.0955 33.6173 19.7997C33.6707 19.6333 33.7686 19.4946 33.8931 19.3744C33.991 19.2819 34.0977 19.208 34.2223 19.1525C34.3646 19.1155 34.507 19.097 34.6582 19.097C34.765 19.097 34.8984 19.1247 34.9874 19.1247C35.0497 19.134 35.1209 19.1525 35.1742 19.1802C35.3077 19.2079 35.3077 19.1802 35.3344 19.1247L35.628 18.2834C35.6547 18.2094 35.5746 18.1817 35.5479 18.1447Z" fill="#F8F9F9"/>
<path d="M18.0131 26.9836C18.0131 27.0483 17.9597 27.0945 17.9063 27.0945H16.8743C16.8121 27.0945 16.7676 27.0391 16.7676 26.9836V18.2649C16.7676 18.2002 16.821 18.1539 16.8743 18.1539H17.8797C17.9419 18.1539 17.9864 18.2094 17.9864 18.2649V26.9928L18.0131 26.9836Z" fill="#F8F9F9"/>
<path d="M6.61249 32.8138C6.51574 32.9105 6.41093 32.9991 6.30612 33.0878V31.6291H5V43H6.30612V38.8256C8.18467 40.9934 10.3535 40.7758 11.7563 39.8974C13.4736 38.8336 14.2154 36.5369 13.5946 34.4255C12.6513 31.3148 8.74097 30.243 6.61249 32.8138ZM9.00704 39.2688C7.28974 39.2688 6.23355 37.7941 6.21743 35.9567C6.2013 34.1193 7.62836 32.5962 9.34566 32.5801C11.0549 32.5639 12.4094 34.0145 12.4094 35.9486C12.3933 37.7941 10.8856 39.2769 9.03928 39.2608L9.00704 39.2688Z" fill="#F8F9F9"/>
<path d="M53.2703 28.9844V31.5662H56.0003V32.7441H53.3345C53.3185 33.0265 53.2864 33.2363 53.2864 33.4783C53.2864 34.8338 53.3345 36.1973 53.2864 37.5285C53.2061 39.126 54.017 39.4649 55.4864 39.1663C55.6069 39.1341 55.7354 39.0937 55.8558 39.0453C56.1609 40.0458 55.9682 40.3443 54.9806 40.4734C52.917 40.7235 51.9294 39.8441 51.9213 37.7464V32.7925L50.749 32.7361V31.6307L51.9133 31.5581V28.9763L53.2703 28.9844Z" fill="#F8F9F9"/>
<path d="M26.1013 40.2485H24.7588V31.6487H26.0686V33.6308C26.9936 32.2721 28.0169 31.4009 29.6541 31.4648V32.8076C27.0018 33.2951 26.0931 34.3901 26.0931 37.0755C26.1013 38.1065 26.1013 39.1536 26.1013 40.2485Z" fill="#F8F9F9"/>
<path d="M37.7456 28V33.0515C35.454 30.9938 33.3795 30.8405 31.6267 32.4705C29.8738 34.1005 29.713 37.0378 31.2005 38.9503C31.7955 39.725 32.6478 40.2495 33.6047 40.427C35.2691 40.7659 36.5717 40.1123 37.7376 38.6598V40.2737H39V28H37.7456ZM34.5856 39.3215C32.873 39.2811 31.5382 37.756 31.5784 35.8677C31.6186 33.9795 32.8971 32.5512 34.6339 32.5754C36.3787 32.5996 37.7778 34.1005 37.7456 36.013C37.7376 37.8367 36.2822 39.3618 34.5856 39.3215Z" fill="#F8F9F9"/>
<path d="M22.5337 34.2071C22.453 32.8819 21.6383 32.0065 20.3639 31.6612C18.799 31.2677 17.1374 31.4604 15.7016 32.1993L16.0727 33.2755C17.6133 32.7052 18.4361 32.5928 19.4443 32.7133C20.5817 32.8578 21.5819 33.934 21.1947 35.211L20.7995 35.1307C19.3234 34.8576 17.8714 34.697 16.4679 35.3395C15.1451 35.9017 14.524 37.4196 15.0886 38.7367C15.2822 39.2025 15.6129 39.596 16.0323 39.8771C16.7664 40.367 17.6456 40.5839 18.5248 40.4955C19.5815 40.4152 20.5736 39.9414 21.2915 39.1623L21.356 40.2626H22.5821C22.5821 40.0699 22.6305 39.8932 22.6224 39.7566C22.6063 37.9095 22.6466 36.0382 22.5337 34.2071ZM20.017 39.066C18.9362 39.58 17.8392 39.6603 16.8228 38.9134C16.1533 38.3672 16.0565 37.3874 16.597 36.7208C16.6938 36.6004 16.8148 36.496 16.9438 36.4076C18.178 35.8374 19.5734 35.7571 20.8721 36.1587C21.0898 36.255 21.2512 36.4558 21.2996 36.6887C21.4851 37.6766 20.9527 38.6644 20.017 39.0499V39.066Z" fill="#F8F9F9"/>
<path d="M45.4402 31.3734C42.9097 31.3333 40.821 33.3441 40.7809 35.8677C40.7407 38.3912 42.7571 40.4742 45.2876 40.5142C47.8181 40.5543 49.9068 38.5434 49.947 36.0199V35.9879C49.9952 33.4883 47.9948 31.4214 45.4884 31.3734C45.4884 31.3734 45.4884 31.3734 45.4804 31.3734H45.4402ZM45.4402 39.3125C43.6568 39.3125 42.2349 37.8064 42.2429 35.8997C42.251 33.9931 43.6086 32.5671 45.4242 32.5831C47.2397 32.5991 48.6054 34.0732 48.6054 35.9478C48.6054 37.8144 47.2156 39.3045 45.4402 39.3125Z" fill="#F8F9F9"/>
</svg>
