<svg viewBox="0 0 78 78" fill="none" xmlns="http://www.w3.org/2000/svg">
<path d="M30.8389 0.000627346C27.6934 0.0348914 24.6559 1.65062 22.9107 4.53794L22.304 5.54177C21.4405 6.96716 19.9315 7.83422 18.2663 7.8662L17.0974 7.89297C12.0399 7.99804 7.99831 12.0373 7.89323 17.097L7.87091 18.2659C7.83665 19.9288 6.96512 21.4401 5.542 22.3035L4.53816 22.9058C0.211687 25.5236 -1.26547 31.0512 1.17416 35.4827L1.73632 36.5044C2.53811 37.964 2.53811 39.7025 1.73632 41.1621L1.17416 42.1883C-1.26319 46.6198 0.216149 52.1429 4.54262 54.7607L5.542 55.3675C6.96741 56.2309 7.83665 57.7377 7.87091 59.4006L7.89323 60.5695C7.99831 65.6269 12.0399 69.6729 17.0974 69.778L18.2663 69.8003C19.9293 69.8346 21.4405 70.7015 22.304 72.1292L22.9063 73.1286C24.672 76.0456 27.7595 77.6659 30.9415 77.6659C32.4788 77.6659 34.0352 77.2874 35.4789 76.4925L36.505 75.9304C37.9624 75.1263 39.7076 75.1263 41.1673 75.9304L42.189 76.4925C46.6206 78.9275 52.1461 77.4527 54.7616 73.1286L55.3684 72.1247C56.2318 70.6993 57.7408 69.8323 59.4061 69.8003L60.5705 69.7735C65.628 69.6685 69.674 65.6292 69.7791 60.5695L69.8014 59.4006C69.8357 57.7377 70.7028 56.2265 72.1259 55.363L73.1297 54.7607C77.4516 52.1429 78.9311 46.6198 76.4937 42.1883L75.9316 41.1621C75.1298 39.7025 75.1298 37.964 75.9316 36.5044L76.4937 35.4827C78.9311 31.0512 77.4517 25.5236 73.1253 22.9058L72.1259 22.3035C70.7005 21.4401 69.8312 19.9288 69.797 18.2659L69.7747 17.097C69.6696 12.0396 65.628 7.99804 60.5705 7.89297L59.4016 7.8662C57.7386 7.83193 56.2274 6.96498 55.3639 5.53731L54.7616 4.5424C53.0141 1.65508 49.9745 0.0348914 46.829 0.000627346C45.2597 -0.0176468 43.6624 0.363077 42.189 1.17399L41.1629 1.73614C39.7055 2.5402 37.9602 2.5402 36.5006 1.73614L35.4789 1.17399C34.0055 0.360793 32.4082 -0.0153626 30.8389 0.000627346Z" fill="url(#paint0_linear_5220_12651)"/>
<path d="M31.8237 52.8028L27.2897 54.0177L23.9634 41.6041C23.8717 41.2617 23.7639 40.8397 23.64 40.3382C23.5135 39.8269 23.3892 39.3045 23.2672 38.7711C23.1426 38.2278 23.0324 37.7383 22.9367 37.3027C22.8632 37.4587 22.702 37.7377 22.4533 38.1399C22.2118 38.5296 21.9819 38.8848 21.7637 39.2054L19.8294 41.8468L16.9118 39.7034L22.3485 32.349L26.0756 31.3504L31.8237 52.8028ZM49.0949 42.9537C49.3937 44.0689 49.3825 45.0837 49.0613 45.998C48.7473 46.8999 48.1256 47.6904 47.1961 48.3693C46.2641 49.0384 45.0252 49.58 43.4796 49.9942C42.3351 50.3008 41.3323 50.4909 40.4713 50.5643C39.6201 50.6352 38.7328 50.6108 37.8096 50.4912L36.8188 46.7935C37.8165 46.9561 38.8593 47.0331 39.9475 47.0246C41.0428 47.0037 41.9768 46.8898 42.7496 46.6827C43.6202 46.4494 44.2073 46.1558 44.5109 45.8019C44.8216 45.4355 44.9206 45.042 44.8079 44.6214C44.7345 44.3475 44.5907 44.1239 44.3766 43.9506C44.1695 43.765 43.7799 43.602 43.2076 43.4618C42.6327 43.3118 41.7518 43.1546 40.565 42.9904C39.4225 42.8352 38.4597 42.6266 37.6766 42.3646C36.9032 42.1 36.2752 41.7126 35.7925 41.2024C35.3169 40.6798 34.9547 39.9538 34.7057 39.0245C34.2994 37.5083 34.5809 36.2114 35.5504 35.1338C36.5269 34.0439 38.0032 33.2341 39.9793 32.7047C40.9966 32.4321 41.9926 32.2753 42.9671 32.2343C43.9515 32.1908 44.9931 32.2629 46.0919 32.4508L45.6069 36.0406C44.7006 35.906 43.8554 35.8232 43.0712 35.7922C42.2968 35.7585 41.5379 35.8413 40.7945 36.0405C40.139 36.2161 39.6686 36.4365 39.3832 36.7017C39.0978 36.9669 39.0036 37.2805 39.1006 37.6424C39.1713 37.9066 39.3174 38.1191 39.5387 38.2799C39.7699 38.4382 40.1641 38.5789 40.7213 38.7022C41.2857 38.8131 42.0997 38.9357 43.1632 39.0702C44.1947 39.2027 45.1092 39.3875 45.9067 39.6246C46.7016 39.852 47.3674 40.224 47.9043 40.7407C48.4385 41.2476 48.8354 41.9853 49.0949 42.9537ZM59.9268 41.7655C60.4159 41.6345 60.8773 41.4584 61.3108 41.2374C61.7542 41.0138 62.186 40.767 62.6065 40.4971L63.499 43.8279C63.0773 44.1716 62.5278 44.5075 61.8504 44.8358C61.1854 45.1713 60.4322 45.4517 59.591 45.6772C58.6127 45.9393 57.6904 46.0187 56.824 45.9153C55.9647 45.7996 55.2052 45.4107 54.5455 44.7487C53.893 44.0743 53.378 43.0328 53.0006 41.6241L50.8814 33.7152L48.7391 34.2892L48.2319 32.3963L50.296 30.2391L50.6593 26.4302L53.5206 25.6635L54.4564 29.1558L59.0491 27.9252L59.9495 31.2854L55.3567 32.516L57.4759 40.4249C57.6437 41.051 57.9456 41.4734 58.3816 41.692C58.8248 41.8983 59.3399 41.9228 59.9268 41.7655Z" fill="white"/>
<defs>
<linearGradient id="paint0_linear_5220_12651" x1="-1.83203" y1="39.0205" x2="123.531" y2="39.0205" gradientUnits="userSpaceOnUse">
<stop stop-color="#FD4B7A"/>
<stop offset="1" stop-color="#4D00AE"/>
</linearGradient>
</defs>
</svg>
