<svg viewBox="0 0 83 83" fill="none" xmlns="http://www.w3.org/2000/svg">
<path d="M32.9569 0.000670432C29.5954 0.0372878 26.3493 1.76399 24.4843 4.84961L23.8358 5.92238C22.913 7.44566 21.3005 8.37227 19.5208 8.40645L18.2716 8.43506C12.8668 8.54735 8.54763 12.864 8.43534 18.2712L8.41149 19.5204C8.37487 21.2976 7.44349 22.9126 5.92263 23.8353L4.84984 24.479C0.226226 27.2766 -1.35238 33.1838 1.25481 37.9197L1.85557 39.0115C2.71243 40.5714 2.71243 42.4293 1.85557 43.9892L1.25481 45.0858C-1.34994 49.8216 0.230994 55.7241 4.85461 58.5217L5.92263 59.1701C7.44593 60.0929 8.37487 61.7031 8.41149 63.4803L8.43534 64.7295C8.54763 70.1342 12.8668 74.4581 18.2716 74.5704L19.5208 74.5942C21.298 74.6308 22.913 75.5573 23.8358 77.0831L24.4795 78.1511C26.3665 81.2684 29.666 83 33.0666 83C34.7095 83 36.3727 82.5956 37.9156 81.746L39.0122 81.1453C40.5697 80.286 42.4348 80.286 43.9947 81.1453L45.0866 81.746C49.8225 84.3483 55.7275 82.7722 58.5226 78.1511L59.1711 77.0783C60.0939 75.555 61.7065 74.6284 63.4861 74.5942L64.7305 74.5656C70.1353 74.4533 74.4593 70.1366 74.5716 64.7295L74.5954 63.4803C74.632 61.7031 75.5586 60.0881 77.0795 59.1653L78.1523 58.5217C82.771 55.7241 84.3521 49.8216 81.7473 45.0858L81.1466 43.9892C80.2897 42.4293 80.2897 40.5714 81.1466 39.0115L81.7473 37.9197C84.3521 33.1838 82.7711 27.2766 78.1475 24.479L77.0795 23.8353C75.5562 22.9126 74.6273 21.2976 74.5906 19.5204L74.5668 18.2712C74.4545 12.8665 70.1353 8.54735 64.7305 8.43506L63.4813 8.40645C61.7041 8.36983 60.0891 7.44334 59.1663 5.91761L58.5226 4.85438C56.6551 1.76875 53.4067 0.0372878 50.0452 0.000670432C48.3681 -0.0188588 46.6611 0.388013 45.0866 1.25462L43.9899 1.85538C42.4325 2.71466 40.5674 2.71466 39.0074 1.85538L37.9156 1.25462C36.341 0.385572 34.634 -0.0164177 32.9569 0.000670432Z" fill="url(#paint0_linear_5226_12652)"/>
<path d="M32.4331 55.8357L17.4369 59.8539L16.5916 56.6991L20.518 49.8124C21.3051 48.4063 21.9267 47.2437 22.3829 46.3246C22.8462 45.3931 23.1421 44.5799 23.2704 43.885C23.4085 43.1875 23.3832 42.4866 23.1945 41.7822C22.9665 40.9312 22.5564 40.3596 21.9644 40.0674C21.3795 39.7628 20.6909 39.7166 19.8985 39.9289C19.0671 40.1517 18.3111 40.5587 17.6308 41.1499C16.9504 41.7411 16.2791 42.5029 15.6167 43.4353L12.3692 41.1758C12.844 40.4824 13.3608 39.8092 13.9197 39.1562C14.4885 38.5005 15.1897 37.909 16.0234 37.3815C16.8643 36.8417 17.9255 36.4001 19.207 36.0567C20.6156 35.6793 21.8919 35.6099 23.0357 35.8486C24.1894 36.0847 25.1581 36.5695 25.9418 37.3031C26.7229 38.027 27.2615 38.9416 27.5577 40.047C27.8749 41.2306 27.9297 42.3745 27.7223 43.4785C27.5149 44.5825 27.0896 45.7345 26.4465 46.9343C25.8132 48.1314 25.0215 49.4811 24.0715 50.9834L22.0089 54.3197L22.0639 54.5251L31.4108 52.0206L32.4331 55.8357ZM40.618 35.7297C42.369 35.2605 43.9061 35.3624 45.2292 36.0353C46.5497 36.6985 47.4917 38.0817 48.0553 40.1849L50.9215 50.8817L46.4461 52.0809L43.8787 42.4992C43.5642 41.3254 43.1118 40.4977 42.5215 40.0163C41.9409 39.5323 41.1958 39.4122 40.286 39.656C38.9165 40.0229 38.1068 40.7379 37.8569 41.8009C37.6071 42.8639 37.7167 44.2709 38.1859 46.0219L40.254 53.7401L35.7786 54.9393L31.3829 38.5345L34.8018 37.6184L35.9657 39.5555L36.2151 39.4886C36.4153 38.8269 36.7274 38.2505 37.1515 37.7594C37.5854 37.2657 38.0979 36.8505 38.6892 36.5138C39.2903 36.1746 39.9332 35.9132 40.618 35.7297ZM60.8019 48.5488C58.9727 49.039 57.2895 48.7246 55.7525 47.6057C54.2227 46.4744 53.0856 44.5196 52.3412 41.7415C51.5889 38.934 51.6022 36.6553 52.3809 34.9054C53.1571 33.1457 54.4843 32.0142 56.3625 31.511C57.145 31.3013 57.8635 31.2241 58.5179 31.2794C59.1723 31.3347 59.7632 31.4857 60.2906 31.7323C60.8278 31.9763 61.3083 32.2826 61.7321 32.6514L61.8788 32.6121C61.7363 32.3148 61.5397 31.8746 61.2891 31.2917C61.0457 30.6964 60.8376 30.076 60.6646 29.4303L59.257 24.1773L63.7471 22.9742L69.8648 45.8059L66.4312 46.7259L64.9954 44.8303L64.8047 44.8814C64.6415 45.4074 64.3946 45.9139 64.0638 46.4009C63.7401 46.8756 63.3136 47.2992 62.7844 47.6716C62.2551 48.0441 61.5943 48.3365 60.8019 48.5488ZM61.4166 44.5625C62.6394 44.2349 63.4032 43.6423 63.7081 42.7847C64.0202 41.9147 63.9944 40.7422 63.6305 39.267L63.5008 38.7827C63.0735 37.1882 62.5027 36.0359 61.7881 35.3257C61.071 34.6057 60.0472 34.4239 58.7168 34.7804C57.7288 35.0451 57.07 35.6777 56.7405 36.6782C56.4109 37.6786 56.4611 38.981 56.891 40.5853C57.3208 42.1896 57.9233 43.323 58.6985 43.9855C59.4834 44.6454 60.3894 44.8377 61.4166 44.5625Z" fill="white"/>
<defs>
<linearGradient id="paint0_linear_5226_12652" x1="41.3946" y1="-0.197895" x2="41.3947" y2="82.316" gradientUnits="userSpaceOnUse">
<stop stop-color="#FFB83F"/>
<stop offset="1" stop-color="#FD4B7A"/>
</linearGradient>
</defs>
</svg>
