<svg width="60" height="60" viewBox="0 0 60 60" fill="none" xmlns="http://www.w3.org/2000/svg">
<circle cx="30" cy="30" r="30" fill="#45474F"/>
<path d="M47.751 29.3016C46.828 27.7169 45.5287 26.4462 43.9046 25.4896C42.7109 24.7856 41.3874 24.3284 40.0129 24.1453V19.1095C41.4308 18.5086 42.3113 17.1794 42.3113 15.6282C42.3113 15.126 42.2122 14.6288 42.0195 14.1648C41.8269 13.7008 41.5445 13.2792 41.1885 12.9241C40.8325 12.569 40.4099 12.2873 39.9448 12.0951C39.4797 11.9029 38.9812 11.804 38.4778 11.804C37.9743 11.804 37.4758 11.9029 37.0107 12.0951C36.5456 12.2873 36.123 12.569 35.767 12.9241C35.411 13.2792 35.1286 13.7008 34.936 14.1648C34.7433 14.6288 34.6442 15.126 34.6442 15.6282C34.6442 17.1794 35.4736 18.5086 36.8915 19.1095V24.1476C35.7135 24.3171 34.5705 24.6745 33.5063 25.2062C31.3153 23.5438 24.1198 18.0897 19.9093 14.9045C20.0182 14.5409 20.0769 14.164 20.0835 13.7845C20.0832 12.946 19.8335 12.1265 19.3661 11.4297C18.8988 10.7328 18.2347 10.1899 17.4579 9.86961C16.6811 9.54936 15.8266 9.46616 15.0024 9.63054C14.1782 9.79491 13.4214 10.1995 12.8277 10.7931C12.2341 11.3866 11.8303 12.1425 11.6674 12.9651C11.5046 13.7876 11.59 14.6399 11.9128 15.4141C12.2356 16.1882 12.7814 16.8494 13.4811 17.314C14.1808 17.7787 15.0028 18.0258 15.8434 18.0242C16.6133 18.0212 17.3677 17.8076 18.0244 17.4065L18.9131 18.0787L31.1184 26.8518C30.4573 27.4465 29.8768 28.1248 29.3916 28.8694C28.4175 30.4066 27.8233 32.0985 27.8233 33.944V34.3311C27.8276 35.5833 28.0533 36.8249 28.4901 37.9989C28.8626 38.9928 29.397 39.9186 30.0718 40.739L26.0209 44.7898C25.3266 44.5392 24.5676 44.5303 23.8676 44.7645C23.1675 44.9987 22.5674 45.4623 22.1648 46.0798C21.7623 46.6974 21.581 47.4326 21.6505 48.1659C21.7199 48.8993 22.0359 49.5876 22.5472 50.1191C23.0585 50.6506 23.735 50.9939 24.4667 51.0932C25.1983 51.1925 25.9422 51.042 26.5772 50.6662C27.2123 50.2904 27.7013 49.7113 27.9646 49.0231C28.228 48.3349 28.2502 47.5781 28.0278 46.8758L32.2151 42.6981C32.7994 43.0971 33.4221 43.4374 34.0738 43.7138C35.4473 44.3144 36.9305 44.6251 38.4301 44.6264H38.7206C40.4934 44.6273 42.2372 44.1772 43.7871 43.3186C45.3371 42.4601 46.642 41.2214 47.5785 39.7198C48.5537 38.1634 49.0887 36.4437 49.0887 34.5513V34.4568C49.0887 32.5951 48.6565 30.8783 47.7492 29.3045L47.751 29.3016ZM42.6355 38.0649C41.4987 39.3246 40.1924 40.1005 38.7159 40.1005H38.4725C37.6292 40.1005 36.8038 39.8687 35.9964 39.4451C35.0856 38.9816 34.3938 38.3153 33.8275 37.4751C33.242 36.6494 32.9243 35.7484 32.9243 34.7923V34.5026C32.9243 33.5633 33.1049 32.6722 33.5632 31.8309C34.0319 30.9334 34.7283 30.1742 35.5828 29.629C36.4084 29.072 37.3836 28.7773 38.3802 28.7836H38.4754C39.4019 28.7836 40.2761 28.9662 41.1061 29.3886C41.9433 29.8283 42.6544 30.4736 43.1722 31.2636C43.6868 32.0559 44.0054 32.959 44.1015 33.8983C44.1172 34.0958 44.1253 34.2986 44.1253 34.4922C44.1253 35.7831 43.6305 36.9791 42.6413 38.0649H42.6355Z" fill="#F8F9F9"/>
</svg>
