<svg width="60" height="60" viewBox="0 0 60 60" fill="none" xmlns="http://www.w3.org/2000/svg">
<circle cx="30" cy="30" r="30" fill="#F8F9F9"/>
<path d="M38.7791 29.275C39.043 29.2392 39.3105 29.2392 39.5744 29.275C39.7169 28.9434 39.7404 28.3706 39.6136 27.7487C39.4225 26.8238 39.1642 26.2637 38.6303 26.351C38.0965 26.4382 38.0777 27.1093 38.2687 28.0343C38.3477 28.4805 38.5219 28.904 38.7791 29.275Z" fill="#45474F"/>
<path d="M34.2011 30.0063C34.5815 30.176 34.8164 30.2887 34.9087 30.1903C34.9682 30.1284 34.9494 30.011 34.8586 29.8603C34.6127 29.502 34.2703 29.2228 33.8723 29.0559C33.4459 28.8771 32.9814 28.8124 32.5232 28.868C32.0651 28.9235 31.6288 29.0975 31.2561 29.3732C31.0009 29.562 30.7582 29.8254 30.7864 29.984C30.7974 30.0364 30.8365 30.0745 30.9258 30.0872C31.1356 30.1126 31.8651 29.735 32.7184 29.6826C33.2314 29.6651 33.7407 29.7763 34.2011 30.0063Z" fill="#45474F"/>
<path d="M33.4385 30.4506C33.0938 30.4892 32.7676 30.628 32.4991 30.8504C32.373 30.9416 32.2866 31.0786 32.258 31.2328C32.257 31.25 32.2599 31.2672 32.2664 31.2832C32.2729 31.2991 32.2829 31.3133 32.2956 31.3248C32.3177 31.3456 32.3468 31.3569 32.377 31.3565C32.5023 31.3381 32.6248 31.304 32.7418 31.255C33.2519 31.0602 33.8031 31.0023 34.3419 31.0868C34.5908 31.1154 34.7098 31.1297 34.7646 31.044C34.7775 31.0189 34.7828 30.9905 34.78 30.9623C34.7773 30.9341 34.7664 30.9074 34.7489 30.8853C34.619 30.6918 34.118 30.3681 33.4385 30.4506Z" fill="#45474F"/>
<path d="M37.2337 32.0863C37.5704 32.2544 37.943 32.1878 38.0635 31.9387C38.1841 31.6896 38.0087 31.3501 37.6706 31.1819C37.3324 31.0138 36.9613 31.0804 36.8408 31.3295C36.7202 31.5786 36.8956 31.9118 37.2337 32.0863Z" fill="#45474F"/>
<path d="M39.4019 30.1587C39.1279 30.1587 38.9009 30.4585 38.8947 30.8393C38.8884 31.2201 39.106 31.5326 39.38 31.5374C39.654 31.5421 39.881 31.2375 39.8873 30.8567C39.8935 30.476 39.6775 30.1634 39.4019 30.1587Z" fill="#45474F"/>
<path d="M20.9887 37.0283C20.9198 36.9411 20.8086 36.9681 20.699 36.9934C20.6158 37.0162 20.53 37.0285 20.4438 37.0299C20.352 37.0322 20.261 37.0114 20.179 36.9693C20.097 36.9272 20.0266 36.8652 19.9741 36.7888C19.8489 36.5952 19.8567 36.3049 19.9945 35.9733L20.0587 35.8242C20.2779 35.3244 20.6458 34.4883 20.2324 33.6903C20.0987 33.4091 19.8983 33.1658 19.6491 32.9823C19.4 32.7987 19.1098 32.6806 18.8046 32.6384C18.5174 32.6021 18.2258 32.6353 17.9537 32.7351C17.6816 32.8349 17.4367 32.9986 17.239 33.2127C16.6331 33.8918 16.5376 34.8136 16.655 35.1404C16.6972 35.2594 16.7646 35.299 16.8115 35.299C16.9149 35.3133 17.0683 35.2372 17.1638 34.9817C17.1638 34.9627 17.1795 34.9341 17.1904 34.896C17.2495 34.6863 17.3342 34.4848 17.4425 34.2963C17.5202 34.1748 17.6209 34.0701 17.7389 33.9884C17.8569 33.9066 17.9898 33.8495 18.1298 33.8204C18.273 33.7886 18.4211 33.7863 18.5653 33.8135C18.7094 33.8408 18.8467 33.897 18.969 33.979C19.1757 34.1166 19.3292 34.3224 19.4034 34.5615C19.4776 34.8006 19.4679 35.0584 19.376 35.2911C19.231 35.6626 19.1587 36.0592 19.1631 36.4588C19.232 37.287 19.7346 37.6185 20.1855 37.655C20.3473 37.6699 20.51 37.6388 20.6554 37.5654C20.8008 37.492 20.9232 37.3792 21.009 37.2394C21.0284 37.2066 21.0369 37.1684 21.0333 37.1304C21.0296 37.0924 21.014 37.0566 20.9887 37.0283Z" fill="#45474F"/>
<path d="M46.3198 35.5131C46.3026 35.4544 46.1946 35.0515 46.0443 34.5612C45.9591 34.2799 45.8577 34.0039 45.7405 33.7346C46.3402 32.824 46.3511 32.0101 46.2713 31.55C46.1817 30.9554 45.9029 30.4067 45.4775 29.9872C45.0078 29.4843 44.0371 28.9687 42.6781 28.5816L41.9642 28.3817C41.9642 28.3515 41.9266 26.6762 41.8953 25.9575C41.8816 25.2395 41.7753 24.5263 41.5791 23.8363C41.2832 22.7543 40.7665 21.8071 40.123 21.201C41.9 19.3353 43.0085 17.2791 43.0069 15.5149C43.0069 12.1229 38.8909 11.0964 33.8245 13.2224L32.752 13.6825C32.752 13.6825 30.8122 11.7501 30.7762 11.7247C25.0006 6.61925 6.94102 26.9554 12.7151 31.9022L13.977 32.9842C13.6361 33.9105 13.5154 34.9052 13.6247 35.8876C13.7609 37.2472 14.4529 38.5498 15.5739 39.5572C16.6385 40.5091 18.0398 41.1183 19.3988 41.1168C21.6517 46.365 26.7854 49.5825 32.8115 49.7649C39.2682 49.9585 44.6884 46.8886 46.9602 41.3738C47.1089 40.9867 47.743 39.2415 47.743 37.7025C47.743 36.1636 46.8693 35.5131 46.3198 35.5131ZM19.9013 39.6381C19.7038 39.6723 19.5035 39.6866 19.3033 39.6809C17.3525 39.6286 15.2451 37.8485 15.0369 35.7384C14.8052 33.4062 15.9763 31.6134 18.0633 31.1867C18.3507 31.1288 18.6442 31.1075 18.9369 31.1232C20.1033 31.1883 21.8224 32.0957 22.2153 34.6707C22.5629 36.9569 22.0087 39.2796 19.9013 39.6429V39.6381ZM17.7235 29.7905C16.4597 30.0302 15.3371 30.7577 14.5923 31.8197C14.1742 31.4659 13.3961 30.7837 13.2583 30.5171C12.1436 28.3706 14.4764 24.198 16.1062 21.842C20.133 16.0194 26.4394 11.6121 29.3593 12.4117C29.829 12.5465 31.4056 14.3948 31.4056 14.3948C29.4262 15.5438 27.5446 16.8577 25.7803 18.3231C22.1277 21.1725 19.3737 25.3086 17.7235 29.7953V29.7905ZM38.1942 38.7671C38.2155 38.7569 38.2332 38.7403 38.2449 38.7196C38.2566 38.6989 38.2619 38.6751 38.2599 38.6513C38.2588 38.637 38.2548 38.623 38.2482 38.6103C38.2416 38.5975 38.2326 38.5862 38.2217 38.577C38.2107 38.5679 38.1981 38.561 38.1845 38.5569C38.1709 38.5527 38.1566 38.5514 38.1425 38.5529C38.1425 38.5529 35.088 39.0114 32.2009 37.9405C32.5141 36.9061 33.3517 37.2789 34.6151 37.3821C36.5789 37.5016 38.5486 37.2871 40.4424 36.7475C41.7482 36.3667 43.4657 35.6178 44.7996 34.5517C45.0869 35.2243 45.2909 35.9304 45.407 36.6539C45.6276 36.6219 45.8524 36.6636 46.0474 36.7728C46.3214 36.9442 46.5171 37.3012 46.3856 38.2213C46.1053 39.9443 45.3836 41.3405 44.1702 42.6255C43.412 43.4568 42.5099 44.1403 41.5086 44.642C40.9504 44.9389 40.3685 45.1878 39.7692 45.3861C35.1944 46.8997 30.5116 45.2354 29.0023 41.6609C28.8802 41.3878 28.7787 41.1056 28.6986 40.8169C28.0567 38.4609 28.6015 35.6337 30.3096 33.8552C30.43 33.7496 30.5061 33.6016 30.5226 33.4411C30.507 33.2965 30.4498 33.1597 30.3582 33.0477C29.7601 32.1703 27.6966 30.6679 28.1068 27.7788C28.4043 25.6989 30.2001 24.2345 31.8737 24.3217L32.298 24.3455C33.0229 24.39 33.6554 24.4836 34.2519 24.5042C35.2508 24.5486 36.1495 24.4011 37.2141 23.5031C37.5726 23.1985 37.8607 22.9367 38.3476 22.8526C38.4891 22.8156 38.6354 22.8012 38.7813 22.8098C39.0412 22.8197 39.2935 22.9014 39.5109 23.0462C40.3641 23.6221 40.4847 25.0151 40.5285 26.0336C40.5536 26.6159 40.624 28.0231 40.6475 28.4277C40.7008 29.3511 40.9403 29.4811 41.4303 29.643C41.7028 29.735 41.9564 29.8016 42.329 29.9079C43.4594 30.2252 44.1279 30.5552 44.5506 30.9741C44.7691 31.1906 44.9115 31.4737 44.9561 31.78C45.0892 32.7637 44.2015 33.9805 41.8515 35.0848C39.2839 36.2921 36.1682 36.5983 34.0233 36.354L33.2687 36.2683C31.5465 36.0319 30.5648 38.288 31.5982 39.8317C32.2636 40.828 34.0781 41.4753 35.8927 41.4769C40.0541 41.4769 43.2512 39.6762 44.4426 38.1214C44.4786 38.0738 44.4818 38.069 44.5381 37.9834C44.5945 37.8977 44.5475 37.8453 44.4755 37.8945C43.5032 38.5688 39.1852 41.2453 34.5666 40.433C34.2009 40.3683 33.8419 40.2695 33.4941 40.1379C33.0871 39.9792 32.2338 39.581 32.1305 38.6941C35.8473 39.8761 38.1942 38.7719 38.1942 38.7719V38.7671ZM25.1603 21.823C26.5913 20.1476 28.3542 18.6896 29.9323 17.8709C29.9441 17.8652 29.9573 17.8634 29.9702 17.8657C29.983 17.868 29.9949 17.8743 30.004 17.8837C30.0131 17.8932 30.0191 17.9053 30.0212 17.9183C30.0232 17.9314 30.0212 17.9448 30.0153 17.9566C29.8225 18.3016 29.6736 18.6699 29.5722 19.0529C29.569 19.0657 29.5696 19.0793 29.5742 19.0917C29.5787 19.1042 29.5869 19.1149 29.5976 19.1225C29.6084 19.1301 29.6211 19.1342 29.6342 19.1342C29.6473 19.1343 29.6601 19.1302 29.6709 19.1227C30.6541 18.4437 32.3622 17.717 33.8605 17.6234C33.8744 17.6227 33.8882 17.6265 33.8999 17.6343C33.9116 17.6421 33.9205 17.6534 33.9254 17.6667C33.9303 17.6799 33.9308 17.6944 33.9271 17.708C33.9233 17.7216 33.9153 17.7337 33.9043 17.7424C33.6569 17.9363 33.4354 18.1619 33.2452 18.4135C33.2384 18.4231 33.2343 18.4344 33.2333 18.4461C33.2323 18.4579 33.2345 18.4697 33.2396 18.4804C33.2448 18.491 33.2527 18.4999 33.2625 18.5063C33.2723 18.5127 33.2837 18.5163 33.2953 18.5166C34.5169 18.5588 35.7139 18.8764 36.7992 19.4463C36.8634 19.4844 36.818 19.605 36.7444 19.5955C34.6548 19.1178 32.4859 19.1238 30.3989 19.6129C28.1788 20.1619 26.4848 21.0091 25.2464 21.9197C25.2337 21.9313 25.217 21.9373 25.2 21.9364C25.183 21.9355 25.167 21.9278 25.1556 21.915C25.1442 21.9022 25.1382 21.8852 25.1391 21.868C25.14 21.8507 25.1476 21.8345 25.1603 21.823Z" fill="#45474F"/>
</svg>
