<svg width="60" height="60" viewBox="0 0 60 60" fill="none" xmlns="http://www.w3.org/2000/svg">
<circle cx="30" cy="30" r="30" fill="#F8F9F9"/>
<path d="M8.71739 34.8218L4.48298 28.5497L4.43205 28.5634C4.48482 28.7151 4.55464 28.9228 4.64151 29.1867C4.72839 29.4505 4.81843 29.7337 4.91164 30.0363C5.00485 30.3389 5.08887 30.6298 5.16368 30.909L6.37993 35.4481L5.14611 35.7787L2.92896 27.5042L4.83629 26.9932L8.89825 32.9839L8.93221 32.9748L9.53386 25.7344L11.4355 25.2249L13.6527 33.4994L12.3566 33.8467L11.1222 29.2397C11.0544 28.9869 10.9849 28.7123 10.9136 28.416C10.846 28.1186 10.7825 27.8364 10.7231 27.5692C10.6674 27.3011 10.6221 27.0868 10.5872 26.9263L10.5419 26.9384L9.91726 34.5003L8.71739 34.8218ZM21.0975 31.5046L16.4112 32.7603L14.1941 24.4857L18.8803 23.2301L19.1867 24.3733L15.8587 25.265L16.4608 27.512L19.5793 26.6764L19.8841 27.814L16.7656 28.6496L17.4617 31.2474L20.7896 30.3557L21.0975 31.5046ZM27.0368 29.9131L22.8024 23.6411L22.7514 23.6547C22.8042 23.8064 22.874 24.0142 22.9609 24.278C23.0478 24.5419 23.1378 24.8251 23.231 25.1277C23.3242 25.4303 23.4083 25.7212 23.4831 26.0004L24.6993 30.5395L23.4655 30.8701L21.2483 22.5956L23.1557 22.0845L27.2176 28.0752L27.2516 28.0661L27.8532 20.8258L29.7549 20.3162L31.9721 28.5907L30.676 28.938L29.4415 24.331C29.3738 24.0782 29.3043 23.8036 29.233 23.5073C29.1654 23.21 29.1019 22.9277 29.0425 22.6606C28.9868 22.3924 28.9415 22.1781 28.9066 22.0176L28.8613 22.0297L28.2366 29.5916L27.0368 29.9131ZM32.5135 19.5771L34.9754 18.9174C36.0432 18.6313 36.8903 18.5701 37.5165 18.7339C38.1427 18.8978 38.5575 19.3589 38.7607 20.1173C38.8456 20.4342 38.8658 20.7361 38.8214 21.023C38.7797 21.3052 38.6755 21.5575 38.5086 21.7802C38.3408 21.999 38.1098 22.1782 37.8156 22.3177L37.8307 22.3743C38.1666 22.345 38.4783 22.3686 38.7657 22.4453C39.0569 22.5209 39.3101 22.6735 39.5253 22.903C39.7442 23.1314 39.9108 23.4588 40.0251 23.8852C40.1605 24.3908 40.155 24.8533 40.0086 25.2727C39.8659 25.691 39.5967 26.0523 39.2011 26.3565C38.8091 26.6597 38.3094 26.8927 37.702 27.0554L34.7306 27.8516L32.5135 19.5771ZM34.7863 22.6259L36.088 22.2771C36.703 22.1123 37.1026 21.8981 37.2867 21.6344C37.4708 21.3708 37.5113 21.0465 37.4082 20.6616C37.3031 20.2692 37.0857 20.0242 36.7563 19.9264C36.4305 19.8277 35.962 19.8602 35.3508 20.024L34.1736 20.3394L34.7863 22.6259ZM35.0805 23.7239L35.7841 26.35L37.216 25.9663C37.8499 25.7965 38.2623 25.5546 38.4531 25.2406C38.644 24.9266 38.6833 24.5602 38.5711 24.1413C38.5024 23.8848 38.3842 23.6778 38.2167 23.5205C38.053 23.3622 37.8273 23.267 37.5396 23.2348C37.251 23.1989 36.8859 23.2401 36.4444 23.3584L35.0805 23.7239ZM47.637 24.3933L42.9508 25.649L40.7336 17.3745L45.4199 16.1188L45.7262 17.2621L42.3983 18.1538L43.0004 20.4007L46.1189 19.5651L46.4237 20.7027L43.3052 21.5383L44.0013 24.1361L47.3292 23.2444L47.637 24.3933ZM50.1141 14.861C50.8272 14.6699 51.439 14.599 51.9497 14.6482C52.464 14.6964 52.8819 14.8675 53.2034 15.1615C53.5286 15.4545 53.7644 15.8746 53.911 16.4217C54.0202 16.8292 54.0378 17.1965 53.9637 17.5237C53.8896 17.8509 53.7552 18.1417 53.5605 18.3961C53.3658 18.6505 53.144 18.8717 52.8951 19.0597L56.2251 22.0922L54.6913 22.5031L51.8048 19.7219L50.4747 20.0783L51.3634 23.3949L50.0051 23.7588L47.7879 15.4843L50.1141 14.861ZM50.3268 16.0172L49.4496 16.2523L50.1744 18.9576L51.114 18.7059C51.7441 18.537 52.1693 18.2977 52.3896 17.988C52.6137 17.6772 52.6645 17.2936 52.5422 16.837C52.4138 16.3578 52.17 16.0592 51.8108 15.9411C51.4554 15.822 50.9607 15.8474 50.3268 16.0172ZM24.5828 40.6181C24.7537 41.2558 24.8282 41.8586 24.8065 42.4265C24.7876 42.9897 24.6683 43.5029 24.4487 43.9661C24.228 44.4256 23.9035 44.8219 23.4752 45.1551C23.0468 45.4883 22.5081 45.7418 21.8591 45.9157C21.1988 46.0926 20.598 46.1444 20.0567 46.0711C19.5191 45.9967 19.0395 45.8139 18.6176 45.5225C18.1996 45.2301 17.8411 44.8429 17.5421 44.3609C17.2431 43.8789 17.0081 43.3191 16.8373 42.6814C16.6088 41.8287 16.5492 41.048 16.6586 40.3393C16.7707 39.6258 17.0665 39.0167 17.546 38.5122C18.0283 38.0028 18.709 37.6303 19.5881 37.3948C20.4484 37.1643 21.2104 37.1481 21.8742 37.3464C22.5379 37.5446 23.0968 37.9246 23.5506 38.4865C24.0072 39.0435 24.3513 39.7541 24.5828 40.6181ZM18.2666 42.3106C18.4374 42.9482 18.6723 43.4777 18.9712 43.8991C19.2692 44.3167 19.6312 44.6039 20.0574 44.7606C20.4863 44.9126 20.9838 44.9127 21.5498 44.7611C22.1195 44.6084 22.5503 44.3596 22.842 44.0145C23.1327 43.6656 23.3008 43.2364 23.3462 42.7268C23.3906 42.2135 23.3274 41.638 23.1566 41.0003C22.8967 40.0306 22.4992 39.3243 21.964 38.8813C21.4315 38.4335 20.7427 38.3229 19.8975 38.5493C19.3315 38.701 18.8989 38.9504 18.5996 39.2975C18.3041 39.6436 18.1318 40.0719 18.0826 40.5825C18.0323 41.0893 18.0937 41.6654 18.2666 42.3106ZM34.956 42.2851L33.2864 42.7324L27.4642 37.2134L27.4133 37.227C27.488 37.4456 27.5644 37.6779 27.6425 37.9239C27.7243 38.1689 27.8044 38.4224 27.8827 38.6845C27.9648 38.9456 28.046 39.211 28.1263 39.4806L29.2849 43.8046L28.0511 44.1352L25.834 35.8607L27.4923 35.4164L33.2966 40.8917L33.3362 40.8811C33.2771 40.6907 33.2085 40.4725 33.1305 40.2265C33.0525 39.9805 32.9724 39.7269 32.8903 39.4658C32.811 39.2 32.7361 38.943 32.6656 38.695L31.4993 34.3427L32.7388 34.0106L34.956 42.2851ZM37.7089 41.5474L35.4917 33.2729L36.8501 32.909L38.7578 40.0289L42.2725 39.0871L42.5819 40.2417L37.7089 41.5474ZM45.7308 34.5754L46.6833 30.2742L48.1491 29.8814L46.7543 35.6782L47.6156 38.8929L46.263 39.2554L45.4152 36.0916L41.2895 31.7194L42.7667 31.3236L45.7308 34.5754Z" fill="#45474F"/>
</svg>
