<svg width="74" height="74" viewBox="0 0 74 74" fill="none" xmlns="http://www.w3.org/2000/svg">
<circle cx="37" cy="37" r="37" fill="white"/>
<path d="M33.6523 29.4617H25.3358C25.6709 26.0193 27.0112 23.2471 29.3569 21.1451C31.5808 19.165 34.5053 18.1749 38.1304 18.1749C41.3291 18.1749 43.9642 19.0584 46.0357 20.8253C48.1072 22.5921 49.143 25.0444 49.143 28.1822C49.143 29.6444 48.8383 31.0305 48.2291 32.3405C47.6198 33.6199 46.7211 34.5948 45.5331 35.265C47.2695 35.7219 48.6403 36.8186 49.6456 38.555C50.6509 40.261 51.1536 42.0583 51.1536 43.947C51.1536 46.3537 50.4986 48.4404 49.1887 50.2073C47.9092 51.9742 46.2642 53.2689 44.2536 54.0914C42.2735 54.9444 40.1105 55.3709 37.7649 55.3709C33.4695 55.3709 30.0424 54.0762 27.4834 51.4868C26.3867 50.3596 25.4424 48.9888 24.6503 47.3742C23.8887 45.7596 23.5232 44.2364 23.5536 42.8047H32.6927C32.6927 44.206 33.1344 45.3788 34.0178 46.3232C34.9318 47.2371 36.0894 47.6941 37.4907 47.6941C38.892 47.6941 40.0344 47.2676 40.9178 46.4146C41.8317 45.5616 42.2887 44.4497 42.2887 43.0788C42.2887 41.7994 41.8165 40.7179 40.8721 39.8345C39.9278 38.9206 38.8158 38.4636 37.5364 38.4636C37.1708 38.4636 36.6529 38.555 35.9827 38.7378V32.7517H36.8966C38.0543 32.7517 38.9986 32.4166 39.7298 31.7464C40.4609 31.0458 40.8264 30.1166 40.8264 28.959C40.8264 27.9232 40.4913 27.0855 39.8211 26.4458C39.1509 25.806 38.3132 25.4862 37.3079 25.4862C36.1808 25.4862 35.2821 25.867 34.6119 26.6285C33.9417 27.3597 33.6218 28.304 33.6523 29.4617Z" fill="#1A2136"/>
</svg>
