<svg width="8" height="549" viewBox="0 0 8 549" fill="none" xmlns="http://www.w3.org/2000/svg">
<path d="M6.20825 548L0.999919 540.3L6.20825 532.592L0.999918 524.892L6.20825 517.183L0.999917 509.483L6.20825 501.775L0.999917 494.075L6.20825 486.366L0.999916 478.658L6.20825 470.958L0.999915 463.249L6.20825 455.549L0.999915 447.841L6.20825 440.141L0.999914 432.432L6.20825 424.724L0.999913 417.024L6.20825 409.315L0.999913 401.607L6.20825 393.907L0.999912 386.198L6.20824 378.49L0.999911 370.79L6.20824 363.081L0.999911 355.373L6.20824 347.664L0.99991 339.964L6.20824 332.256L0.999909 324.547L6.20824 316.838L0.999908 309.13L6.20824 301.421L0.999908 293.721L6.20824 286.013L0.999907 278.304L6.20824 270.596L0.999906 262.887L6.20824 255.178L0.999906 247.478L6.20824 239.761L0.999905 232.061L6.20824 224.353L0.999904 216.644L6.20824 208.935L0.999904 201.227L6.20824 193.518L0.999903 185.81L6.20824 178.101L0.999902 170.392L6.20824 162.693L0.999902 154.984L6.20823 147.275L0.999901 139.567L6.20823 131.858L0.9999 124.15L6.20823 116.441L0.9999 108.732L6.20823 101.024L0.999899 93.3152L6.20823 85.6066L0.999898 77.898L6.20823 70.1806L0.999898 62.472L6.20823 54.7634L0.999897 47.0548L6.20823 39.3462L0.999896 31.6288L6.20823 23.9203L0.999896 16.2028L6.20823 8.48547L0.999895 0.768128" stroke="white" stroke-width="1.5" stroke-miterlimit="10"/>
</svg>
