<svg width="9" height="429" viewBox="0 0 9 429" fill="none" xmlns="http://www.w3.org/2000/svg">
<path d="M9 4.5C9 6.98528 6.98528 9 4.5 9C2.01472 9 0 6.98528 0 4.5C0 2.01472 2.01472 0 4.5 0C6.98528 0 9 2.01472 9 4.5Z" fill="url(#paint0_linear_7453_15986)"/>
<path d="M9 16.5C9 18.9853 6.98528 21 4.5 21C2.01472 21 0 18.9853 0 16.5C0 14.0147 2.01472 12 4.5 12C6.98528 12 9 14.0147 9 16.5Z" fill="url(#paint1_linear_7453_15986)"/>
<path d="M9 28.5C9 30.9853 6.98528 33 4.5 33C2.01472 33 0 30.9853 0 28.5C0 26.0147 2.01472 24 4.5 24C6.98528 24 9 26.0147 9 28.5Z" fill="url(#paint2_linear_7453_15986)"/>
<path d="M9 40.5C9 42.9853 6.98528 45 4.5 45C2.01472 45 0 42.9853 0 40.5C0 38.0147 2.01472 36 4.5 36C6.98528 36 9 38.0147 9 40.5Z" fill="url(#paint3_linear_7453_15986)"/>
<path d="M9 52.5C9 54.9853 6.98528 57 4.5 57C2.01472 57 0 54.9853 0 52.5C0 50.0147 2.01472 48 4.5 48C6.98528 48 9 50.0147 9 52.5Z" fill="url(#paint4_linear_7453_15986)"/>
<path d="M9 64.5C9 66.9853 6.98528 69 4.5 69C2.01472 69 0 66.9853 0 64.5C0 62.0147 2.01472 60 4.5 60C6.98528 60 9 62.0147 9 64.5Z" fill="url(#paint5_linear_7453_15986)"/>
<path d="M9 76.5C9 78.9853 6.98528 81 4.5 81C2.01472 81 0 78.9853 0 76.5C0 74.0147 2.01472 72 4.5 72C6.98528 72 9 74.0147 9 76.5Z" fill="url(#paint6_linear_7453_15986)"/>
<path d="M9 88.5C9 90.9853 6.98528 93 4.5 93C2.01472 93 0 90.9853 0 88.5C0 86.0147 2.01472 84 4.5 84C6.98528 84 9 86.0147 9 88.5Z" fill="url(#paint7_linear_7453_15986)"/>
<path d="M9 100.5C9 102.985 6.98528 105 4.5 105C2.01472 105 0 102.985 0 100.5C0 98.0147 2.01472 96 4.5 96C6.98528 96 9 98.0147 9 100.5Z" fill="url(#paint8_linear_7453_15986)"/>
<path d="M9 112.5C9 114.985 6.98528 117 4.5 117C2.01472 117 0 114.985 0 112.5C0 110.015 2.01472 108 4.5 108C6.98528 108 9 110.015 9 112.5Z" fill="url(#paint9_linear_7453_15986)"/>
<path d="M9 124.5C9 126.985 6.98528 129 4.5 129C2.01472 129 0 126.985 0 124.5C0 122.015 2.01472 120 4.5 120C6.98528 120 9 122.015 9 124.5Z" fill="url(#paint10_linear_7453_15986)"/>
<path d="M9 136.5C9 138.985 6.98528 141 4.5 141C2.01472 141 0 138.985 0 136.5C0 134.015 2.01472 132 4.5 132C6.98528 132 9 134.015 9 136.5Z" fill="url(#paint11_linear_7453_15986)"/>
<path d="M9 148.5C9 150.985 6.98528 153 4.5 153C2.01472 153 0 150.985 0 148.5C0 146.015 2.01472 144 4.5 144C6.98528 144 9 146.015 9 148.5Z" fill="url(#paint12_linear_7453_15986)"/>
<path d="M9 160.5C9 162.985 6.98528 165 4.5 165C2.01472 165 0 162.985 0 160.5C0 158.015 2.01472 156 4.5 156C6.98528 156 9 158.015 9 160.5Z" fill="url(#paint13_linear_7453_15986)"/>
<path d="M9 172.5C9 174.985 6.98528 177 4.5 177C2.01472 177 0 174.985 0 172.5C0 170.015 2.01472 168 4.5 168C6.98528 168 9 170.015 9 172.5Z" fill="url(#paint14_linear_7453_15986)"/>
<path d="M9 184.5C9 186.985 6.98528 189 4.5 189C2.01472 189 0 186.985 0 184.5C0 182.015 2.01472 180 4.5 180C6.98528 180 9 182.015 9 184.5Z" fill="url(#paint15_linear_7453_15986)"/>
<path d="M9 196.5C9 198.985 6.98528 201 4.5 201C2.01472 201 0 198.985 0 196.5C0 194.015 2.01472 192 4.5 192C6.98528 192 9 194.015 9 196.5Z" fill="url(#paint16_linear_7453_15986)"/>
<path d="M9 208.5C9 210.985 6.98528 213 4.5 213C2.01472 213 0 210.985 0 208.5C0 206.015 2.01472 204 4.5 204C6.98528 204 9 206.015 9 208.5Z" fill="url(#paint17_linear_7453_15986)"/>
<path d="M9 220.5C9 222.985 6.98528 225 4.5 225C2.01472 225 0 222.985 0 220.5C0 218.015 2.01472 216 4.5 216C6.98528 216 9 218.015 9 220.5Z" fill="url(#paint18_linear_7453_15986)"/>
<path d="M9 232.5C9 234.985 6.98528 237 4.5 237C2.01472 237 0 234.985 0 232.5C0 230.015 2.01472 228 4.5 228C6.98528 228 9 230.015 9 232.5Z" fill="url(#paint19_linear_7453_15986)"/>
<path d="M9 244.5C9 246.985 6.98528 249 4.5 249C2.01472 249 0 246.985 0 244.5C0 242.015 2.01472 240 4.5 240C6.98528 240 9 242.015 9 244.5Z" fill="url(#paint20_linear_7453_15986)"/>
<path d="M9 256.5C9 258.985 6.98528 261 4.5 261C2.01472 261 0 258.985 0 256.5C0 254.015 2.01472 252 4.5 252C6.98528 252 9 254.015 9 256.5Z" fill="url(#paint21_linear_7453_15986)"/>
<path d="M9 268.5C9 270.985 6.98528 273 4.5 273C2.01472 273 0 270.985 0 268.5C0 266.015 2.01472 264 4.5 264C6.98528 264 9 266.015 9 268.5Z" fill="url(#paint22_linear_7453_15986)"/>
<path d="M9 280.5C9 282.985 6.98528 285 4.5 285C2.01472 285 0 282.985 0 280.5C0 278.015 2.01472 276 4.5 276C6.98528 276 9 278.015 9 280.5Z" fill="url(#paint23_linear_7453_15986)"/>
<path d="M9 292.5C9 294.985 6.98528 297 4.5 297C2.01472 297 0 294.985 0 292.5C0 290.015 2.01472 288 4.5 288C6.98528 288 9 290.015 9 292.5Z" fill="url(#paint24_linear_7453_15986)"/>
<path d="M9 304.5C9 306.985 6.98528 309 4.5 309C2.01472 309 0 306.985 0 304.5C0 302.015 2.01472 300 4.5 300C6.98528 300 9 302.015 9 304.5Z" fill="url(#paint25_linear_7453_15986)"/>
<path d="M9 316.5C9 318.985 6.98528 321 4.5 321C2.01472 321 0 318.985 0 316.5C0 314.015 2.01472 312 4.5 312C6.98528 312 9 314.015 9 316.5Z" fill="url(#paint26_linear_7453_15986)"/>
<path d="M9 328.5C9 330.985 6.98528 333 4.5 333C2.01472 333 0 330.985 0 328.5C0 326.015 2.01472 324 4.5 324C6.98528 324 9 326.015 9 328.5Z" fill="url(#paint27_linear_7453_15986)"/>
<path d="M9 340.5C9 342.985 6.98528 345 4.5 345C2.01472 345 0 342.985 0 340.5C0 338.015 2.01472 336 4.5 336C6.98528 336 9 338.015 9 340.5Z" fill="url(#paint28_linear_7453_15986)"/>
<path d="M9 352.5C9 354.985 6.98528 357 4.5 357C2.01472 357 0 354.985 0 352.5C0 350.015 2.01472 348 4.5 348C6.98528 348 9 350.015 9 352.5Z" fill="url(#paint29_linear_7453_15986)"/>
<path d="M9 364.5C9 366.985 6.98528 369 4.5 369C2.01472 369 0 366.985 0 364.5C0 362.015 2.01472 360 4.5 360C6.98528 360 9 362.015 9 364.5Z" fill="url(#paint30_linear_7453_15986)"/>
<path d="M9 376.5C9 378.985 6.98528 381 4.5 381C2.01472 381 0 378.985 0 376.5C0 374.015 2.01472 372 4.5 372C6.98528 372 9 374.015 9 376.5Z" fill="url(#paint31_linear_7453_15986)"/>
<path d="M9 388.5C9 390.985 6.98528 393 4.5 393C2.01472 393 0 390.985 0 388.5C0 386.015 2.01472 384 4.5 384C6.98528 384 9 386.015 9 388.5Z" fill="url(#paint32_linear_7453_15986)"/>
<path d="M9 400.5C9 402.985 6.98528 405 4.5 405C2.01472 405 0 402.985 0 400.5C0 398.015 2.01472 396 4.5 396C6.98528 396 9 398.015 9 400.5Z" fill="url(#paint33_linear_7453_15986)"/>
<path d="M9 412.5C9 414.985 6.98528 417 4.5 417C2.01472 417 0 414.985 0 412.5C0 410.015 2.01472 408 4.5 408C6.98528 408 9 410.015 9 412.5Z" fill="url(#paint34_linear_7453_15986)"/>
<path d="M9 424.5C9 426.985 6.98528 429 4.5 429C2.01472 429 0 426.985 0 424.5C0 422.015 2.01472 420 4.5 420C6.98528 420 9 422.015 9 424.5Z" fill="url(#paint35_linear_7453_15986)"/>
<defs>
<linearGradient id="paint0_linear_7453_15986" x1="4.5" y1="0" x2="4.5" y2="429" gradientUnits="userSpaceOnUse">
<stop stop-color="#1E273E"/>
<stop offset="1" stop-color="#242E4A"/>
</linearGradient>
<linearGradient id="paint1_linear_7453_15986" x1="4.5" y1="0" x2="4.5" y2="429" gradientUnits="userSpaceOnUse">
<stop stop-color="#1E273E"/>
<stop offset="1" stop-color="#242E4A"/>
</linearGradient>
<linearGradient id="paint2_linear_7453_15986" x1="4.5" y1="0" x2="4.5" y2="429" gradientUnits="userSpaceOnUse">
<stop stop-color="#1E273E"/>
<stop offset="1" stop-color="#242E4A"/>
</linearGradient>
<linearGradient id="paint3_linear_7453_15986" x1="4.5" y1="0" x2="4.5" y2="429" gradientUnits="userSpaceOnUse">
<stop stop-color="#1E273E"/>
<stop offset="1" stop-color="#242E4A"/>
</linearGradient>
<linearGradient id="paint4_linear_7453_15986" x1="4.5" y1="0" x2="4.5" y2="429" gradientUnits="userSpaceOnUse">
<stop stop-color="#1E273E"/>
<stop offset="1" stop-color="#242E4A"/>
</linearGradient>
<linearGradient id="paint5_linear_7453_15986" x1="4.5" y1="0" x2="4.5" y2="429" gradientUnits="userSpaceOnUse">
<stop stop-color="#1E273E"/>
<stop offset="1" stop-color="#242E4A"/>
</linearGradient>
<linearGradient id="paint6_linear_7453_15986" x1="4.5" y1="0" x2="4.5" y2="429" gradientUnits="userSpaceOnUse">
<stop stop-color="#1E273E"/>
<stop offset="1" stop-color="#242E4A"/>
</linearGradient>
<linearGradient id="paint7_linear_7453_15986" x1="4.5" y1="0" x2="4.5" y2="429" gradientUnits="userSpaceOnUse">
<stop stop-color="#1E273E"/>
<stop offset="1" stop-color="#242E4A"/>
</linearGradient>
<linearGradient id="paint8_linear_7453_15986" x1="4.5" y1="0" x2="4.5" y2="429" gradientUnits="userSpaceOnUse">
<stop stop-color="#1E273E"/>
<stop offset="1" stop-color="#242E4A"/>
</linearGradient>
<linearGradient id="paint9_linear_7453_15986" x1="4.5" y1="0" x2="4.5" y2="429" gradientUnits="userSpaceOnUse">
<stop stop-color="#1E273E"/>
<stop offset="1" stop-color="#242E4A"/>
</linearGradient>
<linearGradient id="paint10_linear_7453_15986" x1="4.5" y1="0" x2="4.5" y2="429" gradientUnits="userSpaceOnUse">
<stop stop-color="#1E273E"/>
<stop offset="1" stop-color="#242E4A"/>
</linearGradient>
<linearGradient id="paint11_linear_7453_15986" x1="4.5" y1="0" x2="4.5" y2="429" gradientUnits="userSpaceOnUse">
<stop stop-color="#1E273E"/>
<stop offset="1" stop-color="#242E4A"/>
</linearGradient>
<linearGradient id="paint12_linear_7453_15986" x1="4.5" y1="0" x2="4.5" y2="429" gradientUnits="userSpaceOnUse">
<stop stop-color="#1E273E"/>
<stop offset="1" stop-color="#242E4A"/>
</linearGradient>
<linearGradient id="paint13_linear_7453_15986" x1="4.5" y1="0" x2="4.5" y2="429" gradientUnits="userSpaceOnUse">
<stop stop-color="#1E273E"/>
<stop offset="1" stop-color="#242E4A"/>
</linearGradient>
<linearGradient id="paint14_linear_7453_15986" x1="4.5" y1="0" x2="4.5" y2="429" gradientUnits="userSpaceOnUse">
<stop stop-color="#1E273E"/>
<stop offset="1" stop-color="#242E4A"/>
</linearGradient>
<linearGradient id="paint15_linear_7453_15986" x1="4.5" y1="0" x2="4.5" y2="429" gradientUnits="userSpaceOnUse">
<stop stop-color="#1E273E"/>
<stop offset="1" stop-color="#242E4A"/>
</linearGradient>
<linearGradient id="paint16_linear_7453_15986" x1="4.5" y1="0" x2="4.5" y2="429" gradientUnits="userSpaceOnUse">
<stop stop-color="#1E273E"/>
<stop offset="1" stop-color="#242E4A"/>
</linearGradient>
<linearGradient id="paint17_linear_7453_15986" x1="4.5" y1="0" x2="4.5" y2="429" gradientUnits="userSpaceOnUse">
<stop stop-color="#1E273E"/>
<stop offset="1" stop-color="#242E4A"/>
</linearGradient>
<linearGradient id="paint18_linear_7453_15986" x1="4.5" y1="0" x2="4.5" y2="429" gradientUnits="userSpaceOnUse">
<stop stop-color="#1E273E"/>
<stop offset="1" stop-color="#242E4A"/>
</linearGradient>
<linearGradient id="paint19_linear_7453_15986" x1="4.5" y1="0" x2="4.5" y2="429" gradientUnits="userSpaceOnUse">
<stop stop-color="#1E273E"/>
<stop offset="1" stop-color="#242E4A"/>
</linearGradient>
<linearGradient id="paint20_linear_7453_15986" x1="4.5" y1="0" x2="4.5" y2="429" gradientUnits="userSpaceOnUse">
<stop stop-color="#1E273E"/>
<stop offset="1" stop-color="#242E4A"/>
</linearGradient>
<linearGradient id="paint21_linear_7453_15986" x1="4.5" y1="0" x2="4.5" y2="429" gradientUnits="userSpaceOnUse">
<stop stop-color="#1E273E"/>
<stop offset="1" stop-color="#242E4A"/>
</linearGradient>
<linearGradient id="paint22_linear_7453_15986" x1="4.5" y1="0" x2="4.5" y2="429" gradientUnits="userSpaceOnUse">
<stop stop-color="#1E273E"/>
<stop offset="1" stop-color="#242E4A"/>
</linearGradient>
<linearGradient id="paint23_linear_7453_15986" x1="4.5" y1="0" x2="4.5" y2="429" gradientUnits="userSpaceOnUse">
<stop stop-color="#1E273E"/>
<stop offset="1" stop-color="#242E4A"/>
</linearGradient>
<linearGradient id="paint24_linear_7453_15986" x1="4.5" y1="0" x2="4.5" y2="429" gradientUnits="userSpaceOnUse">
<stop stop-color="#1E273E"/>
<stop offset="1" stop-color="#242E4A"/>
</linearGradient>
<linearGradient id="paint25_linear_7453_15986" x1="4.5" y1="0" x2="4.5" y2="429" gradientUnits="userSpaceOnUse">
<stop stop-color="#1E273E"/>
<stop offset="1" stop-color="#242E4A"/>
</linearGradient>
<linearGradient id="paint26_linear_7453_15986" x1="4.5" y1="0" x2="4.5" y2="429" gradientUnits="userSpaceOnUse">
<stop stop-color="#1E273E"/>
<stop offset="1" stop-color="#242E4A"/>
</linearGradient>
<linearGradient id="paint27_linear_7453_15986" x1="4.5" y1="0" x2="4.5" y2="429" gradientUnits="userSpaceOnUse">
<stop stop-color="#1E273E"/>
<stop offset="1" stop-color="#242E4A"/>
</linearGradient>
<linearGradient id="paint28_linear_7453_15986" x1="4.5" y1="0" x2="4.5" y2="429" gradientUnits="userSpaceOnUse">
<stop stop-color="#1E273E"/>
<stop offset="1" stop-color="#242E4A"/>
</linearGradient>
<linearGradient id="paint29_linear_7453_15986" x1="4.5" y1="0" x2="4.5" y2="429" gradientUnits="userSpaceOnUse">
<stop stop-color="#1E273E"/>
<stop offset="1" stop-color="#242E4A"/>
</linearGradient>
<linearGradient id="paint30_linear_7453_15986" x1="4.5" y1="0" x2="4.5" y2="429" gradientUnits="userSpaceOnUse">
<stop stop-color="#1E273E"/>
<stop offset="1" stop-color="#242E4A"/>
</linearGradient>
<linearGradient id="paint31_linear_7453_15986" x1="4.5" y1="0" x2="4.5" y2="429" gradientUnits="userSpaceOnUse">
<stop stop-color="#1E273E"/>
<stop offset="1" stop-color="#242E4A"/>
</linearGradient>
<linearGradient id="paint32_linear_7453_15986" x1="4.5" y1="0" x2="4.5" y2="429" gradientUnits="userSpaceOnUse">
<stop stop-color="#1E273E"/>
<stop offset="1" stop-color="#242E4A"/>
</linearGradient>
<linearGradient id="paint33_linear_7453_15986" x1="4.5" y1="0" x2="4.5" y2="429" gradientUnits="userSpaceOnUse">
<stop stop-color="#1E273E"/>
<stop offset="1" stop-color="#242E4A"/>
</linearGradient>
<linearGradient id="paint34_linear_7453_15986" x1="4.5" y1="0" x2="4.5" y2="429" gradientUnits="userSpaceOnUse">
<stop stop-color="#1E273E"/>
<stop offset="1" stop-color="#242E4A"/>
</linearGradient>
<linearGradient id="paint35_linear_7453_15986" x1="4.5" y1="0" x2="4.5" y2="429" gradientUnits="userSpaceOnUse">
<stop stop-color="#1E273E"/>
<stop offset="1" stop-color="#242E4A"/>
</linearGradient>
</defs>
</svg>
