<svg width="1243" height="1491" viewBox="0 0 1243 1491" fill="none" xmlns="http://www.w3.org/2000/svg">
<g opacity="0.5">
<path d="M106.152 173.361C106.152 149.497 125.437 130.153 149.226 130.153C173.014 130.153 192.299 149.497 192.299 173.361C192.299 184.427 188.152 194.522 181.331 202.166" stroke="#1A2136" stroke-width="31.627" stroke-linecap="round" stroke-linejoin="round"/>
<circle cx="133.746" cy="217.645" r="15.4795" fill="#1A2136"/>
</g>
<g opacity="0.5">
<path d="M95.1523 183.361C95.1523 159.497 114.437 140.153 138.226 140.153C162.014 140.153 181.299 159.497 181.299 183.361C181.299 194.427 177.152 204.522 170.331 212.166" stroke="#1A2136" stroke-width="31.627" stroke-linecap="round" stroke-linejoin="round"/>
<circle cx="126.479" cy="222.479" r="15.4795" fill="#1A2136"/>
</g>
<g opacity="0.5">
<path d="M1021.15 1307.36C1021.15 1283.5 1040.44 1264.15 1064.23 1264.15C1088.01 1264.15 1107.3 1283.5 1107.3 1307.36C1107.3 1318.43 1103.15 1328.52 1096.33 1336.17" stroke="#1A2136" stroke-width="31.627" stroke-linecap="round" stroke-linejoin="round"/>
<circle cx="1048.75" cy="1351.65" r="15.4795" fill="#1A2136"/>
</g>
<g opacity="0.5">
<path d="M1010.15 1317.36C1010.15 1293.5 1029.44 1274.15 1053.23 1274.15C1077.01 1274.15 1096.3 1293.5 1096.3 1317.36C1096.3 1328.43 1092.15 1338.52 1085.33 1346.17" stroke="#1A2136" stroke-width="31.627" stroke-linecap="round" stroke-linejoin="round"/>
<circle cx="1041.48" cy="1356.48" r="15.4795" fill="#1A2136"/>
</g>
<g opacity="0.5">
<path d="M1104.15 625.553C1104.15 602.136 1123.1 583.152 1146.46 583.152C1161.07 583.152 1173.95 590.567 1181.55 601.845" stroke="#1A2136" stroke-width="31.627" stroke-linecap="round"/>
<path d="M1146.55 625.553C1146.55 648.97 1165.5 667.953 1188.87 667.953C1203.47 667.953 1216.35 660.538 1223.95 649.26" stroke="#1A2136" stroke-width="31.627" stroke-linecap="round"/>
</g>
<g opacity="0.5">
<path d="M1092 613.4C1092 589.983 1110.94 571 1134.31 571C1148.92 571 1161.79 578.415 1169.4 589.692" stroke="#1A2136" stroke-width="31.627" stroke-linecap="round"/>
<path d="M1139.55 639.553C1139.55 662.97 1158.5 681.953 1181.87 681.953C1196.47 681.953 1209.35 674.538 1216.95 663.26" stroke="#1A2136" stroke-width="31.627" stroke-linecap="round"/>
</g>
<g opacity="0.5">
<path d="M28.1526 1134.55C28.1526 1111.14 47.0965 1092.15 70.4649 1092.15C85.0696 1092.15 97.946 1099.57 105.55 1110.84" stroke="#1A2136" stroke-width="31.627" stroke-linecap="round"/>
<path d="M70.5527 1134.55C70.5527 1157.97 89.4966 1176.95 112.865 1176.95C127.47 1176.95 140.346 1169.54 147.95 1158.26" stroke="#1A2136" stroke-width="31.627" stroke-linecap="round"/>
</g>
<g opacity="0.5">
<path d="M16 1122.4C16 1098.98 34.9439 1080 58.3123 1080C72.917 1080 85.7934 1087.41 93.3974 1098.69" stroke="#1A2136" stroke-width="31.627" stroke-linecap="round"/>
<path d="M63.5527 1148.55C63.5527 1171.97 82.4966 1190.95 105.865 1190.95C120.47 1190.95 133.346 1183.54 140.95 1172.26" stroke="#1A2136" stroke-width="31.627" stroke-linecap="round"/>
</g>
<path opacity="0.5" d="M1170.17 240.537L1099.64 281.255L1098.24 192.825" stroke="#1A2136" stroke-width="31.627" stroke-linecap="round" stroke-linejoin="round"/>
<path opacity="0.5" d="M1178.03 252.523L1107.51 293.24L1106.1 204.811" stroke="#1A2136" stroke-width="31.627" stroke-linecap="round" stroke-linejoin="round"/>
<path opacity="0.5" d="M476.167 700.537L405.642 741.255L404.239 652.825" stroke="#1A2136" stroke-width="31.627" stroke-linecap="round" stroke-linejoin="round"/>
<path opacity="0.5" d="M467.167 692.537L396.642 733.255L395.239 644.825" stroke="#1A2136" stroke-width="31.627" stroke-linecap="round" stroke-linejoin="round"/>
<g opacity="0.5">
<line x1="64.0422" y1="735.143" x2="133.702" y2="699.142" stroke="#1A2136" stroke-width="31.627" stroke-linecap="round"/>
<line x1="112.031" y1="767.508" x2="72.8245" y2="699.601" stroke="#1A2136" stroke-width="31.627" stroke-linecap="round"/>
</g>
<g opacity="0.5">
<line x1="63.0422" y1="750.143" x2="132.702" y2="714.142" stroke="#1A2136" stroke-width="31.627" stroke-linecap="round"/>
<line x1="111.031" y1="782.508" x2="71.8245" y2="714.601" stroke="#1A2136" stroke-width="31.627" stroke-linecap="round"/>
</g>
<g opacity="0.5">
<line x1="145.364" y1="427.853" x2="184.611" y2="467.1" stroke="#1A2136" stroke-width="31.627" stroke-linecap="round"/>
<path d="M155.978 378.91L229.793 452.724" stroke="#1A2136" stroke-width="31.627" stroke-linecap="round"/>
</g>
<g opacity="0.5">
<line x1="147.364" y1="443.853" x2="186.611" y2="483.1" stroke="#1A2136" stroke-width="31.627" stroke-linecap="round"/>
<path d="M178 387L251.814 460.815" stroke="#1A2136" stroke-width="31.627" stroke-linecap="round"/>
</g>
<g opacity="0.5">
<path d="M91 1327L202 1438" stroke="#1A2136" stroke-width="31.627" stroke-linecap="round"/>
<path d="M98 1387L149 1336" stroke="#1A2136" stroke-width="31.627" stroke-linecap="round"/>
</g>
<g opacity="0.5">
<path d="M91 1340L202 1451" stroke="#1A2136" stroke-width="31.627" stroke-linecap="round"/>
<path d="M98 1400L149 1349" stroke="#1A2136" stroke-width="31.627" stroke-linecap="round"/>
</g>
<g opacity="0.5">
<line x1="1120.36" y1="998.853" x2="1159.61" y2="1038.1" stroke="#1A2136" stroke-width="31.627" stroke-linecap="round"/>
<path d="M1130.98 949.91L1204.79 1023.72" stroke="#1A2136" stroke-width="31.627" stroke-linecap="round"/>
</g>
<g opacity="0.5">
<line x1="1122.36" y1="1014.85" x2="1161.61" y2="1054.1" stroke="#1A2136" stroke-width="31.627" stroke-linecap="round"/>
<path d="M1153 958L1226.81 1031.81" stroke="#1A2136" stroke-width="31.627" stroke-linecap="round"/>
</g>
<g opacity="0.5">
<circle cx="932.278" cy="721.323" r="35.3237" stroke="#1A2136" stroke-width="31.627" stroke-linecap="round"/>
</g>
<g opacity="0.5">
<circle cx="942.278" cy="732.323" r="35.3237" stroke="#1A2136" stroke-width="31.627" stroke-linecap="round"/>
</g>
<g opacity="0.5">
<circle cx="681.278" cy="1428.32" r="35.3237" stroke="#1A2136" stroke-width="31.627" stroke-linecap="round"/>
</g>
<g opacity="0.5">
<circle cx="691.278" cy="1439.32" r="35.3237" stroke="#1A2136" stroke-width="31.627" stroke-linecap="round"/>
</g>
<g opacity="0.5">
<circle cx="881.278" cy="97.323" r="35.3237" stroke="#1A2136" stroke-width="31.627" stroke-linecap="round"/>
</g>
<g opacity="0.5">
<circle cx="883.25" cy="108.323" r="35.3237" stroke="#1A2136" stroke-width="31.627" stroke-linecap="round"/>
</g>
<g opacity="0.5">
<circle cx="424.278" cy="51.323" r="35.3237" stroke="#1A2136" stroke-width="31.627" stroke-linecap="round"/>
</g>
<g opacity="0.5">
<circle cx="434.278" cy="62.323" r="35.3237" stroke="#1A2136" stroke-width="31.627" stroke-linecap="round"/>
</g>
</svg>
