<svg width="345" height="313" viewBox="0 0 345 313" fill="none" xmlns="http://www.w3.org/2000/svg">
<path opacity="0.5" fill-rule="evenodd" clip-rule="evenodd" d="M30.9884 173.014C39.7209 172.875 46.9122 179.842 47.0507 188.575L48.0266 250.112L95.2601 222.842C102.824 218.475 112.495 221.066 116.862 228.63C121.229 236.193 118.637 245.865 111.074 250.232L40.5484 290.949C35.6944 293.752 29.7197 293.775 24.8437 291.012C19.9677 288.248 16.919 283.109 16.8301 277.505L15.4276 189.076C15.2891 180.344 22.2559 173.152 30.9884 173.014Z" fill="#1A2136"/>
<path opacity="0.5" fill-rule="evenodd" clip-rule="evenodd" d="M38.8541 185C47.5866 184.861 54.7779 191.828 54.9164 200.56L55.8924 262.098L103.126 234.828C110.689 230.461 120.361 233.052 124.727 240.616C129.094 248.179 126.503 257.851 118.939 262.217L48.4141 302.935C43.5601 305.738 37.5854 305.761 32.7094 302.997C27.8334 300.234 24.7847 295.095 24.6958 289.491L23.2934 201.062C23.1549 192.329 30.1217 185.138 38.8541 185Z" fill="#1A2136"/>
<g opacity="0.5">
<path fill-rule="evenodd" clip-rule="evenodd" d="M301.226 218.966C286.217 218.966 273.966 231.184 273.966 246.36C273.966 255.094 266.886 262.174 258.152 262.174C249.419 262.174 242.339 255.094 242.339 246.36C242.339 213.81 268.657 187.339 301.226 187.339C333.794 187.339 360.113 213.81 360.113 246.36C360.113 261.452 354.44 275.26 345.131 285.694C339.316 292.21 329.32 292.78 322.803 286.965C316.287 281.151 315.717 271.154 321.532 264.638C325.863 259.783 328.486 253.401 328.486 246.36C328.486 231.184 316.234 218.966 301.226 218.966Z" fill="#1A2136"/>
<circle cx="285.746" cy="290.645" r="15.4795" fill="#1A2136"/>
</g>
<g opacity="0.5">
<path fill-rule="evenodd" clip-rule="evenodd" d="M290.226 228.966C275.217 228.966 262.966 241.184 262.966 256.36C262.966 265.094 255.886 272.174 247.152 272.174C238.419 272.174 231.339 265.094 231.339 256.36C231.339 223.81 257.657 197.339 290.226 197.339C322.794 197.339 349.113 223.81 349.113 256.36C349.113 271.452 343.44 285.26 334.131 295.694C328.316 302.21 318.32 302.78 311.803 296.965C305.287 291.151 304.717 281.154 310.532 274.638C314.863 269.783 317.486 263.401 317.486 256.36C317.486 241.184 305.234 228.966 290.226 228.966Z" fill="#1A2136"/>
<circle cx="278.479" cy="295.479" r="15.4795" fill="#1A2136"/>
</g>
<g opacity="0.5">
<path fill-rule="evenodd" clip-rule="evenodd" d="M152.985 119.952C138.381 119.952 126.486 131.825 126.486 146.539C126.486 155.273 119.406 162.353 110.673 162.353C101.939 162.353 94.8591 155.273 94.8591 146.539C94.8591 114.419 120.852 88.3252 152.985 88.3252C173.077 88.3252 190.769 98.5472 201.182 113.991C206.064 121.232 204.152 131.06 196.91 135.943C189.669 140.825 179.841 138.913 174.958 131.672C170.163 124.56 162.102 119.952 152.985 119.952Z" fill="#1A2136"/>
<path fill-rule="evenodd" clip-rule="evenodd" d="M195.385 173.126C180.781 173.126 168.886 161.254 168.886 146.539C168.886 137.806 161.806 130.726 153.073 130.726C144.339 130.726 137.259 137.806 137.259 146.539C137.259 178.659 163.252 204.753 195.385 204.753C215.477 204.753 233.169 194.531 243.582 179.087C248.464 171.846 246.552 162.018 239.311 157.135C232.069 152.253 222.241 154.165 217.359 161.407C212.563 168.518 204.502 173.126 195.385 173.126Z" fill="#1A2136"/>
</g>
<g opacity="0.5">
<path fill-rule="evenodd" clip-rule="evenodd" d="M140.832 107.8C126.228 107.8 114.334 119.672 114.334 134.387C114.334 143.12 107.254 150.2 98.5201 150.2C89.7865 150.2 82.7065 143.12 82.7065 134.387C82.7065 102.267 108.699 76.1729 140.832 76.1729C160.925 76.1729 178.616 86.3948 189.029 101.838C193.911 109.08 191.999 118.908 184.758 123.79C177.517 128.673 167.688 126.761 162.806 119.519C158.011 112.407 149.949 107.8 140.832 107.8Z" fill="#1A2136"/>
<path fill-rule="evenodd" clip-rule="evenodd" d="M188.385 187.126C173.781 187.126 161.886 175.254 161.886 160.539C161.886 151.806 154.806 144.726 146.073 144.726C137.339 144.726 130.259 151.806 130.259 160.539C130.259 192.659 156.252 218.753 188.385 218.753C208.477 218.753 226.169 208.531 236.582 193.087C241.464 185.846 239.552 176.018 232.311 171.135C225.069 166.253 215.241 168.165 210.359 175.407C205.563 182.518 197.502 187.126 188.385 187.126Z" fill="#1A2136"/>
</g>
<g opacity="0.5">
<path fill-rule="evenodd" clip-rule="evenodd" d="M296.278 31.8128C285.503 31.8128 276.768 40.5478 276.768 51.323C276.768 62.0982 285.503 70.8332 296.278 70.8332C307.053 70.8332 315.788 62.0982 315.788 51.323C315.788 40.5478 307.053 31.8128 296.278 31.8128ZM245.141 51.323C245.141 23.0807 268.036 0.185791 296.278 0.185791C324.52 0.185791 347.415 23.0807 347.415 51.323C347.415 79.5653 324.52 102.46 296.278 102.46C268.036 102.46 245.141 79.5653 245.141 51.323Z" fill="#1A2136"/>
</g>
<g opacity="0.5">
<path fill-rule="evenodd" clip-rule="evenodd" d="M306.278 42.8126C295.503 42.8126 286.768 51.5476 286.768 62.3227C286.768 73.0979 295.503 81.8329 306.278 81.8329C317.053 81.8329 325.788 73.0979 325.788 62.3227C325.788 51.5476 317.053 42.8126 306.278 42.8126ZM255.141 62.3227C255.141 34.0805 278.036 11.1855 306.278 11.1855C334.52 11.1855 357.415 34.0805 357.415 62.3227C357.415 90.565 334.52 113.46 306.278 113.46C278.036 113.46 255.141 90.565 255.141 62.3227Z" fill="#1A2136"/>
</g>
</svg>
