<svg width="434" height="9" viewBox="0 0 434 9" fill="none" xmlns="http://www.w3.org/2000/svg">
<path d="M4.52098 -1.97618e-07C7.01785 -3.0676e-07 9.04196 2.01472 9.04196 4.5C9.04196 6.98528 7.01785 9 4.52098 9C2.02411 9 -8.80661e-08 6.98528 -1.96701e-07 4.5C-3.05336e-07 2.01472 2.02411 -8.84767e-08 4.52098 -1.97618e-07Z" fill="url(#paint0_linear_7623_15937)"/>
<path d="M16.5769 -7.246e-07C19.0738 -8.33742e-07 21.0979 2.01472 21.0979 4.5C21.0979 6.98528 19.0738 9 16.5769 9C14.0801 9 12.0559 6.98528 12.0559 4.5C12.0559 2.01472 14.0801 -6.15459e-07 16.5769 -7.246e-07Z" fill="url(#paint1_linear_7623_15937)"/>
<path d="M28.6329 -1.25158e-06C31.1297 -1.36072e-06 33.1538 2.01472 33.1538 4.5C33.1538 6.98528 31.1297 9 28.6329 9C26.136 9 24.1119 6.98528 24.1119 4.5C24.1119 2.01472 26.136 -1.14244e-06 28.6329 -1.25158e-06Z" fill="url(#paint2_linear_7623_15937)"/>
<path d="M40.6888 -1.77856e-06C43.1857 -1.88771e-06 45.2098 2.01472 45.2098 4.5C45.2098 6.98528 43.1857 9 40.6888 9C38.1919 9 36.1678 6.98528 36.1678 4.5C36.1678 2.01472 38.1919 -1.66942e-06 40.6888 -1.77856e-06Z" fill="url(#paint3_linear_7623_15937)"/>
<path d="M52.7448 -2.30555e-06C55.2416 -2.41469e-06 57.2657 2.01472 57.2657 4.5C57.2657 6.98528 55.2416 9 52.7448 9C50.2479 9 48.2238 6.98528 48.2238 4.5C48.2238 2.01472 50.2479 -2.1964e-06 52.7448 -2.30555e-06Z" fill="url(#paint4_linear_7623_15937)"/>
<path d="M64.8007 -2.83253e-06C67.2976 -2.94167e-06 69.3217 2.01472 69.3217 4.5C69.3217 6.98528 67.2976 9 64.8007 9C62.3038 9 60.2797 6.98528 60.2797 4.5C60.2797 2.01472 62.3038 -2.72339e-06 64.8007 -2.83253e-06Z" fill="url(#paint5_linear_7623_15937)"/>
<path d="M76.8566 -3.35951e-06C79.3535 -3.46865e-06 81.3776 2.01471 81.3776 4.5C81.3776 6.98528 79.3535 9 76.8566 9C74.3598 9 72.3357 6.98528 72.3357 4.5C72.3357 2.01472 74.3598 -3.25037e-06 76.8566 -3.35951e-06Z" fill="url(#paint6_linear_7623_15937)"/>
<path d="M88.9126 -3.88649e-06C91.4095 -3.99563e-06 93.4336 2.01471 93.4336 4.5C93.4336 6.98528 91.4095 9 88.9126 9C86.4157 9 84.3916 6.98528 84.3916 4.5C84.3916 2.01471 86.4157 -3.77735e-06 88.9126 -3.88649e-06Z" fill="url(#paint7_linear_7623_15937)"/>
<path d="M100.969 -4.41347e-06C103.465 -4.52262e-06 105.49 2.01471 105.49 4.5C105.49 6.98528 103.465 9 100.969 9C98.4717 9 96.4476 6.98528 96.4476 4.5C96.4476 2.01471 98.4717 -4.30433e-06 100.969 -4.41347e-06Z" fill="url(#paint8_linear_7623_15937)"/>
<path d="M113.024 -4.94046e-06C115.521 -5.0496e-06 117.545 2.01471 117.545 4.49999C117.545 6.98528 115.521 8.99999 113.024 9C110.528 9 108.503 6.98528 108.503 4.5C108.503 2.01471 110.528 -4.83132e-06 113.024 -4.94046e-06Z" fill="url(#paint9_linear_7623_15937)"/>
<path d="M125.08 -5.46744e-06C127.577 -5.57658e-06 129.601 2.01471 129.601 4.49999C129.601 6.98528 127.577 8.99999 125.08 8.99999C122.584 8.99999 120.559 6.98528 120.559 4.49999C120.559 2.01471 122.584 -5.3583e-06 125.08 -5.46744e-06Z" fill="url(#paint10_linear_7623_15937)"/>
<path d="M137.136 -5.99442e-06C139.633 -6.10356e-06 141.657 2.01471 141.657 4.49999C141.657 6.98528 139.633 8.99999 137.136 8.99999C134.64 8.99999 132.615 6.98528 132.615 4.49999C132.615 2.01471 134.639 -5.88528e-06 137.136 -5.99442e-06Z" fill="url(#paint11_linear_7623_15937)"/>
<path d="M149.192 -6.5214e-06C151.689 -6.63054e-06 153.713 2.01471 153.713 4.49999C153.713 6.98527 151.689 8.99999 149.192 8.99999C146.695 8.99999 144.671 6.98528 144.671 4.49999C144.671 2.01471 146.695 -6.41226e-06 149.192 -6.5214e-06Z" fill="url(#paint12_linear_7623_15937)"/>
<path d="M161.248 -7.04839e-06C163.745 -7.15753e-06 165.769 2.01471 165.769 4.49999C165.769 6.98527 163.745 8.99999 161.248 8.99999C158.751 8.99999 156.727 6.98527 156.727 4.49999C156.727 2.01471 158.751 -6.93924e-06 161.248 -7.04839e-06Z" fill="url(#paint13_linear_7623_15937)"/>
<path d="M173.304 -7.57537e-06C175.801 -7.68451e-06 177.825 2.01471 177.825 4.49999C177.825 6.98527 175.801 8.99999 173.304 8.99999C170.807 8.99999 168.783 6.98527 168.783 4.49999C168.783 2.01471 170.807 -7.46623e-06 173.304 -7.57537e-06Z" fill="url(#paint14_linear_7623_15937)"/>
<path d="M185.36 -8.10235e-06C187.857 -8.21149e-06 189.881 2.01471 189.881 4.49999C189.881 6.98527 187.857 8.99999 185.36 8.99999C182.863 8.99999 180.839 6.98527 180.839 4.49999C180.839 2.01471 182.863 -7.99321e-06 185.36 -8.10235e-06Z" fill="url(#paint15_linear_7623_15937)"/>
<path d="M197.416 -8.62933e-06C199.913 -8.73847e-06 201.937 2.01471 201.937 4.49999C201.937 6.98527 199.913 8.99999 197.416 8.99999C194.919 8.99999 192.895 6.98527 192.895 4.49999C192.895 2.01471 194.919 -8.52019e-06 197.416 -8.62933e-06Z" fill="url(#paint16_linear_7623_15937)"/>
<path d="M209.472 -9.15631e-06C211.969 -9.26546e-06 213.993 2.01471 213.993 4.49999C213.993 6.98527 211.969 8.99999 209.472 8.99999C206.975 8.99999 204.951 6.98527 204.951 4.49999C204.951 2.01471 206.975 -9.04717e-06 209.472 -9.15631e-06Z" fill="url(#paint17_linear_7623_15937)"/>
<path d="M221.528 -9.6833e-06C224.025 -9.79244e-06 226.049 2.01471 226.049 4.49999C226.049 6.98527 224.025 8.99999 221.528 8.99999C219.031 8.99999 217.007 6.98527 217.007 4.49999C217.007 2.01471 219.031 -9.57415e-06 221.528 -9.6833e-06Z" fill="url(#paint18_linear_7623_15937)"/>
<path d="M233.584 -1.02103e-05C236.081 -1.03194e-05 238.105 2.01471 238.105 4.49999C238.105 6.98527 236.081 8.99999 233.584 8.99999C231.087 8.99999 229.063 6.98527 229.063 4.49999C229.063 2.01471 231.087 -1.01011e-05 233.584 -1.02103e-05Z" fill="url(#paint19_linear_7623_15937)"/>
<path d="M245.64 -1.07373e-05C248.137 -1.08464e-05 250.161 2.01471 250.161 4.49999C250.161 6.98527 248.137 8.99999 245.64 8.99999C243.143 8.99999 241.119 6.98527 241.119 4.49999C241.119 2.01471 243.143 -1.06281e-05 245.64 -1.07373e-05Z" fill="url(#paint20_linear_7623_15937)"/>
<path d="M257.696 -1.12642e-05C260.193 -1.13734e-05 262.217 2.01471 262.217 4.49999C262.217 6.98527 260.193 8.99999 257.696 8.99999C255.199 8.99999 253.175 6.98527 253.175 4.49999C253.175 2.01471 255.199 -1.11551e-05 257.696 -1.12642e-05Z" fill="url(#paint21_linear_7623_15937)"/>
<path d="M269.752 -1.17912e-05C272.249 -1.19004e-05 274.273 2.01471 274.273 4.49999C274.273 6.98527 272.249 8.99999 269.752 8.99999C267.255 8.99999 265.231 6.98527 265.231 4.49999C265.231 2.01471 267.255 -1.16821e-05 269.752 -1.17912e-05Z" fill="url(#paint22_linear_7623_15937)"/>
<path d="M281.808 -1.23182e-05C284.305 -1.24273e-05 286.329 2.01471 286.329 4.49999C286.329 6.98527 284.305 8.99999 281.808 8.99999C279.311 8.99999 277.287 6.98527 277.287 4.49999C277.287 2.01471 279.311 -1.22091e-05 281.808 -1.23182e-05Z" fill="url(#paint23_linear_7623_15937)"/>
<path d="M293.864 -1.28452e-05C296.361 -1.29543e-05 298.385 2.01471 298.385 4.49999C298.385 6.98527 296.361 8.99999 293.864 8.99999C291.367 8.99999 289.343 6.98527 289.343 4.49999C289.343 2.01471 291.367 -1.2736e-05 293.864 -1.28452e-05Z" fill="url(#paint24_linear_7623_15937)"/>
<path d="M305.92 -1.33722e-05C308.416 -1.34813e-05 310.441 2.0147 310.441 4.49999C310.441 6.98527 308.416 8.99999 305.92 8.99999C303.423 8.99999 301.399 6.98527 301.399 4.49999C301.399 2.01471 303.423 -1.3263e-05 305.92 -1.33722e-05Z" fill="url(#paint25_linear_7623_15937)"/>
<path d="M317.976 -1.38992e-05C320.472 -1.40083e-05 322.497 2.0147 322.497 4.49999C322.497 6.98527 320.472 8.99999 317.976 8.99999C315.479 8.99999 313.455 6.98527 313.455 4.49999C313.455 2.0147 315.479 -1.379e-05 317.976 -1.38992e-05Z" fill="url(#paint26_linear_7623_15937)"/>
<path d="M330.031 -1.44261e-05C332.528 -1.45353e-05 334.552 2.0147 334.552 4.49999C334.552 6.98527 332.528 8.99999 330.031 8.99999C327.535 8.99999 325.51 6.98527 325.51 4.49999C325.51 2.0147 327.535 -1.4317e-05 330.031 -1.44261e-05Z" fill="url(#paint27_linear_7623_15937)"/>
<path d="M342.087 -1.49531e-05C344.584 -1.50623e-05 346.608 2.0147 346.608 4.49998C346.608 6.98527 344.584 8.99998 342.087 8.99999C339.591 8.99999 337.566 6.98527 337.566 4.49999C337.566 2.0147 339.591 -1.4844e-05 342.087 -1.49531e-05Z" fill="url(#paint28_linear_7623_15937)"/>
<path d="M354.143 -1.54801e-05C356.64 -1.55892e-05 358.664 2.0147 358.664 4.49998C358.664 6.98527 356.64 8.99998 354.143 8.99998C351.647 8.99998 349.622 6.98527 349.622 4.49998C349.622 2.0147 351.646 -1.5371e-05 354.143 -1.54801e-05Z" fill="url(#paint29_linear_7623_15937)"/>
<path d="M366.199 -1.60071e-05C368.696 -1.61162e-05 370.72 2.0147 370.72 4.49998C370.72 6.98527 368.696 8.99998 366.199 8.99998C363.702 8.99998 361.678 6.98527 361.678 4.49998C361.678 2.0147 363.702 -1.58979e-05 366.199 -1.60071e-05Z" fill="url(#paint30_linear_7623_15937)"/>
<path d="M378.255 -1.65341e-05C380.752 -1.66432e-05 382.776 2.0147 382.776 4.49998C382.776 6.98526 380.752 8.99998 378.255 8.99998C375.758 8.99998 373.734 6.98527 373.734 4.49998C373.734 2.0147 375.758 -1.64249e-05 378.255 -1.65341e-05Z" fill="url(#paint31_linear_7623_15937)"/>
<path d="M390.311 -1.7061e-05C392.808 -1.71702e-05 394.832 2.0147 394.832 4.49998C394.832 6.98526 392.808 8.99998 390.311 8.99998C387.814 8.99998 385.79 6.98526 385.79 4.49998C385.79 2.0147 387.814 -1.69519e-05 390.311 -1.7061e-05Z" fill="url(#paint32_linear_7623_15937)"/>
<path d="M402.367 -1.7588e-05C404.864 -1.76972e-05 406.888 2.0147 406.888 4.49998C406.888 6.98526 404.864 8.99998 402.367 8.99998C399.87 8.99998 397.846 6.98526 397.846 4.49998C397.846 2.0147 399.87 -1.74789e-05 402.367 -1.7588e-05Z" fill="url(#paint33_linear_7623_15937)"/>
<path d="M414.423 -1.8115e-05C416.92 -1.82242e-05 418.944 2.0147 418.944 4.49998C418.944 6.98526 416.92 8.99998 414.423 8.99998C411.926 8.99998 409.902 6.98526 409.902 4.49998C409.902 2.0147 411.926 -1.80059e-05 414.423 -1.8115e-05Z" fill="url(#paint34_linear_7623_15937)"/>
<path d="M426.479 -1.8642e-05C428.976 -1.87511e-05 431 2.0147 431 4.49998C431 6.98526 428.976 8.99998 426.479 8.99998C423.982 8.99998 421.958 6.98526 421.958 4.49998C421.958 2.0147 423.982 -1.85328e-05 426.479 -1.8642e-05Z" fill="url(#paint35_linear_7623_15937)"/>
<defs>
<linearGradient id="paint0_linear_7623_15937" x1="-1.96701e-07" y1="4.5" x2="431" y2="4.49998" gradientUnits="userSpaceOnUse">
<stop stop-color="#1E273E"/>
<stop offset="1" stop-color="#242E4A"/>
</linearGradient>
<linearGradient id="paint1_linear_7623_15937" x1="-1.96701e-07" y1="4.5" x2="431" y2="4.49998" gradientUnits="userSpaceOnUse">
<stop stop-color="#1E273E"/>
<stop offset="1" stop-color="#242E4A"/>
</linearGradient>
<linearGradient id="paint2_linear_7623_15937" x1="-1.96701e-07" y1="4.5" x2="431" y2="4.49998" gradientUnits="userSpaceOnUse">
<stop stop-color="#1E273E"/>
<stop offset="1" stop-color="#242E4A"/>
</linearGradient>
<linearGradient id="paint3_linear_7623_15937" x1="-1.96701e-07" y1="4.5" x2="431" y2="4.49998" gradientUnits="userSpaceOnUse">
<stop stop-color="#1E273E"/>
<stop offset="1" stop-color="#242E4A"/>
</linearGradient>
<linearGradient id="paint4_linear_7623_15937" x1="-1.96701e-07" y1="4.5" x2="431" y2="4.49998" gradientUnits="userSpaceOnUse">
<stop stop-color="#1E273E"/>
<stop offset="1" stop-color="#242E4A"/>
</linearGradient>
<linearGradient id="paint5_linear_7623_15937" x1="-1.96701e-07" y1="4.5" x2="431" y2="4.49998" gradientUnits="userSpaceOnUse">
<stop stop-color="#1E273E"/>
<stop offset="1" stop-color="#242E4A"/>
</linearGradient>
<linearGradient id="paint6_linear_7623_15937" x1="-1.96701e-07" y1="4.5" x2="431" y2="4.49998" gradientUnits="userSpaceOnUse">
<stop stop-color="#1E273E"/>
<stop offset="1" stop-color="#242E4A"/>
</linearGradient>
<linearGradient id="paint7_linear_7623_15937" x1="-1.96701e-07" y1="4.5" x2="431" y2="4.49998" gradientUnits="userSpaceOnUse">
<stop stop-color="#1E273E"/>
<stop offset="1" stop-color="#242E4A"/>
</linearGradient>
<linearGradient id="paint8_linear_7623_15937" x1="-1.96701e-07" y1="4.5" x2="431" y2="4.49998" gradientUnits="userSpaceOnUse">
<stop stop-color="#1E273E"/>
<stop offset="1" stop-color="#242E4A"/>
</linearGradient>
<linearGradient id="paint9_linear_7623_15937" x1="-1.96701e-07" y1="4.5" x2="431" y2="4.49998" gradientUnits="userSpaceOnUse">
<stop stop-color="#1E273E"/>
<stop offset="1" stop-color="#242E4A"/>
</linearGradient>
<linearGradient id="paint10_linear_7623_15937" x1="-1.96701e-07" y1="4.5" x2="431" y2="4.49998" gradientUnits="userSpaceOnUse">
<stop stop-color="#1E273E"/>
<stop offset="1" stop-color="#242E4A"/>
</linearGradient>
<linearGradient id="paint11_linear_7623_15937" x1="-1.96701e-07" y1="4.5" x2="431" y2="4.49998" gradientUnits="userSpaceOnUse">
<stop stop-color="#1E273E"/>
<stop offset="1" stop-color="#242E4A"/>
</linearGradient>
<linearGradient id="paint12_linear_7623_15937" x1="-1.96701e-07" y1="4.5" x2="431" y2="4.49998" gradientUnits="userSpaceOnUse">
<stop stop-color="#1E273E"/>
<stop offset="1" stop-color="#242E4A"/>
</linearGradient>
<linearGradient id="paint13_linear_7623_15937" x1="-1.96701e-07" y1="4.5" x2="431" y2="4.49998" gradientUnits="userSpaceOnUse">
<stop stop-color="#1E273E"/>
<stop offset="1" stop-color="#242E4A"/>
</linearGradient>
<linearGradient id="paint14_linear_7623_15937" x1="-1.96701e-07" y1="4.5" x2="431" y2="4.49998" gradientUnits="userSpaceOnUse">
<stop stop-color="#1E273E"/>
<stop offset="1" stop-color="#242E4A"/>
</linearGradient>
<linearGradient id="paint15_linear_7623_15937" x1="-1.96701e-07" y1="4.5" x2="431" y2="4.49998" gradientUnits="userSpaceOnUse">
<stop stop-color="#1E273E"/>
<stop offset="1" stop-color="#242E4A"/>
</linearGradient>
<linearGradient id="paint16_linear_7623_15937" x1="-1.96701e-07" y1="4.5" x2="431" y2="4.49998" gradientUnits="userSpaceOnUse">
<stop stop-color="#1E273E"/>
<stop offset="1" stop-color="#242E4A"/>
</linearGradient>
<linearGradient id="paint17_linear_7623_15937" x1="-1.96701e-07" y1="4.5" x2="431" y2="4.49998" gradientUnits="userSpaceOnUse">
<stop stop-color="#1E273E"/>
<stop offset="1" stop-color="#242E4A"/>
</linearGradient>
<linearGradient id="paint18_linear_7623_15937" x1="-1.96701e-07" y1="4.5" x2="431" y2="4.49998" gradientUnits="userSpaceOnUse">
<stop stop-color="#1E273E"/>
<stop offset="1" stop-color="#242E4A"/>
</linearGradient>
<linearGradient id="paint19_linear_7623_15937" x1="-1.96701e-07" y1="4.5" x2="431" y2="4.49998" gradientUnits="userSpaceOnUse">
<stop stop-color="#1E273E"/>
<stop offset="1" stop-color="#242E4A"/>
</linearGradient>
<linearGradient id="paint20_linear_7623_15937" x1="-1.96701e-07" y1="4.5" x2="431" y2="4.49998" gradientUnits="userSpaceOnUse">
<stop stop-color="#1E273E"/>
<stop offset="1" stop-color="#242E4A"/>
</linearGradient>
<linearGradient id="paint21_linear_7623_15937" x1="-1.96701e-07" y1="4.5" x2="431" y2="4.49998" gradientUnits="userSpaceOnUse">
<stop stop-color="#1E273E"/>
<stop offset="1" stop-color="#242E4A"/>
</linearGradient>
<linearGradient id="paint22_linear_7623_15937" x1="-1.96701e-07" y1="4.5" x2="431" y2="4.49998" gradientUnits="userSpaceOnUse">
<stop stop-color="#1E273E"/>
<stop offset="1" stop-color="#242E4A"/>
</linearGradient>
<linearGradient id="paint23_linear_7623_15937" x1="-1.96701e-07" y1="4.5" x2="431" y2="4.49998" gradientUnits="userSpaceOnUse">
<stop stop-color="#1E273E"/>
<stop offset="1" stop-color="#242E4A"/>
</linearGradient>
<linearGradient id="paint24_linear_7623_15937" x1="-1.96701e-07" y1="4.5" x2="431" y2="4.49998" gradientUnits="userSpaceOnUse">
<stop stop-color="#1E273E"/>
<stop offset="1" stop-color="#242E4A"/>
</linearGradient>
<linearGradient id="paint25_linear_7623_15937" x1="-1.96701e-07" y1="4.5" x2="431" y2="4.49998" gradientUnits="userSpaceOnUse">
<stop stop-color="#1E273E"/>
<stop offset="1" stop-color="#242E4A"/>
</linearGradient>
<linearGradient id="paint26_linear_7623_15937" x1="-1.96701e-07" y1="4.5" x2="431" y2="4.49998" gradientUnits="userSpaceOnUse">
<stop stop-color="#1E273E"/>
<stop offset="1" stop-color="#242E4A"/>
</linearGradient>
<linearGradient id="paint27_linear_7623_15937" x1="-1.96701e-07" y1="4.5" x2="431" y2="4.49998" gradientUnits="userSpaceOnUse">
<stop stop-color="#1E273E"/>
<stop offset="1" stop-color="#242E4A"/>
</linearGradient>
<linearGradient id="paint28_linear_7623_15937" x1="-1.96701e-07" y1="4.5" x2="431" y2="4.49998" gradientUnits="userSpaceOnUse">
<stop stop-color="#1E273E"/>
<stop offset="1" stop-color="#242E4A"/>
</linearGradient>
<linearGradient id="paint29_linear_7623_15937" x1="-1.96701e-07" y1="4.5" x2="431" y2="4.49998" gradientUnits="userSpaceOnUse">
<stop stop-color="#1E273E"/>
<stop offset="1" stop-color="#242E4A"/>
</linearGradient>
<linearGradient id="paint30_linear_7623_15937" x1="-1.96701e-07" y1="4.5" x2="431" y2="4.49998" gradientUnits="userSpaceOnUse">
<stop stop-color="#1E273E"/>
<stop offset="1" stop-color="#242E4A"/>
</linearGradient>
<linearGradient id="paint31_linear_7623_15937" x1="-1.96701e-07" y1="4.5" x2="431" y2="4.49998" gradientUnits="userSpaceOnUse">
<stop stop-color="#1E273E"/>
<stop offset="1" stop-color="#242E4A"/>
</linearGradient>
<linearGradient id="paint32_linear_7623_15937" x1="-1.96701e-07" y1="4.5" x2="431" y2="4.49998" gradientUnits="userSpaceOnUse">
<stop stop-color="#1E273E"/>
<stop offset="1" stop-color="#242E4A"/>
</linearGradient>
<linearGradient id="paint33_linear_7623_15937" x1="-1.96701e-07" y1="4.5" x2="431" y2="4.49998" gradientUnits="userSpaceOnUse">
<stop stop-color="#1E273E"/>
<stop offset="1" stop-color="#242E4A"/>
</linearGradient>
<linearGradient id="paint34_linear_7623_15937" x1="-1.96701e-07" y1="4.5" x2="431" y2="4.49998" gradientUnits="userSpaceOnUse">
<stop stop-color="#1E273E"/>
<stop offset="1" stop-color="#242E4A"/>
</linearGradient>
<linearGradient id="paint35_linear_7623_15937" x1="-1.96701e-07" y1="4.5" x2="431" y2="4.49998" gradientUnits="userSpaceOnUse">
<stop stop-color="#1E273E"/>
<stop offset="1" stop-color="#242E4A"/>
</linearGradient>
</defs>
</svg>
