<svg width="15" height="9" viewBox="0 0 15 9" fill="none" xmlns="http://www.w3.org/2000/svg">
<path d="M11.0262 0.994085C10.7892 0.984971 10.5693 1.12054 10.4725 1.33701C10.3745 1.55347 10.4167 1.80639 10.5807 1.97956L12.3728 3.91633H1.09283C0.882065 3.91291 0.687248 4.02342 0.581296 4.20571C0.474204 4.38685 0.474204 4.61243 0.581296 4.79357C0.687248 4.97586 0.882065 5.08637 1.09283 5.08295H12.3728L10.5807 7.01972C10.4349 7.17238 10.3836 7.39112 10.4452 7.59277C10.5067 7.79443 10.6719 7.94709 10.8769 7.99266C11.0831 8.03823 11.2973 7.96874 11.4375 7.81266L14.501 4.49964L11.4375 1.18662C11.3326 1.07042 11.1834 0.999781 11.0262 0.994085Z" fill="white"/>
</svg>
