<svg width="32" height="32" viewBox="0 0 32 32" fill="none" xmlns="http://www.w3.org/2000/svg">
<rect width="32" height="32" fill="#4A4AF4"/>
<path fill-rule="evenodd" clip-rule="evenodd" d="M7.92799 23.2786C6.93199 21.76 6.34933 19.9466 6.34933 18C6.34933 12.6786 10.6787 8.35066 16 8.35066C21.32 8.35066 25.6493 12.6786 25.6493 18C25.6493 19.9466 25.0666 21.76 24.0706 23.2786H26.7733C27.5573 21.6853 28 19.8933 28 18C28 11.3827 22.6173 6 16 6C9.38269 6 4 11.3827 4 18C4 19.8933 4.44267 21.6853 5.22666 23.2786H7.92799Z" fill="white"/>
<path fill-rule="evenodd" clip-rule="evenodd" d="M15.3303 21.3653C14.4077 21.3653 13.901 20.9706 13.901 20.32C13.901 18.9666 15.5543 18.64 17.7077 18.64C17.7077 20.0573 16.7597 21.3653 15.3303 21.3653ZM16.1623 12.2986C14.405 12.2986 12.3824 13.1266 11.285 14.0026L12.2877 16.112C13.1677 15.308 14.5903 14.6173 15.8757 14.6173C17.0957 14.6173 17.769 15.0266 17.769 15.848C17.769 16.4 17.321 16.712 16.4783 16.7893C13.3117 17.0813 10.853 18.0693 10.853 20.5C10.853 22.4266 12.2424 23.5919 14.5264 23.5919C16.0557 23.5919 17.2583 22.7413 17.9063 21.62V23.2786H20.7557V16.332C20.7557 13.464 18.761 12.2986 16.1623 12.2986Z" fill="white"/>
</svg>
