<svg width="32" height="32" viewBox="0 0 32 32" fill="none" xmlns="http://www.w3.org/2000/svg">
<g clip-path="url(#clip0_22_433)">
<rect width="32" height="32" fill="#1C9FE5"/>
<path fill-rule="evenodd" clip-rule="evenodd" d="M34.1563 22.8283C30.4256 21.6992 26.7387 20.4157 23.1041 18.9808C24.8331 15.9883 25.5868 12.0836 25.5868 12.0836L19.4988 12.0684V9.63718H26.9389V7.83239L19.4977 7.82656V4H16.3567C15.695 4 15.3149 4.40716 15.3149 5.1153V7.81723L7.80819 7.81139V9.63134H15.3149V12.0509L9.15259 12.0358V13.8837L21.1335 13.8896C20.7293 15.2126 20.218 16.4968 19.6052 17.7278C16.2902 16.5717 13.5172 15.8063 10.8195 15.8063C6.10914 15.8063 4 18.8898 4 21.9428C4 25.5676 6.77524 28 10.9071 28C15.5565 28 18.8216 24.8419 20.8997 22.3943C24.6381 24.2574 29.5535 26.4355 31.9973 27.5018C34.1563 28.4958 36.2001 23.6788 34.1563 22.8283ZM5.69019 21.7853L5.6913 21.7888C5.6913 19.5594 7.99661 18.3951 10.3906 18.3951C12.8533 18.3951 14.5579 19.1604 17.7388 20.7517C15.3592 23.7535 12.871 25.2736 10.3307 25.2736C7.04234 25.2736 5.69019 23.5213 5.69019 21.7853Z" fill="white"/>
</g>
<defs>
<clipPath id="clip0_22_433">
<rect width="32" height="32" fill="white"/>
</clipPath>
</defs>
</svg>
