<svg width="32" height="32" viewBox="0 0 32 32" fill="none" xmlns="http://www.w3.org/2000/svg">
<rect width="32" height="32" transform="translate(0 0.000305176)" fill="#D8DEE4"/>
<path fill-rule="evenodd" clip-rule="evenodd" d="M6 10.3753C6 9.33977 6.83947 8.50031 7.875 8.50031H24.125C25.1605 8.50031 26 9.33977 26 10.3753V13.1838L26 13.1878L26 13.1918V21.6253C26 22.6608 25.1605 23.5003 24.125 23.5003H7.875C6.83947 23.5003 6 22.6608 6 21.6253V10.3753ZM7.875 10.3753H24.125V12.2503H7.875V10.3753ZM24.125 14.1253V21.6253H7.875V14.1253H24.125Z" fill="#474E5A"/>
<path fill-rule="evenodd" clip-rule="evenodd" d="M14.75 18.8128C14.75 18.295 15.1697 17.8753 15.6875 17.8753H21.3125C21.8303 17.8753 22.25 18.295 22.25 18.8128C22.25 19.3306 21.8303 19.7503 21.3125 19.7503H15.6875C15.1697 19.7503 14.75 19.3306 14.75 18.8128Z" fill="#474E5A"/>
</svg>
