<svg width="32" height="32" viewBox="0 0 32 32" fill="none" xmlns="http://www.w3.org/2000/svg">
<rect width="32" height="32" transform="translate(0 0.000305176)" fill="#00D64F"/>
<path fill-rule="evenodd" clip-rule="evenodd" d="M16.8917 10.2647C18.6742 10.2647 20.3827 10.9572 21.4991 11.9076C21.7813 12.148 22.2041 12.1465 22.4691 11.889L23.7972 10.5967C24.0778 10.324 24.0674 9.87742 23.7648 9.62819C22.8735 8.89318 21.6768 8.17043 20.2041 7.70768L20.6207 5.80483C20.711 5.39009 20.3818 5.00031 19.9397 5.00031H17.3731C17.0448 5.00031 16.7609 5.22066 16.6925 5.52867L16.3173 7.22095C12.9053 7.3845 10.0135 9.01756 10.0135 12.3684C10.0135 15.2692 12.4061 16.5125 14.9314 17.3728C17.3241 18.2331 18.5864 18.5525 18.5864 19.7634C18.5864 21.0067 17.3241 21.7397 15.4628 21.7397C13.7659 21.7397 11.9884 21.2025 10.6092 19.898C10.3386 19.6419 9.90571 19.64 9.63516 19.896L8.2079 21.2465C7.92868 21.5104 7.93122 21.9443 8.21249 22.2058C9.3253 23.242 10.7342 23.9923 12.3423 24.4125L11.9506 26.1751C11.8594 26.5885 12.1855 26.9782 12.6266 26.9816L15.1973 27.0003C15.5281 27.0028 15.8155 26.781 15.883 26.4699L16.2541 24.7751C20.3393 24.5333 22.8397 22.4032 22.8397 19.2855C22.8397 16.417 20.3481 15.2055 17.3241 14.2174C15.596 13.6112 14.1002 13.1974 14.1002 11.9546C14.1002 10.7437 15.4966 10.2647 16.8917 10.2647Z" fill="white"/>
</svg>
