<svg width="32" height="32" viewBox="0 0 32 32" fill="none" xmlns="http://www.w3.org/2000/svg">
<rect width="32" height="32" transform="translate(0 0.000305176)" fill="#EBF1F7"/>
<path d="M26.8339 16.0003H24.5145C24.2565 16.0003 24.0466 15.7942 24.0466 15.5361C24.0466 15.2781 24.2565 15.0509 24.5145 15.0509H28.0457V13.3041H24.5145C23.282 13.3041 22.2792 14.3117 22.2792 15.5446C22.2792 16.7775 23.282 17.7851 24.5145 17.7851H26.8024C27.0604 17.7851 27.2703 17.9904 27.2703 18.2484C27.2703 18.5065 27.0604 18.6965 26.8024 18.6965H21.8962C21.4797 19.494 21.0747 20.1775 20.2524 20.5193H26.8339C28.0457 20.5018 29.0369 19.4734 29.0369 18.2514C29.0369 17.0295 28.0457 16.0178 26.8339 16.0003Z" fill="#5F6360"/>
<path fill-rule="evenodd" clip-rule="evenodd" d="M14.3755 16.9041C14.3755 14.9194 15.9766 13.3041 17.9425 13.3041C19.9084 13.3041 21.5002 14.9131 21.5002 16.8978C21.5002 18.8826 19.9047 20.5193 17.9388 20.5193H16.1553V24.3927H14.3755V16.9041ZM16.1553 18.6965H17.9425C18.9317 18.6965 19.7365 17.9029 19.7365 16.8978C19.7365 15.8927 18.9317 15.0749 17.9425 15.0749C16.9532 15.0749 16.1553 15.8927 16.1553 16.8978V18.6965Z" fill="#5F6360"/>
<path d="M8.74111 20.5193C7.05828 20.5193 5.64348 19.3167 5.26064 17.7457C5.26064 17.7457 5.14999 17.2263 5.14999 16.8843C5.14999 16.5422 5.25473 16.0175 5.25473 16.0175C5.64034 14.4503 7.0534 13.2834 8.73346 13.2834C10.7094 13.2834 12.3308 14.8942 12.3308 16.8757V17.7471H7.08108C7.3911 18.3547 8.01807 18.6965 8.74111 18.6965H13.4604L13.4668 13.5578C13.4668 12.7917 12.8418 12.1649 12.0778 12.1649H5.38901C4.62508 12.1649 4 12.7727 4 13.5388V20.2466C4 21.0127 4.62508 21.6585 5.38901 21.6585H12.0778C12.7635 21.6585 13.3354 21.1649 13.4458 20.5193H8.74111Z" fill="#A41760"/>
<path d="M8.73355 14.9885C8.01332 14.9885 7.38695 15.4307 7.07568 16.0003H10.3915C10.0802 15.4307 9.45387 14.9885 8.73355 14.9885Z" fill="#A41760"/>
<path d="M11.7626 9.98356C11.7626 8.34643 10.4059 7.01929 8.73234 7.01929C7.08652 7.01929 5.74794 8.30303 5.70398 9.90264C5.70326 9.9094 5.70383 9.91597 5.70383 9.92291V10.8137C5.70383 10.9203 5.79035 11.0256 5.89926 11.0256H7.01411C7.12302 11.0256 7.21852 10.9203 7.21852 10.8137V9.98356C7.21852 9.16604 7.89748 8.50092 8.73322 8.50092C9.56895 8.50092 10.2479 9.16604 10.2479 9.98356V10.8137C10.2479 10.9203 10.3363 11.0256 10.4452 11.0256H11.5601C11.669 11.0256 11.7626 10.9203 11.7626 10.8137V9.98356Z" fill="#A41760"/>
</svg>
