<svg width="32" height="32" viewBox="0 0 32 32" fill="none" xmlns="http://www.w3.org/2000/svg">
<rect width="32" height="32" transform="translate(0 0.000305176)" fill="#DB308B"/>
<path fill-rule="evenodd" clip-rule="evenodd" d="M23.647 9.84755C22.2668 8.639 20.2705 8.00031 17.876 8.00031H7V24.0003H17.876C23.3426 24.0003 26 21.3838 26 16.0003C26 13.2837 25.2085 11.2136 23.647 9.84755ZM14.1479 21.2404H17.678L17.5352 21.2397C20.4794 21.2397 23.6126 20.3688 23.6126 15.8964C23.6126 11.6644 20.4794 10.5241 17.5352 10.5241H14.1479V21.2404Z" fill="white"/>
<path fill-rule="evenodd" clip-rule="evenodd" d="M17.8447 8.19592C20.1848 8.19592 22.1357 8.819 23.4846 9.998C25.0106 11.3307 25.7841 13.3502 25.7841 16.0003C25.7841 21.2522 23.1871 23.8047 17.8447 23.8047H7.2159V8.19592H17.8447ZM18.0736 7.00031H6V25.0003H18.0736V24.9968C20.7105 24.9622 22.8 24.3177 24.2826 23.0778C26.0858 21.5692 27 19.1884 27 16.0003C27 14.4765 26.7592 13.1092 26.2853 11.9378C25.8317 10.8163 25.1611 9.86369 24.2924 9.10423C22.7629 7.76807 20.6153 7.04531 18.0736 7.00446V7.00031Z" fill="black"/>
<path d="M10.8524 14.5568C11.9374 14.5568 12.8166 13.6949 12.8166 12.6322C12.8166 11.5695 11.9374 10.7076 10.8524 10.7076C9.76738 10.7076 8.88818 11.5695 8.88818 12.6322C8.88818 13.6949 9.76738 14.5568 10.8524 14.5568Z" fill="black"/>
<path d="M9.08488 15.4534V21.0985H12.5548V15.4534H9.08488Z" fill="black"/>
</svg>
