<svg width="32" height="32" viewBox="0 0 32 32" fill="none" xmlns="http://www.w3.org/2000/svg">
<rect width="32" height="32" transform="translate(0 0.000244141)" fill="#2E333A"/>
<path fill-rule="evenodd" clip-rule="evenodd" d="M24.576 25.89C26.5704 25.89 26.5903 23.7654 26.3872 22.7164C26.2762 22.0114 25.0809 22.0173 24.9493 22.7164V23.5349C24.9493 23.9087 24.6438 24.2149 24.2707 24.2149H7.52454C7.15138 24.2149 6.8461 23.9087 6.8461 23.5349V22.7164C6.7145 22.0173 5.51917 22.0114 5.40818 22.7164C5.20523 23.7654 5.2248 25.89 7.21943 25.89H24.576ZM23.1342 5.53979C24.0806 5.53979 24.8546 6.36088 24.8546 7.36454V8.23665C24.8546 9.46957 23.1881 9.46489 23.1881 8.24498V7.76857C23.1881 7.46555 22.9408 7.21771 22.6383 7.21771H9.14272C8.84038 7.21771 8.59311 7.46555 8.59311 7.76857V8.23526C8.59311 9.46141 7.00489 9.45274 7.00489 8.26181V7.36454C7.00489 6.36088 7.77909 5.53979 8.72523 5.53979H23.1342Z" fill="#3A74C4"/>
<path d="M16.6357 20.7613C17.119 20.7099 17.4693 20.2753 17.4178 19.7909L16.5676 11.9492L16.5673 11.9472L16.5669 11.9439C16.5567 11.8524 16.5378 11.7615 16.5101 11.6722C16.4835 11.5856 16.4474 11.5003 16.4033 11.4169C16.1861 11.0082 15.7865 10.7215 15.3098 10.6554L15.3081 10.655C15.2921 10.653 15.2764 10.6512 15.2606 10.6498C15.1858 10.642 15.1113 10.6398 15.0381 10.6432L15.0346 10.6434C14.9394 10.6479 14.8504 10.6597 14.7685 10.6788C14.3138 10.7852 13.9274 11.1023 13.7456 11.5652L11.5692 17.1062L9.39255 11.5652C9.21073 11.1023 8.82441 10.7852 8.3697 10.6788C8.28762 10.6597 8.19861 10.6478 8.10355 10.6432H8.10009C8.02701 10.6398 7.95273 10.642 7.87809 10.6498C7.86216 10.6512 7.84606 10.653 7.83013 10.655L7.8284 10.6554C7.35169 10.7215 6.95221 11.0082 6.73506 11.4169C6.69073 11.5003 6.65489 11.5856 6.62805 11.6722C6.60034 11.7615 6.58112 11.8524 6.57091 11.9437V11.9472L6.57056 11.9492L5.72034 19.7909C5.66892 20.2753 6.01905 20.7099 6.50251 20.7613C6.9858 20.8128 7.41922 20.4619 7.47065 19.9773L8.19186 13.326L10.7491 19.8364L10.7539 19.8482L10.755 19.8511L10.76 19.8628L10.765 19.8742L10.7692 19.8834L10.7739 19.8935L10.7789 19.9039L10.7818 19.9101L10.7901 19.9259L10.7908 19.9277L10.7984 19.9416L10.8028 19.9492C10.83 19.9976 10.8611 20.0426 10.8959 20.084L10.8989 20.0873C10.9074 20.0974 10.9158 20.107 10.9247 20.1165C10.9299 20.1221 10.9358 20.1283 10.9411 20.1338C10.9429 20.1356 10.9447 20.1374 10.9465 20.1392C10.9536 20.1464 10.961 20.1535 10.9685 20.1604C10.9777 20.169 10.9876 20.1777 10.9971 20.1859L10.9981 20.1868L11.0014 20.1897C11.0428 20.2246 11.0876 20.256 11.1359 20.2833L11.1437 20.2875L11.1574 20.2949L11.159 20.296L11.1751 20.3041L11.1811 20.3072L11.1917 20.3123L11.2016 20.3168L11.2107 20.3211L11.2222 20.3262L11.2339 20.3308L11.2369 20.3322L11.2487 20.3369C11.3434 20.3741 11.4407 20.3937 11.5368 20.3971L11.5479 20.3975L11.56 20.3977H11.5782L11.5906 20.3975L11.601 20.3971C11.6871 20.394 11.7739 20.378 11.859 20.3482L11.8658 20.3459L11.8848 20.3388L11.8895 20.3369L11.8977 20.3338L11.9067 20.33L11.9162 20.326L11.9271 20.3213L11.9363 20.317L11.9468 20.3121L11.9567 20.3074L11.9638 20.3038L11.9792 20.2958L11.9965 20.2864L12.0003 20.2843C12.0556 20.2533 12.1065 20.2172 12.1526 20.1762L12.1657 20.1642L12.1683 20.162C12.2391 20.0962 12.2997 20.0179 12.3468 19.9289L12.3493 19.9242L12.356 19.9108L12.359 19.9049L12.365 19.8923L12.3688 19.8841L12.3749 19.8706L12.3763 19.8673L12.382 19.8537L12.3891 19.8366L12.3919 19.8296L14.9463 13.326L15.6675 19.9773C15.7188 20.4619 16.1524 20.8128 16.6357 20.7613Z" fill="white"/>
<path fill-rule="evenodd" clip-rule="evenodd" d="M26.0917 17.9543C26.0917 16.9119 25.4477 16.004 24.5149 15.5642C24.9982 15.0604 25.2965 14.3775 25.2965 13.6279C25.2965 12.0883 24.0383 10.8285 22.5005 10.8285H18.8473C18.4442 10.8285 18.1145 11.1588 18.1145 11.5621V19.9258C18.1145 20.3111 18.4503 20.6263 18.8605 20.6263H23.2465C24.8115 20.6263 26.0917 19.4239 26.0917 17.9543ZM22.6338 14.883H21.2413C20.8184 14.883 20.4725 15.2298 20.4725 15.6536C20.4725 16.0774 20.8184 16.424 21.2413 16.424H22.6338V16.4273H23.1854C23.9376 16.4273 24.553 17.0441 24.553 17.7981C24.553 18.552 23.9376 19.1688 23.1854 19.1688H19.6283V12.2284H22.4333C23.1616 12.2284 23.7576 12.8257 23.7576 13.5557C23.7576 14.2175 23.2679 14.7701 22.6338 14.8676V14.883Z" fill="white"/>
</svg>
