<svg width="32" height="32" viewBox="0 0 32 32" fill="none" xmlns="http://www.w3.org/2000/svg">
<rect width="32" height="32" transform="translate(0 0.000244141)" fill="#E70020"/>
<path d="M3.9935 20.4563C3.99264 20.7167 4.04309 20.9747 4.14195 21.2156C4.24081 21.4565 4.38615 21.6756 4.56968 21.8603C4.75321 22.0451 4.97133 22.1919 5.21159 22.2923C5.45185 22.3927 5.70954 22.4449 5.96994 22.4457H26.0154C26.5414 22.444 27.0452 22.2335 27.416 21.8604C27.7867 21.4873 27.9942 20.9823 27.9927 20.4563V11.7342C27.9935 11.4737 27.9431 11.2155 27.8442 10.9745C27.7453 10.7335 27.5998 10.5144 27.4162 10.3295C27.2326 10.1447 27.0144 9.99788 26.7741 9.89739C26.5337 9.79691 26.2759 9.74475 26.0154 9.7439H5.96994C5.70943 9.74475 5.45163 9.79691 5.21128 9.89739C4.97092 9.99788 4.75271 10.1447 4.56911 10.3295C4.3855 10.5144 4.2401 10.7335 4.1412 10.9745C4.04229 11.2155 3.99183 11.4737 3.99269 11.7342V20.4563H3.9935Z" fill="white"/>
<path d="M4.62013 11.594C4.62013 10.8942 5.18227 10.3264 5.8772 10.3264H26.1296C26.4644 10.3281 26.7847 10.4627 27.0203 10.7005C27.2559 10.9384 27.3874 11.2601 27.3859 11.5948V11.6356H4.62013V11.5948M27.3859 20.5719V20.6029C27.3859 21.3035 26.8237 21.8713 26.1296 21.8713H5.87638C5.54162 21.8696 5.22123 21.735 4.98566 21.4972C4.75009 21.2593 4.61861 20.9376 4.62013 20.6029V20.5719H27.3859Z" fill="#FBB110"/>
<path d="M20.3754 16.0855C20.3754 17.8574 21.7995 19.2953 23.556 19.2953C25.3125 19.2953 26.7365 17.8574 26.7365 16.0855C26.7365 14.3119 25.3125 12.8756 23.556 12.8756C21.7995 12.8756 20.3754 14.3119 20.3754 16.0855ZM5.2124 16.0855C5.2124 17.8574 6.63648 19.2953 8.39377 19.2953C10.1494 19.2953 11.5735 17.8574 11.5735 16.0855C11.5735 14.3119 10.1494 12.8756 8.39377 12.8756C6.63648 12.8756 5.2124 14.3119 5.2124 16.0855ZM27.3858 19.9634H11.7039C11.9866 19.7638 12.2497 19.49 12.5373 19.1202L14.1341 17.0631L14.8323 17.9527L15.6087 16.9107L14.93 16.039L16.5553 13.9453C17.0719 13.2805 16.0844 12.4992 15.5687 13.1632L14.1316 15.0149L12.6709 13.1395C12.1536 12.4772 11.1686 13.2593 11.6851 13.9224L13.3365 16.039L11.5499 18.3397C10.9152 19.1568 10.2822 19.9064 9.02434 19.9642H4.62012V12.2426H20.219C19.9502 12.4405 19.6976 12.7053 19.423 13.0589L17.8263 15.116L17.1281 14.2263L16.3525 15.2691L17.0311 16.1408L15.405 18.2346C14.8893 18.8986 15.8759 19.6791 16.3916 19.0151L17.8295 17.1649L19.2903 19.0395C19.8068 19.7027 20.7925 18.9198 20.276 18.2574L18.6247 16.1392L20.4113 13.8402C20.9938 13.0882 21.5763 12.3941 22.6435 12.2434H27.385V19.9642L27.3858 19.9634ZM21.652 16.0855C21.6509 15.8342 21.6992 15.5853 21.7942 15.3527C21.8893 15.1202 22.0292 14.9087 22.206 14.7302C22.3828 14.5517 22.593 14.4098 22.8246 14.3126C23.0563 14.2154 23.3048 14.1648 23.556 14.1636C23.8071 14.1648 24.0556 14.2154 24.2872 14.3126C24.5188 14.4099 24.729 14.5518 24.9057 14.7302C25.0824 14.9087 25.2223 15.1203 25.3172 15.3528C25.4122 15.5853 25.4604 15.8343 25.4591 16.0855C25.4603 16.3365 25.412 16.5854 25.317 16.8179C25.222 17.0503 25.0821 17.2617 24.9054 17.4401C24.7287 17.6185 24.5186 17.7603 24.287 17.8575C24.0555 17.9547 23.8071 18.0053 23.556 18.0065C23.0488 18.0041 22.5633 17.8004 22.2063 17.4402C21.8492 17.0799 21.6499 16.5926 21.652 16.0855ZM6.48983 16.0855C6.48865 15.8342 6.53696 15.5853 6.63201 15.3527C6.72705 15.1202 6.86697 14.9087 7.04376 14.7302C7.22056 14.5517 7.43078 14.4098 7.66241 14.3126C7.89405 14.2154 8.14256 14.1648 8.39377 14.1636C8.90082 14.1664 9.38601 14.3704 9.74271 14.7308C10.0994 15.0911 10.2985 15.5784 10.2961 16.0855C10.2982 16.5925 10.099 17.0797 9.74214 17.4399C9.38528 17.8001 8.9 18.0039 8.39295 18.0065C7.88576 18.0041 7.40027 17.8004 7.04324 17.4402C6.6862 17.0799 6.48767 16.5926 6.48983 16.0855Z" fill="#E70020"/>
</svg>
