<svg width="32" height="32" viewBox="0 0 32 32" fill="none" xmlns="http://www.w3.org/2000/svg">
<rect width="32" height="32" transform="translate(0 0.000244141)" fill="#EBF1F7"/>
<path fill-rule="evenodd" clip-rule="evenodd" d="M18.2806 21.9613L18.1246 22.7784H11.5693L11.8765 21.1631C12.0487 20.2576 12.3477 19.6647 12.7751 19.3837C13.2016 19.1034 14.1295 18.8871 15.5587 18.7363C16.7011 18.6195 17.408 18.46 17.6793 18.2587C17.9515 18.0574 18.1668 17.5363 18.3269 16.6939C18.4675 15.9558 18.4285 15.4774 18.2099 15.2571C17.9913 15.0376 17.4445 14.9271 16.5686 14.9271C15.475 14.9271 14.7681 15.0163 14.448 15.1947C14.1271 15.3724 13.902 15.801 13.7736 16.48L13.6648 17.121H12.6573L12.7491 16.675C12.9441 15.6487 13.304 14.9642 13.8297 14.6224C14.3546 14.2813 15.3085 14.11 16.6905 14.11C17.9174 14.11 18.708 14.2947 19.0598 14.6626C19.4124 15.0321 19.4863 15.7505 19.2832 16.8195C19.0882 17.8458 18.7616 18.5326 18.3025 18.8784C17.8435 19.2234 16.944 19.4571 15.605 19.5787C14.4285 19.6876 13.7111 19.8392 13.4519 20.0318C13.1927 20.2245 12.9782 20.7708 12.8068 21.6724L12.7523 21.9613H18.2806ZM26.9028 14.2134L25.8035 19.9963H27.1645L27.0093 20.8134H25.6483L25.2721 22.7934H24.2468L24.623 20.8134H19.5286L19.7439 19.6766L25.3168 14.2134H26.9028ZM24.7773 19.9963L25.758 14.8355H25.7377L20.5296 19.9963H24.7773Z" fill="#99A0A6"/>
<path fill-rule="evenodd" clip-rule="evenodd" d="M4.65587 14.11L3 22.7626H4.05219L4.70463 19.3521H7.39563L7.80675 19.3458C8.90362 19.3458 9.68606 19.1666 10.1533 18.8066C10.6204 18.4481 10.9487 17.7739 11.138 16.7855C11.3354 15.7537 11.2786 15.0502 10.9682 14.6745C10.6578 14.2979 9.97612 14.11 8.92475 14.11H4.65587ZM7.355 18.5287H4.86225L5.55044 14.9342H8.37794L8.77931 14.9405C9.52194 14.9405 9.97044 15.0518 10.1256 15.2737C10.2816 15.4955 10.2792 16.0245 10.1191 16.8613C9.98263 17.575 9.74862 18.0321 9.41712 18.2302C9.08562 18.4292 8.39744 18.5287 7.355 18.5287Z" fill="#D40E2B"/>
<path fill-rule="evenodd" clip-rule="evenodd" d="M9.14228 10.96L8.12991 10.2889C9.32273 9.71754 10.567 9.25375 11.8471 8.9034L12.0323 9.81761C11.1183 10.0781 10.153 10.4492 9.14228 10.96ZM20.6229 10.4579C19.6827 9.9809 18.6743 9.64348 17.6313 9.45682L18.4487 8.00024H18.4714C20.8333 8.0113 22.7127 8.30814 24.1922 8.72182L20.6229 10.4579ZM7.20853 10.7595L8.24284 11.4589C7.77159 11.7297 7.28978 12.0305 6.79984 12.3645H4.79297C4.79297 12.3645 5.62334 11.6271 7.20853 10.7595ZM17.2348 8.05077L16.7505 9.34156C15.5765 9.22077 14.2293 9.26577 12.7343 9.60524L12.597 8.68156C14.1177 8.32288 15.6712 8.11212 17.2348 8.05077ZM26.0748 9.35498C28.2157 10.2929 28.9998 11.361 28.9998 11.361H22.0789C22.0789 11.361 21.8522 11.1637 21.4208 10.8881L26.0748 9.35498Z" fill="#99A0A6"/>
</svg>
