<svg width="32" height="32" viewBox="0 0 32 32" fill="none" xmlns="http://www.w3.org/2000/svg">
<rect width="32" height="32" transform="translate(0 0.000244141)" fill="#10298D"/>
<path fill-rule="evenodd" clip-rule="evenodd" d="M27.4853 18.4207H24.736L24.3659 19.762H22.2396L24.533 12.0002H27.6375L29.9615 19.762H27.879L27.4861 18.4207H27.4853ZM27.0766 16.9087L26.1141 13.5442L25.1779 16.9087H27.0766ZM16.6248 19.762V12.0002H20.4555C20.9814 12.0002 21.383 12.0447 21.6577 12.1309C22.2878 12.3318 22.7104 12.7425 22.9274 13.3629C23.0394 13.6882 23.0954 14.1789 23.0954 14.834C23.0954 15.6216 23.0341 16.1869 22.9116 16.5318C22.6649 17.2127 22.1591 17.6047 21.3953 17.7069C21.3051 17.722 20.9228 17.7354 20.249 17.7469L19.9077 17.7585H18.681V19.762H16.6248ZM18.681 15.9576H19.9629C20.3697 15.9425 20.6165 15.9105 20.7066 15.8616C20.8274 15.7931 20.9088 15.6571 20.949 15.4536C20.9753 15.3176 20.9884 15.1158 20.9884 14.8491C20.9884 14.5202 20.963 14.2767 20.9105 14.1176C20.837 13.8954 20.6594 13.7594 20.3794 13.7105C20.2466 13.6998 20.1135 13.696 19.9804 13.6989H18.681V15.9576ZM8.2125 14.4767H6.29887C6.29887 14.1567 6.26125 13.9434 6.18862 13.8349C6.07487 13.6731 5.75987 13.5931 5.24712 13.5931C4.7475 13.5931 4.41587 13.6394 4.254 13.7318C4.093 13.8251 4.0125 14.0278 4.0125 14.3407C4.0125 14.6234 4.08425 14.8091 4.22688 14.898C4.33013 14.9602 4.46487 14.9985 4.63462 15.01L5.02137 15.0367C5.53812 15.0692 6.05441 15.1086 6.57013 15.1549C7.22463 15.2216 7.69712 15.3985 7.992 15.6847C8.223 15.9069 8.36213 16.2002 8.40588 16.5602C8.43125 16.7762 8.4435 17.0198 8.4435 17.2909C8.4435 17.9158 8.38575 18.3736 8.2685 18.6642C8.055 19.1958 7.5755 19.5318 6.83087 19.6731C6.51937 19.7327 6.04338 19.762 5.40025 19.762C4.32925 19.762 3.582 19.698 3.16025 19.5665C2.644 19.4082 2.30275 19.0847 2.13737 18.5976C2.04462 18.3282 2 17.8776 2 17.2447H3.9145V17.4065C3.9145 17.7434 4.00987 17.9602 4.20062 18.0554C4.33187 18.1229 4.49113 18.1576 4.67838 18.162H5.38188C5.74062 18.162 5.969 18.1434 6.06875 18.106C6.24375 18.0349 6.35925 17.9229 6.41525 17.7665C6.44325 17.6687 6.459 17.5442 6.459 17.3922C6.459 17.0509 6.3365 16.8429 6.09062 16.7682C5.99875 16.7389 5.57175 16.6971 4.8105 16.6456C4.19975 16.6011 3.77538 16.5585 3.53737 16.5176C2.91087 16.3985 2.49262 16.1531 2.28525 15.7816C2.1015 15.466 2.00962 14.9887 2.00962 14.3496C2.00962 13.8625 2.06037 13.4722 2.15837 13.1789C2.25725 12.8856 2.4165 12.6625 2.63788 12.5105C2.959 12.2758 3.37287 12.1389 3.87513 12.098C4.33786 12.0589 4.80204 12.0402 5.26638 12.042C6.06875 12.042 6.641 12.0882 6.98313 12.1816C7.81613 12.4091 8.23088 13.0456 8.23088 14.0909C8.23088 14.1771 8.22563 14.3042 8.21338 14.4767H8.2125Z" fill="white"/>
<path fill-rule="evenodd" clip-rule="evenodd" d="M13.7861 13.0927C14.6349 13.0927 15.3909 13.49 15.8887 14.1114L16.3324 13.146C15.6084 12.4523 14.6501 12.067 13.6549 12.0696C12.0344 12.0696 10.6484 13.0643 10.0796 14.4714H9.2151L8.7041 15.5825H9.81623C9.79738 15.8121 9.79914 16.043 9.82148 16.2723H9.26235L8.75223 17.3834H10.1059C10.6904 18.7558 12.0597 19.7185 13.6549 19.7185C14.4581 19.7185 15.2045 19.474 15.8214 19.0563V17.6936C15.3082 18.2903 14.5661 18.6326 13.7861 18.6323C12.8718 18.6313 12.0197 18.162 11.5199 17.3843H14.3522L14.8632 16.2723H11.1016C11.0688 16.0438 11.0635 15.8122 11.0859 15.5825H15.1791L15.6892 14.4714H11.4394C11.9231 13.6191 12.8176 13.0936 13.7861 13.0927Z" fill="#FFCC02"/>
</svg>
