<svg width="32" height="32" viewBox="0 0 32 32" fill="none" xmlns="http://www.w3.org/2000/svg">
<rect width="32" height="32" transform="translate(0 0.000244141)" fill="#F0F5F7"/>
<path d="M12.7102 18.2945C12.5986 18.3499 12.4749 18.3778 12.3497 18.3757C12.0593 18.3763 11.7924 18.2197 11.6563 17.9688L11.6007 17.8604L9.40935 13.1944C9.38672 13.1432 9.37718 13.0873 9.38156 13.0316C9.37897 12.9301 9.41904 12.8321 9.49243 12.7603C9.56582 12.6885 9.6661 12.6493 9.76985 12.6519C9.8595 12.6539 9.94646 12.6822 10.0195 12.7332L12.5993 14.5236C12.8002 14.6431 13.0299 14.7087 13.265 14.7136C13.4078 14.7128 13.549 14.6852 13.6811 14.6323L25.7768 9.36946C23.5843 6.8465 20.006 5.21887 15.9836 5.21887C9.35377 5.21887 4 9.58638 4 14.9849C4 17.9147 5.60901 20.5733 8.13331 22.3648C8.42953 22.5495 8.54682 22.916 8.4112 23.2329C8.21693 23.9654 7.88421 25.16 7.88421 25.2133C7.84988 25.3094 7.83112 25.4101 7.82863 25.5118C7.8264 25.613 7.86656 25.7106 7.9398 25.7821C8.01303 25.8536 8.11298 25.8927 8.21642 25.8903C8.29836 25.8924 8.37792 25.8633 8.43823 25.809L11.0459 24.3165C11.2384 24.2008 11.458 24.1354 11.6838 24.1265C11.8057 24.1313 11.9266 24.1496 12.0443 24.1809C13.3149 24.5435 14.632 24.7265 15.9555 24.7244C22.5576 24.7244 27.9391 20.3569 27.9391 14.9584C27.9283 13.3537 27.4574 11.7841 26.58 10.4281L12.7936 18.2404L12.7102 18.2945Z" fill="#1AAD19"/>
</svg>
